<svg width="570" height="816" viewBox="0.00 0.00 428.76 184.74" xmlns="http://www.w3.org/2000/svg" xmlns:xlink="http://www.w3.org/1999/xlink">
<g id="graph0" class="graph" transform="translate(4,180.7400067138672) scale(1)">
<polygon fill="white" stroke="none" points="-4,4 -4,-180.74 424.76,-180.74 424.76,4 -4,4"/>
<text text-anchor="middle" x="210.38" y="-8.2" font-family="Helvetica,sans-Serif" font-size="14.00">1 2 1 3 2 4 3 4</text>
<!-- 1 -->
<!-- 2 -->
<g id="node3" class="node">
<title>1</title>
<polygon fill="none" stroke="black" points="117,-124.8 90,-106.8 117,-88.8 144,-106.8 117,-124.8"/>
<text text-anchor="middle" x="117" y="-102.6" font-family="Helvetica,sans-Serif" font-size="14.00">1</text>
</g>
<!-- 1&#45;&#45;2 -->
<g id="edge1" class="edge">
<title>a:e-&gt;1:w</title>
<path fill="none" stroke="black" d="M54,-106.8C65.38,-106.8 70.68,-106.8 78.55,-106.8"/>
<polygon fill="black" stroke="black" points="78.49,-110.3 88.49,-106.8 78.49,-103.3 78.49,-110.3"/>
</g>
<!-- 3 -->
<!-- 2&#45;&#45;3 -->
<g id="node4" class="node">
<title>2</title>
<polygon fill="none" stroke="black" points="207,-106.8 180,-88.8 207,-70.8 234,-88.8 207,-106.8"/>
<text text-anchor="middle" x="207" y="-84.6" font-family="Helvetica,sans-Serif" font-size="14.00">2</text>
</g>
<!-- 4 -->
<g id="edge2" class="edge">
<title>1:e-&gt;2:w</title>
<path fill="none" stroke="rgb(0, 0, 0)" d="M144,-106.8C157.28,-106.8 160.82,-96.88 169.08,-91.77"/>
<polygon fill="black" stroke="black" points="169.81,-95.2 178.54,-89.2 167.97,-88.45 169.81,-95.2"/>
</g>
<!-- 2&#45;&#45;4 -->
<g id="node5" class="node">
<title>3</title>
<polygon fill="none" stroke="black" points="387,-119.8 360,-101.8 387,-83.8 414,-101.8 387,-119.8"/>
<text text-anchor="middle" x="387" y="-97.6" font-family="Helvetica,sans-Serif" font-size="14.00">3</text>
</g>
<!-- 5 -->
<g id="edge4" class="edge">
<title>1:n-&gt;3:w</title>
<path fill="none" stroke="black" d="M117,-126.12C117,-218.14 237.22,-161.41 324,-130.8 338.83,-125.57 340.01,-111.35 348.97,-104.97"/>
<polygon fill="black" stroke="black" points="349.9,-108.34 358.55,-102.22 347.97,-101.62 349.9,-108.34"/>
</g>
<!-- 2&#45;&#45;4 -->
<g id="edge3" class="edge">
<title>2:e-&gt;1:s</title>
<path fill="none" stroke="black" d="M235.81,-88.8C258,-88.8 256.58,-125.17 180,-106.8 162.54,-102.61 161.38,-92.99 144,-88.48 138.64,-87.09 132.49,-84.22 127.41,-82.7"/>
<polygon fill="black" stroke="black" points="126,-79.49 118.38,-86.85 128.92,-85.86 126,-79.49"/>
</g>
<!-- 4 -->
<g id="node6" class="node">
<title>4</title>
<polygon fill="none" stroke="black" points="297,-78.8 270,-60.8 297,-42.8 324,-60.8 297,-78.8"/>
<text text-anchor="middle" x="297" y="-56.6" font-family="Helvetica,sans-Serif" font-size="14.00">4</text>
</g>
<!-- 3&#45;&#45;4 -->
<g id="edge6" class="edge">
<title>2:s-&gt;4:w</title>
<path fill="none" stroke="black" d="M207,-69.48C207,-44.86 233.36,-56.55 258.84,-59.97"/>
<polygon fill="black" stroke="black" points="258.26,-63.43 268.49,-60.69 258.78,-56.45 258.26,-63.43"/>
</g>
<!-- 3&#45;&#45;4 -->
<g id="edge5" class="edge">
<title>3:e-&gt;2:n</title>
<path fill="none" stroke="black" d="M415.81,-101.8C423.83,-101.8 420.63,-114.29 414.81,-119.8 400.11,-133.71 252.03,-132.04 215.24,-115.91"/>
<polygon fill="black" stroke="black" points="217.77,-113.49 208.1,-109.16 212.96,-118.58 217.77,-113.49"/>
</g>
<!-- 4&#45;&#45;1 -->
<g id="edge8" class="edge">
<title>3:n-&gt;4:n</title>
<path fill="none" stroke="black" d="M387,-121.12C387,-133.13 371.31,-124.16 360,-120.12 341.08,-113.36 341.19,-103.2 324,-92.8 317.62,-88.94 309.87,-89.61 304.32,-88.57"/>
<polygon fill="black" stroke="black" points="307.18,-86.53 297.99,-81.26 301.89,-91.11 307.18,-86.53"/>
</g>
<!-- b -->
<g id="edge9" class="edge">
<title>4:s-&gt;b:w</title>
<path fill="none" stroke="black" d="M297,-41.48C297,-17.19 323.32,-36.02 348.57,-41.45"/>
<polygon fill="black" stroke="black" points="348.16,-44.93 358.5,-42.62 348.98,-37.97 348.16,-44.93"/>
</g>
<!-- 4&#45;&#45;b -->
<g id="edge7" class="edge">
<title>4:e-&gt;3:s</title>
<path fill="none" stroke="black" d="M324,-60.8C326.73,-60.8 359.77,-70.6 376.87,-77.22"/>
<polygon fill="black" stroke="black" points="375.17,-80.28 385.66,-81.78 378.4,-74.06 375.17,-80.28"/>
</g>
</g>
</svg>