<svg width="570" height="816" viewBox="0.00 0.00 422 133.74" xmlns="http://www.w3.org/2000/svg" xmlns:xlink="http://www.w3.org/1999/xlink">
<g id="graph0" class="graph" transform="translate(4,129.74000671386716) scale(1)">
<polygon fill="white" stroke="none" points="-4,4 -4,-129.74 418,-129.74 418,4 -4,4"/>
<!-- 1 -->
<!-- 2 -->
<g id="node3" class="node">
<title>1</title>
<polygon fill="none" stroke="black" points="117,-89.74 90,-71.74 117,-53.74 144,-71.74 117,-89.74"/>
<text text-anchor="middle" x="117" y="-67.54" font-family="Helvetica,sans-Serif" font-size="14.00">1</text>
</g>
<!-- 1&#45;&#45;2 -->
<g id="edge1" class="edge">
<title>a:e-&gt;1:w</title>
<path fill="none" stroke="black" d="M54,-71.74C65.38,-71.74 70.68,-71.74 78.55,-71.74"/>
<polygon fill="black" stroke="black" points="78.49,-75.24 88.49,-71.74 78.49,-68.24 78.49,-75.24"/>
</g>
<!-- 3 -->
<!-- 2&#45;&#45;3 -->
<g id="node4" class="node">
<title>2</title>
<polygon fill="none" stroke="black" points="207,-89.74 180,-71.74 207,-53.74 234,-71.74 207,-89.74"/>
<text text-anchor="middle" x="207" y="-67.54" font-family="Helvetica,sans-Serif" font-size="14.00">2</text>
</g>
<!-- 4 -->
<g id="edge2" class="edge">
<title>1:e-&gt;2:w</title>
<path fill="none" stroke="rgb(0, 0, 0)" d="M144,-71.74C155.38,-71.74 160.68,-71.74 168.55,-71.74"/>
<polygon fill="black" stroke="black" points="168.49,-75.24 178.49,-71.74 168.49,-68.24 168.49,-75.24"/>
</g>
<!-- 2&#45;&#45;4 -->
<g id="node5" class="node">
<title>3</title>
<polygon fill="none" stroke="black" points="297,-107.74 270,-89.74 297,-71.74 324,-89.74 297,-107.74"/>
<text text-anchor="middle" x="297" y="-85.54" font-family="Helvetica,sans-Serif" font-size="14.00">3</text>
</g>
<!-- 5 -->
<g id="edge6" class="edge">
<title>1:s-&gt;3:s</title>
<path fill="none" stroke="black" d="M117,-52.41C117,24.06 279.85,11.51 295.75,-59.09"/>
<polygon fill="black" stroke="black" points="292.26,-59.35 296.83,-68.91 299.22,-58.59 292.26,-59.35"/>
</g>
<!-- 2&#45;&#45;4 -->
<g id="edge3" class="edge">
<title>2:e-&gt;2:s</title>
<path fill="none" stroke="black" d="M234.81,-71.74C257.31,-59.74 257.31,-35.74 220.91,-35.74 191.61,-35.74 185.89,-43.51 196.49,-49.5"/>
<polygon fill="black" stroke="black" points="194.99,-52.67 205.58,-52.89 197.43,-46.11 194.99,-52.67"/>
</g>
<!-- 4 -->
<g id="edge4" class="edge">
<title>2:n-&gt;3:w</title>
<path fill="none" stroke="rgb(0, 0, 0)" d="M207,-91.06C207,-115.34 233.32,-96.51 258.57,-91.08"/>
<polygon fill="black" stroke="black" points="258.98,-94.56 268.5,-89.91 258.16,-87.61 258.98,-94.56"/>
</g>
<!-- 3&#45;&#45;4 -->
<g id="edge7" class="edge">
<title>3:n-&gt;b:w</title>
<path fill="none" stroke="black" d="M297,-109.06C297,-133.34 323.32,-114.51 348.57,-109.08"/>
<polygon fill="black" stroke="black" points="348.98,-112.56 358.5,-107.91 348.16,-105.61 348.98,-112.56"/>
</g>
<!-- 3&#45;&#45;4 -->
<g id="edge5" class="edge">
<title>3:e-&gt;1:n</title>
<path fill="none" stroke="black" d="M325.81,-89.74C333.83,-89.74 330.63,-102.23 324.81,-107.74 307.12,-124.48 294.33,-108.95 270,-107.74 246.61,-106.57 158.64,-98.59 127.78,-93.71"/>
<polygon fill="black" stroke="black" points="129.02,-90.41 118.47,-91.42 127.34,-97.21 129.02,-90.41"/>
</g>
</g>
</svg>