<svg width="570" height="816" viewBox="0.00 0.00 348.82 129.47" xmlns="http://www.w3.org/2000/svg" xmlns:xlink="http://www.w3.org/1999/xlink">
<g id="graph0" class="graph" transform="translate(4,125.47000244140622) scale(1)">
<polygon fill="white" stroke="none" points="-4,4 -4,-125.47 344.82,-125.47 344.82,4 -4,4"/>
<!-- 1 -->
<!-- 2 -->
<g id="node3" class="node">
<title>1</title>
<polygon fill="none" stroke="black" points="117,-67.47 90,-49.47 117,-31.47 144,-49.47 117,-67.47"/>
<text text-anchor="middle" x="117" y="-45.27" font-family="Helvetica,sans-Serif" font-size="14.00">1</text>
</g>
<!-- 1&#45;&#45;2 -->
<g id="edge1" class="edge">
<title>a:e-&gt;1:w</title>
<path fill="none" stroke="black" d="M54,-49.47C65.38,-49.47 70.68,-49.47 78.55,-49.47"/>
<polygon fill="black" stroke="black" points="78.49,-52.97 88.49,-49.47 78.49,-45.97 78.49,-52.97"/>
</g>
<!-- 3 -->
<!-- 2&#45;&#45;3 -->
<g id="node4" class="node">
<title>2</title>
<polygon fill="none" stroke="black" points="207,-67.47 180,-49.47 207,-31.47 234,-49.47 207,-67.47"/>
<text text-anchor="middle" x="207" y="-45.27" font-family="Helvetica,sans-Serif" font-size="14.00">2</text>
</g>
<!-- 4 -->
<g id="edge2" class="edge">
<title>1:e-&gt;2:w</title>
<path fill="none" stroke="rgb(0, 0, 0)" d="M144,-49.47C155.38,-49.47 160.68,-49.47 168.55,-49.47"/>
<polygon fill="black" stroke="black" points="168.49,-52.97 178.49,-49.47 168.49,-45.97 168.49,-52.97"/>
</g>
<!-- 2&#45;&#45;4 -->
<g id="edge6" class="edge">
<title>1:s-&gt;2:s</title>
<path fill="none" stroke="black" d="M117,-30.15C117,5.79 189.65,9.44 204.4,-19.2"/>
<polygon fill="black" stroke="black" points="200.94,-19.75 206.65,-28.67 207.75,-18.14 200.94,-19.75"/>
</g>
<!-- 5 -->
<g id="edge7" class="edge">
<title>2:n-&gt;b:w</title>
<path fill="none" stroke="black" d="M207,-68.79C207,-97 231.19,-102.43 258.85,-103.31"/>
<polygon fill="black" stroke="black" points="258.44,-106.81 268.49,-103.45 258.54,-99.81 258.44,-106.81"/>
</g>
<!-- 2&#45;&#45;4 -->
<g id="node5" class="node">
<title>3</title>
<polygon fill="none" stroke="black" points="297,-67.47 270,-49.47 297,-31.47 324,-49.47 297,-67.47"/>
<text text-anchor="middle" x="297" y="-45.27" font-family="Helvetica,sans-Serif" font-size="14.00">3</text>
</g>
<!-- 4 -->
<g id="edge3" class="edge">
<title>2:e-&gt;3:w</title>
<path fill="none" stroke="black" d="M234,-49.47C245.38,-49.47 250.68,-49.47 258.55,-49.47"/>
<polygon fill="black" stroke="black" points="258.49,-52.97 268.49,-49.47 258.49,-45.97 258.49,-52.97"/>
</g>
<!-- 3&#45;&#45;4 -->
<g id="edge5" class="edge">
<title>3:n-&gt;1:n</title>
<path fill="none" stroke="rgb(0, 0, 0)" d="M297,-68.79C297,-75.84 241.04,-76.04 234,-76.47 210.04,-77.92 203.96,-77.92 180,-76.47 156.9,-75.07 129.31,-89.78 120.13,-79.54"/>
<polygon fill="black" stroke="black" points="123.58,-78.86 117.42,-70.24 116.86,-80.82 123.58,-78.86"/>
</g>
<!-- 3&#45;&#45;4 -->
<g id="edge4" class="edge">
<title>3:e-&gt;3:s</title>
<path fill="none" stroke="black" d="M324.81,-49.47C347.31,-37.47 347.31,-13.47 310.91,-13.47 281.61,-13.47 275.89,-21.24 286.49,-27.23"/>
<polygon fill="black" stroke="black" points="284.99,-30.41 295.58,-30.62 287.43,-23.85 284.99,-30.41"/>
</g>
</g>
</svg>