<svg width="570" height="816" viewBox="0.00 0.00 258.82 129.47" xmlns="http://www.w3.org/2000/svg" xmlns:xlink="http://www.w3.org/1999/xlink">
<g id="graph0" class="graph" transform="translate(9.334639468152744,124.71870314065352) scale(0.9619274546647747)">
<polygon fill="white" stroke="none" points="-4,4 -4,-125.47 254.82,-125.47 254.82,4 -4,4"/>
<!-- 1 -->
<!-- 2 -->
<g id="node3" class="node">
<title>1</title>
<polygon fill="none" stroke="black" points="117,-90 90,-72 117,-54 144,-72 117,-90"/>
<text text-anchor="middle" x="117" y="-67.8" font-family="Helvetica,sans-Serif" font-size="14.00">1</text>
</g>
<!-- 1&#45;&#45;2 -->
<g id="edge1" class="edge">
<title>a:e-&gt;1:w</title>
<path fill="none" stroke="black" d="M54,-72C65.38,-72 70.68,-72 78.55,-72"/>
<polygon fill="black" stroke="black" points="78.49,-75.5 88.49,-72 78.49,-68.5 78.49,-75.5"/>
</g>
<!-- 3 -->
<!-- 2&#45;&#45;3 -->
<g id="edge5" class="edge">
<title>1:s-&gt;b:w</title>
<path fill="none" stroke="black" d="M117,-52.68C117,-24.46 141.19,-19.04 168.85,-18.15"/>
<polygon fill="black" stroke="black" points="168.54,-21.66 178.49,-18.02 168.44,-14.66 168.54,-21.66"/>
</g>
<!-- 4 -->
<g id="node4" class="node">
<title>2</title>
<polygon fill="none" stroke="black" points="207,-90 180,-72 207,-54 234,-72 207,-90"/>
<text text-anchor="middle" x="207" y="-67.8" font-family="Helvetica,sans-Serif" font-size="14.00">2</text>
</g>
<!-- 2&#45;&#45;4 -->
<g id="edge2" class="edge">
<title>1:e-&gt;2:w</title>
<path fill="none" stroke="rgb(0, 0, 0)" d="M144,-72C155.38,-72 160.68,-72 168.55,-72"/>
<polygon fill="black" stroke="black" points="168.49,-75.5 178.49,-72 168.49,-68.5 168.49,-75.5"/>
</g>
<!-- 5 -->
<g id="edge4" class="edge">
<title>2:n-&gt;1:n</title>
<path fill="none" stroke="black" d="M207,-91.32C207,-127.26 134.35,-130.91 119.6,-102.27"/>
<polygon fill="black" stroke="black" points="123.06,-101.72 117.35,-92.79 116.25,-103.33 123.06,-101.72"/>
</g>
<!-- 2&#45;&#45;4 -->
<g id="edge3" class="edge">
<title>2:e-&gt;2:s</title>
<path fill="none" stroke="black" d="M234.81,-72C257.31,-60 257.31,-36 220.91,-36 191.61,-36 185.89,-43.77 196.49,-49.76"/>
<polygon fill="black" stroke="black" points="194.99,-52.94 205.58,-53.15 197.43,-46.38 194.99,-52.94"/>
</g>
</g>
</svg>