<?xml version="1.0" encoding="UTF-8" standalone="no"?>
<!DOCTYPE svg PUBLIC "-//W3C//DTD SVG 1.1//EN"
 "http://www.w3.org/Graphics/SVG/1.1/DTD/svg11.dtd">
<!-- Generated by graphviz version 12.2.1 (20241206.2353)
 -->
<!-- Pages: 1 -->
<svg width="185pt" height="711pt"
 viewBox="0.00 0.00 184.50 711.25" xmlns="http://www.w3.org/2000/svg" xmlns:xlink="http://www.w3.org/1999/xlink">
<g id="graph0" class="graph" transform="scale(1 1) rotate(0) translate(4 707.25)">
<polygon fill="white" stroke="none" points="-4,4 -4,-707.25 180.5,-707.25 180.5,4 -4,4"/>
<text text-anchor="middle" x="88.25" y="-145.95" font-family="Helvetica,sans-Serif" font-size="14.00">1 1 2 3 4 2 5 3 4 5 6 6 </text>
<text text-anchor="middle" x="88.25" y="-128.7" font-family="Helvetica,sans-Serif" font-size="14.00">A double occurrence word</text>
<text text-anchor="middle" x="88.25" y="-111.45" font-family="Helvetica,sans-Serif" font-size="14.00">Already in ascending order</text>
<text text-anchor="middle" x="88.25" y="-94.2" font-family="Helvetica,sans-Serif" font-size="14.00">Palindrome: yes</text>
<text text-anchor="middle" x="88.25" y="-76.95" font-family="Helvetica,sans-Serif" font-size="14.00">Semi&#45;palindrome: yes</text>
<text text-anchor="middle" x="88.25" y="-59.7" font-family="Helvetica,sans-Serif" font-size="14.00">Irreducible: no</text>
<text text-anchor="middle" x="88.25" y="-42.45" font-family="Helvetica,sans-Serif" font-size="14.00">Strongly&#45;irreducible: no</text>
<text text-anchor="middle" x="88.25" y="-25.2" font-family="Helvetica,sans-Serif" font-size="14.00">Assembly number: 2</text>
<text text-anchor="middle" x="88.25" y="-7.95" font-family="Helvetica,sans-Serif" font-size="14.00">Unrealizable</text>
<!-- a -->
<!-- 1 -->
<g id="node3" class="node">
<title>1</title>
<polygon fill="none" stroke="black" points="52.61,-631.25 25.61,-613.25 52.61,-595.25 79.61,-613.25 52.61,-631.25"/>
<text text-anchor="middle" x="52.61" y="-608.58" font-family="Helvetica,sans-Serif" font-size="14.00">1</text>
</g>
<!-- a&#45;&gt;1 -->
<g id="edge1" class="edge">
<title>a:s&#45;&gt;1:n</title>
<path fill="none" stroke="black" d="M52.61,-667.25C52.61,-655.88 52.61,-650.57 52.61,-642.7"/>
<polygon fill="black" stroke="black" points="56.11,-642.76 52.61,-632.76 49.11,-642.76 56.11,-642.76"/>
</g>
<!-- b -->
<!-- 1&#45;&gt;1 -->
<g id="edge2" class="edge">
<title>1:s&#45;&gt;1:w</title>
<path fill="none" stroke="black" d="M52.61,-594.93C37.61,-576.93 7.61,-576.93 7.61,-604.09 7.61,-624.46 14.36,-629.55 19.92,-623.23"/>
<polygon fill="black" stroke="black" points="22.89,-625.13 24.13,-614.61 16.6,-622.06 22.89,-625.13"/>
</g>
<!-- 2 -->
<g id="node4" class="node">
<title>2</title>
<polygon fill="none" stroke="black" points="79.61,-559.25 52.61,-541.25 79.61,-523.25 106.61,-541.25 79.61,-559.25"/>
<text text-anchor="middle" x="79.61" y="-536.58" font-family="Helvetica,sans-Serif" font-size="14.00">2</text>
</g>
<!-- 1&#45;&gt;2 -->
<g id="edge3" class="edge">
<title>1:e&#45;&gt;2:n</title>
<path fill="none" stroke="black" d="M81.42,-613.25C101.77,-613.25 86.32,-591.7 81.14,-570.51"/>
<polygon fill="black" stroke="black" points="84.62,-570.19 79.81,-560.75 77.69,-571.13 84.62,-570.19"/>
</g>
<!-- 3 -->
<g id="node5" class="node">
<title>3</title>
<polygon fill="none" stroke="black" points="79.61,-487.25 52.61,-469.25 79.61,-451.25 106.61,-469.25 79.61,-487.25"/>
<text text-anchor="middle" x="79.61" y="-464.57" font-family="Helvetica,sans-Serif" font-size="14.00">3</text>
</g>
<!-- 2&#45;&gt;3 -->
<g id="edge4" class="edge">
<title>2:s&#45;&gt;3:n</title>
<path fill="none" stroke="black" d="M79.61,-523.25C79.61,-511.88 79.61,-506.57 79.61,-498.7"/>
<polygon fill="black" stroke="black" points="83.11,-498.76 79.61,-488.76 76.11,-498.76 83.11,-498.76"/>
</g>
<!-- 5 -->
<g id="node7" class="node">
<title>5</title>
<polygon fill="none" stroke="black" points="52.61,-343.25 25.61,-325.25 52.61,-307.25 79.61,-325.25 52.61,-343.25"/>
<text text-anchor="middle" x="52.61" y="-320.57" font-family="Helvetica,sans-Serif" font-size="14.00">5</text>
</g>
<!-- 2&#45;&gt;5 -->
<g id="edge7" class="edge">
<title>2:w&#45;&gt;5:n</title>
<path fill="none" stroke="black" d="M50.79,-541.25C28.09,-541.25 48.88,-407.19 52.18,-354.5"/>
<polygon fill="black" stroke="black" points="55.67,-354.89 52.55,-344.76 48.67,-354.62 55.67,-354.89"/>
</g>
<!-- 4 -->
<g id="node6" class="node">
<title>4</title>
<polygon fill="none" stroke="black" points="107.61,-415.25 80.61,-397.25 107.61,-379.25 134.61,-397.25 107.61,-415.25"/>
<text text-anchor="middle" x="107.61" y="-392.57" font-family="Helvetica,sans-Serif" font-size="14.00">4</text>
</g>
<!-- 3&#45;&gt;4 -->
<g id="edge5" class="edge">
<title>3:s&#45;&gt;4:n</title>
<path fill="none" stroke="black" d="M79.61,-451.25C79.61,-435.73 96.02,-434.75 103.71,-426.05"/>
<polygon fill="black" stroke="black" points="106.99,-427.27 107.09,-416.67 100.41,-424.89 106.99,-427.27"/>
</g>
<!-- 3&#45;&gt;4 -->
<g id="edge9" class="edge">
<title>3:e&#45;&gt;4:e</title>
<path fill="none" stroke="black" d="M108.42,-469.25C111.77,-469.25 134.56,-418.49 135.42,-415.25 136,-413.07 136.96,-410.7 137.87,-408.4"/>
<polygon fill="black" stroke="black" points="141.38,-408.21 136.61,-398.75 134.44,-409.12 141.38,-408.21"/>
</g>
<!-- 4&#45;&gt;2 -->
<g id="edge6" class="edge">
<title>4:s&#45;&gt;2:e</title>
<path fill="none" stroke="black" d="M107.61,-377.93C107.61,-365.92 126.27,-370.28 134.61,-378.93 182.54,-428.67 181.75,-529.42 119.79,-540.29"/>
<polygon fill="black" stroke="black" points="119.6,-536.8 109.93,-541.12 120.18,-543.77 119.6,-536.8"/>
</g>
<!-- 4&#45;&gt;5 -->
<g id="edge10" class="edge">
<title>4:w&#45;&gt;5:w</title>
<path fill="none" stroke="black" d="M78.79,-397.25C69.13,-397.25 73.03,-386.46 66.61,-379.25 50.3,-360.94 35.63,-365.25 24.79,-343.25 23.74,-341.12 22.52,-338.66 21.53,-336.27"/>
<polygon fill="black" stroke="black" points="24.91,-337.23 23.49,-326.73 18.05,-335.83 24.91,-337.23"/>
</g>
<!-- 5&#45;&gt;3 -->
<g id="edge8" class="edge">
<title>5:s&#45;&gt;3:w</title>
<path fill="none" stroke="black" d="M52.61,-305.93C52.61,-293.92 71.27,-298.28 79.61,-306.93 90.81,-318.55 81.63,-327.24 79.61,-343.25 76.49,-367.84 55.59,-426.76 51.79,-451.25 51.47,-453.35 50.68,-455.61 49.85,-457.79"/>
<polygon fill="black" stroke="black" points="46.36,-458.06 50.67,-467.74 53.33,-457.49 46.36,-458.06"/>
</g>
<!-- 6 -->
<g id="node8" class="node">
<title>6</title>
<polygon fill="none" stroke="black" points="79.61,-271.25 52.61,-253.25 79.61,-235.25 106.61,-253.25 79.61,-271.25"/>
<text text-anchor="middle" x="79.61" y="-248.57" font-family="Helvetica,sans-Serif" font-size="14.00">6</text>
</g>
<!-- 5&#45;&gt;6 -->
<g id="edge11" class="edge">
<title>5:e&#45;&gt;6:n</title>
<path fill="none" stroke="black" d="M81.42,-325.25C101.77,-325.25 86.32,-303.7 81.14,-282.51"/>
<polygon fill="black" stroke="black" points="84.62,-282.19 79.81,-272.75 77.69,-283.13 84.62,-282.19"/>
</g>
<!-- 6&#45;&gt;b -->
<g id="edge13" class="edge">
<title>6:w&#45;&gt;b:n</title>
<path fill="none" stroke="black" d="M50.79,-253.25C30.44,-253.25 45.89,-231.7 51.07,-210.51"/>
<polygon fill="black" stroke="black" points="54.52,-211.13 52.4,-200.75 47.59,-210.19 54.52,-211.13"/>
</g>
<!-- 6&#45;&gt;6 -->
<g id="edge12" class="edge">
<title>6:s&#45;&gt;6:e</title>
<path fill="none" stroke="black" d="M79.61,-234.93C94.61,-216.93 124.61,-216.93 124.61,-244.09 124.61,-264.46 117.86,-269.55 112.29,-263.23"/>
<polygon fill="black" stroke="black" points="115.61,-262.06 108.08,-254.61 109.32,-265.13 115.61,-262.06"/>
</g>
</g>
</svg>
