<?xml version="1.0" encoding="UTF-8" standalone="no"?>
<!DOCTYPE svg PUBLIC "-//W3C//DTD SVG 1.1//EN"
 "http://www.w3.org/Graphics/SVG/1.1/DTD/svg11.dtd">
<!-- Generated by graphviz version 12.2.1 (20241206.2353)
 -->
<!-- Pages: 1 -->
<svg width="185pt" height="711pt"
 viewBox="0.00 0.00 184.50 711.25" xmlns="http://www.w3.org/2000/svg" xmlns:xlink="http://www.w3.org/1999/xlink">
<g id="graph0" class="graph" transform="scale(1 1) rotate(0) translate(4 707.25)">
<polygon fill="white" stroke="none" points="-4,4 -4,-707.25 180.5,-707.25 180.5,4 -4,4"/>
<text text-anchor="middle" x="88.25" y="-145.95" font-family="Helvetica,sans-Serif" font-size="14.00">1 1 2 3 4 5 2 3 4 5 6 6 </text>
<text text-anchor="middle" x="88.25" y="-128.7" font-family="Helvetica,sans-Serif" font-size="14.00">A double occurrence word</text>
<text text-anchor="middle" x="88.25" y="-111.45" font-family="Helvetica,sans-Serif" font-size="14.00">Already in ascending order</text>
<text text-anchor="middle" x="88.25" y="-94.2" font-family="Helvetica,sans-Serif" font-size="14.00">Palindrome: yes</text>
<text text-anchor="middle" x="88.25" y="-76.95" font-family="Helvetica,sans-Serif" font-size="14.00">Semi&#45;palindrome: yes</text>
<text text-anchor="middle" x="88.25" y="-59.7" font-family="Helvetica,sans-Serif" font-size="14.00">Irreducible: no</text>
<text text-anchor="middle" x="88.25" y="-42.45" font-family="Helvetica,sans-Serif" font-size="14.00">Strongly&#45;irreducible: no</text>
<text text-anchor="middle" x="88.25" y="-25.2" font-family="Helvetica,sans-Serif" font-size="14.00">Assembly number: 2</text>
<text text-anchor="middle" x="88.25" y="-7.95" font-family="Helvetica,sans-Serif" font-size="14.00">Unrealizable</text>
<!-- a -->
<!-- 1 -->
<g id="node3" class="node">
<title>1</title>
<polygon fill="none" stroke="black" points="48.95,-631.25 21.95,-613.25 48.95,-595.25 75.95,-613.25 48.95,-631.25"/>
<text text-anchor="middle" x="48.95" y="-608.58" font-family="Helvetica,sans-Serif" font-size="14.00">1</text>
</g>
<!-- a&#45;&gt;1 -->
<g id="edge1" class="edge">
<title>a:s&#45;&gt;1:n</title>
<path fill="none" stroke="black" d="M48.95,-667.25C48.95,-655.88 48.95,-650.57 48.95,-642.7"/>
<polygon fill="black" stroke="black" points="52.45,-642.76 48.95,-632.76 45.45,-642.76 52.45,-642.76"/>
</g>
<!-- b -->
<!-- 1&#45;&gt;1 -->
<g id="edge2" class="edge">
<title>1:s&#45;&gt;1:w</title>
<path fill="none" stroke="black" d="M48.95,-594.93C33.95,-576.93 3.95,-576.93 3.95,-604.09 3.95,-624.46 10.7,-629.55 16.26,-623.23"/>
<polygon fill="black" stroke="black" points="19.23,-625.13 20.47,-614.61 12.94,-622.06 19.23,-625.13"/>
</g>
<!-- 2 -->
<g id="node4" class="node">
<title>2</title>
<polygon fill="none" stroke="black" points="75.95,-559.25 48.95,-541.25 75.95,-523.25 102.95,-541.25 75.95,-559.25"/>
<text text-anchor="middle" x="75.95" y="-536.58" font-family="Helvetica,sans-Serif" font-size="14.00">2</text>
</g>
<!-- 1&#45;&gt;2 -->
<g id="edge3" class="edge">
<title>1:e&#45;&gt;2:n</title>
<path fill="none" stroke="blue" d="M77.76,-613.25C98.11,-613.25 82.66,-591.7 77.48,-570.51"/>
<polygon fill="blue" stroke="blue" points="80.96,-570.19 76.15,-560.75 74.03,-571.13 80.96,-570.19"/>
</g>
<!-- 3 -->
<g id="node5" class="node">
<title>3</title>
<polygon fill="none" stroke="black" points="75.95,-487.25 48.95,-469.25 75.95,-451.25 102.95,-469.25 75.95,-487.25"/>
<text text-anchor="middle" x="75.95" y="-464.57" font-family="Helvetica,sans-Serif" font-size="14.00">3</text>
</g>
<!-- 2&#45;&gt;3 -->
<g id="edge4" class="edge">
<title>2:s&#45;&gt;3:n</title>
<path fill="none" stroke="black" d="M75.95,-523.25C75.95,-511.88 75.95,-506.57 75.95,-498.7"/>
<polygon fill="black" stroke="black" points="79.45,-498.76 75.95,-488.76 72.45,-498.76 79.45,-498.76"/>
</g>
<!-- 2&#45;&gt;3 -->
<g id="edge8" class="edge">
<title>2:w&#45;&gt;3:w</title>
<path fill="none" stroke="black" d="M47.13,-541.25C19.26,-541.25 15.66,-486.62 36.35,-472.53"/>
<polygon fill="black" stroke="black" points="37.14,-475.95 45.68,-469.69 35.1,-469.25 37.14,-475.95"/>
</g>
<!-- 4 -->
<g id="node6" class="node">
<title>4</title>
<polygon fill="none" stroke="black" points="75.95,-415.25 48.95,-397.25 75.95,-379.25 102.95,-397.25 75.95,-415.25"/>
<text text-anchor="middle" x="75.95" y="-392.57" font-family="Helvetica,sans-Serif" font-size="14.00">4</text>
</g>
<!-- 3&#45;&gt;4 -->
<g id="edge5" class="edge">
<title>3:s&#45;&gt;4:n</title>
<path fill="none" stroke="blue" d="M75.95,-451.25C75.95,-439.88 75.95,-434.57 75.95,-426.7"/>
<polygon fill="blue" stroke="blue" points="79.45,-426.76 75.95,-416.76 72.45,-426.76 79.45,-426.76"/>
</g>
<!-- 3&#45;&gt;4 -->
<g id="edge9" class="edge">
<title>3:e&#45;&gt;4:e</title>
<path fill="none" stroke="black" d="M104.76,-469.25C117.38,-469.25 120.05,-424.42 112.75,-405.51"/>
<polygon fill="black" stroke="black" points="115.28,-403.09 105.81,-398.34 110.25,-407.96 115.28,-403.09"/>
</g>
<!-- 5 -->
<g id="node7" class="node">
<title>5</title>
<polygon fill="none" stroke="black" points="75.95,-343.25 48.95,-325.25 75.95,-307.25 102.95,-325.25 75.95,-343.25"/>
<text text-anchor="middle" x="75.95" y="-320.57" font-family="Helvetica,sans-Serif" font-size="14.00">5</text>
</g>
<!-- 4&#45;&gt;5 -->
<g id="edge6" class="edge">
<title>4:s&#45;&gt;5:n</title>
<path fill="none" stroke="black" d="M75.95,-379.25C75.95,-367.88 75.95,-362.57 75.95,-354.7"/>
<polygon fill="black" stroke="black" points="79.45,-354.76 75.95,-344.76 72.45,-354.76 79.45,-354.76"/>
</g>
<!-- 4&#45;&gt;5 -->
<g id="edge10" class="edge">
<title>4:w&#45;&gt;5:w</title>
<path fill="none" stroke="blue" d="M47.13,-397.25C19.26,-397.25 15.66,-342.62 36.35,-328.53"/>
<polygon fill="blue" stroke="blue" points="37.14,-331.95 45.68,-325.69 35.1,-325.25 37.14,-331.95"/>
</g>
<!-- 5&#45;&gt;2 -->
<g id="edge7" class="edge">
<title>5:s&#45;&gt;2:e</title>
<path fill="none" stroke="blue" d="M75.95,-305.93C75.95,-293.92 94.09,-298.81 102.95,-306.93 176.79,-374.63 206.61,-528.9 116.08,-540.55"/>
<polygon fill="blue" stroke="blue" points="116.03,-537.05 106.27,-541.16 116.47,-544.03 116.03,-537.05"/>
</g>
<!-- 6 -->
<g id="node8" class="node">
<title>6</title>
<polygon fill="none" stroke="black" points="102.95,-271.25 75.95,-253.25 102.95,-235.25 129.95,-253.25 102.95,-271.25"/>
<text text-anchor="middle" x="102.95" y="-248.57" font-family="Helvetica,sans-Serif" font-size="14.00">6</text>
</g>
<!-- 5&#45;&gt;6 -->
<g id="edge11" class="edge">
<title>5:e&#45;&gt;6:n</title>
<path fill="none" stroke="black" d="M104.76,-325.25C125.11,-325.25 109.66,-303.7 104.48,-282.51"/>
<polygon fill="black" stroke="black" points="107.96,-282.19 103.15,-272.75 101.03,-283.13 107.96,-282.19"/>
</g>
<!-- 6&#45;&gt;b -->
<g id="edge13" class="edge">
<title>6:w&#45;&gt;b:n</title>
<path fill="none" stroke="black" d="M74.13,-253.25C53.78,-253.25 69.23,-231.7 74.41,-210.51"/>
<polygon fill="black" stroke="black" points="77.86,-211.13 75.74,-200.75 70.93,-210.19 77.86,-211.13"/>
</g>
<!-- 6&#45;&gt;6 -->
<g id="edge12" class="edge">
<title>6:s&#45;&gt;6:e</title>
<path fill="none" stroke="black" d="M102.95,-234.93C117.95,-216.93 147.95,-216.93 147.95,-244.09 147.95,-264.46 141.2,-269.55 135.63,-263.23"/>
<polygon fill="black" stroke="black" points="138.96,-262.06 131.42,-254.61 132.66,-265.13 138.96,-262.06"/>
</g>
</g>
</svg>
