<?xml version="1.0" encoding="UTF-8" standalone="no"?>
<!DOCTYPE svg PUBLIC "-//W3C//DTD SVG 1.1//EN"
 "http://www.w3.org/Graphics/SVG/1.1/DTD/svg11.dtd">
<!-- Generated by graphviz version 12.2.1 (20241206.2353)
 -->
<!-- Pages: 1 -->
<svg width="488pt" height="1449pt"
 viewBox="0.00 0.00 488.25 1448.50" xmlns="http://www.w3.org/2000/svg" xmlns:xlink="http://www.w3.org/1999/xlink">
<g id="graph0" class="graph" transform="scale(1 1) rotate(0) translate(4 1444.5)">
<polygon fill="white" stroke="none" points="-4,4 -4,-1444.5 484.25,-1444.5 484.25,4 -4,4"/>
<text text-anchor="middle" x="240.12" y="-163.2" font-family="Helvetica,sans-Serif" font-size="14.00">1 1 2 3 4 2 5 3 4 5 6 6 7 8 9 7 10 8 9 10 11 11 12 13 14 12 15 13 14 15 16 16 </text>
<!-- a -->
<!-- 1 -->
<g id="node3" class="node">
<title>1</title>
<polygon fill="none" stroke="black" points="209.68,-1368.5 182.68,-1350.5 209.68,-1332.5 236.68,-1350.5 209.68,-1368.5"/>
<text text-anchor="middle" x="209.68" y="-1345.83" font-family="Helvetica,sans-Serif" font-size="14.00">1</text>
</g>
<!-- a&#45;&gt;1 -->
<g id="edge1" class="edge">
<title>a:s&#45;&gt;1:n</title>
<path fill="none" stroke="black" d="M209.68,-1404.5C209.68,-1393.12 209.68,-1387.82 209.68,-1379.95"/>
<polygon fill="black" stroke="black" points="213.18,-1380.01 209.68,-1370.01 206.18,-1380.01 213.18,-1380.01"/>
</g>
<!-- b -->
<!-- 1&#45;&gt;1 -->
<g id="edge2" class="edge">
<title>1:s&#45;&gt;1:w</title>
<path fill="none" stroke="black" d="M209.68,-1332.18C194.68,-1314.18 164.68,-1314.18 164.68,-1341.34 164.68,-1361.71 171.43,-1366.8 176.99,-1360.48"/>
<polygon fill="black" stroke="black" points="179.96,-1362.38 181.2,-1351.86 173.67,-1359.31 179.96,-1362.38"/>
</g>
<!-- 2 -->
<g id="node4" class="node">
<title>2</title>
<polygon fill="none" stroke="black" points="236.68,-1296.5 209.68,-1278.5 236.68,-1260.5 263.68,-1278.5 236.68,-1296.5"/>
<text text-anchor="middle" x="236.68" y="-1273.83" font-family="Helvetica,sans-Serif" font-size="14.00">2</text>
</g>
<!-- 1&#45;&gt;2 -->
<g id="edge3" class="edge">
<title>1:e&#45;&gt;2:n</title>
<path fill="none" stroke="blue" d="M238.49,-1350.5C258.85,-1350.5 243.39,-1328.95 238.21,-1307.76"/>
<polygon fill="blue" stroke="blue" points="241.7,-1307.44 236.88,-1298 234.76,-1308.38 241.7,-1307.44"/>
</g>
<!-- 3 -->
<g id="node5" class="node">
<title>3</title>
<polygon fill="none" stroke="black" points="236.68,-1224.5 209.68,-1206.5 236.68,-1188.5 263.68,-1206.5 236.68,-1224.5"/>
<text text-anchor="middle" x="236.68" y="-1201.83" font-family="Helvetica,sans-Serif" font-size="14.00">3</text>
</g>
<!-- 2&#45;&gt;3 -->
<g id="edge4" class="edge">
<title>2:s&#45;&gt;3:n</title>
<path fill="none" stroke="black" d="M236.68,-1260.5C236.68,-1249.12 236.68,-1243.82 236.68,-1235.95"/>
<polygon fill="black" stroke="black" points="240.18,-1236.01 236.68,-1226.01 233.18,-1236.01 240.18,-1236.01"/>
</g>
<!-- 5 -->
<g id="node7" class="node">
<title>5</title>
<polygon fill="none" stroke="black" points="209.68,-1080.5 182.68,-1062.5 209.68,-1044.5 236.68,-1062.5 209.68,-1080.5"/>
<text text-anchor="middle" x="209.68" y="-1057.83" font-family="Helvetica,sans-Serif" font-size="14.00">5</text>
</g>
<!-- 2&#45;&gt;5 -->
<g id="edge7" class="edge">
<title>2:w&#45;&gt;5:n</title>
<path fill="none" stroke="blue" d="M207.87,-1278.5C185.16,-1278.5 205.96,-1144.44 209.25,-1091.75"/>
<polygon fill="blue" stroke="blue" points="212.74,-1092.14 209.62,-1082.01 205.75,-1091.87 212.74,-1092.14"/>
</g>
<!-- 4 -->
<g id="node6" class="node">
<title>4</title>
<polygon fill="none" stroke="black" points="264.68,-1152.5 237.68,-1134.5 264.68,-1116.5 291.68,-1134.5 264.68,-1152.5"/>
<text text-anchor="middle" x="264.68" y="-1129.83" font-family="Helvetica,sans-Serif" font-size="14.00">4</text>
</g>
<!-- 3&#45;&gt;4 -->
<g id="edge5" class="edge">
<title>3:s&#45;&gt;4:n</title>
<path fill="none" stroke="blue" d="M236.68,-1188.5C236.68,-1172.98 253.09,-1172 260.79,-1163.3"/>
<polygon fill="blue" stroke="blue" points="264.07,-1164.52 264.17,-1153.92 257.48,-1162.14 264.07,-1164.52"/>
</g>
<!-- 3&#45;&gt;4 -->
<g id="edge9" class="edge">
<title>3:e&#45;&gt;4:e</title>
<path fill="none" stroke="black" d="M265.49,-1206.5C268.85,-1206.5 291.63,-1155.74 292.49,-1152.5 293.07,-1150.32 294.04,-1147.95 294.95,-1145.65"/>
<polygon fill="black" stroke="black" points="298.45,-1145.46 293.69,-1136 291.51,-1146.37 298.45,-1145.46"/>
</g>
<!-- 4&#45;&gt;2 -->
<g id="edge6" class="edge">
<title>4:s&#45;&gt;2:e</title>
<path fill="none" stroke="black" d="M264.68,-1115.18C264.68,-1103.17 283.35,-1107.53 291.68,-1116.18 339.61,-1165.92 338.82,-1266.67 276.86,-1277.54"/>
<polygon fill="black" stroke="black" points="276.67,-1274.05 267,-1278.37 277.26,-1281.02 276.67,-1274.05"/>
</g>
<!-- 4&#45;&gt;5 -->
<g id="edge10" class="edge">
<title>4:w&#45;&gt;5:w</title>
<path fill="none" stroke="blue" d="M235.87,-1134.5C226.21,-1134.5 230.11,-1123.71 223.68,-1116.5 207.37,-1098.19 192.7,-1102.5 181.87,-1080.5 180.82,-1078.37 179.59,-1075.91 178.61,-1073.52"/>
<polygon fill="blue" stroke="blue" points="181.98,-1074.48 180.56,-1063.98 175.12,-1073.08 181.98,-1074.48"/>
</g>
<!-- 5&#45;&gt;3 -->
<g id="edge8" class="edge">
<title>5:s&#45;&gt;3:w</title>
<path fill="none" stroke="black" d="M209.68,-1043.18C209.68,-1031.17 228.35,-1035.53 236.68,-1044.18 247.88,-1055.8 238.71,-1064.49 236.68,-1080.5 233.56,-1105.09 212.66,-1164.01 208.87,-1188.5 208.54,-1190.6 207.75,-1192.86 206.92,-1195.04"/>
<polygon fill="black" stroke="black" points="203.43,-1195.31 207.74,-1204.99 210.41,-1194.74 203.43,-1195.31"/>
</g>
<!-- 6 -->
<g id="node8" class="node">
<title>6</title>
<polygon fill="none" stroke="black" points="236.68,-1008.5 209.68,-990.5 236.68,-972.5 263.68,-990.5 236.68,-1008.5"/>
<text text-anchor="middle" x="236.68" y="-985.83" font-family="Helvetica,sans-Serif" font-size="14.00">6</text>
</g>
<!-- 5&#45;&gt;6 -->
<g id="edge11" class="edge">
<title>5:e&#45;&gt;6:n</title>
<path fill="none" stroke="black" d="M238.49,-1062.5C258.85,-1062.5 243.39,-1040.95 238.21,-1019.76"/>
<polygon fill="black" stroke="black" points="241.7,-1019.44 236.88,-1010 234.76,-1020.38 241.7,-1019.44"/>
</g>
<!-- 6&#45;&gt;6 -->
<g id="edge12" class="edge">
<title>6:s&#45;&gt;6:e</title>
<path fill="none" stroke="black" d="M236.68,-972.18C251.68,-954.18 281.68,-954.18 281.68,-981.34 281.68,-1001.71 274.93,-1006.8 269.37,-1000.48"/>
<polygon fill="black" stroke="black" points="272.69,-999.31 265.16,-991.86 266.4,-1002.38 272.69,-999.31"/>
</g>
<!-- 7 -->
<g id="node9" class="node">
<title>7</title>
<polygon fill="none" stroke="black" points="209.68,-936.5 182.68,-918.5 209.68,-900.5 236.68,-918.5 209.68,-936.5"/>
<text text-anchor="middle" x="209.68" y="-913.83" font-family="Helvetica,sans-Serif" font-size="14.00">7</text>
</g>
<!-- 6&#45;&gt;7 -->
<g id="edge13" class="edge">
<title>6:w&#45;&gt;7:n</title>
<path fill="none" stroke="blue" d="M207.87,-990.5C187.51,-990.5 202.97,-968.95 208.15,-947.76"/>
<polygon fill="blue" stroke="blue" points="211.6,-948.38 209.48,-938 204.66,-947.44 211.6,-948.38"/>
</g>
<!-- 8 -->
<g id="node10" class="node">
<title>8</title>
<polygon fill="none" stroke="black" points="209.68,-864.5 182.68,-846.5 209.68,-828.5 236.68,-846.5 209.68,-864.5"/>
<text text-anchor="middle" x="209.68" y="-841.83" font-family="Helvetica,sans-Serif" font-size="14.00">8</text>
</g>
<!-- 7&#45;&gt;8 -->
<g id="edge14" class="edge">
<title>7:s&#45;&gt;8:n</title>
<path fill="none" stroke="black" d="M209.68,-900.5C209.68,-889.12 209.68,-883.82 209.68,-875.95"/>
<polygon fill="black" stroke="black" points="213.18,-876.01 209.68,-866.01 206.18,-876.01 213.18,-876.01"/>
</g>
<!-- 10 -->
<g id="node12" class="node">
<title>10</title>
<polygon fill="none" stroke="black" points="236.68,-720.5 205.93,-702.5 236.68,-684.5 267.43,-702.5 236.68,-720.5"/>
<text text-anchor="middle" x="236.68" y="-697.83" font-family="Helvetica,sans-Serif" font-size="14.00">10</text>
</g>
<!-- 7&#45;&gt;10 -->
<g id="edge17" class="edge">
<title>7:e&#45;&gt;10:n</title>
<path fill="none" stroke="blue" d="M238.49,-918.5C311.16,-918.5 281.74,-826.05 260.68,-756.5 256.46,-742.55 244.85,-740.11 239.48,-731.38"/>
<polygon fill="blue" stroke="blue" points="242.94,-730.78 237.06,-721.97 236.16,-732.52 242.94,-730.78"/>
</g>
<!-- 9 -->
<g id="node11" class="node">
<title>9</title>
<polygon fill="none" stroke="black" points="181.68,-792.5 154.68,-774.5 181.68,-756.5 208.68,-774.5 181.68,-792.5"/>
<text text-anchor="middle" x="181.68" y="-769.83" font-family="Helvetica,sans-Serif" font-size="14.00">9</text>
</g>
<!-- 8&#45;&gt;9 -->
<g id="edge15" class="edge">
<title>8:s&#45;&gt;9:n</title>
<path fill="none" stroke="blue" d="M209.68,-828.5C209.68,-812.98 193.27,-812 185.57,-803.3"/>
<polygon fill="blue" stroke="blue" points="188.88,-802.14 182.19,-793.92 182.29,-804.52 188.88,-802.14"/>
</g>
<!-- 8&#45;&gt;9 -->
<g id="edge19" class="edge">
<title>8:w&#45;&gt;9:w</title>
<path fill="none" stroke="black" d="M180.87,-846.5C177.51,-846.5 154.73,-795.74 153.87,-792.5 153.29,-790.32 152.32,-787.95 151.41,-785.65"/>
<polygon fill="black" stroke="black" points="154.85,-786.37 152.67,-776 147.91,-785.46 154.85,-786.37"/>
</g>
<!-- 9&#45;&gt;7 -->
<g id="edge16" class="edge">
<title>9:s&#45;&gt;7:w</title>
<path fill="none" stroke="black" d="M181.68,-755.18C181.68,-743.17 200.35,-747.53 208.68,-756.18 219.88,-767.8 214.75,-777.54 208.68,-792.5 200.29,-813.18 182.07,-807.82 173.68,-828.5 160.24,-861.61 144.61,-907.13 169.7,-916.69"/>
<polygon fill="black" stroke="black" points="168.94,-920.12 179.37,-918.26 170.06,-913.21 168.94,-920.12"/>
</g>
<!-- 9&#45;&gt;10 -->
<g id="edge20" class="edge">
<title>9:e&#45;&gt;10:e</title>
<path fill="none" stroke="blue" d="M210.49,-774.5C220.15,-774.5 216.1,-763.57 222.68,-756.5 240.29,-737.57 256.44,-743.43 268.36,-720.5 269.46,-718.39 270.7,-715.95 271.69,-713.55"/>
<polygon fill="blue" stroke="blue" points="275.16,-713.04 269.67,-703.98 268.31,-714.49 275.16,-713.04"/>
</g>
<!-- 10&#45;&gt;8 -->
<g id="edge18" class="edge">
<title>10:s&#45;&gt;8:e</title>
<path fill="none" stroke="black" d="M236.68,-683.08C236.68,-669.41 257.92,-674.26 267.43,-684.08 278.69,-695.71 269.26,-704.42 267.43,-720.5 267.1,-723.43 250.26,-806.34 242.23,-836.04"/>
<polygon fill="black" stroke="black" points="239.07,-834.48 239,-845.07 245.66,-836.84 239.07,-834.48"/>
</g>
<!-- 11 -->
<g id="node13" class="node">
<title>11</title>
<polygon fill="none" stroke="black" points="205.68,-648.5 176.41,-630.5 205.68,-612.5 234.95,-630.5 205.68,-648.5"/>
<text text-anchor="middle" x="205.68" y="-625.83" font-family="Helvetica,sans-Serif" font-size="14.00">11</text>
</g>
<!-- 10&#45;&gt;11 -->
<g id="edge21" class="edge">
<title>10:w&#45;&gt;11:n</title>
<path fill="none" stroke="black" d="M204,-702.5C183.65,-702.5 199.01,-680.95 204.16,-659.76"/>
<polygon fill="black" stroke="black" points="207.61,-660.38 205.48,-650 200.67,-659.44 207.61,-660.38"/>
</g>
<!-- 11&#45;&gt;11 -->
<g id="edge22" class="edge">
<title>11:s&#45;&gt;11:w</title>
<path fill="none" stroke="black" d="M205.68,-611.95C189.92,-593.95 158.41,-593.95 158.41,-621.23 158.41,-641.68 165.16,-646.8 170.7,-640.48"/>
<polygon fill="black" stroke="black" points="173.66,-642.39 174.87,-631.86 167.36,-639.34 173.66,-642.39"/>
</g>
<!-- 12 -->
<g id="node14" class="node">
<title>12</title>
<polygon fill="none" stroke="black" points="235.68,-576.5 204.93,-558.5 235.68,-540.5 266.43,-558.5 235.68,-576.5"/>
<text text-anchor="middle" x="235.68" y="-553.83" font-family="Helvetica,sans-Serif" font-size="14.00">12</text>
</g>
<!-- 11&#45;&gt;12 -->
<g id="edge23" class="edge">
<title>11:e&#45;&gt;12:n</title>
<path fill="none" stroke="blue" d="M236.83,-630.5C257.17,-630.5 242.2,-608.95 237.17,-587.76"/>
<polygon fill="blue" stroke="blue" points="240.66,-587.46 235.88,-578 233.72,-588.37 240.66,-587.46"/>
</g>
<!-- 13 -->
<g id="node15" class="node">
<title>13</title>
<polygon fill="none" stroke="black" points="235.68,-504.5 204.93,-486.5 235.68,-468.5 266.43,-486.5 235.68,-504.5"/>
<text text-anchor="middle" x="235.68" y="-481.82" font-family="Helvetica,sans-Serif" font-size="14.00">13</text>
</g>
<!-- 12&#45;&gt;13 -->
<g id="edge24" class="edge">
<title>12:s&#45;&gt;13:n</title>
<path fill="none" stroke="black" d="M235.68,-540.5C235.68,-529.12 235.68,-523.82 235.68,-515.95"/>
<polygon fill="black" stroke="black" points="239.18,-516.01 235.68,-506.01 232.18,-516.01 239.18,-516.01"/>
</g>
<!-- 15 -->
<g id="node17" class="node">
<title>15</title>
<polygon fill="none" stroke="black" points="204.68,-360.5 173.93,-342.5 204.68,-324.5 235.43,-342.5 204.68,-360.5"/>
<text text-anchor="middle" x="204.68" y="-337.82" font-family="Helvetica,sans-Serif" font-size="14.00">15</text>
</g>
<!-- 12&#45;&gt;15 -->
<g id="edge27" class="edge">
<title>12:w&#45;&gt;15:n</title>
<path fill="none" stroke="blue" d="M203,-558.5C178.78,-558.5 197.31,-528.66 195.68,-504.5 194.08,-480.84 197.6,-397.26 197.68,-396.5 198.97,-384.86 202.02,-379.77 203.64,-371.78"/>
<polygon fill="blue" stroke="blue" points="207.1,-372.29 204.54,-362.01 200.13,-371.64 207.1,-372.29"/>
</g>
<!-- 14 -->
<g id="node16" class="node">
<title>14</title>
<polygon fill="none" stroke="black" points="263.68,-432.5 232.93,-414.5 263.68,-396.5 294.43,-414.5 263.68,-432.5"/>
<text text-anchor="middle" x="263.68" y="-409.82" font-family="Helvetica,sans-Serif" font-size="14.00">14</text>
</g>
<!-- 13&#45;&gt;14 -->
<g id="edge25" class="edge">
<title>13:s&#45;&gt;14:n</title>
<path fill="none" stroke="blue" d="M235.68,-468.5C235.68,-452.98 252.09,-452 259.79,-443.3"/>
<polygon fill="blue" stroke="blue" points="263.07,-444.52 263.17,-433.92 256.48,-442.14 263.07,-444.52"/>
</g>
<!-- 13&#45;&gt;14 -->
<g id="edge29" class="edge">
<title>13:e&#45;&gt;14:e</title>
<path fill="none" stroke="black" d="M268.36,-486.5C275.07,-486.5 293.64,-438.98 295.36,-432.5 295.94,-430.32 296.9,-427.95 297.81,-425.65"/>
<polygon fill="black" stroke="black" points="301.32,-425.46 296.55,-416 294.38,-426.37 301.32,-425.46"/>
</g>
<!-- 14&#45;&gt;12 -->
<g id="edge26" class="edge">
<title>14:s&#45;&gt;12:e</title>
<path fill="none" stroke="black" d="M263.68,-395.08C263.68,-381.41 284.92,-386.26 294.43,-396.08 342.5,-445.74 341.72,-546.65 279.73,-557.54"/>
<polygon fill="black" stroke="black" points="279.54,-554.05 269.87,-558.37 280.13,-561.02 279.54,-554.05"/>
</g>
<!-- 14&#45;&gt;15 -->
<g id="edge30" class="edge">
<title>14:w&#45;&gt;15:w</title>
<path fill="none" stroke="blue" d="M231,-414.5C221.31,-414.5 225.3,-403.58 218.68,-396.5 201.03,-377.62 184.92,-383.43 173,-360.5 171.9,-358.39 170.66,-355.95 169.67,-353.55"/>
<polygon fill="blue" stroke="blue" points="173.05,-354.49 171.69,-343.98 166.2,-353.04 173.05,-354.49"/>
</g>
<!-- 15&#45;&gt;13 -->
<g id="edge28" class="edge">
<title>15:s&#45;&gt;13:w</title>
<path fill="none" stroke="black" d="M204.68,-323.08C204.68,-309.41 225.92,-314.26 235.43,-324.08 246.69,-335.71 237.98,-344.52 235.43,-360.5 227.06,-413.15 157.42,-475.81 191.89,-485.28"/>
<polygon fill="black" stroke="black" points="191.17,-488.72 201.5,-486.33 191.94,-481.76 191.17,-488.72"/>
</g>
<!-- 16 -->
<g id="node18" class="node">
<title>16</title>
<polygon fill="none" stroke="black" points="235.68,-288.5 204.93,-270.5 235.68,-252.5 266.43,-270.5 235.68,-288.5"/>
<text text-anchor="middle" x="235.68" y="-265.82" font-family="Helvetica,sans-Serif" font-size="14.00">16</text>
</g>
<!-- 15&#45;&gt;16 -->
<g id="edge31" class="edge">
<title>15:e&#45;&gt;16:n</title>
<path fill="none" stroke="black" d="M237.36,-342.5C257.71,-342.5 242.35,-320.95 237.2,-299.76"/>
<polygon fill="black" stroke="black" points="240.69,-299.44 235.88,-290 233.75,-300.38 240.69,-299.44"/>
</g>
<!-- 16&#45;&gt;b -->
<g id="edge33" class="edge">
<title>16:w&#45;&gt;b:n</title>
<path fill="none" stroke="black" d="M203,-270.5C182.65,-270.5 198.01,-248.95 203.16,-227.76"/>
<polygon fill="black" stroke="black" points="206.61,-228.38 204.48,-218 199.67,-227.44 206.61,-228.38"/>
</g>
<!-- 16&#45;&gt;16 -->
<g id="edge32" class="edge">
<title>16:s&#45;&gt;16:e</title>
<path fill="none" stroke="black" d="M235.68,-252.08C251.93,-234.08 284.43,-234.08 284.43,-261.29 284.43,-281.7 277.68,-286.8 272.17,-280.48"/>
<polygon fill="black" stroke="black" points="275.51,-279.35 268.02,-271.86 269.2,-282.39 275.51,-279.35"/>
</g>
</g>
</svg>
