<?xml version="1.0" encoding="UTF-8" standalone="no"?>
<!DOCTYPE svg PUBLIC "-//W3C//DTD SVG 1.1//EN"
 "http://www.w3.org/Graphics/SVG/1.1/DTD/svg11.dtd">
<!-- Generated by graphviz version 12.2.1 (20241206.2353)
 -->
<!-- Pages: 1 -->
<svg width="482pt" height="1293pt"
 viewBox="0.00 0.00 482.25 1293.25" xmlns="http://www.w3.org/2000/svg" xmlns:xlink="http://www.w3.org/1999/xlink">
<g id="graph0" class="graph" transform="scale(1 1) rotate(0) translate(4 1289.25)">
<polygon fill="white" stroke="none" points="-4,4 -4,-1289.25 478.25,-1289.25 478.25,4 -4,4"/>
<text text-anchor="middle" x="237.12" y="-7.95" font-family="Helvetica,sans-Serif" font-size="14.00">1 1 2 3 4 2 5 3 4 5 6 6 7 8 9 7 10 8 9 10 11 11 12 13 14 12 15 13 14 15 16 16</text>
<!-- a -->
<!-- 1 -->
<g id="node3" class="node">
<title>1</title>
<polygon fill="none" stroke="black" points="206.68,-1213.25 179.68,-1195.25 206.68,-1177.25 233.68,-1195.25 206.68,-1213.25"/>
<text text-anchor="middle" x="206.68" y="-1190.58" font-family="Helvetica,sans-Serif" font-size="14.00">1</text>
</g>
<!-- a&#45;&gt;1 -->
<g id="edge1" class="edge">
<title>a:s&#45;&gt;1:n</title>
<path fill="none" stroke="black" d="M206.68,-1249.25C206.68,-1237.88 206.68,-1232.57 206.68,-1224.7"/>
<polygon fill="black" stroke="black" points="210.18,-1224.76 206.68,-1214.76 203.18,-1224.76 210.18,-1224.76"/>
</g>
<!-- b -->
<!-- 1&#45;&gt;1 -->
<g id="edge2" class="edge">
<title>1:s&#45;&gt;1:w</title>
<path fill="none" stroke="black" d="M206.68,-1176.93C191.68,-1158.93 161.68,-1158.93 161.68,-1186.09 161.68,-1206.46 168.43,-1211.55 173.99,-1205.23"/>
<polygon fill="black" stroke="black" points="176.96,-1207.13 178.2,-1196.61 170.67,-1204.06 176.96,-1207.13"/>
</g>
<!-- 2 -->
<g id="node4" class="node">
<title>2</title>
<polygon fill="none" stroke="black" points="233.68,-1141.25 206.68,-1123.25 233.68,-1105.25 260.68,-1123.25 233.68,-1141.25"/>
<text text-anchor="middle" x="233.68" y="-1118.58" font-family="Helvetica,sans-Serif" font-size="14.00">2</text>
</g>
<!-- 1&#45;&gt;2 -->
<g id="edge3" class="edge">
<title>1:e&#45;&gt;2:n</title>
<path fill="none" stroke="blue" d="M235.49,-1195.25C255.85,-1195.25 240.39,-1173.7 235.21,-1152.51"/>
<polygon fill="blue" stroke="blue" points="238.7,-1152.19 233.88,-1142.75 231.76,-1153.13 238.7,-1152.19"/>
</g>
<!-- 3 -->
<g id="node5" class="node">
<title>3</title>
<polygon fill="none" stroke="black" points="233.68,-1069.25 206.68,-1051.25 233.68,-1033.25 260.68,-1051.25 233.68,-1069.25"/>
<text text-anchor="middle" x="233.68" y="-1046.58" font-family="Helvetica,sans-Serif" font-size="14.00">3</text>
</g>
<!-- 2&#45;&gt;3 -->
<g id="edge4" class="edge">
<title>2:s&#45;&gt;3:n</title>
<path fill="none" stroke="black" d="M233.68,-1105.25C233.68,-1093.88 233.68,-1088.57 233.68,-1080.7"/>
<polygon fill="black" stroke="black" points="237.18,-1080.76 233.68,-1070.76 230.18,-1080.76 237.18,-1080.76"/>
</g>
<!-- 5 -->
<g id="node7" class="node">
<title>5</title>
<polygon fill="none" stroke="black" points="206.68,-925.25 179.68,-907.25 206.68,-889.25 233.68,-907.25 206.68,-925.25"/>
<text text-anchor="middle" x="206.68" y="-902.58" font-family="Helvetica,sans-Serif" font-size="14.00">5</text>
</g>
<!-- 2&#45;&gt;5 -->
<g id="edge7" class="edge">
<title>2:w&#45;&gt;5:n</title>
<path fill="none" stroke="blue" d="M204.87,-1123.25C182.16,-1123.25 202.96,-989.19 206.25,-936.5"/>
<polygon fill="blue" stroke="blue" points="209.74,-936.89 206.62,-926.76 202.75,-936.62 209.74,-936.89"/>
</g>
<!-- 4 -->
<g id="node6" class="node">
<title>4</title>
<polygon fill="none" stroke="black" points="261.68,-997.25 234.68,-979.25 261.68,-961.25 288.68,-979.25 261.68,-997.25"/>
<text text-anchor="middle" x="261.68" y="-974.58" font-family="Helvetica,sans-Serif" font-size="14.00">4</text>
</g>
<!-- 3&#45;&gt;4 -->
<g id="edge5" class="edge">
<title>3:s&#45;&gt;4:n</title>
<path fill="none" stroke="blue" d="M233.68,-1033.25C233.68,-1017.73 250.09,-1016.75 257.79,-1008.05"/>
<polygon fill="blue" stroke="blue" points="261.07,-1009.27 261.17,-998.67 254.48,-1006.89 261.07,-1009.27"/>
</g>
<!-- 3&#45;&gt;4 -->
<g id="edge9" class="edge">
<title>3:e&#45;&gt;4:e</title>
<path fill="none" stroke="black" d="M262.49,-1051.25C265.85,-1051.25 288.63,-1000.49 289.49,-997.25 290.07,-995.07 291.04,-992.7 291.95,-990.4"/>
<polygon fill="black" stroke="black" points="295.45,-990.21 290.69,-980.75 288.51,-991.12 295.45,-990.21"/>
</g>
<!-- 4&#45;&gt;2 -->
<g id="edge6" class="edge">
<title>4:s&#45;&gt;2:e</title>
<path fill="none" stroke="black" d="M261.68,-959.93C261.68,-947.92 280.35,-952.28 288.68,-960.93 336.61,-1010.67 335.82,-1111.42 273.86,-1122.29"/>
<polygon fill="black" stroke="black" points="273.67,-1118.8 264,-1123.12 274.26,-1125.77 273.67,-1118.8"/>
</g>
<!-- 4&#45;&gt;5 -->
<g id="edge10" class="edge">
<title>4:w&#45;&gt;5:w</title>
<path fill="none" stroke="blue" d="M232.87,-979.25C223.21,-979.25 227.11,-968.46 220.68,-961.25 204.37,-942.94 189.7,-947.25 178.87,-925.25 177.82,-923.12 176.59,-920.66 175.61,-918.27"/>
<polygon fill="blue" stroke="blue" points="178.98,-919.23 177.56,-908.73 172.12,-917.83 178.98,-919.23"/>
</g>
<!-- 5&#45;&gt;3 -->
<g id="edge8" class="edge">
<title>5:s&#45;&gt;3:w</title>
<path fill="none" stroke="black" d="M206.68,-887.93C206.68,-875.92 225.35,-880.28 233.68,-888.93 244.88,-900.55 235.71,-909.24 233.68,-925.25 230.56,-949.84 209.66,-1008.76 205.87,-1033.25 205.54,-1035.35 204.75,-1037.61 203.92,-1039.79"/>
<polygon fill="black" stroke="black" points="200.43,-1040.06 204.74,-1049.74 207.41,-1039.49 200.43,-1040.06"/>
</g>
<!-- 6 -->
<g id="node8" class="node">
<title>6</title>
<polygon fill="none" stroke="black" points="233.68,-853.25 206.68,-835.25 233.68,-817.25 260.68,-835.25 233.68,-853.25"/>
<text text-anchor="middle" x="233.68" y="-830.58" font-family="Helvetica,sans-Serif" font-size="14.00">6</text>
</g>
<!-- 5&#45;&gt;6 -->
<g id="edge11" class="edge">
<title>5:e&#45;&gt;6:n</title>
<path fill="none" stroke="black" d="M235.49,-907.25C255.85,-907.25 240.39,-885.7 235.21,-864.51"/>
<polygon fill="black" stroke="black" points="238.7,-864.19 233.88,-854.75 231.76,-865.13 238.7,-864.19"/>
</g>
<!-- 6&#45;&gt;6 -->
<g id="edge12" class="edge">
<title>6:s&#45;&gt;6:e</title>
<path fill="none" stroke="black" d="M233.68,-816.93C248.68,-798.93 278.68,-798.93 278.68,-826.09 278.68,-846.46 271.93,-851.55 266.37,-845.23"/>
<polygon fill="black" stroke="black" points="269.69,-844.06 262.16,-836.61 263.4,-847.13 269.69,-844.06"/>
</g>
<!-- 7 -->
<g id="node9" class="node">
<title>7</title>
<polygon fill="none" stroke="black" points="206.68,-781.25 179.68,-763.25 206.68,-745.25 233.68,-763.25 206.68,-781.25"/>
<text text-anchor="middle" x="206.68" y="-758.58" font-family="Helvetica,sans-Serif" font-size="14.00">7</text>
</g>
<!-- 6&#45;&gt;7 -->
<g id="edge13" class="edge">
<title>6:w&#45;&gt;7:n</title>
<path fill="none" stroke="blue" d="M204.87,-835.25C184.51,-835.25 199.97,-813.7 205.15,-792.51"/>
<polygon fill="blue" stroke="blue" points="208.6,-793.13 206.48,-782.75 201.66,-792.19 208.6,-793.13"/>
</g>
<!-- 8 -->
<g id="node10" class="node">
<title>8</title>
<polygon fill="none" stroke="black" points="206.68,-709.25 179.68,-691.25 206.68,-673.25 233.68,-691.25 206.68,-709.25"/>
<text text-anchor="middle" x="206.68" y="-686.58" font-family="Helvetica,sans-Serif" font-size="14.00">8</text>
</g>
<!-- 7&#45;&gt;8 -->
<g id="edge14" class="edge">
<title>7:s&#45;&gt;8:n</title>
<path fill="none" stroke="black" d="M206.68,-745.25C206.68,-733.88 206.68,-728.57 206.68,-720.7"/>
<polygon fill="black" stroke="black" points="210.18,-720.76 206.68,-710.76 203.18,-720.76 210.18,-720.76"/>
</g>
<!-- 10 -->
<g id="node12" class="node">
<title>10</title>
<polygon fill="none" stroke="black" points="233.68,-565.25 202.93,-547.25 233.68,-529.25 264.43,-547.25 233.68,-565.25"/>
<text text-anchor="middle" x="233.68" y="-542.58" font-family="Helvetica,sans-Serif" font-size="14.00">10</text>
</g>
<!-- 7&#45;&gt;10 -->
<g id="edge17" class="edge">
<title>7:e&#45;&gt;10:n</title>
<path fill="none" stroke="blue" d="M235.49,-763.25C308.16,-763.25 278.74,-670.8 257.68,-601.25 253.46,-587.3 241.85,-584.86 236.48,-576.13"/>
<polygon fill="blue" stroke="blue" points="239.94,-575.53 234.06,-566.72 233.16,-577.27 239.94,-575.53"/>
</g>
<!-- 9 -->
<g id="node11" class="node">
<title>9</title>
<polygon fill="none" stroke="black" points="178.68,-637.25 151.68,-619.25 178.68,-601.25 205.68,-619.25 178.68,-637.25"/>
<text text-anchor="middle" x="178.68" y="-614.58" font-family="Helvetica,sans-Serif" font-size="14.00">9</text>
</g>
<!-- 8&#45;&gt;9 -->
<g id="edge15" class="edge">
<title>8:s&#45;&gt;9:n</title>
<path fill="none" stroke="blue" d="M206.68,-673.25C206.68,-657.73 190.27,-656.75 182.57,-648.05"/>
<polygon fill="blue" stroke="blue" points="185.88,-646.89 179.19,-638.67 179.29,-649.27 185.88,-646.89"/>
</g>
<!-- 8&#45;&gt;9 -->
<g id="edge19" class="edge">
<title>8:w&#45;&gt;9:w</title>
<path fill="none" stroke="black" d="M177.87,-691.25C174.51,-691.25 151.73,-640.49 150.87,-637.25 150.29,-635.07 149.32,-632.7 148.41,-630.4"/>
<polygon fill="black" stroke="black" points="151.85,-631.12 149.67,-620.75 144.91,-630.21 151.85,-631.12"/>
</g>
<!-- 9&#45;&gt;7 -->
<g id="edge16" class="edge">
<title>9:s&#45;&gt;7:w</title>
<path fill="none" stroke="black" d="M178.68,-599.93C178.68,-587.92 197.35,-592.28 205.68,-600.93 216.88,-612.55 211.75,-622.29 205.68,-637.25 197.29,-657.93 179.07,-652.57 170.68,-673.25 157.24,-706.36 141.61,-751.88 166.7,-761.44"/>
<polygon fill="black" stroke="black" points="165.94,-764.87 176.37,-763.01 167.06,-757.96 165.94,-764.87"/>
</g>
<!-- 9&#45;&gt;10 -->
<g id="edge20" class="edge">
<title>9:e&#45;&gt;10:e</title>
<path fill="none" stroke="blue" d="M207.49,-619.25C217.15,-619.25 213.1,-608.32 219.68,-601.25 237.29,-582.32 253.44,-588.18 265.36,-565.25 266.46,-563.14 267.7,-560.7 268.69,-558.3"/>
<polygon fill="blue" stroke="blue" points="272.16,-557.79 266.67,-548.73 265.31,-559.24 272.16,-557.79"/>
</g>
<!-- 10&#45;&gt;8 -->
<g id="edge18" class="edge">
<title>10:s&#45;&gt;8:e</title>
<path fill="none" stroke="black" d="M233.68,-527.83C233.68,-514.16 254.92,-519.01 264.43,-528.83 275.69,-540.46 266.26,-549.17 264.43,-565.25 264.1,-568.18 247.26,-651.09 239.23,-680.79"/>
<polygon fill="black" stroke="black" points="236.07,-679.23 236,-689.82 242.66,-681.59 236.07,-679.23"/>
</g>
<!-- 11 -->
<g id="node13" class="node">
<title>11</title>
<polygon fill="none" stroke="black" points="202.68,-493.25 173.41,-475.25 202.68,-457.25 231.95,-475.25 202.68,-493.25"/>
<text text-anchor="middle" x="202.68" y="-470.57" font-family="Helvetica,sans-Serif" font-size="14.00">11</text>
</g>
<!-- 10&#45;&gt;11 -->
<g id="edge21" class="edge">
<title>10:w&#45;&gt;11:n</title>
<path fill="none" stroke="black" d="M201,-547.25C180.65,-547.25 196.01,-525.7 201.16,-504.51"/>
<polygon fill="black" stroke="black" points="204.61,-505.13 202.48,-494.75 197.67,-504.19 204.61,-505.13"/>
</g>
<!-- 11&#45;&gt;11 -->
<g id="edge22" class="edge">
<title>11:s&#45;&gt;11:w</title>
<path fill="none" stroke="black" d="M202.68,-456.7C186.92,-438.7 155.41,-438.7 155.41,-465.98 155.41,-486.43 162.16,-491.55 167.7,-485.23"/>
<polygon fill="black" stroke="black" points="170.66,-487.14 171.87,-476.61 164.36,-484.09 170.66,-487.14"/>
</g>
<!-- 12 -->
<g id="node14" class="node">
<title>12</title>
<polygon fill="none" stroke="black" points="232.68,-421.25 201.93,-403.25 232.68,-385.25 263.43,-403.25 232.68,-421.25"/>
<text text-anchor="middle" x="232.68" y="-398.57" font-family="Helvetica,sans-Serif" font-size="14.00">12</text>
</g>
<!-- 11&#45;&gt;12 -->
<g id="edge23" class="edge">
<title>11:e&#45;&gt;12:n</title>
<path fill="none" stroke="blue" d="M233.83,-475.25C254.17,-475.25 239.2,-453.7 234.17,-432.51"/>
<polygon fill="blue" stroke="blue" points="237.66,-432.21 232.88,-422.75 230.72,-433.12 237.66,-432.21"/>
</g>
<!-- 13 -->
<g id="node15" class="node">
<title>13</title>
<polygon fill="none" stroke="black" points="232.68,-349.25 201.93,-331.25 232.68,-313.25 263.43,-331.25 232.68,-349.25"/>
<text text-anchor="middle" x="232.68" y="-326.57" font-family="Helvetica,sans-Serif" font-size="14.00">13</text>
</g>
<!-- 12&#45;&gt;13 -->
<g id="edge24" class="edge">
<title>12:s&#45;&gt;13:n</title>
<path fill="none" stroke="black" d="M232.68,-385.25C232.68,-373.88 232.68,-368.57 232.68,-360.7"/>
<polygon fill="black" stroke="black" points="236.18,-360.76 232.68,-350.76 229.18,-360.76 236.18,-360.76"/>
</g>
<!-- 15 -->
<g id="node17" class="node">
<title>15</title>
<polygon fill="none" stroke="black" points="201.68,-205.25 170.93,-187.25 201.68,-169.25 232.43,-187.25 201.68,-205.25"/>
<text text-anchor="middle" x="201.68" y="-182.57" font-family="Helvetica,sans-Serif" font-size="14.00">15</text>
</g>
<!-- 12&#45;&gt;15 -->
<g id="edge27" class="edge">
<title>12:w&#45;&gt;15:n</title>
<path fill="none" stroke="blue" d="M200,-403.25C175.78,-403.25 194.31,-373.41 192.68,-349.25 191.08,-325.59 194.6,-242.01 194.68,-241.25 195.97,-229.61 199.02,-224.52 200.64,-216.53"/>
<polygon fill="blue" stroke="blue" points="204.1,-217.04 201.54,-206.76 197.13,-216.39 204.1,-217.04"/>
</g>
<!-- 14 -->
<g id="node16" class="node">
<title>14</title>
<polygon fill="none" stroke="black" points="260.68,-277.25 229.93,-259.25 260.68,-241.25 291.43,-259.25 260.68,-277.25"/>
<text text-anchor="middle" x="260.68" y="-254.57" font-family="Helvetica,sans-Serif" font-size="14.00">14</text>
</g>
<!-- 13&#45;&gt;14 -->
<g id="edge25" class="edge">
<title>13:s&#45;&gt;14:n</title>
<path fill="none" stroke="blue" d="M232.68,-313.25C232.68,-297.73 249.09,-296.75 256.79,-288.05"/>
<polygon fill="blue" stroke="blue" points="260.07,-289.27 260.17,-278.67 253.48,-286.89 260.07,-289.27"/>
</g>
<!-- 13&#45;&gt;14 -->
<g id="edge29" class="edge">
<title>13:e&#45;&gt;14:e</title>
<path fill="none" stroke="black" d="M265.36,-331.25C272.07,-331.25 290.64,-283.73 292.36,-277.25 292.94,-275.07 293.9,-272.7 294.81,-270.4"/>
<polygon fill="black" stroke="black" points="298.32,-270.21 293.55,-260.75 291.38,-271.12 298.32,-270.21"/>
</g>
<!-- 14&#45;&gt;12 -->
<g id="edge26" class="edge">
<title>14:s&#45;&gt;12:e</title>
<path fill="none" stroke="black" d="M260.68,-239.83C260.68,-226.16 281.92,-231.01 291.43,-240.83 339.5,-290.49 338.72,-391.4 276.73,-402.29"/>
<polygon fill="black" stroke="black" points="276.54,-398.8 266.87,-403.12 277.13,-405.77 276.54,-398.8"/>
</g>
<!-- 14&#45;&gt;15 -->
<g id="edge30" class="edge">
<title>14:w&#45;&gt;15:w</title>
<path fill="none" stroke="blue" d="M228,-259.25C218.31,-259.25 222.3,-248.33 215.68,-241.25 198.03,-222.37 181.92,-228.18 170,-205.25 168.9,-203.14 167.66,-200.7 166.67,-198.3"/>
<polygon fill="blue" stroke="blue" points="170.05,-199.24 168.69,-188.73 163.2,-197.79 170.05,-199.24"/>
</g>
<!-- 15&#45;&gt;13 -->
<g id="edge28" class="edge">
<title>15:s&#45;&gt;13:w</title>
<path fill="none" stroke="black" d="M201.68,-167.83C201.68,-154.16 222.92,-159.01 232.43,-168.83 243.69,-180.46 234.98,-189.27 232.43,-205.25 224.06,-257.9 154.42,-320.56 188.89,-330.03"/>
<polygon fill="black" stroke="black" points="188.17,-333.47 198.5,-331.08 188.94,-326.51 188.17,-333.47"/>
</g>
<!-- 16 -->
<g id="node18" class="node">
<title>16</title>
<polygon fill="none" stroke="black" points="232.68,-133.25 201.93,-115.25 232.68,-97.25 263.43,-115.25 232.68,-133.25"/>
<text text-anchor="middle" x="232.68" y="-110.58" font-family="Helvetica,sans-Serif" font-size="14.00">16</text>
</g>
<!-- 15&#45;&gt;16 -->
<g id="edge31" class="edge">
<title>15:e&#45;&gt;16:n</title>
<path fill="none" stroke="black" d="M234.36,-187.25C254.71,-187.25 239.35,-165.7 234.2,-144.51"/>
<polygon fill="black" stroke="black" points="237.69,-144.19 232.88,-134.75 230.75,-145.13 237.69,-144.19"/>
</g>
<!-- 16&#45;&gt;b -->
<g id="edge33" class="edge">
<title>16:w&#45;&gt;b:n</title>
<path fill="none" stroke="black" d="M200,-115.25C179.65,-115.25 195.01,-93.7 200.16,-72.51"/>
<polygon fill="black" stroke="black" points="203.61,-73.13 201.48,-62.75 196.67,-72.19 203.61,-73.13"/>
</g>
<!-- 16&#45;&gt;16 -->
<g id="edge32" class="edge">
<title>16:s&#45;&gt;16:e</title>
<path fill="none" stroke="black" d="M232.68,-96.83C248.93,-78.83 281.43,-78.83 281.43,-106.04 281.43,-126.45 274.68,-131.55 269.17,-125.23"/>
<polygon fill="black" stroke="black" points="272.51,-124.1 265.02,-116.61 266.2,-127.14 272.51,-124.1"/>
</g>
</g>
</svg>
