<?xml version="1.0" encoding="UTF-8" standalone="no"?>
<!DOCTYPE svg PUBLIC "-//W3C//DTD SVG 1.1//EN"
 "http://www.w3.org/Graphics/SVG/1.1/DTD/svg11.dtd">
<!-- Generated by graphviz version 12.2.1 (20241206.2353)
 -->
<!-- Pages: 1 -->
<svg width="692pt" height="317pt"
 viewBox="0.00 0.00 692.00 317.43" xmlns="http://www.w3.org/2000/svg" xmlns:xlink="http://www.w3.org/1999/xlink">
<g id="graph0" class="graph" transform="scale(1 1) rotate(0) translate(4 313.43)">
<polygon fill="white" stroke="none" points="-4,4 -4,-313.43 688,-313.43 688,4 -4,4"/>
<text text-anchor="middle" x="342" y="-145.95" font-family="Helvetica,sans-Serif" font-size="14.00">1 1 2 3 4 2 5 3 4 5 6 6 </text>
<text text-anchor="middle" x="342" y="-128.7" font-family="Helvetica,sans-Serif" font-size="14.00">A double occurrence word</text>
<text text-anchor="middle" x="342" y="-111.45" font-family="Helvetica,sans-Serif" font-size="14.00">Already in ascending order</text>
<text text-anchor="middle" x="342" y="-94.2" font-family="Helvetica,sans-Serif" font-size="14.00">Palindrome: yes</text>
<text text-anchor="middle" x="342" y="-76.95" font-family="Helvetica,sans-Serif" font-size="14.00">Semi&#45;palindrome: yes</text>
<text text-anchor="middle" x="342" y="-59.7" font-family="Helvetica,sans-Serif" font-size="14.00">Irreducible: no</text>
<text text-anchor="middle" x="342" y="-42.45" font-family="Helvetica,sans-Serif" font-size="14.00">Strongly&#45;irreducible: no</text>
<text text-anchor="middle" x="342" y="-25.2" font-family="Helvetica,sans-Serif" font-size="14.00">Assembly number: 2</text>
<text text-anchor="middle" x="342" y="-7.95" font-family="Helvetica,sans-Serif" font-size="14.00">Unrealizable</text>
<!-- a -->
<!-- 1 -->
<g id="node3" class="node">
<title>1</title>
<polygon fill="none" stroke="black" points="117,-217.25 90,-199.25 117,-181.25 144,-199.25 117,-217.25"/>
<text text-anchor="middle" x="117" y="-194.57" font-family="Helvetica,sans-Serif" font-size="14.00">1</text>
</g>
<!-- a&#45;&gt;1 -->
<g id="edge1" class="edge">
<title>a:e&#45;&gt;1:w</title>
<path fill="none" stroke="black" d="M54,-199.25C65.38,-199.25 70.68,-199.25 78.55,-199.25"/>
<polygon fill="black" stroke="black" points="78.49,-202.75 88.49,-199.25 78.49,-195.75 78.49,-202.75"/>
</g>
<!-- b -->
<!-- 1&#45;&gt;1 -->
<g id="edge2" class="edge">
<title>1:e&#45;&gt;1:s</title>
<path fill="none" stroke="black" d="M144.81,-199.25C167.31,-187.25 167.31,-163.25 130.91,-163.25 101.61,-163.25 95.89,-171.02 106.49,-177.01"/>
<polygon fill="black" stroke="black" points="104.99,-180.19 115.58,-180.4 107.43,-173.63 104.99,-180.19"/>
</g>
<!-- 2 -->
<g id="node4" class="node">
<title>2</title>
<polygon fill="none" stroke="black" points="207,-235.25 180,-217.25 207,-199.25 234,-217.25 207,-235.25"/>
<text text-anchor="middle" x="207" y="-212.57" font-family="Helvetica,sans-Serif" font-size="14.00">2</text>
</g>
<!-- 1&#45;&gt;2 -->
<g id="edge3" class="edge">
<title>1:n&#45;&gt;2:w</title>
<path fill="none" stroke="blue" d="M117,-218.57C117,-242.86 143.32,-224.03 168.57,-218.6"/>
<polygon fill="blue" stroke="blue" points="168.98,-222.08 178.5,-217.43 168.16,-215.12 168.98,-222.08"/>
</g>
<!-- 3 -->
<g id="node5" class="node">
<title>3</title>
<polygon fill="none" stroke="black" points="297,-235.25 270,-217.25 297,-199.25 324,-217.25 297,-235.25"/>
<text text-anchor="middle" x="297" y="-212.57" font-family="Helvetica,sans-Serif" font-size="14.00">3</text>
</g>
<!-- 2&#45;&gt;3 -->
<g id="edge4" class="edge">
<title>2:e&#45;&gt;3:w</title>
<path fill="none" stroke="black" d="M234,-217.25C245.38,-217.25 250.68,-217.25 258.55,-217.25"/>
<polygon fill="black" stroke="black" points="258.49,-220.75 268.49,-217.25 258.49,-213.75 258.49,-220.75"/>
</g>
<!-- 5 -->
<g id="node7" class="node">
<title>5</title>
<polygon fill="none" stroke="black" points="477,-217.25 450,-199.25 477,-181.25 504,-199.25 477,-217.25"/>
<text text-anchor="middle" x="477" y="-194.57" font-family="Helvetica,sans-Serif" font-size="14.00">5</text>
</g>
<!-- 2&#45;&gt;5 -->
<g id="edge7" class="edge">
<title>2:s&#45;&gt;5:w</title>
<path fill="none" stroke="blue" d="M207,-197.93C207,-173.59 383.14,-195.25 438.66,-198.78"/>
<polygon fill="blue" stroke="blue" points="438.35,-202.27 448.49,-199.19 438.64,-195.28 438.35,-202.27"/>
</g>
<!-- 4 -->
<g id="node6" class="node">
<title>4</title>
<polygon fill="none" stroke="black" points="387,-263.25 360,-245.25 387,-227.25 414,-245.25 387,-263.25"/>
<text text-anchor="middle" x="387" y="-240.57" font-family="Helvetica,sans-Serif" font-size="14.00">4</text>
</g>
<!-- 3&#45;&gt;4 -->
<g id="edge5" class="edge">
<title>3:e&#45;&gt;4:w</title>
<path fill="none" stroke="blue" d="M324,-217.25C339.52,-217.25 340.5,-233.66 349.2,-241.36"/>
<polygon fill="blue" stroke="blue" points="347.98,-244.64 358.58,-244.74 350.36,-238.05 347.98,-244.64"/>
</g>
<!-- 3&#45;&gt;4 -->
<g id="edge9" class="edge">
<title>3:n&#45;&gt;4:n</title>
<path fill="none" stroke="black" d="M297,-236.57C297,-238.47 358.14,-263.15 360,-263.57 365.4,-264.78 371.56,-267.64 376.63,-269.2"/>
<polygon fill="black" stroke="black" points="377.91,-272.46 385.62,-265.19 375.06,-266.06 377.91,-272.46"/>
</g>
<!-- 4&#45;&gt;2 -->
<g id="edge6" class="edge">
<title>4:e&#45;&gt;2:n</title>
<path fill="none" stroke="black" d="M415.81,-245.25C423.83,-245.25 420.63,-257.74 414.81,-263.25 350.07,-324.49 218.91,-329.37 207.76,-248.05"/>
<polygon fill="black" stroke="black" points="211.25,-247.83 207.1,-238.08 204.27,-248.29 211.25,-247.83"/>
</g>
<!-- 4&#45;&gt;5 -->
<g id="edge10" class="edge">
<title>4:s&#45;&gt;5:s</title>
<path fill="none" stroke="blue" d="M387,-225.93C387,-212.67 402.95,-220.57 414,-213.25 431.92,-201.37 430.07,-188.99 450,-180.93 455.31,-178.78 461.69,-175.73 466.91,-174.42"/>
<polygon fill="blue" stroke="blue" points="465.22,-177.48 475.67,-179.2 468.57,-171.34 465.22,-177.48"/>
</g>
<!-- 5&#45;&gt;3 -->
<g id="edge8" class="edge">
<title>5:e&#45;&gt;3:s</title>
<path fill="none" stroke="black" d="M505.81,-199.25C513.83,-199.25 510.63,-211.74 504.81,-217.25 487.12,-233.99 474.3,-219.01 450,-217.25 393.56,-213.17 380.36,-204.06 324,-198.93 318.67,-198.44 312.74,-195.81 307.79,-194.1"/>
<polygon fill="black" stroke="black" points="306.68,-190.78 298.43,-197.42 309.02,-197.38 306.68,-190.78"/>
</g>
<!-- 6 -->
<g id="node8" class="node">
<title>6</title>
<polygon fill="none" stroke="black" points="567,-235.25 540,-217.25 567,-199.25 594,-217.25 567,-235.25"/>
<text text-anchor="middle" x="567" y="-212.57" font-family="Helvetica,sans-Serif" font-size="14.00">6</text>
</g>
<!-- 5&#45;&gt;6 -->
<g id="edge11" class="edge">
<title>5:n&#45;&gt;6:w</title>
<path fill="none" stroke="black" d="M477,-218.57C477,-242.86 503.32,-224.03 528.57,-218.6"/>
<polygon fill="black" stroke="black" points="528.98,-222.08 538.5,-217.43 528.16,-215.12 528.98,-222.08"/>
</g>
<!-- 6&#45;&gt;b -->
<g id="edge13" class="edge">
<title>6:s&#45;&gt;b:w</title>
<path fill="none" stroke="black" d="M567,-197.93C567,-173.64 593.32,-192.47 618.57,-197.9"/>
<polygon fill="black" stroke="black" points="618.16,-201.38 628.5,-199.07 618.98,-194.42 618.16,-201.38"/>
</g>
<!-- 6&#45;&gt;6 -->
<g id="edge12" class="edge">
<title>6:e&#45;&gt;6:n</title>
<path fill="none" stroke="black" d="M594.81,-217.25C617.31,-229.25 617.31,-253.25 580.91,-253.25 551.61,-253.25 545.89,-245.48 556.49,-239.49"/>
<polygon fill="black" stroke="black" points="557.43,-242.87 565.58,-236.1 554.99,-236.31 557.43,-242.87"/>
</g>
</g>
</svg>
