<?xml version="1.0" encoding="UTF-8" standalone="no"?>
<!DOCTYPE svg PUBLIC "-//W3C//DTD SVG 1.1//EN"
 "http://www.w3.org/Graphics/SVG/1.1/DTD/svg11.dtd">
<!-- Generated by graphviz version 12.2.1 (20241206.2353)
 -->
<!-- Pages: 1 -->
<svg width="215pt" height="639pt"
 viewBox="0.00 0.00 215.00 639.25" xmlns="http://www.w3.org/2000/svg" xmlns:xlink="http://www.w3.org/1999/xlink">
<g id="graph0" class="graph" transform="scale(1 1) rotate(0) translate(4 635.25)">
<polygon fill="white" stroke="none" points="-4,4 -4,-635.25 211,-635.25 211,4 -4,4"/>
<text text-anchor="middle" x="103.5" y="-145.95" font-family="Helvetica,sans-Serif" font-size="14.00">1 1 2 3 3 2 4 4 5 6 6 5 7 7 </text>
<text text-anchor="middle" x="103.5" y="-128.7" font-family="Helvetica,sans-Serif" font-size="14.00">A double occurrence word</text>
<text text-anchor="middle" x="103.5" y="-111.45" font-family="Helvetica,sans-Serif" font-size="14.00">Already in ascending order</text>
<text text-anchor="middle" x="103.5" y="-94.2" font-family="Helvetica,sans-Serif" font-size="14.00">Palindrome: yes</text>
<text text-anchor="middle" x="103.5" y="-76.95" font-family="Helvetica,sans-Serif" font-size="14.00">Semi&#45;palindrome: no</text>
<text text-anchor="middle" x="103.5" y="-59.7" font-family="Helvetica,sans-Serif" font-size="14.00">Irreducible: no</text>
<text text-anchor="middle" x="103.5" y="-42.45" font-family="Helvetica,sans-Serif" font-size="14.00">Strongly&#45;irreducible: no</text>
<text text-anchor="middle" x="103.5" y="-25.2" font-family="Helvetica,sans-Serif" font-size="14.00">Assembly number: 3</text>
<text text-anchor="middle" x="103.5" y="-7.95" font-family="Helvetica,sans-Serif" font-size="14.00">Unrealizable</text>
<!-- a -->
<!-- 1 -->
<g id="node3" class="node">
<title>1</title>
<polygon fill="none" stroke="black" points="45,-559.25 18,-541.25 45,-523.25 72,-541.25 45,-559.25"/>
<text text-anchor="middle" x="45" y="-536.58" font-family="Helvetica,sans-Serif" font-size="14.00">1</text>
</g>
<!-- a&#45;&gt;1 -->
<g id="edge1" class="edge">
<title>a:s&#45;&gt;1:n</title>
<path fill="none" stroke="black" d="M45,-595.25C45,-583.88 45,-578.57 45,-570.7"/>
<polygon fill="black" stroke="black" points="48.5,-570.76 45,-560.76 41.5,-570.76 48.5,-570.76"/>
</g>
<!-- b -->
<!-- 1&#45;&gt;1 -->
<g id="edge2" class="edge">
<title>1:s&#45;&gt;1:w</title>
<path fill="none" stroke="black" d="M45,-522.93C30,-504.93 0,-504.93 0,-532.09 0,-552.46 6.75,-557.55 12.31,-551.23"/>
<polygon fill="black" stroke="black" points="15.28,-553.13 16.52,-542.61 8.99,-550.06 15.28,-553.13"/>
</g>
<!-- 2 -->
<g id="node4" class="node">
<title>2</title>
<polygon fill="none" stroke="black" points="72,-487.25 45,-469.25 72,-451.25 99,-469.25 72,-487.25"/>
<text text-anchor="middle" x="72" y="-464.57" font-family="Helvetica,sans-Serif" font-size="14.00">2</text>
</g>
<!-- 1&#45;&gt;2 -->
<g id="edge3" class="edge">
<title>1:e&#45;&gt;2:n</title>
<path fill="none" stroke="black" d="M73.81,-541.25C94.17,-541.25 78.71,-519.7 73.53,-498.51"/>
<polygon fill="black" stroke="black" points="77.02,-498.19 72.2,-488.75 70.08,-499.13 77.02,-498.19"/>
</g>
<!-- 3 -->
<g id="node5" class="node">
<title>3</title>
<polygon fill="none" stroke="black" points="72,-415.25 45,-397.25 72,-379.25 99,-397.25 72,-415.25"/>
<text text-anchor="middle" x="72" y="-392.57" font-family="Helvetica,sans-Serif" font-size="14.00">3</text>
</g>
<!-- 2&#45;&gt;3 -->
<g id="edge4" class="edge">
<title>2:s&#45;&gt;3:n</title>
<path fill="none" stroke="black" d="M72,-451.25C72,-439.88 72,-434.57 72,-426.7"/>
<polygon fill="black" stroke="black" points="75.5,-426.76 72,-416.76 68.5,-426.76 75.5,-426.76"/>
</g>
<!-- 4 -->
<g id="node6" class="node">
<title>4</title>
<polygon fill="none" stroke="black" points="162,-415.25 135,-397.25 162,-379.25 189,-397.25 162,-415.25"/>
<text text-anchor="middle" x="162" y="-392.57" font-family="Helvetica,sans-Serif" font-size="14.00">4</text>
</g>
<!-- 2&#45;&gt;4 -->
<g id="edge7" class="edge">
<title>2:e&#45;&gt;4:n</title>
<path fill="none" stroke="black" d="M100.81,-469.25C133.12,-469.25 156.41,-455.19 161.12,-426.49"/>
<polygon fill="black" stroke="black" points="164.59,-427 161.88,-416.76 157.62,-426.46 164.59,-427"/>
</g>
<!-- 3&#45;&gt;2 -->
<g id="edge6" class="edge">
<title>3:w&#45;&gt;2:w</title>
<path fill="none" stroke="black" d="M43.19,-397.25C15.31,-397.25 11.72,-451.88 32.41,-465.97"/>
<polygon fill="black" stroke="black" points="31.15,-469.25 41.74,-468.81 33.19,-462.55 31.15,-469.25"/>
</g>
<!-- 3&#45;&gt;3 -->
<g id="edge5" class="edge">
<title>3:s&#45;&gt;3:e</title>
<path fill="none" stroke="black" d="M72,-378.93C87,-360.93 117,-360.93 117,-388.09 117,-408.46 110.25,-413.55 104.69,-407.23"/>
<polygon fill="black" stroke="black" points="108.01,-406.06 100.48,-398.61 101.72,-409.13 108.01,-406.06"/>
</g>
<!-- 4&#45;&gt;4 -->
<g id="edge8" class="edge">
<title>4:s&#45;&gt;4:e</title>
<path fill="none" stroke="black" d="M162,-378.93C177,-360.93 207,-360.93 207,-388.09 207,-408.46 200.25,-413.55 194.69,-407.23"/>
<polygon fill="black" stroke="black" points="198.01,-406.06 190.48,-398.61 191.72,-409.13 198.01,-406.06"/>
</g>
<!-- 5 -->
<g id="node7" class="node">
<title>5</title>
<polygon fill="none" stroke="black" points="135,-343.25 108,-325.25 135,-307.25 162,-325.25 135,-343.25"/>
<text text-anchor="middle" x="135" y="-320.57" font-family="Helvetica,sans-Serif" font-size="14.00">5</text>
</g>
<!-- 4&#45;&gt;5 -->
<g id="edge9" class="edge">
<title>4:w&#45;&gt;5:n</title>
<path fill="none" stroke="black" d="M133.19,-397.25C123.76,-397.25 130.25,-371.36 133.48,-354.43"/>
<polygon fill="black" stroke="black" points="136.92,-355.13 134.8,-344.75 129.98,-354.19 136.92,-355.13"/>
</g>
<!-- 6 -->
<g id="node8" class="node">
<title>6</title>
<polygon fill="none" stroke="black" points="135,-271.25 108,-253.25 135,-235.25 162,-253.25 135,-271.25"/>
<text text-anchor="middle" x="135" y="-248.57" font-family="Helvetica,sans-Serif" font-size="14.00">6</text>
</g>
<!-- 5&#45;&gt;6 -->
<g id="edge10" class="edge">
<title>5:s&#45;&gt;6:n</title>
<path fill="none" stroke="black" d="M135,-307.25C135,-295.88 135,-290.57 135,-282.7"/>
<polygon fill="black" stroke="black" points="138.5,-282.76 135,-272.76 131.5,-282.76 138.5,-282.76"/>
</g>
<!-- 7 -->
<g id="node9" class="node">
<title>7</title>
<polygon fill="none" stroke="black" points="63,-271.25 36,-253.25 63,-235.25 90,-253.25 63,-271.25"/>
<text text-anchor="middle" x="63" y="-248.57" font-family="Helvetica,sans-Serif" font-size="14.00">7</text>
</g>
<!-- 5&#45;&gt;7 -->
<g id="edge13" class="edge">
<title>5:w&#45;&gt;7:n</title>
<path fill="none" stroke="black" d="M106.19,-325.25C79.42,-325.25 66.51,-307.59 63.63,-282.73"/>
<polygon fill="black" stroke="black" points="67.13,-282.55 63.08,-272.76 60.14,-282.94 67.13,-282.55"/>
</g>
<!-- 6&#45;&gt;5 -->
<g id="edge12" class="edge">
<title>6:e&#45;&gt;5:e</title>
<path fill="none" stroke="black" d="M163.81,-253.25C191.69,-253.25 195.28,-307.88 174.59,-321.97"/>
<polygon fill="black" stroke="black" points="173.81,-318.55 165.26,-324.81 175.85,-325.25 173.81,-318.55"/>
</g>
<!-- 6&#45;&gt;6 -->
<g id="edge11" class="edge">
<title>6:s&#45;&gt;6:w</title>
<path fill="none" stroke="black" d="M135,-234.93C120,-216.93 90,-216.93 90,-244.09 90,-264.46 96.75,-269.55 102.31,-263.23"/>
<polygon fill="black" stroke="black" points="105.28,-265.13 106.52,-254.61 98.99,-262.06 105.28,-265.13"/>
</g>
<!-- 7&#45;&gt;b -->
<g id="edge15" class="edge">
<title>7:e&#45;&gt;b:n</title>
<path fill="none" stroke="black" d="M91.81,-253.25C101.24,-253.25 94.75,-227.36 91.52,-210.43"/>
<polygon fill="black" stroke="black" points="95.02,-210.19 90.2,-200.75 88.08,-211.13 95.02,-210.19"/>
</g>
<!-- 7&#45;&gt;7 -->
<g id="edge14" class="edge">
<title>7:s&#45;&gt;7:w</title>
<path fill="none" stroke="black" d="M63,-234.93C48,-216.93 18,-216.93 18,-244.09 18,-264.46 24.75,-269.55 30.31,-263.23"/>
<polygon fill="black" stroke="black" points="33.28,-265.13 34.52,-254.61 26.99,-262.06 33.28,-265.13"/>
</g>
</g>
</svg>
