<?xml version="1.0" encoding="UTF-8" standalone="no"?>
<!DOCTYPE svg PUBLIC "-//W3C//DTD SVG 1.1//EN"
 "http://www.w3.org/Graphics/SVG/1.1/DTD/svg11.dtd">
<!-- Generated by graphviz version 12.2.1 (20241206.2353)
 -->
<!-- Pages: 1 -->
<svg width="215pt" height="495pt"
 viewBox="0.00 0.00 215.00 495.25" xmlns="http://www.w3.org/2000/svg" xmlns:xlink="http://www.w3.org/1999/xlink">
<g id="graph0" class="graph" transform="scale(1 1) rotate(0) translate(4 491.25)">
<polygon fill="white" stroke="none" points="-4,4 -4,-491.25 211,-491.25 211,4 -4,4"/>
<text text-anchor="middle" x="103.5" y="-145.95" font-family="Helvetica,sans-Serif" font-size="14.00">1 1 2 3 3 2 4 4 </text>
<text text-anchor="middle" x="103.5" y="-128.7" font-family="Helvetica,sans-Serif" font-size="14.00">A double occurrence word</text>
<text text-anchor="middle" x="103.5" y="-111.45" font-family="Helvetica,sans-Serif" font-size="14.00">Already in ascending order</text>
<text text-anchor="middle" x="103.5" y="-94.2" font-family="Helvetica,sans-Serif" font-size="14.00">Palindrome: yes</text>
<text text-anchor="middle" x="103.5" y="-76.95" font-family="Helvetica,sans-Serif" font-size="14.00">Semi&#45;palindrome: no</text>
<text text-anchor="middle" x="103.5" y="-59.7" font-family="Helvetica,sans-Serif" font-size="14.00">Irreducible: no</text>
<text text-anchor="middle" x="103.5" y="-42.45" font-family="Helvetica,sans-Serif" font-size="14.00">Strongly&#45;irreducible: no</text>
<text text-anchor="middle" x="103.5" y="-25.2" font-family="Helvetica,sans-Serif" font-size="14.00">Assembly number: 2</text>
<text text-anchor="middle" x="103.5" y="-7.95" font-family="Helvetica,sans-Serif" font-size="14.00">Unrealizable</text>
<!-- a -->
<!-- 1 -->
<g id="node3" class="node">
<title>1</title>
<polygon fill="none" stroke="black" points="45,-415.25 18,-397.25 45,-379.25 72,-397.25 45,-415.25"/>
<text text-anchor="middle" x="45" y="-392.57" font-family="Helvetica,sans-Serif" font-size="14.00">1</text>
</g>
<!-- a&#45;&gt;1 -->
<g id="edge1" class="edge">
<title>a:s&#45;&gt;1:n</title>
<path fill="none" stroke="black" d="M45,-451.25C45,-439.88 45,-434.57 45,-426.7"/>
<polygon fill="black" stroke="black" points="48.5,-426.76 45,-416.76 41.5,-426.76 48.5,-426.76"/>
</g>
<!-- b -->
<!-- 1&#45;&gt;1 -->
<g id="edge2" class="edge">
<title>1:s&#45;&gt;1:w</title>
<path fill="none" stroke="black" d="M45,-378.93C30,-360.93 0,-360.93 0,-388.09 0,-408.46 6.75,-413.55 12.31,-407.23"/>
<polygon fill="black" stroke="black" points="15.28,-409.13 16.52,-398.61 8.99,-406.06 15.28,-409.13"/>
</g>
<!-- 2 -->
<g id="node4" class="node">
<title>2</title>
<polygon fill="none" stroke="black" points="72,-343.25 45,-325.25 72,-307.25 99,-325.25 72,-343.25"/>
<text text-anchor="middle" x="72" y="-320.57" font-family="Helvetica,sans-Serif" font-size="14.00">2</text>
</g>
<!-- 1&#45;&gt;2 -->
<g id="edge3" class="edge">
<title>1:e&#45;&gt;2:n</title>
<path fill="none" stroke="black" d="M73.81,-397.25C94.17,-397.25 78.71,-375.7 73.53,-354.51"/>
<polygon fill="black" stroke="black" points="77.02,-354.19 72.2,-344.75 70.08,-355.13 77.02,-354.19"/>
</g>
<!-- 3 -->
<g id="node5" class="node">
<title>3</title>
<polygon fill="none" stroke="black" points="72,-271.25 45,-253.25 72,-235.25 99,-253.25 72,-271.25"/>
<text text-anchor="middle" x="72" y="-248.57" font-family="Helvetica,sans-Serif" font-size="14.00">3</text>
</g>
<!-- 2&#45;&gt;3 -->
<g id="edge4" class="edge">
<title>2:s&#45;&gt;3:n</title>
<path fill="none" stroke="black" d="M72,-307.25C72,-295.88 72,-290.57 72,-282.7"/>
<polygon fill="black" stroke="black" points="75.5,-282.76 72,-272.76 68.5,-282.76 75.5,-282.76"/>
</g>
<!-- 4 -->
<g id="node6" class="node">
<title>4</title>
<polygon fill="none" stroke="black" points="162,-271.25 135,-253.25 162,-235.25 189,-253.25 162,-271.25"/>
<text text-anchor="middle" x="162" y="-248.57" font-family="Helvetica,sans-Serif" font-size="14.00">4</text>
</g>
<!-- 2&#45;&gt;4 -->
<g id="edge7" class="edge">
<title>2:e&#45;&gt;4:n</title>
<path fill="none" stroke="black" d="M100.81,-325.25C133.12,-325.25 156.41,-311.19 161.12,-282.49"/>
<polygon fill="black" stroke="black" points="164.59,-283 161.88,-272.76 157.62,-282.46 164.59,-283"/>
</g>
<!-- 3&#45;&gt;2 -->
<g id="edge6" class="edge">
<title>3:w&#45;&gt;2:w</title>
<path fill="none" stroke="black" d="M43.19,-253.25C15.31,-253.25 11.72,-307.88 32.41,-321.97"/>
<polygon fill="black" stroke="black" points="31.15,-325.25 41.74,-324.81 33.19,-318.55 31.15,-325.25"/>
</g>
<!-- 3&#45;&gt;3 -->
<g id="edge5" class="edge">
<title>3:s&#45;&gt;3:e</title>
<path fill="none" stroke="black" d="M72,-234.93C87,-216.93 117,-216.93 117,-244.09 117,-264.46 110.25,-269.55 104.69,-263.23"/>
<polygon fill="black" stroke="black" points="108.01,-262.06 100.48,-254.61 101.72,-265.13 108.01,-262.06"/>
</g>
<!-- 4&#45;&gt;b -->
<g id="edge9" class="edge">
<title>4:w&#45;&gt;b:n</title>
<path fill="none" stroke="black" d="M133.19,-253.25C123.76,-253.25 130.25,-227.36 133.48,-210.43"/>
<polygon fill="black" stroke="black" points="136.92,-211.13 134.8,-200.75 129.98,-210.19 136.92,-211.13"/>
</g>
<!-- 4&#45;&gt;4 -->
<g id="edge8" class="edge">
<title>4:s&#45;&gt;4:e</title>
<path fill="none" stroke="black" d="M162,-234.93C177,-216.93 207,-216.93 207,-244.09 207,-264.46 200.25,-269.55 194.69,-263.23"/>
<polygon fill="black" stroke="black" points="198.01,-262.06 190.48,-254.61 191.72,-265.13 198.01,-262.06"/>
</g>
</g>
</svg>
