<?xml version="1.0" encoding="UTF-8" standalone="no"?>
<!DOCTYPE svg PUBLIC "-//W3C//DTD SVG 1.1//EN"
 "http://www.w3.org/Graphics/SVG/1.1/DTD/svg11.dtd">
<!-- Generated by graphviz version 12.2.1 (20241206.2353)
 -->
<!-- Pages: 1 -->
<svg width="410pt" height="501pt"
 viewBox="0.00 0.00 410.25 501.25" xmlns="http://www.w3.org/2000/svg" xmlns:xlink="http://www.w3.org/1999/xlink">
<g id="graph0" class="graph" transform="scale(1 1) rotate(0) translate(4 497.25)">
<polygon fill="white" stroke="none" points="-4,4 -4,-497.25 406.25,-497.25 406.25,4 -4,4"/>
<text text-anchor="middle" x="201.12" y="-7.95" font-family="Helvetica,sans-Serif" font-size="14.00">m + 2 m + 3 m + 4 m + 2 m + 5 m + 3 m + 4 m + 5 m + 6 m + 6</text>
<!-- a -->
<!-- m + 2 -->
<g id="node3" class="node">
<title>m + 2</title>
<polygon fill="none" stroke="black" points="198.54,-421.25 147.7,-403.25 198.54,-385.25 249.38,-403.25 198.54,-421.25"/>
<text text-anchor="middle" x="198.54" y="-398.57" font-family="Helvetica,sans-Serif" font-size="14.00">m + 2</text>
</g>
<!-- a&#45;&gt;m + 2 -->
<g id="edge1" class="edge">
<title>a:s&#45;&gt;m + 2:n</title>
<path fill="none" stroke="black" d="M198.54,-457.25C198.54,-445.88 198.54,-440.57 198.54,-432.7"/>
<polygon fill="black" stroke="black" points="202.04,-432.76 198.54,-422.76 195.04,-432.76 202.04,-432.76"/>
</g>
<!-- b -->
<!-- m + 3 -->
<g id="node4" class="node">
<title>m + 3</title>
<polygon fill="none" stroke="black" points="198.54,-349.25 147.7,-331.25 198.54,-313.25 249.38,-331.25 198.54,-349.25"/>
<text text-anchor="middle" x="198.54" y="-326.57" font-family="Helvetica,sans-Serif" font-size="14.00">m + 3</text>
</g>
<!-- m + 2&#45;&gt;m + 3 -->
<g id="edge2" class="edge">
<title>m + 2:s&#45;&gt;m + 3:n</title>
<path fill="none" stroke="green" d="M198.54,-385.25C198.54,-373.88 198.54,-368.57 198.54,-360.7"/>
<polygon fill="green" stroke="green" points="202.04,-360.76 198.54,-350.76 195.04,-360.76 202.04,-360.76"/>
</g>
<!-- m + 5 -->
<g id="node6" class="node">
<title>m + 5</title>
<polygon fill="none" stroke="black" points="146.54,-205.25 95.7,-187.25 146.54,-169.25 197.38,-187.25 146.54,-205.25"/>
<text text-anchor="middle" x="146.54" y="-182.57" font-family="Helvetica,sans-Serif" font-size="14.00">m + 5</text>
</g>
<!-- m + 2&#45;&gt;m + 5 -->
<g id="edge5" class="edge">
<title>m + 2:w&#45;&gt;m + 5:n</title>
<path fill="none" stroke="green" d="M145.43,-403.25C124.22,-403.25 143.15,-269.13 146.15,-216.49"/>
<polygon fill="green" stroke="green" points="149.64,-216.88 146.49,-206.76 142.65,-216.64 149.64,-216.88"/>
</g>
<!-- m + 4 -->
<g id="node5" class="node">
<title>m + 4</title>
<polygon fill="none" stroke="black" points="225.54,-277.25 174.7,-259.25 225.54,-241.25 276.38,-259.25 225.54,-277.25"/>
<text text-anchor="middle" x="225.54" y="-254.57" font-family="Helvetica,sans-Serif" font-size="14.00">m + 4</text>
</g>
<!-- m + 3&#45;&gt;m + 4 -->
<g id="edge3" class="edge">
<title>m + 3:s&#45;&gt;m + 4:n</title>
<path fill="none" stroke="black" d="M198.54,-313.25C198.54,-297.94 214.37,-296.69 221.79,-287.98"/>
<polygon fill="black" stroke="black" points="225.04,-289.27 225.04,-278.68 218.43,-286.96 225.04,-289.27"/>
</g>
<!-- m + 3&#45;&gt;m + 4 -->
<g id="edge7" class="edge">
<title>m + 3:e&#45;&gt;m + 4:e</title>
<path fill="none" stroke="green" d="M251.65,-331.25C254.98,-331.25 276.82,-280.47 277.65,-277.25 278.21,-275.07 279.17,-272.69 280.08,-270.4"/>
<polygon fill="green" stroke="green" points="283.59,-270.22 278.84,-260.75 276.64,-271.12 283.59,-270.22"/>
</g>
<!-- m + 4&#45;&gt;m + 2 -->
<g id="edge4" class="edge">
<title>m + 4:s&#45;&gt;m + 2:e</title>
<path fill="none" stroke="black" d="M225.54,-239.84C225.54,-217.24 260.56,-224.71 276.38,-240.84 324.7,-290.13 324.81,-391.36 263,-402.29"/>
<polygon fill="black" stroke="black" points="262.83,-398.79 253.16,-403.12 263.42,-405.77 262.83,-398.79"/>
</g>
<!-- m + 4&#45;&gt;m + 5 -->
<g id="edge8" class="edge">
<title>m + 4:w&#45;&gt;m + 5:w</title>
<path fill="none" stroke="black" d="M172.43,-259.25C162.84,-259.25 167.6,-247.74 160.54,-241.25 135.9,-218.62 112.31,-233.53 94.43,-205.25 93.16,-203.24 91.85,-200.84 90.84,-198.45"/>
<polygon fill="black" stroke="black" points="94.25,-199.26 93.09,-188.72 87.43,-197.68 94.25,-199.26"/>
</g>
<!-- m + 5&#45;&gt;m + 3 -->
<g id="edge6" class="edge">
<title>m + 5:s&#45;&gt;m + 3:w</title>
<path fill="none" stroke="black" d="M146.54,-167.84C146.54,-145.24 181.56,-152.71 197.38,-168.84 208.71,-180.4 203.11,-190.12 197.38,-205.25 189.82,-225.23 175.63,-222.42 165.54,-241.25 149.91,-270.43 151.62,-280.55 146.43,-313.25 146.1,-315.35 145.31,-317.61 144.47,-319.79"/>
<polygon fill="black" stroke="black" points="140.98,-320.07 145.31,-329.74 147.96,-319.48 140.98,-320.07"/>
</g>
<!-- m + 6 -->
<g id="node7" class="node">
<title>m + 6</title>
<polygon fill="none" stroke="black" points="198.54,-133.25 147.7,-115.25 198.54,-97.25 249.38,-115.25 198.54,-133.25"/>
<text text-anchor="middle" x="198.54" y="-110.58" font-family="Helvetica,sans-Serif" font-size="14.00">m + 6</text>
</g>
<!-- m + 5&#45;&gt;m + 6 -->
<g id="edge9" class="edge">
<title>m + 5:e&#45;&gt;m + 6:n</title>
<path fill="none" stroke="green" d="M199.65,-187.25C220,-187.25 205.05,-165.7 200.03,-144.51"/>
<polygon fill="green" stroke="green" points="203.52,-144.21 198.74,-134.75 196.58,-145.12 203.52,-144.21"/>
</g>
<!-- m + 6&#45;&gt;b -->
<g id="edge11" class="edge">
<title>m + 6:w&#45;&gt;b:n</title>
<path fill="none" stroke="black" d="M145.43,-115.25C125.08,-115.25 140.03,-93.7 145.05,-72.51"/>
<polygon fill="black" stroke="black" points="148.5,-73.12 146.34,-62.75 141.56,-72.21 148.5,-73.12"/>
</g>
<!-- m + 6&#45;&gt;m + 6 -->
<g id="edge10" class="edge">
<title>m + 6:s&#45;&gt;m + 6:e</title>
<path fill="none" stroke="black" d="M198.54,-96.84C221.49,-78.84 267.38,-78.84 267.38,-106.05 267.38,-126.02 260.91,-131.33 255.6,-125.61"/>
<polygon fill="black" stroke="black" points="258.77,-124.13 251.3,-116.62 252.45,-127.15 258.77,-124.13"/>
</g>
</g>
</svg>
