<?xml version="1.0" encoding="UTF-8" standalone="no"?>
<!DOCTYPE svg PUBLIC "-//W3C//DTD SVG 1.1//EN"
 "http://www.w3.org/Graphics/SVG/1.1/DTD/svg11.dtd">
<!-- Generated by graphviz version 12.2.1 (20241206.2353)
 -->
<!-- Pages: 1 -->
<svg width="185pt" height="423pt"
 viewBox="0.00 0.00 184.50 423.25" xmlns="http://www.w3.org/2000/svg" xmlns:xlink="http://www.w3.org/1999/xlink">
<g id="graph0" class="graph" transform="scale(1 1) rotate(0) translate(4 419.25)">
<polygon fill="white" stroke="none" points="-4,4 -4,-419.25 180.5,-419.25 180.5,4 -4,4"/>
<text text-anchor="middle" x="88.25" y="-145.95" font-family="Helvetica,sans-Serif" font-size="14.00">1 1 2 2 </text>
<text text-anchor="middle" x="88.25" y="-128.7" font-family="Helvetica,sans-Serif" font-size="14.00">A double occurrence word</text>
<text text-anchor="middle" x="88.25" y="-111.45" font-family="Helvetica,sans-Serif" font-size="14.00">Already in ascending order</text>
<text text-anchor="middle" x="88.25" y="-94.2" font-family="Helvetica,sans-Serif" font-size="14.00">Palindrome: yes</text>
<text text-anchor="middle" x="88.25" y="-76.95" font-family="Helvetica,sans-Serif" font-size="14.00">Semi&#45;palindrome: yes</text>
<text text-anchor="middle" x="88.25" y="-59.7" font-family="Helvetica,sans-Serif" font-size="14.00">Irreducible: no</text>
<text text-anchor="middle" x="88.25" y="-42.45" font-family="Helvetica,sans-Serif" font-size="14.00">Strongly&#45;irreducible: no</text>
<text text-anchor="middle" x="88.25" y="-25.2" font-family="Helvetica,sans-Serif" font-size="14.00">Assembly number: 1</text>
<text text-anchor="middle" x="88.25" y="-7.95" font-family="Helvetica,sans-Serif" font-size="14.00">Realizable</text>
<!-- a -->
<!-- 1 -->
<g id="node3" class="node">
<title>1</title>
<polygon fill="none" stroke="black" points="74.75,-343.25 47.75,-325.25 74.75,-307.25 101.75,-325.25 74.75,-343.25"/>
<text text-anchor="middle" x="74.75" y="-320.57" font-family="Helvetica,sans-Serif" font-size="14.00">1</text>
</g>
<!-- a&#45;&gt;1 -->
<g id="edge1" class="edge">
<title>a:s&#45;&gt;1:n</title>
<path fill="none" stroke="black" d="M74.75,-379.25C74.75,-367.88 74.75,-362.57 74.75,-354.7"/>
<polygon fill="black" stroke="black" points="78.25,-354.76 74.75,-344.76 71.25,-354.76 78.25,-354.76"/>
</g>
<!-- b -->
<!-- 1&#45;&gt;1 -->
<g id="edge2" class="edge">
<title>1:s&#45;&gt;1:w</title>
<path fill="none" stroke="black" d="M74.75,-306.93C59.75,-288.93 29.75,-288.93 29.75,-316.09 29.75,-336.46 36.5,-341.55 42.06,-335.23"/>
<polygon fill="black" stroke="black" points="45.03,-337.13 46.27,-326.61 38.74,-334.06 45.03,-337.13"/>
</g>
<!-- 2 -->
<g id="node4" class="node">
<title>2</title>
<polygon fill="none" stroke="black" points="101.75,-271.25 74.75,-253.25 101.75,-235.25 128.75,-253.25 101.75,-271.25"/>
<text text-anchor="middle" x="101.75" y="-248.57" font-family="Helvetica,sans-Serif" font-size="14.00">2</text>
</g>
<!-- 1&#45;&gt;2 -->
<g id="edge3" class="edge">
<title>1:e&#45;&gt;2:n</title>
<path fill="none" stroke="black" d="M103.56,-325.25C123.92,-325.25 108.46,-303.7 103.28,-282.51"/>
<polygon fill="black" stroke="black" points="106.77,-282.19 101.95,-272.75 99.83,-283.13 106.77,-282.19"/>
</g>
<!-- 2&#45;&gt;b -->
<g id="edge5" class="edge">
<title>2:w&#45;&gt;b:n</title>
<path fill="none" stroke="black" d="M72.94,-253.25C52.58,-253.25 68.04,-231.7 73.22,-210.51"/>
<polygon fill="black" stroke="black" points="76.67,-211.13 74.55,-200.75 69.73,-210.19 76.67,-211.13"/>
</g>
<!-- 2&#45;&gt;2 -->
<g id="edge4" class="edge">
<title>2:s&#45;&gt;2:e</title>
<path fill="none" stroke="black" d="M101.75,-234.93C116.75,-216.93 146.75,-216.93 146.75,-244.09 146.75,-264.46 140,-269.55 134.44,-263.23"/>
<polygon fill="black" stroke="black" points="137.76,-262.06 130.23,-254.61 131.47,-265.13 137.76,-262.06"/>
</g>
</g>
</svg>
