<?xml version="1.0" encoding="UTF-8" standalone="no"?>
<!DOCTYPE svg PUBLIC "-//W3C//DTD SVG 1.1//EN"
 "http://www.w3.org/Graphics/SVG/1.1/DTD/svg11.dtd">
<!-- Generated by graphviz version 12.2.1 (20241206.2353)
 -->
<!-- Pages: 1 -->
<svg width="471pt" height="1305pt"
 viewBox="0.00 0.00 471.00 1304.50" xmlns="http://www.w3.org/2000/svg" xmlns:xlink="http://www.w3.org/1999/xlink">
<g id="graph0" class="graph" transform="scale(1 1) rotate(0) translate(4 1300.5)">
<polygon fill="white" stroke="none" points="-4,4 -4,-1300.5 467,-1300.5 467,4 -4,4"/>
<text text-anchor="middle" x="231.5" y="-163.2" font-family="Helvetica,sans-Serif" font-size="14.00">1 1 2 2 3 4 5 3 6 4 5 6 7 7 8 8 9 10 11 9 12 10 11 12 13 13 14 14 </text>
<text text-anchor="middle" x="231.5" y="-145.95" font-family="Helvetica,sans-Serif" font-size="14.00">A double occurrence word</text>
<text text-anchor="middle" x="231.5" y="-128.7" font-family="Helvetica,sans-Serif" font-size="14.00">Already in ascending order</text>
<text text-anchor="middle" x="231.5" y="-111.45" font-family="Helvetica,sans-Serif" font-size="14.00">Palindrome: yes</text>
<text text-anchor="middle" x="231.5" y="-94.2" font-family="Helvetica,sans-Serif" font-size="14.00">Semi&#45;palindrome: yes</text>
<text text-anchor="middle" x="231.5" y="-76.95" font-family="Helvetica,sans-Serif" font-size="14.00">Irreducible: no</text>
<text text-anchor="middle" x="231.5" y="-59.7" font-family="Helvetica,sans-Serif" font-size="14.00">Strongly&#45;irreducible: no</text>
<text text-anchor="middle" x="231.5" y="-42.45" font-family="Helvetica,sans-Serif" font-size="14.00">Assembly number: 3</text>
<text text-anchor="middle" x="231.5" y="-25.2" font-family="Helvetica,sans-Serif" font-size="14.00">Edges in Hamiltonion set of polygonal paths: 1 3 5 7 10 13 15 17 19 22 25 </text>
<text text-anchor="middle" x="231.5" y="-7.95" font-family="Helvetica,sans-Serif" font-size="14.00">Unrealizable</text>
<!-- a -->
<!-- 1 -->
<g id="node3" class="node">
<title>1</title>
<polygon fill="none" stroke="black" points="220.76,-1224.5 193.76,-1206.5 220.76,-1188.5 247.76,-1206.5 220.76,-1224.5"/>
<text text-anchor="middle" x="220.76" y="-1201.83" font-family="Helvetica,sans-Serif" font-size="14.00">1</text>
</g>
<!-- a&#45;&gt;1 -->
<g id="edge1" class="edge">
<title>a:s&#45;&gt;1:n</title>
<path fill="none" stroke="black" d="M220.76,-1260.5C220.76,-1249.12 220.76,-1243.82 220.76,-1235.95"/>
<polygon fill="black" stroke="black" points="224.26,-1236.01 220.76,-1226.01 217.26,-1236.01 224.26,-1236.01"/>
</g>
<!-- b -->
<!-- 1&#45;&gt;1 -->
<g id="edge2" class="edge">
<title>1:s&#45;&gt;1:w</title>
<path fill="none" stroke="black" d="M220.76,-1188.18C205.76,-1170.18 175.76,-1170.18 175.76,-1197.34 175.76,-1217.71 182.51,-1222.8 188.07,-1216.48"/>
<polygon fill="black" stroke="black" points="191.04,-1218.38 192.28,-1207.86 184.75,-1215.31 191.04,-1218.38"/>
</g>
<!-- 2 -->
<g id="node4" class="node">
<title>2</title>
<polygon fill="none" stroke="black" points="247.76,-1152.5 220.76,-1134.5 247.76,-1116.5 274.76,-1134.5 247.76,-1152.5"/>
<text text-anchor="middle" x="247.76" y="-1129.83" font-family="Helvetica,sans-Serif" font-size="14.00">2</text>
</g>
<!-- 1&#45;&gt;2 -->
<g id="edge3" class="edge">
<title>1:e&#45;&gt;2:n</title>
<path fill="none" stroke="blue" d="M249.57,-1206.5C269.93,-1206.5 254.47,-1184.95 249.29,-1163.76"/>
<polygon fill="blue" stroke="blue" points="252.78,-1163.44 247.96,-1154 245.84,-1164.38 252.78,-1163.44"/>
</g>
<!-- 2&#45;&gt;2 -->
<g id="edge4" class="edge">
<title>2:s&#45;&gt;2:e</title>
<path fill="none" stroke="black" d="M247.76,-1116.18C262.76,-1098.18 292.76,-1098.18 292.76,-1125.34 292.76,-1145.71 286.01,-1150.8 280.44,-1144.48"/>
<polygon fill="black" stroke="black" points="283.77,-1143.31 276.23,-1135.86 277.48,-1146.38 283.77,-1143.31"/>
</g>
<!-- 3 -->
<g id="node5" class="node">
<title>3</title>
<polygon fill="none" stroke="black" points="220.76,-1080.5 193.76,-1062.5 220.76,-1044.5 247.76,-1062.5 220.76,-1080.5"/>
<text text-anchor="middle" x="220.76" y="-1057.83" font-family="Helvetica,sans-Serif" font-size="14.00">3</text>
</g>
<!-- 2&#45;&gt;3 -->
<g id="edge5" class="edge">
<title>2:w&#45;&gt;3:n</title>
<path fill="none" stroke="blue" d="M218.94,-1134.5C198.59,-1134.5 214.05,-1112.95 219.23,-1091.76"/>
<polygon fill="blue" stroke="blue" points="222.68,-1092.38 220.55,-1082 215.74,-1091.44 222.68,-1092.38"/>
</g>
<!-- 4 -->
<g id="node6" class="node">
<title>4</title>
<polygon fill="none" stroke="black" points="220.76,-1008.5 193.76,-990.5 220.76,-972.5 247.76,-990.5 220.76,-1008.5"/>
<text text-anchor="middle" x="220.76" y="-985.83" font-family="Helvetica,sans-Serif" font-size="14.00">4</text>
</g>
<!-- 3&#45;&gt;4 -->
<g id="edge6" class="edge">
<title>3:s&#45;&gt;4:n</title>
<path fill="none" stroke="black" d="M220.76,-1044.5C220.76,-1033.12 220.76,-1027.82 220.76,-1019.95"/>
<polygon fill="black" stroke="black" points="224.26,-1020.01 220.76,-1010.01 217.26,-1020.01 224.26,-1020.01"/>
</g>
<!-- 6 -->
<g id="node8" class="node">
<title>6</title>
<polygon fill="none" stroke="black" points="247.76,-864.5 220.76,-846.5 247.76,-828.5 274.76,-846.5 247.76,-864.5"/>
<text text-anchor="middle" x="247.76" y="-841.83" font-family="Helvetica,sans-Serif" font-size="14.00">6</text>
</g>
<!-- 3&#45;&gt;6 -->
<g id="edge9" class="edge">
<title>3:e&#45;&gt;6:n</title>
<path fill="none" stroke="blue" d="M249.57,-1062.5C322.24,-1062.5 292.82,-970.05 271.76,-900.5 267.53,-886.55 255.93,-884.11 250.56,-875.38"/>
<polygon fill="blue" stroke="blue" points="254.01,-874.78 248.13,-865.97 247.24,-876.52 254.01,-874.78"/>
</g>
<!-- 5 -->
<g id="node7" class="node">
<title>5</title>
<polygon fill="none" stroke="black" points="192.76,-936.5 165.76,-918.5 192.76,-900.5 219.76,-918.5 192.76,-936.5"/>
<text text-anchor="middle" x="192.76" y="-913.83" font-family="Helvetica,sans-Serif" font-size="14.00">5</text>
</g>
<!-- 4&#45;&gt;5 -->
<g id="edge7" class="edge">
<title>4:s&#45;&gt;5:n</title>
<path fill="none" stroke="blue" d="M220.76,-972.5C220.76,-956.98 204.34,-956 196.65,-947.3"/>
<polygon fill="blue" stroke="blue" points="199.95,-946.14 193.27,-937.92 193.37,-948.52 199.95,-946.14"/>
</g>
<!-- 4&#45;&gt;5 -->
<g id="edge11" class="edge">
<title>4:w&#45;&gt;5:w</title>
<path fill="none" stroke="black" d="M191.94,-990.5C188.59,-990.5 165.81,-939.74 164.94,-936.5 164.37,-934.32 163.4,-931.95 162.49,-929.65"/>
<polygon fill="black" stroke="black" points="165.93,-930.37 163.75,-920 158.98,-929.46 165.93,-930.37"/>
</g>
<!-- 5&#45;&gt;3 -->
<g id="edge8" class="edge">
<title>5:s&#45;&gt;3:w</title>
<path fill="none" stroke="black" d="M192.76,-899.18C192.76,-887.17 211.43,-891.53 219.76,-900.18 230.96,-911.8 225.83,-921.54 219.76,-936.5 211.36,-957.18 193.15,-951.82 184.76,-972.5 171.31,-1005.61 155.69,-1051.13 180.78,-1060.69"/>
<polygon fill="black" stroke="black" points="180.02,-1064.12 190.45,-1062.26 181.14,-1057.21 180.02,-1064.12"/>
</g>
<!-- 5&#45;&gt;6 -->
<g id="edge12" class="edge">
<title>5:e&#45;&gt;6:e</title>
<path fill="none" stroke="blue" d="M221.57,-918.5C231.23,-918.5 227.33,-907.71 233.76,-900.5 250.07,-882.19 264.73,-886.5 275.57,-864.5 276.62,-862.37 277.84,-859.91 278.83,-857.52"/>
<polygon fill="blue" stroke="blue" points="282.31,-857.08 276.87,-847.98 275.46,-858.48 282.31,-857.08"/>
</g>
<!-- 6&#45;&gt;4 -->
<g id="edge10" class="edge">
<title>6:s&#45;&gt;4:e</title>
<path fill="none" stroke="black" d="M247.76,-827.18C247.76,-815.17 266.43,-819.53 274.76,-828.18 285.96,-839.8 276.35,-848.44 274.76,-864.5 273.59,-876.27 266.88,-954.95 256.49,-981.66"/>
<polygon fill="black" stroke="black" points="253.91,-979.28 250.5,-989.31 259.42,-983.59 253.91,-979.28"/>
</g>
<!-- 7 -->
<g id="node9" class="node">
<title>7</title>
<polygon fill="none" stroke="black" points="220.76,-792.5 193.76,-774.5 220.76,-756.5 247.76,-774.5 220.76,-792.5"/>
<text text-anchor="middle" x="220.76" y="-769.83" font-family="Helvetica,sans-Serif" font-size="14.00">7</text>
</g>
<!-- 6&#45;&gt;7 -->
<g id="edge13" class="edge">
<title>6:w&#45;&gt;7:n</title>
<path fill="none" stroke="black" d="M218.94,-846.5C198.59,-846.5 214.05,-824.95 219.23,-803.76"/>
<polygon fill="black" stroke="black" points="222.68,-804.38 220.55,-794 215.74,-803.44 222.68,-804.38"/>
</g>
<!-- 7&#45;&gt;7 -->
<g id="edge14" class="edge">
<title>7:s&#45;&gt;7:w</title>
<path fill="none" stroke="black" d="M220.76,-756.18C205.76,-738.18 175.76,-738.18 175.76,-765.34 175.76,-785.71 182.51,-790.8 188.07,-784.48"/>
<polygon fill="black" stroke="black" points="191.04,-786.38 192.28,-775.86 184.75,-783.31 191.04,-786.38"/>
</g>
<!-- 8 -->
<g id="node10" class="node">
<title>8</title>
<polygon fill="none" stroke="black" points="247.76,-720.5 220.76,-702.5 247.76,-684.5 274.76,-702.5 247.76,-720.5"/>
<text text-anchor="middle" x="247.76" y="-697.83" font-family="Helvetica,sans-Serif" font-size="14.00">8</text>
</g>
<!-- 7&#45;&gt;8 -->
<g id="edge15" class="edge">
<title>7:e&#45;&gt;8:n</title>
<path fill="none" stroke="blue" d="M249.57,-774.5C269.93,-774.5 254.47,-752.95 249.29,-731.76"/>
<polygon fill="blue" stroke="blue" points="252.78,-731.44 247.96,-722 245.84,-732.38 252.78,-731.44"/>
</g>
<!-- 8&#45;&gt;8 -->
<g id="edge16" class="edge">
<title>8:s&#45;&gt;8:e</title>
<path fill="none" stroke="black" d="M247.76,-684.18C262.76,-666.18 292.76,-666.18 292.76,-693.34 292.76,-713.71 286.01,-718.8 280.44,-712.48"/>
<polygon fill="black" stroke="black" points="283.77,-711.31 276.23,-703.86 277.48,-714.38 283.77,-711.31"/>
</g>
<!-- 9 -->
<g id="node11" class="node">
<title>9</title>
<polygon fill="none" stroke="black" points="220.76,-648.5 193.76,-630.5 220.76,-612.5 247.76,-630.5 220.76,-648.5"/>
<text text-anchor="middle" x="220.76" y="-625.83" font-family="Helvetica,sans-Serif" font-size="14.00">9</text>
</g>
<!-- 8&#45;&gt;9 -->
<g id="edge17" class="edge">
<title>8:w&#45;&gt;9:n</title>
<path fill="none" stroke="blue" d="M218.94,-702.5C198.59,-702.5 214.05,-680.95 219.23,-659.76"/>
<polygon fill="blue" stroke="blue" points="222.68,-660.38 220.55,-650 215.74,-659.44 222.68,-660.38"/>
</g>
<!-- 10 -->
<g id="node12" class="node">
<title>10</title>
<polygon fill="none" stroke="black" points="220.76,-576.5 190,-558.5 220.76,-540.5 251.51,-558.5 220.76,-576.5"/>
<text text-anchor="middle" x="220.76" y="-553.83" font-family="Helvetica,sans-Serif" font-size="14.00">10</text>
</g>
<!-- 9&#45;&gt;10 -->
<g id="edge18" class="edge">
<title>9:s&#45;&gt;10:n</title>
<path fill="none" stroke="black" d="M220.76,-612.5C220.76,-601.12 220.76,-595.82 220.76,-587.95"/>
<polygon fill="black" stroke="black" points="224.26,-588.01 220.76,-578.01 217.26,-588.01 224.26,-588.01"/>
</g>
<!-- 12 -->
<g id="node14" class="node">
<title>12</title>
<polygon fill="none" stroke="black" points="251.76,-432.5 221,-414.5 251.76,-396.5 282.51,-414.5 251.76,-432.5"/>
<text text-anchor="middle" x="251.76" y="-409.82" font-family="Helvetica,sans-Serif" font-size="14.00">12</text>
</g>
<!-- 9&#45;&gt;12 -->
<g id="edge21" class="edge">
<title>9:e&#45;&gt;12:n</title>
<path fill="none" stroke="blue" d="M249.57,-630.5C322.5,-630.5 296.89,-538.31 275.76,-468.5 271.53,-454.55 259.93,-452.11 254.56,-443.38"/>
<polygon fill="blue" stroke="blue" points="258.01,-442.78 252.13,-433.97 251.24,-444.52 258.01,-442.78"/>
</g>
<!-- 11 -->
<g id="node13" class="node">
<title>11</title>
<polygon fill="none" stroke="black" points="194.76,-504.5 165.49,-486.5 194.76,-468.5 224.02,-486.5 194.76,-504.5"/>
<text text-anchor="middle" x="194.76" y="-481.82" font-family="Helvetica,sans-Serif" font-size="14.00">11</text>
</g>
<!-- 10&#45;&gt;11 -->
<g id="edge19" class="edge">
<title>10:s&#45;&gt;11:n</title>
<path fill="none" stroke="blue" d="M220.76,-540.5C220.76,-525.39 205.52,-523.88 198.37,-515.15"/>
<polygon fill="blue" stroke="blue" points="201.77,-514.28 195.24,-505.93 195.14,-516.53 201.77,-514.28"/>
</g>
<!-- 10&#45;&gt;11 -->
<g id="edge23" class="edge">
<title>10:w&#45;&gt;11:w</title>
<path fill="none" stroke="black" d="M188.08,-558.5C181.74,-558.5 166.39,-518 162.68,-497.75"/>
<polygon fill="black" stroke="black" points="166.15,-498.26 163.49,-488.01 159.17,-497.69 166.15,-498.26"/>
</g>
<!-- 11&#45;&gt;9 -->
<g id="edge20" class="edge">
<title>11:s&#45;&gt;9:w</title>
<path fill="none" stroke="black" d="M194.76,-466.95C194.76,-453.94 214.98,-458.59 224.02,-467.95 235.31,-479.63 230.92,-489.79 224.02,-504.5 213.4,-527.15 191.38,-517.85 180.76,-540.5 165.45,-573.15 154.23,-619.4 180.88,-628.8"/>
<polygon fill="black" stroke="black" points="180.03,-632.21 190.45,-630.27 181.1,-625.29 180.03,-632.21"/>
</g>
<!-- 11&#45;&gt;12 -->
<g id="edge24" class="edge">
<title>11:e&#45;&gt;12:e</title>
<path fill="none" stroke="blue" d="M225.9,-486.5C235.48,-486.5 231.28,-475.56 237.76,-468.5 255.24,-449.46 271.51,-455.43 283.44,-432.5 284.53,-430.39 285.77,-427.95 286.77,-425.55"/>
<polygon fill="blue" stroke="blue" points="290.24,-425.04 284.75,-415.98 283.39,-426.49 290.24,-425.04"/>
</g>
<!-- 12&#45;&gt;10 -->
<g id="edge22" class="edge">
<title>12:s&#45;&gt;10:e</title>
<path fill="none" stroke="black" d="M251.76,-395.08C251.76,-381.41 273,-386.26 282.51,-396.08 293.77,-407.71 284.34,-416.42 282.51,-432.5 282.18,-435.43 265.24,-518.34 257.19,-548.04"/>
<polygon fill="black" stroke="black" points="254.03,-546.48 253.95,-557.08 260.62,-548.84 254.03,-546.48"/>
</g>
<!-- 13 -->
<g id="node15" class="node">
<title>13</title>
<polygon fill="none" stroke="black" points="220.76,-360.5 190,-342.5 220.76,-324.5 251.51,-342.5 220.76,-360.5"/>
<text text-anchor="middle" x="220.76" y="-337.82" font-family="Helvetica,sans-Serif" font-size="14.00">13</text>
</g>
<!-- 12&#45;&gt;13 -->
<g id="edge25" class="edge">
<title>12:w&#45;&gt;13:n</title>
<path fill="none" stroke="black" d="M219.08,-414.5C198.73,-414.5 214.08,-392.95 219.24,-371.76"/>
<polygon fill="black" stroke="black" points="222.68,-372.38 220.55,-362 215.75,-371.44 222.68,-372.38"/>
</g>
<!-- 13&#45;&gt;13 -->
<g id="edge26" class="edge">
<title>13:s&#45;&gt;13:w</title>
<path fill="none" stroke="black" d="M220.76,-324.08C204.51,-306.08 172,-306.08 172,-333.29 172,-353.7 178.75,-358.8 184.27,-352.48"/>
<polygon fill="black" stroke="black" points="187.23,-354.39 188.42,-343.86 180.93,-351.35 187.23,-354.39"/>
</g>
<!-- 14 -->
<g id="node16" class="node">
<title>14</title>
<polygon fill="none" stroke="black" points="251.76,-288.5 221,-270.5 251.76,-252.5 282.51,-270.5 251.76,-288.5"/>
<text text-anchor="middle" x="251.76" y="-265.82" font-family="Helvetica,sans-Serif" font-size="14.00">14</text>
</g>
<!-- 13&#45;&gt;14 -->
<g id="edge27" class="edge">
<title>13:e&#45;&gt;14:n</title>
<path fill="none" stroke="blue" d="M253.44,-342.5C273.79,-342.5 258.43,-320.95 253.28,-299.76"/>
<polygon fill="blue" stroke="blue" points="256.77,-299.44 251.96,-290 249.83,-300.38 256.77,-299.44"/>
</g>
<!-- 14&#45;&gt;b -->
<g id="edge29" class="edge">
<title>14:w&#45;&gt;b:n</title>
<path fill="none" stroke="black" d="M219.08,-270.5C198.73,-270.5 214.08,-248.95 219.24,-227.76"/>
<polygon fill="black" stroke="black" points="222.68,-228.38 220.55,-218 215.75,-227.44 222.68,-228.38"/>
</g>
<!-- 14&#45;&gt;14 -->
<g id="edge28" class="edge">
<title>14:s&#45;&gt;14:e</title>
<path fill="none" stroke="black" d="M251.76,-252.08C268.01,-234.08 300.51,-234.08 300.51,-261.29 300.51,-281.7 293.76,-286.8 288.25,-280.48"/>
<polygon fill="black" stroke="black" points="291.59,-279.35 284.09,-271.86 285.28,-282.39 291.59,-279.35"/>
</g>
</g>
</svg>
