<?xml version="1.0" encoding="UTF-8" standalone="no"?>
<!DOCTYPE svg PUBLIC "-//W3C//DTD SVG 1.1//EN"
 "http://www.w3.org/Graphics/SVG/1.1/DTD/svg11.dtd">
<!-- Generated by graphviz version 12.2.1 (20241206.2353)
 -->
<!-- Pages: 1 -->
<svg width="370pt" height="801pt"
 viewBox="0.00 0.00 369.75 800.50" xmlns="http://www.w3.org/2000/svg" xmlns:xlink="http://www.w3.org/1999/xlink">
<g id="graph0" class="graph" transform="scale(1 1) rotate(0) translate(4 796.5)">
<polygon fill="white" stroke="none" points="-4,4 -4,-796.5 365.75,-796.5 365.75,4 -4,4"/>
<text text-anchor="middle" x="180.88" y="-163.2" font-family="Helvetica,sans-Serif" font-size="14.00">1 2 3 4 1 5 2 6 3 7 4 5 6 7 </text>
<text text-anchor="middle" x="180.88" y="-145.95" font-family="Helvetica,sans-Serif" font-size="14.00">A double occurrence word</text>
<text text-anchor="middle" x="180.88" y="-128.7" font-family="Helvetica,sans-Serif" font-size="14.00">Already in ascending order</text>
<text text-anchor="middle" x="180.88" y="-111.45" font-family="Helvetica,sans-Serif" font-size="14.00">Palindrome: yes</text>
<text text-anchor="middle" x="180.88" y="-94.2" font-family="Helvetica,sans-Serif" font-size="14.00">Semi&#45;palindrome: yes</text>
<text text-anchor="middle" x="180.88" y="-76.95" font-family="Helvetica,sans-Serif" font-size="14.00">Irreducible: yes</text>
<text text-anchor="middle" x="180.88" y="-59.7" font-family="Helvetica,sans-Serif" font-size="14.00">Strongly&#45;irreducible: yes</text>
<text text-anchor="middle" x="180.88" y="-42.45" font-family="Helvetica,sans-Serif" font-size="14.00">Assembly number: 1</text>
<text text-anchor="middle" x="180.88" y="-25.2" font-family="Helvetica,sans-Serif" font-size="14.00">Edges in Hamiltonion set of polygonal paths: 0 2 4 6 8 10 </text>
<text text-anchor="middle" x="180.88" y="-7.95" font-family="Helvetica,sans-Serif" font-size="14.00">Realizable</text>
<!-- a -->
<!-- 1 -->
<g id="node3" class="node">
<title>1</title>
<polygon fill="none" stroke="black" points="272.84,-720.5 245.84,-702.5 272.84,-684.5 299.84,-702.5 272.84,-720.5"/>
<text text-anchor="middle" x="272.84" y="-697.83" font-family="Helvetica,sans-Serif" font-size="14.00">1</text>
</g>
<!-- a&#45;&gt;1 -->
<g id="edge1" class="edge">
<title>a:s&#45;&gt;1:n</title>
<path fill="none" stroke="black" d="M272.84,-756.5C272.84,-745.12 272.84,-739.82 272.84,-731.95"/>
<polygon fill="black" stroke="black" points="276.34,-732.01 272.84,-722.01 269.34,-732.01 276.34,-732.01"/>
</g>
<!-- b -->
<!-- 2 -->
<g id="node4" class="node">
<title>2</title>
<polygon fill="none" stroke="black" points="182.84,-648.5 155.84,-630.5 182.84,-612.5 209.84,-630.5 182.84,-648.5"/>
<text text-anchor="middle" x="182.84" y="-625.83" font-family="Helvetica,sans-Serif" font-size="14.00">2</text>
</g>
<!-- 1&#45;&gt;2 -->
<g id="edge2" class="edge">
<title>1:s&#45;&gt;2:n</title>
<path fill="none" stroke="blue" d="M272.84,-684.5C272.84,-646.13 201.45,-681.72 185.83,-659.53"/>
<polygon fill="blue" stroke="blue" points="189.23,-658.69 183.23,-649.96 182.47,-660.53 189.23,-658.69"/>
</g>
<!-- 5 -->
<g id="node7" class="node">
<title>5</title>
<polygon fill="none" stroke="black" points="237.84,-432.5 210.84,-414.5 237.84,-396.5 264.84,-414.5 237.84,-432.5"/>
<text text-anchor="middle" x="237.84" y="-409.82" font-family="Helvetica,sans-Serif" font-size="14.00">5</text>
</g>
<!-- 1&#45;&gt;5 -->
<g id="edge6" class="edge">
<title>1:e&#45;&gt;5:n</title>
<path fill="none" stroke="blue" d="M301.65,-702.5C307.51,-702.5 363.71,-611.76 285.84,-468.5 275.39,-449.28 249.78,-455.31 240.92,-443.38"/>
<polygon fill="blue" stroke="blue" points="244.34,-442.62 238.25,-433.96 237.6,-444.53 244.34,-442.62"/>
</g>
<!-- 3 -->
<g id="node5" class="node">
<title>3</title>
<polygon fill="none" stroke="black" points="154.84,-576.5 127.84,-558.5 154.84,-540.5 181.84,-558.5 154.84,-576.5"/>
<text text-anchor="middle" x="154.84" y="-553.83" font-family="Helvetica,sans-Serif" font-size="14.00">3</text>
</g>
<!-- 2&#45;&gt;3 -->
<g id="edge3" class="edge">
<title>2:s&#45;&gt;3:n</title>
<path fill="none" stroke="black" d="M182.84,-612.5C182.84,-596.98 166.42,-596 158.73,-587.3"/>
<polygon fill="black" stroke="black" points="162.03,-586.14 155.35,-577.92 155.45,-588.52 162.03,-586.14"/>
</g>
<!-- 6 -->
<g id="node8" class="node">
<title>6</title>
<polygon fill="none" stroke="black" points="77.84,-360.5 50.84,-342.5 77.84,-324.5 104.84,-342.5 77.84,-360.5"/>
<text text-anchor="middle" x="77.84" y="-337.82" font-family="Helvetica,sans-Serif" font-size="14.00">6</text>
</g>
<!-- 2&#45;&gt;6 -->
<g id="edge8" class="edge">
<title>2:w&#45;&gt;6:n</title>
<path fill="none" stroke="blue" d="M154.02,-630.5C72.89,-630.5 77.63,-571.47 77.83,-371.97"/>
<polygon fill="blue" stroke="blue" points="81.33,-372.02 77.83,-362.01 74.33,-372.01 81.33,-372.02"/>
</g>
<!-- 4 -->
<g id="node6" class="node">
<title>4</title>
<polygon fill="none" stroke="black" points="187.84,-504.5 160.84,-486.5 187.84,-468.5 214.84,-486.5 187.84,-504.5"/>
<text text-anchor="middle" x="187.84" y="-481.82" font-family="Helvetica,sans-Serif" font-size="14.00">4</text>
</g>
<!-- 3&#45;&gt;4 -->
<g id="edge4" class="edge">
<title>3:s&#45;&gt;4:n</title>
<path fill="none" stroke="blue" d="M154.84,-540.5C154.84,-523.54 174.98,-524.36 183.79,-515.17"/>
<polygon fill="blue" stroke="blue" points="187.03,-516.51 187.3,-505.92 180.48,-514.03 187.03,-516.51"/>
</g>
<!-- 7 -->
<g id="node9" class="node">
<title>7</title>
<polygon fill="none" stroke="black" points="132.84,-288.5 105.84,-270.5 132.84,-252.5 159.84,-270.5 132.84,-288.5"/>
<text text-anchor="middle" x="132.84" y="-265.82" font-family="Helvetica,sans-Serif" font-size="14.00">7</text>
</g>
<!-- 3&#45;&gt;7 -->
<g id="edge10" class="edge">
<title>3:e&#45;&gt;7:n</title>
<path fill="none" stroke="blue" d="M183.65,-558.5C191.66,-558.5 185.63,-547.94 182.65,-540.5 174.8,-520.96 159.99,-523.92 151.84,-504.5 115.99,-419.21 131.46,-387.43 132.75,-299.77"/>
<polygon fill="blue" stroke="blue" points="136.25,-300.04 132.82,-290.01 129.25,-299.99 136.25,-300.04"/>
</g>
<!-- 4&#45;&gt;1 -->
<g id="edge5" class="edge">
<title>4:s&#45;&gt;1:w</title>
<path fill="none" stroke="black" d="M187.84,-467.18C187.84,-455.17 205.98,-460.07 214.84,-468.18 250.34,-500.73 201.04,-670.97 233.3,-698.69"/>
<polygon fill="black" stroke="black" points="232,-701.94 242.6,-701.99 234.35,-695.34 232,-701.94"/>
</g>
<!-- 4&#45;&gt;5 -->
<g id="edge12" class="edge">
<title>4:w&#45;&gt;5:w</title>
<path fill="none" stroke="blue" d="M159.02,-486.5C151.01,-486.5 156.92,-475.89 160.02,-468.5 168.4,-448.54 178.31,-448.55 192.84,-432.5 196.33,-428.64 197.72,-424.29 199.43,-420.84"/>
<polygon fill="blue" stroke="blue" points="201.35,-423.77 207.76,-415.33 197.49,-417.93 201.35,-423.77"/>
</g>
<!-- 5&#45;&gt;2 -->
<g id="edge7" class="edge">
<title>5:s&#45;&gt;2:e</title>
<path fill="none" stroke="black" d="M237.84,-395.18C237.84,-383.17 256.5,-387.53 264.84,-396.18 299.28,-431.92 269.86,-603.73 222.65,-627.72"/>
<polygon fill="black" stroke="black" points="221.95,-624.28 213.12,-630.13 223.67,-631.07 221.95,-624.28"/>
</g>
<!-- 5&#45;&gt;6 -->
<g id="edge13" class="edge">
<title>5:e&#45;&gt;6:e</title>
<path fill="none" stroke="black" d="M266.65,-414.5C340.97,-414.5 199.1,-349.09 118.12,-342.96"/>
<polygon fill="black" stroke="black" points="118.29,-339.46 108.16,-342.56 118.01,-346.46 118.29,-339.46"/>
</g>
<!-- 6&#45;&gt;3 -->
<g id="edge9" class="edge">
<title>6:s&#45;&gt;3:w</title>
<path fill="none" stroke="black" d="M77.84,-323.18C77.84,-311.17 96.17,-315.86 104.84,-324.18 119.33,-338.1 116.73,-484.51 118.84,-504.5 120.8,-523.12 109.54,-545.24 115.54,-554.31"/>
<polygon fill="black" stroke="black" points="114.03,-557.47 124.62,-557.94 116.63,-550.98 114.03,-557.47"/>
</g>
<!-- 6&#45;&gt;7 -->
<g id="edge14" class="edge">
<title>6:w&#45;&gt;7:w</title>
<path fill="none" stroke="black" d="M49.02,-342.5C12.37,-342.5 54.64,-282.86 92.89,-272.14"/>
<polygon fill="black" stroke="black" points="93.14,-275.64 102.52,-270.72 92.12,-268.71 93.14,-275.64"/>
</g>
<!-- 7&#45;&gt;b -->
<g id="edge15" class="edge">
<title>7:e&#45;&gt;b:n</title>
<path fill="none" stroke="black" d="M161.65,-270.5C182,-270.5 166.55,-248.95 161.37,-227.76"/>
<polygon fill="black" stroke="black" points="164.85,-227.44 160.04,-218 157.92,-228.38 164.85,-227.44"/>
</g>
<!-- 7&#45;&gt;4 -->
<g id="edge11" class="edge">
<title>7:s&#45;&gt;4:e</title>
<path fill="none" stroke="black" d="M132.84,-251.18C132.84,-239.17 150.57,-244.54 159.84,-252.18 223.33,-304.53 177.71,-353.83 201.84,-432.5 207.51,-451.01 215.54,-465.97 219.1,-475.41"/>
<polygon fill="black" stroke="black" points="215.72,-474.5 216.97,-485.02 222.55,-476.02 215.72,-474.5"/>
</g>
</g>
</svg>
