<?xml version="1.0" encoding="UTF-8" standalone="no"?>
<!DOCTYPE svg PUBLIC "-//W3C//DTD SVG 1.1//EN"
 "http://www.w3.org/Graphics/SVG/1.1/DTD/svg11.dtd">
<!-- Generated by graphviz version 12.2.1 (20241206.2353)
 -->
<!-- Pages: 1 -->
<svg width="368pt" height="801pt"
 viewBox="0.00 0.00 368.25 800.50" xmlns="http://www.w3.org/2000/svg" xmlns:xlink="http://www.w3.org/1999/xlink">
<g id="graph0" class="graph" transform="scale(1 1) rotate(0) translate(4 796.5)">
<polygon fill="white" stroke="none" points="-4,4 -4,-796.5 364.25,-796.5 364.25,4 -4,4"/>
<text text-anchor="middle" x="180.12" y="-163.2" font-family="Helvetica,sans-Serif" font-size="14.00">1 1 2 3 4 2 5 3 6 4 5 6 7 7 </text>
<text text-anchor="middle" x="180.12" y="-145.95" font-family="Helvetica,sans-Serif" font-size="14.00">A double occurrence word</text>
<text text-anchor="middle" x="180.12" y="-128.7" font-family="Helvetica,sans-Serif" font-size="14.00">Already in ascending order</text>
<text text-anchor="middle" x="180.12" y="-111.45" font-family="Helvetica,sans-Serif" font-size="14.00">Palindrome: yes</text>
<text text-anchor="middle" x="180.12" y="-94.2" font-family="Helvetica,sans-Serif" font-size="14.00">Semi&#45;palindrome: yes</text>
<text text-anchor="middle" x="180.12" y="-76.95" font-family="Helvetica,sans-Serif" font-size="14.00">Irreducible: no</text>
<text text-anchor="middle" x="180.12" y="-59.7" font-family="Helvetica,sans-Serif" font-size="14.00">Strongly&#45;irreducible: no</text>
<text text-anchor="middle" x="180.12" y="-42.45" font-family="Helvetica,sans-Serif" font-size="14.00">Assembly number: 1</text>
<text text-anchor="middle" x="180.12" y="-25.2" font-family="Helvetica,sans-Serif" font-size="14.00">Edges in Hamiltonion set of polygonal paths: 1 3 5 7 9 11 </text>
<text text-anchor="middle" x="180.12" y="-7.95" font-family="Helvetica,sans-Serif" font-size="14.00">Realizable</text>
<!-- a -->
<!-- 1 -->
<g id="node3" class="node">
<title>1</title>
<polygon fill="none" stroke="black" points="144.48,-720.5 117.48,-702.5 144.48,-684.5 171.48,-702.5 144.48,-720.5"/>
<text text-anchor="middle" x="144.48" y="-697.83" font-family="Helvetica,sans-Serif" font-size="14.00">1</text>
</g>
<!-- a&#45;&gt;1 -->
<g id="edge1" class="edge">
<title>a:s&#45;&gt;1:n</title>
<path fill="none" stroke="black" d="M144.48,-756.5C144.48,-745.12 144.48,-739.82 144.48,-731.95"/>
<polygon fill="black" stroke="black" points="147.98,-732.01 144.48,-722.01 140.98,-732.01 147.98,-732.01"/>
</g>
<!-- b -->
<!-- 1&#45;&gt;1 -->
<g id="edge2" class="edge">
<title>1:s&#45;&gt;1:w</title>
<path fill="none" stroke="black" d="M144.48,-684.18C129.48,-666.18 99.48,-666.18 99.48,-693.34 99.48,-713.71 106.23,-718.8 111.79,-712.48"/>
<polygon fill="black" stroke="black" points="114.76,-714.38 116,-703.86 108.47,-711.31 114.76,-714.38"/>
</g>
<!-- 2 -->
<g id="node4" class="node">
<title>2</title>
<polygon fill="none" stroke="black" points="171.48,-648.5 144.48,-630.5 171.48,-612.5 198.48,-630.5 171.48,-648.5"/>
<text text-anchor="middle" x="171.48" y="-625.83" font-family="Helvetica,sans-Serif" font-size="14.00">2</text>
</g>
<!-- 1&#45;&gt;2 -->
<g id="edge3" class="edge">
<title>1:e&#45;&gt;2:n</title>
<path fill="none" stroke="blue" d="M173.29,-702.5C193.65,-702.5 178.19,-680.95 173.01,-659.76"/>
<polygon fill="blue" stroke="blue" points="176.5,-659.44 171.68,-650 169.56,-660.38 176.5,-659.44"/>
</g>
<!-- 3 -->
<g id="node5" class="node">
<title>3</title>
<polygon fill="none" stroke="black" points="171.48,-576.5 144.48,-558.5 171.48,-540.5 198.48,-558.5 171.48,-576.5"/>
<text text-anchor="middle" x="171.48" y="-553.83" font-family="Helvetica,sans-Serif" font-size="14.00">3</text>
</g>
<!-- 2&#45;&gt;3 -->
<g id="edge4" class="edge">
<title>2:s&#45;&gt;3:n</title>
<path fill="none" stroke="black" d="M171.48,-612.5C171.48,-601.12 171.48,-595.82 171.48,-587.95"/>
<polygon fill="black" stroke="black" points="174.98,-588.01 171.48,-578.01 167.98,-588.01 174.98,-588.01"/>
</g>
<!-- 5 -->
<g id="node7" class="node">
<title>5</title>
<polygon fill="none" stroke="black" points="153.48,-432.5 126.48,-414.5 153.48,-396.5 180.48,-414.5 153.48,-432.5"/>
<text text-anchor="middle" x="153.48" y="-409.82" font-family="Helvetica,sans-Serif" font-size="14.00">5</text>
</g>
<!-- 2&#45;&gt;5 -->
<g id="edge7" class="edge">
<title>2:w&#45;&gt;5:n</title>
<path fill="none" stroke="blue" d="M142.67,-630.5C118.46,-630.5 137.08,-600.66 135.48,-576.5 134.42,-560.54 134.16,-556.45 135.48,-540.5 135.49,-540.42 147.03,-471.28 151.62,-443.68"/>
<polygon fill="blue" stroke="blue" points="155.05,-444.43 153.23,-433.99 148.14,-443.28 155.05,-444.43"/>
</g>
<!-- 4 -->
<g id="node6" class="node">
<title>4</title>
<polygon fill="none" stroke="black" points="199.48,-504.5 172.48,-486.5 199.48,-468.5 226.48,-486.5 199.48,-504.5"/>
<text text-anchor="middle" x="199.48" y="-481.82" font-family="Helvetica,sans-Serif" font-size="14.00">4</text>
</g>
<!-- 3&#45;&gt;4 -->
<g id="edge5" class="edge">
<title>3:s&#45;&gt;4:n</title>
<path fill="none" stroke="blue" d="M171.48,-540.5C171.48,-524.98 187.89,-524 195.59,-515.3"/>
<polygon fill="blue" stroke="blue" points="198.87,-516.52 198.97,-505.92 192.28,-514.14 198.87,-516.52"/>
</g>
<!-- 6 -->
<g id="node8" class="node">
<title>6</title>
<polygon fill="none" stroke="black" points="216.48,-360.5 189.48,-342.5 216.48,-324.5 243.48,-342.5 216.48,-360.5"/>
<text text-anchor="middle" x="216.48" y="-337.82" font-family="Helvetica,sans-Serif" font-size="14.00">6</text>
</g>
<!-- 3&#45;&gt;6 -->
<g id="edge9" class="edge">
<title>3:e&#45;&gt;6:n</title>
<path fill="none" stroke="blue" d="M200.29,-558.5C228.94,-558.5 226.38,-531.66 235.48,-504.5 250.75,-458.94 254.4,-442.49 240.48,-396.5 236.26,-382.55 224.65,-380.11 219.28,-371.38"/>
<polygon fill="blue" stroke="blue" points="222.74,-370.78 216.86,-361.97 215.96,-372.52 222.74,-370.78"/>
</g>
<!-- 4&#45;&gt;2 -->
<g id="edge6" class="edge">
<title>4:s&#45;&gt;2:e</title>
<path fill="none" stroke="black" d="M199.48,-467.18C199.48,-455.17 218.15,-459.53 226.48,-468.18 274.41,-517.92 273.62,-618.67 211.66,-629.54"/>
<polygon fill="black" stroke="black" points="211.47,-626.05 201.8,-630.37 212.06,-633.02 211.47,-626.05"/>
</g>
<!-- 4&#45;&gt;5 -->
<g id="edge11" class="edge">
<title>4:w&#45;&gt;5:w</title>
<path fill="none" stroke="blue" d="M170.67,-486.5C161.01,-486.5 164.46,-476.09 158.48,-468.5 145.09,-451.49 134.04,-452.46 125.67,-432.5 124.8,-430.42 123.7,-428.09 122.76,-425.81"/>
<polygon fill="blue" stroke="blue" points="126.2,-426.44 124.42,-415.99 119.3,-425.27 126.2,-426.44"/>
</g>
<!-- 5&#45;&gt;3 -->
<g id="edge8" class="edge">
<title>5:s&#45;&gt;3:w</title>
<path fill="none" stroke="black" d="M153.48,-395.18C153.48,-383.17 172.15,-387.53 180.48,-396.18 191.68,-407.8 184.01,-416.75 180.48,-432.5 176.61,-449.77 169.63,-451.91 163.48,-468.5 151.95,-499.62 149.02,-507.75 143.67,-540.5 143.32,-542.6 142.53,-544.85 141.69,-547.03"/>
<polygon fill="black" stroke="black" points="138.2,-547.32 142.54,-556.99 145.18,-546.73 138.2,-547.32"/>
</g>
<!-- 5&#45;&gt;6 -->
<g id="edge12" class="edge">
<title>5:e&#45;&gt;6:e</title>
<path fill="none" stroke="black" d="M182.29,-414.5C194.31,-414.5 193.44,-404.42 202.48,-396.5 220.92,-380.34 233.46,-382.5 244.29,-360.5 245.34,-358.37 246.57,-355.91 247.55,-353.52"/>
<polygon fill="black" stroke="black" points="251.04,-353.08 245.6,-343.98 244.18,-354.48 251.04,-353.08"/>
</g>
<!-- 6&#45;&gt;4 -->
<g id="edge10" class="edge">
<title>6:s&#45;&gt;4:e</title>
<path fill="none" stroke="black" d="M216.48,-323.18C216.48,-311.17 235.15,-315.53 243.48,-324.18 254.68,-335.8 244.45,-344.39 243.48,-360.5 243.31,-363.37 235.64,-445.54 230.92,-475.61"/>
<polygon fill="black" stroke="black" points="227.59,-474.49 228.65,-485.03 234.39,-476.13 227.59,-474.49"/>
</g>
<!-- 7 -->
<g id="node9" class="node">
<title>7</title>
<polygon fill="none" stroke="black" points="189.48,-288.5 162.48,-270.5 189.48,-252.5 216.48,-270.5 189.48,-288.5"/>
<text text-anchor="middle" x="189.48" y="-265.82" font-family="Helvetica,sans-Serif" font-size="14.00">7</text>
</g>
<!-- 6&#45;&gt;7 -->
<g id="edge13" class="edge">
<title>6:w&#45;&gt;7:n</title>
<path fill="none" stroke="blue" d="M187.67,-342.5C167.31,-342.5 182.77,-320.95 187.95,-299.76"/>
<polygon fill="blue" stroke="blue" points="191.4,-300.38 189.28,-290 184.46,-299.44 191.4,-300.38"/>
</g>
<!-- 7&#45;&gt;b -->
<g id="edge15" class="edge">
<title>7:e&#45;&gt;b:n</title>
<path fill="none" stroke="black" d="M218.29,-270.5C238.65,-270.5 223.19,-248.95 218.01,-227.76"/>
<polygon fill="black" stroke="black" points="221.5,-227.44 216.68,-218 214.56,-228.38 221.5,-227.44"/>
</g>
<!-- 7&#45;&gt;7 -->
<g id="edge14" class="edge">
<title>7:s&#45;&gt;7:w</title>
<path fill="none" stroke="black" d="M189.48,-252.18C174.48,-234.18 144.48,-234.18 144.48,-261.34 144.48,-281.71 151.23,-286.8 156.79,-280.48"/>
<polygon fill="black" stroke="black" points="159.76,-282.38 161,-271.86 153.47,-279.31 159.76,-282.38"/>
</g>
</g>
</svg>
