<?xml version="1.0" encoding="UTF-8" standalone="no"?>
<!DOCTYPE svg PUBLIC "-//W3C//DTD SVG 1.1//EN"
 "http://www.w3.org/Graphics/SVG/1.1/DTD/svg11.dtd">
<!-- Generated by graphviz version 12.2.1 (20241206.2353)
 -->
<!-- Pages: 1 -->
<svg width="370pt" height="665pt"
 viewBox="0.00 0.00 369.75 665.40" xmlns="http://www.w3.org/2000/svg" xmlns:xlink="http://www.w3.org/1999/xlink">
<g id="graph0" class="graph" transform="scale(1 1) rotate(0) translate(4 661.4)">
<polygon fill="white" stroke="none" points="-4,4 -4,-661.4 365.75,-661.4 365.75,4 -4,4"/>
<text text-anchor="middle" x="180.88" y="-163.2" font-family="Helvetica,sans-Serif" font-size="14.00">1 2 1 3 2 4 5 3 4 6 5 7 6 7 </text>
<text text-anchor="middle" x="180.88" y="-145.95" font-family="Helvetica,sans-Serif" font-size="14.00">A double occurrence word</text>
<text text-anchor="middle" x="180.88" y="-128.7" font-family="Helvetica,sans-Serif" font-size="14.00">Already in ascending order</text>
<text text-anchor="middle" x="180.88" y="-111.45" font-family="Helvetica,sans-Serif" font-size="14.00">Palindrome: yes</text>
<text text-anchor="middle" x="180.88" y="-94.2" font-family="Helvetica,sans-Serif" font-size="14.00">Semi&#45;palindrome: yes</text>
<text text-anchor="middle" x="180.88" y="-76.95" font-family="Helvetica,sans-Serif" font-size="14.00">Irreducible: yes</text>
<text text-anchor="middle" x="180.88" y="-59.7" font-family="Helvetica,sans-Serif" font-size="14.00">Strongly&#45;irreducible: yes</text>
<text text-anchor="middle" x="180.88" y="-42.45" font-family="Helvetica,sans-Serif" font-size="14.00">Assembly number: 1</text>
<text text-anchor="middle" x="180.88" y="-25.2" font-family="Helvetica,sans-Serif" font-size="14.00">Edges in Hamiltonion set of polygonal paths: 0 2 4 6 8 10 </text>
<text text-anchor="middle" x="180.88" y="-7.95" font-family="Helvetica,sans-Serif" font-size="14.00">Realizable</text>
<!-- a -->
<!-- 1 -->
<g id="node3" class="node">
<title>1</title>
<polygon fill="none" stroke="black" points="215.54,-585.4 188.54,-567.4 215.54,-549.4 242.54,-567.4 215.54,-585.4"/>
<text text-anchor="middle" x="215.54" y="-562.73" font-family="Helvetica,sans-Serif" font-size="14.00">1</text>
</g>
<!-- a&#45;&gt;1 -->
<g id="edge1" class="edge">
<title>a:s&#45;&gt;1:n</title>
<path fill="none" stroke="black" d="M215.54,-621.4C215.54,-610.03 215.54,-604.72 215.54,-596.85"/>
<polygon fill="black" stroke="black" points="219.04,-596.91 215.54,-586.91 212.04,-596.92 219.04,-596.91"/>
</g>
<!-- b -->
<!-- 2 -->
<g id="node4" class="node">
<title>2</title>
<polygon fill="none" stroke="black" points="188.54,-513.4 161.54,-495.4 188.54,-477.4 215.54,-495.4 188.54,-513.4"/>
<text text-anchor="middle" x="188.54" y="-490.73" font-family="Helvetica,sans-Serif" font-size="14.00">2</text>
</g>
<!-- 1&#45;&gt;2 -->
<g id="edge2" class="edge">
<title>1:s&#45;&gt;2:n</title>
<path fill="none" stroke="blue" d="M215.54,-549.4C215.54,-534.09 199.71,-532.84 192.29,-524.13"/>
<polygon fill="blue" stroke="blue" points="195.65,-523.11 189.04,-514.83 189.04,-525.42 195.65,-523.11"/>
</g>
<!-- 3 -->
<g id="node5" class="node">
<title>3</title>
<polygon fill="none" stroke="black" points="221.54,-297.4 194.54,-279.4 221.54,-261.4 248.54,-279.4 221.54,-297.4"/>
<text text-anchor="middle" x="221.54" y="-274.73" font-family="Helvetica,sans-Serif" font-size="14.00">3</text>
</g>
<!-- 1&#45;&gt;3 -->
<g id="edge4" class="edge">
<title>1:e&#45;&gt;3:n</title>
<path fill="none" stroke="blue" d="M244.35,-567.4C348.37,-567.4 264.48,-434.39 239.54,-333.4 236.36,-320.51 227.98,-316.78 223.88,-308.4"/>
<polygon fill="blue" stroke="blue" points="227.36,-307.94 221.85,-298.88 220.51,-309.39 227.36,-307.94"/>
</g>
<!-- 2&#45;&gt;1 -->
<g id="edge3" class="edge">
<title>2:s&#45;&gt;1:w</title>
<path fill="none" stroke="black" d="M188.54,-476.08C188.54,-448.65 233.06,-462.07 215.54,-513.4 209.01,-532.54 194.78,-530.45 187.73,-549.4 186.94,-551.51 185.88,-553.86 184.95,-556.14"/>
<polygon fill="black" stroke="black" points="181.47,-556.58 186.49,-565.91 188.39,-555.48 181.47,-556.58"/>
</g>
<!-- 4 -->
<g id="node6" class="node">
<title>4</title>
<polygon fill="none" stroke="black" points="136.54,-441.4 109.54,-423.4 136.54,-405.4 163.54,-423.4 136.54,-441.4"/>
<text text-anchor="middle" x="136.54" y="-418.73" font-family="Helvetica,sans-Serif" font-size="14.00">4</text>
</g>
<!-- 2&#45;&gt;4 -->
<g id="edge6" class="edge">
<title>2:w&#45;&gt;4:n</title>
<path fill="none" stroke="blue" d="M159.73,-495.4C137.38,-495.4 136.3,-475 136.45,-452.75"/>
<polygon fill="blue" stroke="blue" points="139.95,-452.94 136.53,-442.91 132.95,-452.89 139.95,-452.94"/>
</g>
<!-- 3&#45;&gt;2 -->
<g id="edge5" class="edge">
<title>3:s&#45;&gt;2:e</title>
<path fill="none" stroke="black" d="M221.54,-260.08C221.54,-248.07 240.21,-252.43 248.54,-261.08 259.74,-272.7 250.51,-281.38 248.54,-297.4 246.52,-313.77 242.66,-317.21 239.54,-333.4 233.44,-365.04 249.28,-467.94 227.62,-490.85"/>
<polygon fill="black" stroke="black" points="226.46,-487.54 218.73,-494.79 229.3,-493.94 226.46,-487.54"/>
</g>
<!-- 3&#45;&gt;4 -->
<g id="edge9" class="edge">
<title>3:e&#45;&gt;4:e</title>
<path fill="none" stroke="black" d="M250.35,-279.4C258.36,-279.4 253.13,-290.33 249.35,-297.4 236.82,-320.87 217.72,-312.29 201.54,-333.4 178.08,-364.01 202.13,-411.88 176.61,-421.63"/>
<polygon fill="black" stroke="black" points="176.18,-418.15 166.85,-423.17 177.27,-425.07 176.18,-418.15"/>
</g>
<!-- 5 -->
<g id="node7" class="node">
<title>5</title>
<polygon fill="none" stroke="black" points="122.54,-369.4 95.54,-351.4 122.54,-333.4 149.54,-351.4 122.54,-369.4"/>
<text text-anchor="middle" x="122.54" y="-346.73" font-family="Helvetica,sans-Serif" font-size="14.00">5</text>
</g>
<!-- 4&#45;&gt;5 -->
<g id="edge7" class="edge">
<title>4:s&#45;&gt;5:n</title>
<path fill="none" stroke="black" d="M136.54,-405.4C136.54,-392.79 128.99,-388.55 124.98,-380.38"/>
<polygon fill="black" stroke="black" points="128.45,-379.88 122.87,-370.88 121.62,-381.4 128.45,-379.88"/>
</g>
<!-- 6 -->
<g id="node8" class="node">
<title>6</title>
<polygon fill="none" stroke="black" points="99.54,-225.4 72.54,-207.4 99.54,-189.4 126.54,-207.4 99.54,-225.4"/>
<text text-anchor="middle" x="99.54" y="-202.73" font-family="Helvetica,sans-Serif" font-size="14.00">6</text>
</g>
<!-- 4&#45;&gt;6 -->
<g id="edge10" class="edge">
<title>4:w&#45;&gt;6:n</title>
<path fill="none" stroke="blue" d="M107.73,-423.4C81.94,-423.4 91.33,-394.73 86.54,-369.4 83.6,-353.85 85.76,-278.37 88.54,-261.4 90.5,-249.41 95.42,-244.67 97.96,-236.56"/>
<polygon fill="blue" stroke="blue" points="101.39,-237.29 99.33,-226.9 94.46,-236.31 101.39,-237.29"/>
</g>
<!-- 5&#45;&gt;3 -->
<g id="edge8" class="edge">
<title>5:s&#45;&gt;3:w</title>
<path fill="none" stroke="blue" d="M122.54,-333.4C122.54,-301.15 164.38,-321.74 185.54,-297.4 187.48,-295.17 187.92,-292.34 188.01,-289.6"/>
<polygon fill="blue" stroke="blue" points="191.07,-291.32 192.09,-280.78 184.71,-288.38 191.07,-291.32"/>
</g>
<!-- 7 -->
<g id="node9" class="node">
<title>7</title>
<polygon fill="none" stroke="black" points="149.54,-297.4 122.54,-279.4 149.54,-261.4 176.54,-279.4 149.54,-297.4"/>
<text text-anchor="middle" x="149.54" y="-274.73" font-family="Helvetica,sans-Serif" font-size="14.00">7</text>
</g>
<!-- 5&#45;&gt;7 -->
<g id="edge12" class="edge">
<title>5:e&#45;&gt;7:n</title>
<path fill="none" stroke="blue" d="M151.35,-351.4C171.71,-351.4 156.25,-329.86 151.07,-308.67"/>
<polygon fill="blue" stroke="blue" points="154.56,-308.34 149.74,-298.9 147.62,-309.28 154.56,-308.34"/>
</g>
<!-- 6&#45;&gt;5 -->
<g id="edge11" class="edge">
<title>6:s&#45;&gt;5:w</title>
<path fill="none" stroke="black" d="M99.54,-188.08C99.54,-176.07 118.21,-180.43 126.54,-189.08 137.74,-200.7 129.32,-209.5 126.54,-225.4 117.34,-277.95 48.04,-340.69 82.6,-350.18"/>
<polygon fill="black" stroke="black" points="81.9,-353.62 92.22,-351.24 82.66,-346.66 81.9,-353.62"/>
</g>
<!-- 6&#45;&gt;7 -->
<g id="edge14" class="edge">
<title>6:w&#45;&gt;7:w</title>
<path fill="none" stroke="black" d="M70.73,-207.4C62.71,-207.4 68.41,-218.11 71.73,-225.4 81.18,-246.24 93.87,-243.84 108.54,-261.4 111.15,-264.53 112.01,-268.22 112.85,-271.45"/>
<polygon fill="black" stroke="black" points="110.14,-273.68 119.66,-278.33 115.12,-268.76 110.14,-273.68"/>
</g>
<!-- 7&#45;&gt;b -->
<g id="edge15" class="edge">
<title>7:e&#45;&gt;b:n</title>
<path fill="none" stroke="black" d="M178.35,-279.4C187.78,-279.4 181.28,-253.51 178.06,-236.58"/>
<polygon fill="black" stroke="black" points="181.56,-236.34 176.74,-226.9 174.62,-237.28 181.56,-236.34"/>
</g>
<!-- 7&#45;&gt;6 -->
<g id="edge13" class="edge">
<title>7:s&#45;&gt;6:e</title>
<path fill="none" stroke="black" d="M149.54,-261.4C149.54,-256.72 141.76,-230.33 135.03,-216.26"/>
<polygon fill="black" stroke="black" points="138.08,-214.49 129.26,-208.61 132.49,-218.7 138.08,-214.49"/>
</g>
</g>
</svg>
