<?xml version="1.0" encoding="UTF-8" standalone="no"?>
<!DOCTYPE svg PUBLIC "-//W3C//DTD SVG 1.1//EN"
 "http://www.w3.org/Graphics/SVG/1.1/DTD/svg11.dtd">
<!-- Generated by graphviz version 12.2.1 (20241206.2353)
 -->
<!-- Pages: 1 -->
<svg width="283pt" height="927pt"
 viewBox="0.00 0.00 282.52 927.25" xmlns="http://www.w3.org/2000/svg" xmlns:xlink="http://www.w3.org/1999/xlink">
<g id="graph0" class="graph" transform="scale(1 1) rotate(0) translate(4 923.25)">
<polygon fill="white" stroke="none" points="-4,4 -4,-923.25 278.52,-923.25 278.52,4 -4,4"/>
<text text-anchor="middle" x="137.26" y="-145.95" font-family="Helvetica,sans-Serif" font-size="14.00">1 1 2 3 4 5 2 6 7 3 4 8 5 6 7 8 9 9 </text>
<text text-anchor="middle" x="137.26" y="-128.7" font-family="Helvetica,sans-Serif" font-size="14.00">A double occurrence word</text>
<text text-anchor="middle" x="137.26" y="-111.45" font-family="Helvetica,sans-Serif" font-size="14.00">Already in ascending order</text>
<text text-anchor="middle" x="137.26" y="-94.2" font-family="Helvetica,sans-Serif" font-size="14.00">Palindrome: yes</text>
<text text-anchor="middle" x="137.26" y="-76.95" font-family="Helvetica,sans-Serif" font-size="14.00">Semi&#45;palindrome: yes</text>
<text text-anchor="middle" x="137.26" y="-59.7" font-family="Helvetica,sans-Serif" font-size="14.00">Irreducible: no</text>
<text text-anchor="middle" x="137.26" y="-42.45" font-family="Helvetica,sans-Serif" font-size="14.00">Strongly&#45;irreducible: no</text>
<text text-anchor="middle" x="137.26" y="-25.2" font-family="Helvetica,sans-Serif" font-size="14.00">Assembly number: 2</text>
<text text-anchor="middle" x="137.26" y="-7.95" font-family="Helvetica,sans-Serif" font-size="14.00">Unrealizable</text>
<!-- a -->
<!-- 1 -->
<g id="node3" class="node">
<title>1</title>
<polygon fill="none" stroke="black" points="129.24,-847.25 102.24,-829.25 129.24,-811.25 156.24,-829.25 129.24,-847.25"/>
<text text-anchor="middle" x="129.24" y="-824.58" font-family="Helvetica,sans-Serif" font-size="14.00">1</text>
</g>
<!-- a&#45;&gt;1 -->
<g id="edge1" class="edge">
<title>a:s&#45;&gt;1:n</title>
<path fill="none" stroke="black" d="M129.24,-883.25C129.24,-871.88 129.24,-866.57 129.24,-858.7"/>
<polygon fill="black" stroke="black" points="132.74,-858.76 129.24,-848.76 125.74,-858.76 132.74,-858.76"/>
</g>
<!-- b -->
<!-- 1&#45;&gt;1 -->
<g id="edge2" class="edge">
<title>1:s&#45;&gt;1:w</title>
<path fill="none" stroke="black" d="M129.24,-810.93C114.24,-792.93 84.24,-792.93 84.24,-820.09 84.24,-840.46 90.99,-845.55 96.55,-839.23"/>
<polygon fill="black" stroke="black" points="99.52,-841.13 100.76,-830.61 93.23,-838.06 99.52,-841.13"/>
</g>
<!-- 2 -->
<g id="node4" class="node">
<title>2</title>
<polygon fill="none" stroke="black" points="156.24,-775.25 129.24,-757.25 156.24,-739.25 183.24,-757.25 156.24,-775.25"/>
<text text-anchor="middle" x="156.24" y="-752.58" font-family="Helvetica,sans-Serif" font-size="14.00">2</text>
</g>
<!-- 1&#45;&gt;2 -->
<g id="edge3" class="edge">
<title>1:e&#45;&gt;2:n</title>
<path fill="none" stroke="blue" d="M158.05,-829.25C178.41,-829.25 162.95,-807.7 157.77,-786.51"/>
<polygon fill="blue" stroke="blue" points="161.26,-786.19 156.44,-776.75 154.32,-787.13 161.26,-786.19"/>
</g>
<!-- 3 -->
<g id="node5" class="node">
<title>3</title>
<polygon fill="none" stroke="black" points="156.24,-703.25 129.24,-685.25 156.24,-667.25 183.24,-685.25 156.24,-703.25"/>
<text text-anchor="middle" x="156.24" y="-680.58" font-family="Helvetica,sans-Serif" font-size="14.00">3</text>
</g>
<!-- 2&#45;&gt;3 -->
<g id="edge4" class="edge">
<title>2:s&#45;&gt;3:n</title>
<path fill="none" stroke="black" d="M156.24,-739.25C156.24,-727.88 156.24,-722.57 156.24,-714.7"/>
<polygon fill="black" stroke="black" points="159.74,-714.76 156.24,-704.76 152.74,-714.76 159.74,-714.76"/>
</g>
<!-- 6 -->
<g id="node8" class="node">
<title>6</title>
<polygon fill="none" stroke="black" points="46.24,-487.25 19.24,-469.25 46.24,-451.25 73.24,-469.25 46.24,-487.25"/>
<text text-anchor="middle" x="46.24" y="-464.57" font-family="Helvetica,sans-Serif" font-size="14.00">6</text>
</g>
<!-- 2&#45;&gt;6 -->
<g id="edge8" class="edge">
<title>2:w&#45;&gt;6:n</title>
<path fill="none" stroke="black" d="M127.42,-757.25C5.91,-757.25 43.72,-621.19 46.12,-498.68"/>
<polygon fill="black" stroke="black" points="49.62,-498.8 46.22,-488.76 42.62,-498.73 49.62,-498.8"/>
</g>
<!-- 4 -->
<g id="node6" class="node">
<title>4</title>
<polygon fill="none" stroke="black" points="156.24,-631.25 129.24,-613.25 156.24,-595.25 183.24,-613.25 156.24,-631.25"/>
<text text-anchor="middle" x="156.24" y="-608.58" font-family="Helvetica,sans-Serif" font-size="14.00">4</text>
</g>
<!-- 3&#45;&gt;4 -->
<g id="edge5" class="edge">
<title>3:s&#45;&gt;4:n</title>
<path fill="none" stroke="blue" d="M156.24,-667.25C156.24,-655.88 156.24,-650.57 156.24,-642.7"/>
<polygon fill="blue" stroke="blue" points="159.74,-642.76 156.24,-632.76 152.74,-642.76 159.74,-642.76"/>
</g>
<!-- 3&#45;&gt;4 -->
<g id="edge11" class="edge">
<title>3:e&#45;&gt;4:e</title>
<path fill="none" stroke="black" d="M185.05,-685.25C197.68,-685.25 200.34,-640.42 193.04,-621.51"/>
<polygon fill="black" stroke="black" points="195.57,-619.09 186.1,-614.34 190.54,-623.96 195.57,-619.09"/>
</g>
<!-- 5 -->
<g id="node7" class="node">
<title>5</title>
<polygon fill="none" stroke="black" points="199.24,-559.25 172.24,-541.25 199.24,-523.25 226.24,-541.25 199.24,-559.25"/>
<text text-anchor="middle" x="199.24" y="-536.58" font-family="Helvetica,sans-Serif" font-size="14.00">5</text>
</g>
<!-- 4&#45;&gt;5 -->
<g id="edge6" class="edge">
<title>4:s&#45;&gt;5:n</title>
<path fill="none" stroke="black" d="M156.24,-595.25C156.24,-575 184.62,-580.34 195.27,-569.69"/>
<polygon fill="black" stroke="black" points="198.42,-571.26 198.7,-560.66 191.88,-568.77 198.42,-571.26"/>
</g>
<!-- 8 -->
<g id="node10" class="node">
<title>8</title>
<polygon fill="none" stroke="black" points="139.24,-343.25 112.24,-325.25 139.24,-307.25 166.24,-325.25 139.24,-343.25"/>
<text text-anchor="middle" x="139.24" y="-320.57" font-family="Helvetica,sans-Serif" font-size="14.00">8</text>
</g>
<!-- 4&#45;&gt;8 -->
<g id="edge12" class="edge">
<title>4:w&#45;&gt;8:n</title>
<path fill="none" stroke="blue" d="M127.42,-613.25C99.86,-613.25 132.86,-411.03 138.46,-354.63"/>
<polygon fill="blue" stroke="blue" points="141.94,-354.98 139.13,-344.76 134.96,-354.5 141.94,-354.98"/>
</g>
<!-- 5&#45;&gt;2 -->
<g id="edge7" class="edge">
<title>5:s&#45;&gt;2:e</title>
<path fill="none" stroke="blue" d="M199.24,-521.93C199.24,-509.92 217.9,-514.28 226.24,-522.93 296.89,-596.24 291.33,-745.62 196.42,-756.61"/>
<polygon fill="blue" stroke="blue" points="196.35,-753.11 186.56,-757.16 196.74,-760.1 196.35,-753.11"/>
</g>
<!-- 5&#45;&gt;6 -->
<g id="edge14" class="edge">
<title>5:e&#45;&gt;6:e</title>
<path fill="none" stroke="blue" d="M228.05,-541.25C299.68,-541.25 164.05,-475.84 86.1,-469.71"/>
<polygon fill="blue" stroke="blue" points="86.7,-466.23 76.56,-469.31 86.41,-473.23 86.7,-466.23"/>
</g>
<!-- 7 -->
<g id="node9" class="node">
<title>7</title>
<polygon fill="none" stroke="black" points="65.24,-415.25 38.24,-397.25 65.24,-379.25 92.24,-397.25 65.24,-415.25"/>
<text text-anchor="middle" x="65.24" y="-392.57" font-family="Helvetica,sans-Serif" font-size="14.00">7</text>
</g>
<!-- 6&#45;&gt;7 -->
<g id="edge9" class="edge">
<title>6:s&#45;&gt;7:n</title>
<path fill="none" stroke="blue" d="M46.24,-451.25C46.24,-437.82 56.7,-434.46 62.1,-426.23"/>
<polygon fill="blue" stroke="blue" points="65.44,-427.28 64.82,-416.71 58.71,-425.36 65.44,-427.28"/>
</g>
<!-- 6&#45;&gt;7 -->
<g id="edge15" class="edge">
<title>6:w&#45;&gt;7:w</title>
<path fill="none" stroke="black" d="M17.42,-469.25C-11.79,-469.25 -0.41,-413.14 25.43,-399.98"/>
<polygon fill="black" stroke="black" points="26.1,-403.43 34.96,-397.62 24.41,-396.63 26.1,-403.43"/>
</g>
<!-- 7&#45;&gt;3 -->
<g id="edge10" class="edge">
<title>7:s&#45;&gt;3:w</title>
<path fill="none" stroke="black" d="M65.24,-377.93C65.24,-365.92 83.44,-370.76 92.24,-378.93 102.57,-388.53 118.53,-617.25 120.24,-631.25 122.51,-649.84 111.08,-671.98 116.99,-681.05"/>
<polygon fill="black" stroke="black" points="115.44,-684.2 126.02,-684.69 118.05,-677.71 115.44,-684.2"/>
</g>
<!-- 7&#45;&gt;8 -->
<g id="edge16" class="edge">
<title>7:e&#45;&gt;8:e</title>
<path fill="none" stroke="blue" d="M94.05,-397.25C104.14,-397.25 162.26,-352.13 167.05,-343.25 168.18,-341.16 169.43,-338.72 170.43,-336.33"/>
<polygon fill="blue" stroke="blue" points="173.89,-335.77 168.37,-326.73 167.04,-337.24 173.89,-335.77"/>
</g>
<!-- 8&#45;&gt;5 -->
<g id="edge13" class="edge">
<title>8:s&#45;&gt;5:w</title>
<path fill="none" stroke="black" d="M139.24,-305.93C139.24,-293.92 157.83,-298.36 166.24,-306.93 199.57,-340.91 131.95,-508.55 159.86,-537.11"/>
<polygon fill="black" stroke="black" points="158.43,-540.31 169.02,-540.7 160.98,-533.79 158.43,-540.31"/>
</g>
<!-- 9 -->
<g id="node11" class="node">
<title>9</title>
<polygon fill="none" stroke="black" points="112.24,-271.25 85.24,-253.25 112.24,-235.25 139.24,-253.25 112.24,-271.25"/>
<text text-anchor="middle" x="112.24" y="-248.57" font-family="Helvetica,sans-Serif" font-size="14.00">9</text>
</g>
<!-- 8&#45;&gt;9 -->
<g id="edge17" class="edge">
<title>8:w&#45;&gt;9:n</title>
<path fill="none" stroke="black" d="M110.42,-325.25C90.07,-325.25 105.53,-303.7 110.71,-282.51"/>
<polygon fill="black" stroke="black" points="114.16,-283.13 112.03,-272.75 107.22,-282.19 114.16,-283.13"/>
</g>
<!-- 9&#45;&gt;b -->
<g id="edge19" class="edge">
<title>9:e&#45;&gt;b:n</title>
<path fill="none" stroke="black" d="M141.05,-253.25C161.41,-253.25 145.95,-231.7 140.77,-210.51"/>
<polygon fill="black" stroke="black" points="144.26,-210.19 139.44,-200.75 137.32,-211.13 144.26,-210.19"/>
</g>
<!-- 9&#45;&gt;9 -->
<g id="edge18" class="edge">
<title>9:s&#45;&gt;9:w</title>
<path fill="none" stroke="black" d="M112.24,-234.93C97.24,-216.93 67.24,-216.93 67.24,-244.09 67.24,-264.46 73.99,-269.55 79.55,-263.23"/>
<polygon fill="black" stroke="black" points="82.52,-265.13 83.76,-254.61 76.23,-262.06 82.52,-265.13"/>
</g>
</g>
</svg>
