<?xml version="1.0" encoding="UTF-8" standalone="no"?>
<!DOCTYPE svg PUBLIC "-//W3C//DTD SVG 1.1//EN"
 "http://www.w3.org/Graphics/SVG/1.1/DTD/svg11.dtd">
<!-- Generated by graphviz version 12.2.1 (20241206.2353)
 -->
<!-- Pages: 1 -->
<svg width="370pt" height="801pt"
 viewBox="0.00 0.00 369.75 800.50" xmlns="http://www.w3.org/2000/svg" xmlns:xlink="http://www.w3.org/1999/xlink">
<g id="graph0" class="graph" transform="scale(1 1) rotate(0) translate(4 796.5)">
<polygon fill="white" stroke="none" points="-4,4 -4,-796.5 365.75,-796.5 365.75,4 -4,4"/>
<text text-anchor="middle" x="180.88" y="-163.2" font-family="Helvetica,sans-Serif" font-size="14.00">1 2 3 1 4 5 6 2 3 4 7 5 6 7 </text>
<text text-anchor="middle" x="180.88" y="-145.95" font-family="Helvetica,sans-Serif" font-size="14.00">A double occurrence word</text>
<text text-anchor="middle" x="180.88" y="-128.7" font-family="Helvetica,sans-Serif" font-size="14.00">Already in ascending order</text>
<text text-anchor="middle" x="180.88" y="-111.45" font-family="Helvetica,sans-Serif" font-size="14.00">Palindrome: yes</text>
<text text-anchor="middle" x="180.88" y="-94.2" font-family="Helvetica,sans-Serif" font-size="14.00">Semi&#45;palindrome: yes</text>
<text text-anchor="middle" x="180.88" y="-76.95" font-family="Helvetica,sans-Serif" font-size="14.00">Irreducible: yes</text>
<text text-anchor="middle" x="180.88" y="-59.7" font-family="Helvetica,sans-Serif" font-size="14.00">Strongly&#45;irreducible: yes</text>
<text text-anchor="middle" x="180.88" y="-42.45" font-family="Helvetica,sans-Serif" font-size="14.00">Assembly number: 1</text>
<text text-anchor="middle" x="180.88" y="-25.2" font-family="Helvetica,sans-Serif" font-size="14.00">Edges in Hamiltonion set of polygonal paths: 0 2 4 6 8 10 </text>
<text text-anchor="middle" x="180.88" y="-7.95" font-family="Helvetica,sans-Serif" font-size="14.00">Realizable</text>
<!-- a -->
<!-- 1 -->
<g id="node3" class="node">
<title>1</title>
<polygon fill="none" stroke="black" points="133.51,-720.5 106.51,-702.5 133.51,-684.5 160.51,-702.5 133.51,-720.5"/>
<text text-anchor="middle" x="133.51" y="-697.83" font-family="Helvetica,sans-Serif" font-size="14.00">1</text>
</g>
<!-- a&#45;&gt;1 -->
<g id="edge1" class="edge">
<title>a:s&#45;&gt;1:n</title>
<path fill="none" stroke="black" d="M133.51,-756.5C133.51,-745.12 133.51,-739.82 133.51,-731.95"/>
<polygon fill="black" stroke="black" points="137.01,-732.01 133.51,-722.01 130.01,-732.01 137.01,-732.01"/>
</g>
<!-- b -->
<!-- 2 -->
<g id="node4" class="node">
<title>2</title>
<polygon fill="none" stroke="black" points="133.51,-648.5 106.51,-630.5 133.51,-612.5 160.51,-630.5 133.51,-648.5"/>
<text text-anchor="middle" x="133.51" y="-625.83" font-family="Helvetica,sans-Serif" font-size="14.00">2</text>
</g>
<!-- 1&#45;&gt;2 -->
<g id="edge2" class="edge">
<title>1:s&#45;&gt;2:n</title>
<path fill="none" stroke="blue" d="M133.51,-684.5C133.51,-673.12 133.51,-667.82 133.51,-659.95"/>
<polygon fill="blue" stroke="blue" points="137.01,-660.01 133.51,-650.01 130.01,-660.01 137.01,-660.01"/>
</g>
<!-- 4 -->
<g id="node6" class="node">
<title>4</title>
<polygon fill="none" stroke="black" points="215.51,-504.5 188.51,-486.5 215.51,-468.5 242.51,-486.5 215.51,-504.5"/>
<text text-anchor="middle" x="215.51" y="-481.82" font-family="Helvetica,sans-Serif" font-size="14.00">4</text>
</g>
<!-- 1&#45;&gt;4 -->
<g id="edge5" class="edge">
<title>1:e&#45;&gt;4:n</title>
<path fill="none" stroke="black" d="M162.32,-702.5C249.7,-702.5 218.4,-604.21 215.69,-515.78"/>
<polygon fill="black" stroke="black" points="219.19,-515.96 215.53,-506.01 212.19,-516.07 219.19,-515.96"/>
</g>
<!-- 3 -->
<g id="node5" class="node">
<title>3</title>
<polygon fill="none" stroke="black" points="105.51,-576.5 78.51,-558.5 105.51,-540.5 132.51,-558.5 105.51,-576.5"/>
<text text-anchor="middle" x="105.51" y="-553.83" font-family="Helvetica,sans-Serif" font-size="14.00">3</text>
</g>
<!-- 2&#45;&gt;3 -->
<g id="edge3" class="edge">
<title>2:s&#45;&gt;3:n</title>
<path fill="none" stroke="black" d="M133.51,-612.5C133.51,-596.98 117.1,-596 109.4,-587.3"/>
<polygon fill="black" stroke="black" points="112.71,-586.14 106.02,-577.92 106.12,-588.52 112.71,-586.14"/>
</g>
<!-- 2&#45;&gt;3 -->
<g id="edge9" class="edge">
<title>2:w&#45;&gt;3:w</title>
<path fill="none" stroke="black" d="M104.7,-630.5C101.34,-630.5 78.56,-579.74 77.7,-576.5 77.12,-574.32 76.15,-571.95 75.24,-569.65"/>
<polygon fill="black" stroke="black" points="78.68,-570.37 76.5,-560 71.74,-569.46 78.68,-570.37"/>
</g>
<!-- 3&#45;&gt;1 -->
<g id="edge4" class="edge">
<title>3:s&#45;&gt;1:w</title>
<path fill="none" stroke="blue" d="M105.51,-539.18C105.51,-527.17 124.18,-531.53 132.51,-540.18 143.71,-551.8 138.58,-561.54 132.51,-576.5 124.11,-597.18 105.9,-591.82 97.51,-612.5 84.07,-645.61 68.44,-691.13 93.53,-700.69"/>
<polygon fill="blue" stroke="blue" points="92.77,-704.12 103.2,-702.26 93.89,-697.21 92.77,-704.12"/>
</g>
<!-- 3&#45;&gt;4 -->
<g id="edge10" class="edge">
<title>3:e&#45;&gt;4:e</title>
<path fill="none" stroke="blue" d="M134.32,-558.5C161.35,-558.5 228.44,-527.06 243.32,-504.5 244.7,-502.41 246.1,-499.87 247.12,-497.36"/>
<polygon fill="blue" stroke="blue" points="250.59,-496.77 244.7,-487.97 243.81,-498.52 250.59,-496.77"/>
</g>
<!-- 5 -->
<g id="node7" class="node">
<title>5</title>
<polygon fill="none" stroke="black" points="215.51,-432.5 188.51,-414.5 215.51,-396.5 242.51,-414.5 215.51,-432.5"/>
<text text-anchor="middle" x="215.51" y="-409.82" font-family="Helvetica,sans-Serif" font-size="14.00">5</text>
</g>
<!-- 4&#45;&gt;5 -->
<g id="edge6" class="edge">
<title>4:s&#45;&gt;5:n</title>
<path fill="none" stroke="blue" d="M215.51,-468.5C215.51,-457.12 215.51,-451.82 215.51,-443.95"/>
<polygon fill="blue" stroke="blue" points="219.01,-444.01 215.51,-434.01 212.01,-444.01 219.01,-444.01"/>
</g>
<!-- 7 -->
<g id="node9" class="node">
<title>7</title>
<polygon fill="none" stroke="black" points="232.51,-288.5 205.51,-270.5 232.51,-252.5 259.51,-270.5 232.51,-288.5"/>
<text text-anchor="middle" x="232.51" y="-265.82" font-family="Helvetica,sans-Serif" font-size="14.00">7</text>
</g>
<!-- 4&#45;&gt;7 -->
<g id="edge11" class="edge">
<title>4:w&#45;&gt;7:n</title>
<path fill="none" stroke="black" d="M186.7,-486.5C178.68,-486.5 183.47,-475.3 187.7,-468.5 204.89,-440.85 235.09,-460.62 251.51,-432.5 259.58,-418.68 252.61,-412.46 251.51,-396.5 249.28,-364.27 247.66,-356.22 241.51,-324.5 239.25,-312.86 235.59,-307.88 233.71,-299.87"/>
<polygon fill="black" stroke="black" points="237.2,-299.58 232.67,-290.01 230.24,-300.32 237.2,-299.58"/>
</g>
<!-- 6 -->
<g id="node8" class="node">
<title>6</title>
<polygon fill="none" stroke="black" points="177.51,-360.5 150.51,-342.5 177.51,-324.5 204.51,-342.5 177.51,-360.5"/>
<text text-anchor="middle" x="177.51" y="-337.82" font-family="Helvetica,sans-Serif" font-size="14.00">6</text>
</g>
<!-- 5&#45;&gt;6 -->
<g id="edge7" class="edge">
<title>5:s&#45;&gt;6:n</title>
<path fill="none" stroke="black" d="M215.51,-396.5C215.51,-377.96 191.38,-380.88 181.58,-371.06"/>
<polygon fill="black" stroke="black" points="184.91,-369.99 178.05,-361.91 178.38,-372.5 184.91,-369.99"/>
</g>
<!-- 5&#45;&gt;6 -->
<g id="edge13" class="edge">
<title>5:e&#45;&gt;6:e</title>
<path fill="none" stroke="black" d="M244.32,-414.5C252.33,-414.5 245.91,-404.08 243.32,-396.5 237.03,-378.11 229.47,-376.55 218.51,-360.5 216.21,-357.13 215.4,-353.41 214.51,-350.22"/>
<polygon fill="black" stroke="black" points="217.1,-347.85 207.42,-343.54 212.3,-352.94 217.1,-347.85"/>
</g>
<!-- 6&#45;&gt;2 -->
<g id="edge8" class="edge">
<title>6:s&#45;&gt;2:e</title>
<path fill="none" stroke="blue" d="M177.51,-323.18C177.51,-292.32 222.03,-304.56 204.51,-360.5 198.69,-379.09 186.01,-378.14 179.51,-396.5 171.86,-418.1 184.52,-582.49 170,-621.99"/>
<polygon fill="blue" stroke="blue" points="167.43,-619.61 163.34,-629.38 172.63,-624.29 167.43,-619.61"/>
</g>
<!-- 6&#45;&gt;7 -->
<g id="edge14" class="edge">
<title>6:w&#45;&gt;7:w</title>
<path fill="none" stroke="black" d="M148.7,-342.5C112.05,-342.5 154.31,-282.86 192.57,-272.14"/>
<polygon fill="black" stroke="black" points="192.82,-275.64 202.2,-270.72 191.8,-268.71 192.82,-275.64"/>
</g>
<!-- 7&#45;&gt;b -->
<g id="edge15" class="edge">
<title>7:e&#45;&gt;b:n</title>
<path fill="none" stroke="black" d="M261.32,-270.5C281.68,-270.5 266.22,-248.95 261.04,-227.76"/>
<polygon fill="black" stroke="black" points="264.53,-227.44 259.71,-218 257.59,-228.38 264.53,-227.44"/>
</g>
<!-- 7&#45;&gt;5 -->
<g id="edge12" class="edge">
<title>7:s&#45;&gt;5:w</title>
<path fill="none" stroke="blue" d="M232.51,-251.18C232.51,-239.17 251.18,-243.53 259.51,-252.18 270.71,-263.8 264.04,-273.01 259.51,-288.5 248.86,-324.95 234.8,-329.06 213.51,-360.5 202.47,-376.8 194.24,-377.93 187.7,-396.5 186.95,-398.63 185.91,-400.98 184.98,-403.26"/>
<polygon fill="blue" stroke="blue" points="181.49,-403.65 186.47,-413 188.41,-402.59 181.49,-403.65"/>
</g>
</g>
</svg>
