<?xml version="1.0" encoding="UTF-8" standalone="no"?>
<!DOCTYPE svg PUBLIC "-//W3C//DTD SVG 1.1//EN"
 "http://www.w3.org/Graphics/SVG/1.1/DTD/svg11.dtd">
<!-- Generated by graphviz version 12.2.1 (20241206.2353)
 -->
<!-- Pages: 1 -->
<svg width="368pt" height="801pt"
 viewBox="0.00 0.00 368.25 800.50" xmlns="http://www.w3.org/2000/svg" xmlns:xlink="http://www.w3.org/1999/xlink">
<g id="graph0" class="graph" transform="scale(1 1) rotate(0) translate(4 796.5)">
<polygon fill="white" stroke="none" points="-4,4 -4,-796.5 364.25,-796.5 364.25,4 -4,4"/>
<text text-anchor="middle" x="180.12" y="-163.2" font-family="Helvetica,sans-Serif" font-size="14.00">1 2 1 2 3 4 5 3 4 5 6 7 6 7 </text>
<text text-anchor="middle" x="180.12" y="-145.95" font-family="Helvetica,sans-Serif" font-size="14.00">A double occurrence word</text>
<text text-anchor="middle" x="180.12" y="-128.7" font-family="Helvetica,sans-Serif" font-size="14.00">Already in ascending order</text>
<text text-anchor="middle" x="180.12" y="-111.45" font-family="Helvetica,sans-Serif" font-size="14.00">Palindrome: yes</text>
<text text-anchor="middle" x="180.12" y="-94.2" font-family="Helvetica,sans-Serif" font-size="14.00">Semi&#45;palindrome: yes</text>
<text text-anchor="middle" x="180.12" y="-76.95" font-family="Helvetica,sans-Serif" font-size="14.00">Irreducible: no</text>
<text text-anchor="middle" x="180.12" y="-59.7" font-family="Helvetica,sans-Serif" font-size="14.00">Strongly&#45;irreducible: no</text>
<text text-anchor="middle" x="180.12" y="-42.45" font-family="Helvetica,sans-Serif" font-size="14.00">Assembly number: 1</text>
<text text-anchor="middle" x="180.12" y="-25.2" font-family="Helvetica,sans-Serif" font-size="14.00">Edges in Hamiltonion set of polygonal paths: 0 3 5 7 9 11 </text>
<text text-anchor="middle" x="180.12" y="-7.95" font-family="Helvetica,sans-Serif" font-size="14.00">Realizable</text>
<!-- a -->
<!-- 1 -->
<g id="node3" class="node">
<title>1</title>
<polygon fill="none" stroke="black" points="194.22,-720.5 167.22,-702.5 194.22,-684.5 221.22,-702.5 194.22,-720.5"/>
<text text-anchor="middle" x="194.22" y="-697.83" font-family="Helvetica,sans-Serif" font-size="14.00">1</text>
</g>
<!-- a&#45;&gt;1 -->
<g id="edge1" class="edge">
<title>a:s&#45;&gt;1:n</title>
<path fill="none" stroke="black" d="M194.22,-756.5C194.22,-745.12 194.22,-739.82 194.22,-731.95"/>
<polygon fill="black" stroke="black" points="197.72,-732.01 194.22,-722.01 190.72,-732.01 197.72,-732.01"/>
</g>
<!-- b -->
<!-- 2 -->
<g id="node4" class="node">
<title>2</title>
<polygon fill="none" stroke="black" points="194.22,-648.5 167.22,-630.5 194.22,-612.5 221.22,-630.5 194.22,-648.5"/>
<text text-anchor="middle" x="194.22" y="-625.83" font-family="Helvetica,sans-Serif" font-size="14.00">2</text>
</g>
<!-- 1&#45;&gt;2 -->
<g id="edge2" class="edge">
<title>1:s&#45;&gt;2:n</title>
<path fill="none" stroke="blue" d="M194.22,-684.5C194.22,-673.12 194.22,-667.82 194.22,-659.95"/>
<polygon fill="blue" stroke="blue" points="197.72,-660.01 194.22,-650.01 190.72,-660.01 197.72,-660.01"/>
</g>
<!-- 1&#45;&gt;2 -->
<g id="edge4" class="edge">
<title>1:e&#45;&gt;2:e</title>
<path fill="none" stroke="black" d="M223.03,-702.5C250.91,-702.5 254.5,-647.87 233.81,-633.78"/>
<polygon fill="black" stroke="black" points="235.07,-630.5 224.48,-630.94 233.03,-637.2 235.07,-630.5"/>
</g>
<!-- 2&#45;&gt;1 -->
<g id="edge3" class="edge">
<title>2:s&#45;&gt;1:w</title>
<path fill="none" stroke="black" d="M194.22,-611.18C194.22,-599.17 212.89,-603.53 221.22,-612.18 232.42,-623.8 228.88,-634.29 221.22,-648.5 207.38,-674.15 180.95,-659.24 166.41,-684.5 165.22,-686.56 163.94,-688.98 162.94,-691.37"/>
<polygon fill="black" stroke="black" points="159.5,-692.01 165.08,-701.02 166.33,-690.5 159.5,-692.01"/>
</g>
<!-- 3 -->
<g id="node5" class="node">
<title>3</title>
<polygon fill="none" stroke="black" points="167.22,-576.5 140.22,-558.5 167.22,-540.5 194.22,-558.5 167.22,-576.5"/>
<text text-anchor="middle" x="167.22" y="-553.83" font-family="Helvetica,sans-Serif" font-size="14.00">3</text>
</g>
<!-- 2&#45;&gt;3 -->
<g id="edge5" class="edge">
<title>2:w&#45;&gt;3:n</title>
<path fill="none" stroke="blue" d="M165.41,-630.5C145.05,-630.5 160.51,-608.95 165.69,-587.76"/>
<polygon fill="blue" stroke="blue" points="169.14,-588.38 167.01,-578 162.2,-587.44 169.14,-588.38"/>
</g>
<!-- 4 -->
<g id="node6" class="node">
<title>4</title>
<polygon fill="none" stroke="black" points="167.22,-504.5 140.22,-486.5 167.22,-468.5 194.22,-486.5 167.22,-504.5"/>
<text text-anchor="middle" x="167.22" y="-481.82" font-family="Helvetica,sans-Serif" font-size="14.00">4</text>
</g>
<!-- 3&#45;&gt;4 -->
<g id="edge6" class="edge">
<title>3:s&#45;&gt;4:n</title>
<path fill="none" stroke="black" d="M167.22,-540.5C167.22,-529.12 167.22,-523.82 167.22,-515.95"/>
<polygon fill="black" stroke="black" points="170.72,-516.01 167.22,-506.01 163.72,-516.01 170.72,-516.01"/>
</g>
<!-- 3&#45;&gt;4 -->
<g id="edge9" class="edge">
<title>3:e&#45;&gt;4:e</title>
<path fill="none" stroke="blue" d="M196.03,-558.5C223.91,-558.5 227.5,-503.87 206.81,-489.78"/>
<polygon fill="blue" stroke="blue" points="208.07,-486.5 197.48,-486.94 206.03,-493.2 208.07,-486.5"/>
</g>
<!-- 5 -->
<g id="node7" class="node">
<title>5</title>
<polygon fill="none" stroke="black" points="167.22,-432.5 140.22,-414.5 167.22,-396.5 194.22,-414.5 167.22,-432.5"/>
<text text-anchor="middle" x="167.22" y="-409.82" font-family="Helvetica,sans-Serif" font-size="14.00">5</text>
</g>
<!-- 4&#45;&gt;5 -->
<g id="edge7" class="edge">
<title>4:s&#45;&gt;5:n</title>
<path fill="none" stroke="blue" d="M167.22,-468.5C167.22,-457.12 167.22,-451.82 167.22,-443.95"/>
<polygon fill="blue" stroke="blue" points="170.72,-444.01 167.22,-434.01 163.72,-444.01 170.72,-444.01"/>
</g>
<!-- 4&#45;&gt;5 -->
<g id="edge10" class="edge">
<title>4:w&#45;&gt;5:w</title>
<path fill="none" stroke="black" d="M138.41,-486.5C125.78,-486.5 123.12,-441.67 130.42,-422.76"/>
<polygon fill="black" stroke="black" points="132.92,-425.21 137.35,-415.59 127.89,-420.34 132.92,-425.21"/>
</g>
<!-- 5&#45;&gt;3 -->
<g id="edge8" class="edge">
<title>5:s&#45;&gt;3:w</title>
<path fill="none" stroke="black" d="M167.22,-395.18C167.22,-371.78 229.26,-372.12 194.22,-432.5 178.03,-460.39 147.41,-440.61 131.22,-468.5 113.28,-499.41 101.17,-546.65 127.08,-556.61"/>
<polygon fill="black" stroke="black" points="126.47,-560.06 136.91,-558.25 127.62,-553.16 126.47,-560.06"/>
</g>
<!-- 6 -->
<g id="node8" class="node">
<title>6</title>
<polygon fill="none" stroke="black" points="194.22,-360.5 167.22,-342.5 194.22,-324.5 221.22,-342.5 194.22,-360.5"/>
<text text-anchor="middle" x="194.22" y="-337.82" font-family="Helvetica,sans-Serif" font-size="14.00">6</text>
</g>
<!-- 5&#45;&gt;6 -->
<g id="edge11" class="edge">
<title>5:e&#45;&gt;6:n</title>
<path fill="none" stroke="blue" d="M196.03,-414.5C216.39,-414.5 200.93,-392.95 195.75,-371.76"/>
<polygon fill="blue" stroke="blue" points="199.24,-371.44 194.42,-362 192.3,-372.38 199.24,-371.44"/>
</g>
<!-- 7 -->
<g id="node9" class="node">
<title>7</title>
<polygon fill="none" stroke="black" points="194.22,-288.5 167.22,-270.5 194.22,-252.5 221.22,-270.5 194.22,-288.5"/>
<text text-anchor="middle" x="194.22" y="-265.82" font-family="Helvetica,sans-Serif" font-size="14.00">7</text>
</g>
<!-- 6&#45;&gt;7 -->
<g id="edge12" class="edge">
<title>6:s&#45;&gt;7:n</title>
<path fill="none" stroke="black" d="M194.22,-324.5C194.22,-313.12 194.22,-307.82 194.22,-299.95"/>
<polygon fill="black" stroke="black" points="197.72,-300.01 194.22,-290.01 190.72,-300.01 197.72,-300.01"/>
</g>
<!-- 6&#45;&gt;7 -->
<g id="edge14" class="edge">
<title>6:w&#45;&gt;7:w</title>
<path fill="none" stroke="black" d="M165.41,-342.5C137.53,-342.5 133.94,-287.87 154.63,-273.78"/>
<polygon fill="black" stroke="black" points="155.41,-277.2 163.96,-270.94 153.37,-270.5 155.41,-277.2"/>
</g>
<!-- 7&#45;&gt;b -->
<g id="edge15" class="edge">
<title>7:e&#45;&gt;b:n</title>
<path fill="none" stroke="black" d="M223.03,-270.5C243.39,-270.5 227.93,-248.95 222.75,-227.76"/>
<polygon fill="black" stroke="black" points="226.24,-227.44 221.42,-218 219.3,-228.38 226.24,-227.44"/>
</g>
<!-- 7&#45;&gt;6 -->
<g id="edge13" class="edge">
<title>7:s&#45;&gt;6:e</title>
<path fill="none" stroke="blue" d="M194.22,-251.18C194.22,-239.17 212.8,-243.62 221.22,-252.18 246.29,-277.68 259.99,-329.4 234.32,-340.41"/>
<polygon fill="blue" stroke="blue" points="233.72,-336.96 224.52,-342.22 234.99,-343.85 233.72,-336.96"/>
</g>
</g>
</svg>
