<?xml version="1.0" encoding="UTF-8" standalone="no"?>
<!DOCTYPE svg PUBLIC "-//W3C//DTD SVG 1.1//EN"
 "http://www.w3.org/Graphics/SVG/1.1/DTD/svg11.dtd">
<!-- Generated by graphviz version 12.2.1 (20241206.2353)
 -->
<!-- Pages: 1 -->
<svg width="299pt" height="1071pt"
 viewBox="0.00 0.00 298.50 1071.25" xmlns="http://www.w3.org/2000/svg" xmlns:xlink="http://www.w3.org/1999/xlink">
<g id="graph0" class="graph" transform="scale(1 1) rotate(0) translate(4 1067.25)">
<polygon fill="white" stroke="none" points="-4,4 -4,-1067.25 294.5,-1067.25 294.5,4 -4,4"/>
<text text-anchor="middle" x="145.25" y="-145.95" font-family="Helvetica,sans-Serif" font-size="14.00">1 1 2 3 4 2 5 3 4 5 6 6 7 8 9 7 10 8 9 10 11 11 </text>
<text text-anchor="middle" x="145.25" y="-128.7" font-family="Helvetica,sans-Serif" font-size="14.00">A double occurrence word</text>
<text text-anchor="middle" x="145.25" y="-111.45" font-family="Helvetica,sans-Serif" font-size="14.00">Already in ascending order</text>
<text text-anchor="middle" x="145.25" y="-94.2" font-family="Helvetica,sans-Serif" font-size="14.00">Palindrome: yes</text>
<text text-anchor="middle" x="145.25" y="-76.95" font-family="Helvetica,sans-Serif" font-size="14.00">Semi&#45;palindrome: yes</text>
<text text-anchor="middle" x="145.25" y="-59.7" font-family="Helvetica,sans-Serif" font-size="14.00">Irreducible: no</text>
<text text-anchor="middle" x="145.25" y="-42.45" font-family="Helvetica,sans-Serif" font-size="14.00">Strongly&#45;irreducible: no</text>
<text text-anchor="middle" x="145.25" y="-25.2" font-family="Helvetica,sans-Serif" font-size="14.00">Assembly number: 3</text>
<text text-anchor="middle" x="145.25" y="-7.95" font-family="Helvetica,sans-Serif" font-size="14.00">Unrealizable</text>
<!-- a -->
<!-- 1 -->
<g id="node3" class="node">
<title>1</title>
<polygon fill="none" stroke="black" points="116.24,-991.25 89.24,-973.25 116.24,-955.25 143.24,-973.25 116.24,-991.25"/>
<text text-anchor="middle" x="116.24" y="-968.58" font-family="Helvetica,sans-Serif" font-size="14.00">1</text>
</g>
<!-- a&#45;&gt;1 -->
<g id="edge1" class="edge">
<title>a:s&#45;&gt;1:n</title>
<path fill="none" stroke="black" d="M116.24,-1027.25C116.24,-1015.88 116.24,-1010.57 116.24,-1002.7"/>
<polygon fill="black" stroke="black" points="119.74,-1002.76 116.24,-992.76 112.74,-1002.76 119.74,-1002.76"/>
</g>
<!-- b -->
<!-- 1&#45;&gt;1 -->
<g id="edge2" class="edge">
<title>1:s&#45;&gt;1:w</title>
<path fill="none" stroke="black" d="M116.24,-954.93C101.24,-936.93 71.24,-936.93 71.24,-964.09 71.24,-984.46 77.99,-989.55 83.55,-983.23"/>
<polygon fill="black" stroke="black" points="86.52,-985.13 87.76,-974.61 80.23,-982.06 86.52,-985.13"/>
</g>
<!-- 2 -->
<g id="node4" class="node">
<title>2</title>
<polygon fill="none" stroke="black" points="143.24,-919.25 116.24,-901.25 143.24,-883.25 170.24,-901.25 143.24,-919.25"/>
<text text-anchor="middle" x="143.24" y="-896.58" font-family="Helvetica,sans-Serif" font-size="14.00">2</text>
</g>
<!-- 1&#45;&gt;2 -->
<g id="edge3" class="edge">
<title>1:e&#45;&gt;2:n</title>
<path fill="none" stroke="black" d="M145.05,-973.25C165.41,-973.25 149.95,-951.7 144.77,-930.51"/>
<polygon fill="black" stroke="black" points="148.26,-930.19 143.44,-920.75 141.32,-931.13 148.26,-930.19"/>
</g>
<!-- 3 -->
<g id="node5" class="node">
<title>3</title>
<polygon fill="none" stroke="black" points="143.24,-847.25 116.24,-829.25 143.24,-811.25 170.24,-829.25 143.24,-847.25"/>
<text text-anchor="middle" x="143.24" y="-824.58" font-family="Helvetica,sans-Serif" font-size="14.00">3</text>
</g>
<!-- 2&#45;&gt;3 -->
<g id="edge4" class="edge">
<title>2:s&#45;&gt;3:n</title>
<path fill="none" stroke="black" d="M143.24,-883.25C143.24,-871.88 143.24,-866.57 143.24,-858.7"/>
<polygon fill="black" stroke="black" points="146.74,-858.76 143.24,-848.76 139.74,-858.76 146.74,-858.76"/>
</g>
<!-- 5 -->
<g id="node7" class="node">
<title>5</title>
<polygon fill="none" stroke="black" points="116.24,-703.25 89.24,-685.25 116.24,-667.25 143.24,-685.25 116.24,-703.25"/>
<text text-anchor="middle" x="116.24" y="-680.58" font-family="Helvetica,sans-Serif" font-size="14.00">5</text>
</g>
<!-- 2&#45;&gt;5 -->
<g id="edge7" class="edge">
<title>2:w&#45;&gt;5:n</title>
<path fill="none" stroke="black" d="M114.43,-901.25C91.72,-901.25 112.51,-767.19 115.81,-714.5"/>
<polygon fill="black" stroke="black" points="119.3,-714.89 116.18,-704.76 112.31,-714.62 119.3,-714.89"/>
</g>
<!-- 4 -->
<g id="node6" class="node">
<title>4</title>
<polygon fill="none" stroke="black" points="171.24,-775.25 144.24,-757.25 171.24,-739.25 198.24,-757.25 171.24,-775.25"/>
<text text-anchor="middle" x="171.24" y="-752.58" font-family="Helvetica,sans-Serif" font-size="14.00">4</text>
</g>
<!-- 3&#45;&gt;4 -->
<g id="edge5" class="edge">
<title>3:s&#45;&gt;4:n</title>
<path fill="none" stroke="black" d="M143.24,-811.25C143.24,-795.73 159.65,-794.75 167.35,-786.05"/>
<polygon fill="black" stroke="black" points="170.63,-787.27 170.73,-776.67 164.04,-784.89 170.63,-787.27"/>
</g>
<!-- 3&#45;&gt;4 -->
<g id="edge9" class="edge">
<title>3:e&#45;&gt;4:e</title>
<path fill="none" stroke="black" d="M172.05,-829.25C175.41,-829.25 198.19,-778.49 199.05,-775.25 199.63,-773.07 200.6,-770.7 201.51,-768.4"/>
<polygon fill="black" stroke="black" points="205.01,-768.21 200.25,-758.75 198.07,-769.12 205.01,-768.21"/>
</g>
<!-- 4&#45;&gt;2 -->
<g id="edge6" class="edge">
<title>4:s&#45;&gt;2:e</title>
<path fill="none" stroke="black" d="M171.24,-737.93C171.24,-725.92 189.91,-730.28 198.24,-738.93 246.17,-788.67 245.38,-889.42 183.42,-900.29"/>
<polygon fill="black" stroke="black" points="183.23,-896.8 173.56,-901.12 183.82,-903.77 183.23,-896.8"/>
</g>
<!-- 4&#45;&gt;5 -->
<g id="edge10" class="edge">
<title>4:w&#45;&gt;5:w</title>
<path fill="none" stroke="black" d="M142.43,-757.25C132.77,-757.25 136.66,-746.46 130.24,-739.25 113.93,-720.94 99.26,-725.25 88.43,-703.25 87.38,-701.12 86.15,-698.66 85.17,-696.27"/>
<polygon fill="black" stroke="black" points="88.54,-697.23 87.12,-686.73 81.68,-695.83 88.54,-697.23"/>
</g>
<!-- 5&#45;&gt;3 -->
<g id="edge8" class="edge">
<title>5:s&#45;&gt;3:w</title>
<path fill="none" stroke="black" d="M116.24,-665.93C116.24,-653.92 134.91,-658.28 143.24,-666.93 154.44,-678.55 145.27,-687.24 143.24,-703.25 140.12,-727.84 119.22,-786.76 115.43,-811.25 115.1,-813.35 114.31,-815.61 113.48,-817.79"/>
<polygon fill="black" stroke="black" points="109.99,-818.06 114.3,-827.74 116.97,-817.49 109.99,-818.06"/>
</g>
<!-- 6 -->
<g id="node8" class="node">
<title>6</title>
<polygon fill="none" stroke="black" points="143.24,-631.25 116.24,-613.25 143.24,-595.25 170.24,-613.25 143.24,-631.25"/>
<text text-anchor="middle" x="143.24" y="-608.58" font-family="Helvetica,sans-Serif" font-size="14.00">6</text>
</g>
<!-- 5&#45;&gt;6 -->
<g id="edge11" class="edge">
<title>5:e&#45;&gt;6:n</title>
<path fill="none" stroke="black" d="M145.05,-685.25C165.41,-685.25 149.95,-663.7 144.77,-642.51"/>
<polygon fill="black" stroke="black" points="148.26,-642.19 143.44,-632.75 141.32,-643.13 148.26,-642.19"/>
</g>
<!-- 6&#45;&gt;6 -->
<g id="edge12" class="edge">
<title>6:s&#45;&gt;6:e</title>
<path fill="none" stroke="black" d="M143.24,-594.93C158.24,-576.93 188.24,-576.93 188.24,-604.09 188.24,-624.46 181.49,-629.55 175.93,-623.23"/>
<polygon fill="black" stroke="black" points="179.25,-622.06 171.72,-614.61 172.96,-625.13 179.25,-622.06"/>
</g>
<!-- 7 -->
<g id="node9" class="node">
<title>7</title>
<polygon fill="none" stroke="black" points="116.24,-559.25 89.24,-541.25 116.24,-523.25 143.24,-541.25 116.24,-559.25"/>
<text text-anchor="middle" x="116.24" y="-536.58" font-family="Helvetica,sans-Serif" font-size="14.00">7</text>
</g>
<!-- 6&#45;&gt;7 -->
<g id="edge13" class="edge">
<title>6:w&#45;&gt;7:n</title>
<path fill="none" stroke="black" d="M114.43,-613.25C94.07,-613.25 109.53,-591.7 114.71,-570.51"/>
<polygon fill="black" stroke="black" points="118.16,-571.13 116.04,-560.75 111.22,-570.19 118.16,-571.13"/>
</g>
<!-- 8 -->
<g id="node10" class="node">
<title>8</title>
<polygon fill="none" stroke="black" points="116.24,-487.25 89.24,-469.25 116.24,-451.25 143.24,-469.25 116.24,-487.25"/>
<text text-anchor="middle" x="116.24" y="-464.57" font-family="Helvetica,sans-Serif" font-size="14.00">8</text>
</g>
<!-- 7&#45;&gt;8 -->
<g id="edge14" class="edge">
<title>7:s&#45;&gt;8:n</title>
<path fill="none" stroke="black" d="M116.24,-523.25C116.24,-511.88 116.24,-506.57 116.24,-498.7"/>
<polygon fill="black" stroke="black" points="119.74,-498.76 116.24,-488.76 112.74,-498.76 119.74,-498.76"/>
</g>
<!-- 10 -->
<g id="node12" class="node">
<title>10</title>
<polygon fill="none" stroke="black" points="143.24,-343.25 112.49,-325.25 143.24,-307.25 173.99,-325.25 143.24,-343.25"/>
<text text-anchor="middle" x="143.24" y="-320.57" font-family="Helvetica,sans-Serif" font-size="14.00">10</text>
</g>
<!-- 7&#45;&gt;10 -->
<g id="edge17" class="edge">
<title>7:e&#45;&gt;10:n</title>
<path fill="none" stroke="black" d="M145.05,-541.25C217.72,-541.25 188.3,-448.8 167.24,-379.25 163.02,-365.3 151.41,-362.86 146.04,-354.13"/>
<polygon fill="black" stroke="black" points="149.5,-353.53 143.62,-344.72 142.72,-355.27 149.5,-353.53"/>
</g>
<!-- 9 -->
<g id="node11" class="node">
<title>9</title>
<polygon fill="none" stroke="black" points="88.24,-415.25 61.24,-397.25 88.24,-379.25 115.24,-397.25 88.24,-415.25"/>
<text text-anchor="middle" x="88.24" y="-392.57" font-family="Helvetica,sans-Serif" font-size="14.00">9</text>
</g>
<!-- 8&#45;&gt;9 -->
<g id="edge15" class="edge">
<title>8:s&#45;&gt;9:n</title>
<path fill="none" stroke="black" d="M116.24,-451.25C116.24,-435.73 99.83,-434.75 92.13,-426.05"/>
<polygon fill="black" stroke="black" points="95.44,-424.89 88.75,-416.67 88.85,-427.27 95.44,-424.89"/>
</g>
<!-- 8&#45;&gt;9 -->
<g id="edge19" class="edge">
<title>8:w&#45;&gt;9:w</title>
<path fill="none" stroke="black" d="M87.43,-469.25C84.07,-469.25 61.29,-418.49 60.43,-415.25 59.85,-413.07 58.88,-410.7 57.97,-408.4"/>
<polygon fill="black" stroke="black" points="61.41,-409.12 59.23,-398.75 54.47,-408.21 61.41,-409.12"/>
</g>
<!-- 9&#45;&gt;7 -->
<g id="edge16" class="edge">
<title>9:s&#45;&gt;7:w</title>
<path fill="none" stroke="black" d="M88.24,-377.93C88.24,-365.92 106.91,-370.28 115.24,-378.93 126.44,-390.55 121.31,-400.29 115.24,-415.25 106.85,-435.93 88.63,-430.57 80.24,-451.25 66.8,-484.36 51.17,-529.88 76.26,-539.44"/>
<polygon fill="black" stroke="black" points="75.5,-542.87 85.93,-541.01 76.62,-535.96 75.5,-542.87"/>
</g>
<!-- 9&#45;&gt;10 -->
<g id="edge20" class="edge">
<title>9:e&#45;&gt;10:e</title>
<path fill="none" stroke="black" d="M117.05,-397.25C126.71,-397.25 122.66,-386.32 129.24,-379.25 146.85,-360.32 163,-366.18 174.92,-343.25 176.02,-341.14 177.26,-338.7 178.25,-336.3"/>
<polygon fill="black" stroke="black" points="181.72,-335.79 176.23,-326.73 174.87,-337.24 181.72,-335.79"/>
</g>
<!-- 10&#45;&gt;8 -->
<g id="edge18" class="edge">
<title>10:s&#45;&gt;8:e</title>
<path fill="none" stroke="black" d="M143.24,-305.83C143.24,-292.16 164.48,-297.01 173.99,-306.83 185.25,-318.46 175.82,-327.17 173.99,-343.25 173.66,-346.18 156.82,-429.09 148.79,-458.79"/>
<polygon fill="black" stroke="black" points="145.63,-457.23 145.56,-467.82 152.22,-459.59 145.63,-457.23"/>
</g>
<!-- 11 -->
<g id="node13" class="node">
<title>11</title>
<polygon fill="none" stroke="black" points="112.24,-271.25 82.97,-253.25 112.24,-235.25 141.5,-253.25 112.24,-271.25"/>
<text text-anchor="middle" x="112.24" y="-248.57" font-family="Helvetica,sans-Serif" font-size="14.00">11</text>
</g>
<!-- 10&#45;&gt;11 -->
<g id="edge21" class="edge">
<title>10:w&#45;&gt;11:n</title>
<path fill="none" stroke="black" d="M110.56,-325.25C90.21,-325.25 105.57,-303.7 110.72,-282.51"/>
<polygon fill="black" stroke="black" points="114.17,-283.13 112.04,-272.75 107.23,-282.19 114.17,-283.13"/>
</g>
<!-- 11&#45;&gt;b -->
<g id="edge23" class="edge">
<title>11:e&#45;&gt;b:n</title>
<path fill="none" stroke="black" d="M143.39,-253.25C163.73,-253.25 148.76,-231.7 143.73,-210.51"/>
<polygon fill="black" stroke="black" points="147.22,-210.21 142.44,-200.75 140.28,-211.12 147.22,-210.21"/>
</g>
<!-- 11&#45;&gt;11 -->
<g id="edge22" class="edge">
<title>11:s&#45;&gt;11:w</title>
<path fill="none" stroke="black" d="M112.24,-234.7C96.48,-216.7 64.97,-216.7 64.97,-243.98 64.97,-264.43 71.72,-269.55 77.26,-263.23"/>
<polygon fill="black" stroke="black" points="80.22,-265.14 81.43,-254.61 73.92,-262.09 80.22,-265.14"/>
</g>
</g>
</svg>
