<?xml version="1.0" encoding="UTF-8" standalone="no"?>
<!DOCTYPE svg PUBLIC "-//W3C//DTD SVG 1.1//EN"
 "http://www.w3.org/Graphics/SVG/1.1/DTD/svg11.dtd">
<!-- Generated by graphviz version 12.2.1 (20241206.2353)
 -->
<!-- Pages: 1 -->
<svg width="370pt" height="801pt"
 viewBox="0.00 0.00 369.75 800.50" xmlns="http://www.w3.org/2000/svg" xmlns:xlink="http://www.w3.org/1999/xlink">
<g id="graph0" class="graph" transform="scale(1 1) rotate(0) translate(4 796.5)">
<polygon fill="white" stroke="none" points="-4,4 -4,-796.5 365.75,-796.5 365.75,4 -4,4"/>
<text text-anchor="middle" x="180.88" y="-163.2" font-family="Helvetica,sans-Serif" font-size="14.00">1 2 3 1 2 4 5 3 4 6 7 5 6 7 </text>
<text text-anchor="middle" x="180.88" y="-145.95" font-family="Helvetica,sans-Serif" font-size="14.00">A double occurrence word</text>
<text text-anchor="middle" x="180.88" y="-128.7" font-family="Helvetica,sans-Serif" font-size="14.00">Already in ascending order</text>
<text text-anchor="middle" x="180.88" y="-111.45" font-family="Helvetica,sans-Serif" font-size="14.00">Palindrome: yes</text>
<text text-anchor="middle" x="180.88" y="-94.2" font-family="Helvetica,sans-Serif" font-size="14.00">Semi&#45;palindrome: yes</text>
<text text-anchor="middle" x="180.88" y="-76.95" font-family="Helvetica,sans-Serif" font-size="14.00">Irreducible: yes</text>
<text text-anchor="middle" x="180.88" y="-59.7" font-family="Helvetica,sans-Serif" font-size="14.00">Strongly&#45;irreducible: yes</text>
<text text-anchor="middle" x="180.88" y="-42.45" font-family="Helvetica,sans-Serif" font-size="14.00">Assembly number: 1</text>
<text text-anchor="middle" x="180.88" y="-25.2" font-family="Helvetica,sans-Serif" font-size="14.00">Edges in Hamiltonion set of polygonal paths: 0 2 4 6 8 10 </text>
<text text-anchor="middle" x="180.88" y="-7.95" font-family="Helvetica,sans-Serif" font-size="14.00">Realizable</text>
<!-- a -->
<!-- 1 -->
<g id="node3" class="node">
<title>1</title>
<polygon fill="none" stroke="black" points="221.88,-720.5 194.88,-702.5 221.88,-684.5 248.88,-702.5 221.88,-720.5"/>
<text text-anchor="middle" x="221.88" y="-697.83" font-family="Helvetica,sans-Serif" font-size="14.00">1</text>
</g>
<!-- a&#45;&gt;1 -->
<g id="edge1" class="edge">
<title>a:s&#45;&gt;1:n</title>
<path fill="none" stroke="black" d="M221.88,-756.5C221.88,-745.12 221.88,-739.82 221.88,-731.95"/>
<polygon fill="black" stroke="black" points="225.38,-732.01 221.88,-722.01 218.38,-732.01 225.38,-732.01"/>
</g>
<!-- b -->
<!-- 2 -->
<g id="node4" class="node">
<title>2</title>
<polygon fill="none" stroke="black" points="221.88,-648.5 194.88,-630.5 221.88,-612.5 248.88,-630.5 221.88,-648.5"/>
<text text-anchor="middle" x="221.88" y="-625.83" font-family="Helvetica,sans-Serif" font-size="14.00">2</text>
</g>
<!-- 1&#45;&gt;2 -->
<g id="edge2" class="edge">
<title>1:s&#45;&gt;2:n</title>
<path fill="none" stroke="blue" d="M221.88,-684.5C221.88,-673.12 221.88,-667.82 221.88,-659.95"/>
<polygon fill="blue" stroke="blue" points="225.38,-660.01 221.88,-650.01 218.38,-660.01 225.38,-660.01"/>
</g>
<!-- 1&#45;&gt;2 -->
<g id="edge5" class="edge">
<title>1:e&#45;&gt;2:e</title>
<path fill="none" stroke="black" d="M250.69,-702.5C278.56,-702.5 282.16,-647.87 261.47,-633.78"/>
<polygon fill="black" stroke="black" points="262.72,-630.5 252.14,-630.94 260.68,-637.2 262.72,-630.5"/>
</g>
<!-- 3 -->
<g id="node5" class="node">
<title>3</title>
<polygon fill="none" stroke="black" points="221.88,-576.5 194.88,-558.5 221.88,-540.5 248.88,-558.5 221.88,-576.5"/>
<text text-anchor="middle" x="221.88" y="-553.83" font-family="Helvetica,sans-Serif" font-size="14.00">3</text>
</g>
<!-- 2&#45;&gt;3 -->
<g id="edge3" class="edge">
<title>2:s&#45;&gt;3:n</title>
<path fill="none" stroke="black" d="M221.88,-612.5C221.88,-601.12 221.88,-595.82 221.88,-587.95"/>
<polygon fill="black" stroke="black" points="225.38,-588.01 221.88,-578.01 218.38,-588.01 225.38,-588.01"/>
</g>
<!-- 4 -->
<g id="node6" class="node">
<title>4</title>
<polygon fill="none" stroke="black" points="166.88,-504.5 139.88,-486.5 166.88,-468.5 193.88,-486.5 166.88,-504.5"/>
<text text-anchor="middle" x="166.88" y="-481.82" font-family="Helvetica,sans-Serif" font-size="14.00">4</text>
</g>
<!-- 2&#45;&gt;4 -->
<g id="edge6" class="edge">
<title>2:w&#45;&gt;4:n</title>
<path fill="none" stroke="blue" d="M193.06,-630.5C139.55,-630.5 163.24,-570.28 166.52,-515.68"/>
<polygon fill="blue" stroke="blue" points="170.01,-516.12 166.83,-506.01 163.01,-515.9 170.01,-516.12"/>
</g>
<!-- 3&#45;&gt;1 -->
<g id="edge4" class="edge">
<title>3:s&#45;&gt;1:w</title>
<path fill="none" stroke="blue" d="M221.88,-539.18C221.88,-515.78 283.91,-516.12 248.88,-576.5 232.69,-604.39 202.06,-584.61 185.88,-612.5 167.94,-643.41 155.82,-690.65 181.74,-700.61"/>
<polygon fill="blue" stroke="blue" points="181.13,-704.06 191.57,-702.25 182.28,-697.16 181.13,-704.06"/>
</g>
<!-- 3&#45;&gt;4 -->
<g id="edge9" class="edge">
<title>3:e&#45;&gt;4:e</title>
<path fill="none" stroke="black" d="M250.69,-558.5C258.7,-558.5 253.23,-547.69 249.69,-540.5 238.85,-518.5 224.18,-522.81 207.88,-504.5 205.26,-501.57 204.36,-498.05 203.55,-494.9"/>
<polygon fill="black" stroke="black" points="206.11,-492.51 196.72,-487.6 201,-497.3 206.11,-492.51"/>
</g>
<!-- 5 -->
<g id="node7" class="node">
<title>5</title>
<polygon fill="none" stroke="black" points="207.88,-432.5 180.88,-414.5 207.88,-396.5 234.88,-414.5 207.88,-432.5"/>
<text text-anchor="middle" x="207.88" y="-409.82" font-family="Helvetica,sans-Serif" font-size="14.00">5</text>
</g>
<!-- 4&#45;&gt;5 -->
<g id="edge7" class="edge">
<title>4:s&#45;&gt;5:n</title>
<path fill="none" stroke="black" d="M166.88,-468.5C166.88,-448.99 193.42,-453.27 203.79,-443.05"/>
<polygon fill="black" stroke="black" points="206.99,-444.5 207.33,-433.91 200.46,-441.98 206.99,-444.5"/>
</g>
<!-- 6 -->
<g id="node8" class="node">
<title>6</title>
<polygon fill="none" stroke="black" points="139.88,-360.5 112.88,-342.5 139.88,-324.5 166.88,-342.5 139.88,-360.5"/>
<text text-anchor="middle" x="139.88" y="-337.82" font-family="Helvetica,sans-Serif" font-size="14.00">6</text>
</g>
<!-- 4&#45;&gt;6 -->
<g id="edge10" class="edge">
<title>4:w&#45;&gt;6:n</title>
<path fill="none" stroke="blue" d="M138.06,-486.5C85.78,-486.5 132.7,-425.49 139.16,-371.82"/>
<polygon fill="blue" stroke="blue" points="142.64,-372.21 139.78,-362.01 135.66,-371.77 142.64,-372.21"/>
</g>
<!-- 5&#45;&gt;3 -->
<g id="edge8" class="edge">
<title>5:s&#45;&gt;3:w</title>
<path fill="none" stroke="blue" d="M207.88,-395.18C207.88,-383.17 226.54,-387.53 234.88,-396.18 246.08,-407.8 237.78,-416.62 234.88,-432.5 225.66,-482.98 204.68,-490.3 194.06,-540.5 193.6,-542.7 192.68,-545.09 191.78,-547.39"/>
<polygon fill="blue" stroke="blue" points="188.27,-547.46 192.89,-557 195.22,-546.66 188.27,-547.46"/>
</g>
<!-- 5&#45;&gt;6 -->
<g id="edge13" class="edge">
<title>5:e&#45;&gt;6:e</title>
<path fill="none" stroke="black" d="M236.69,-414.5C244.7,-414.5 239.69,-403.44 235.69,-396.5 221.14,-371.24 201.63,-380.96 180.88,-360.5 177.97,-357.64 177.07,-353.99 176.27,-350.72"/>
<polygon fill="black" stroke="black" points="179.07,-348.59 169.71,-343.61 173.92,-353.34 179.07,-348.59"/>
</g>
<!-- 7 -->
<g id="node9" class="node">
<title>7</title>
<polygon fill="none" stroke="black" points="139.88,-288.5 112.88,-270.5 139.88,-252.5 166.88,-270.5 139.88,-288.5"/>
<text text-anchor="middle" x="139.88" y="-265.82" font-family="Helvetica,sans-Serif" font-size="14.00">7</text>
</g>
<!-- 6&#45;&gt;7 -->
<g id="edge11" class="edge">
<title>6:s&#45;&gt;7:n</title>
<path fill="none" stroke="black" d="M139.88,-324.5C139.88,-313.12 139.88,-307.82 139.88,-299.95"/>
<polygon fill="black" stroke="black" points="143.38,-300.01 139.88,-290.01 136.38,-300.01 143.38,-300.01"/>
</g>
<!-- 6&#45;&gt;7 -->
<g id="edge14" class="edge">
<title>6:w&#45;&gt;7:w</title>
<path fill="none" stroke="black" d="M111.06,-342.5C83.19,-342.5 79.59,-287.87 100.28,-273.78"/>
<polygon fill="black" stroke="black" points="101.07,-277.2 109.61,-270.94 99.03,-270.5 101.07,-277.2"/>
</g>
<!-- 7&#45;&gt;b -->
<g id="edge15" class="edge">
<title>7:e&#45;&gt;b:n</title>
<path fill="none" stroke="black" d="M168.69,-270.5C189.04,-270.5 173.59,-248.95 168.41,-227.76"/>
<polygon fill="black" stroke="black" points="171.89,-227.44 167.08,-218 164.96,-228.38 171.89,-227.44"/>
</g>
<!-- 7&#45;&gt;5 -->
<g id="edge12" class="edge">
<title>7:s&#45;&gt;5:w</title>
<path fill="none" stroke="blue" d="M139.88,-251.18C139.88,-239.17 158.02,-244.06 166.88,-252.18 190.75,-274.07 173.3,-292.21 175.88,-324.5 176.03,-326.44 176.36,-379.75 177.67,-403.39"/>
<polygon fill="blue" stroke="blue" points="174.16,-403.51 178.87,-413 181.11,-402.64 174.16,-403.51"/>
</g>
</g>
</svg>
