<?xml version="1.0" encoding="UTF-8" standalone="no"?>
<!DOCTYPE svg PUBLIC "-//W3C//DTD SVG 1.1//EN"
 "http://www.w3.org/Graphics/SVG/1.1/DTD/svg11.dtd">
<!-- Generated by graphviz version 12.2.1 (20241206.2353)
 -->
<!-- Pages: 1 -->
<svg width="370pt" height="737pt"
 viewBox="0.00 0.00 369.75 737.40" xmlns="http://www.w3.org/2000/svg" xmlns:xlink="http://www.w3.org/1999/xlink">
<g id="graph0" class="graph" transform="scale(1 1) rotate(0) translate(4 733.4)">
<polygon fill="white" stroke="none" points="-4,4 -4,-733.4 365.75,-733.4 365.75,4 -4,4"/>
<text text-anchor="middle" x="180.88" y="-163.2" font-family="Helvetica,sans-Serif" font-size="14.00">1 2 3 1 4 2 5 3 6 4 7 5 6 7 </text>
<text text-anchor="middle" x="180.88" y="-145.95" font-family="Helvetica,sans-Serif" font-size="14.00">A double occurrence word</text>
<text text-anchor="middle" x="180.88" y="-128.7" font-family="Helvetica,sans-Serif" font-size="14.00">Already in ascending order</text>
<text text-anchor="middle" x="180.88" y="-111.45" font-family="Helvetica,sans-Serif" font-size="14.00">Palindrome: yes</text>
<text text-anchor="middle" x="180.88" y="-94.2" font-family="Helvetica,sans-Serif" font-size="14.00">Semi&#45;palindrome: yes</text>
<text text-anchor="middle" x="180.88" y="-76.95" font-family="Helvetica,sans-Serif" font-size="14.00">Irreducible: yes</text>
<text text-anchor="middle" x="180.88" y="-59.7" font-family="Helvetica,sans-Serif" font-size="14.00">Strongly&#45;irreducible: yes</text>
<text text-anchor="middle" x="180.88" y="-42.45" font-family="Helvetica,sans-Serif" font-size="14.00">Assembly number: 1</text>
<text text-anchor="middle" x="180.88" y="-25.2" font-family="Helvetica,sans-Serif" font-size="14.00">Edges in Hamiltonion set of polygonal paths: 0 2 4 6 8 10 </text>
<text text-anchor="middle" x="180.88" y="-7.95" font-family="Helvetica,sans-Serif" font-size="14.00">Realizable</text>
<!-- a -->
<!-- 1 -->
<g id="node3" class="node">
<title>1</title>
<polygon fill="none" stroke="black" points="195.38,-657.4 168.38,-639.4 195.38,-621.4 222.38,-639.4 195.38,-657.4"/>
<text text-anchor="middle" x="195.38" y="-634.73" font-family="Helvetica,sans-Serif" font-size="14.00">1</text>
</g>
<!-- a&#45;&gt;1 -->
<g id="edge1" class="edge">
<title>a:s&#45;&gt;1:n</title>
<path fill="none" stroke="black" d="M195.38,-693.4C195.38,-682.03 195.38,-676.72 195.38,-668.85"/>
<polygon fill="black" stroke="black" points="198.88,-668.91 195.38,-658.91 191.88,-668.92 198.88,-668.91"/>
</g>
<!-- b -->
<!-- 2 -->
<g id="node4" class="node">
<title>2</title>
<polygon fill="none" stroke="black" points="195.38,-585.4 168.38,-567.4 195.38,-549.4 222.38,-567.4 195.38,-585.4"/>
<text text-anchor="middle" x="195.38" y="-562.73" font-family="Helvetica,sans-Serif" font-size="14.00">2</text>
</g>
<!-- 1&#45;&gt;2 -->
<g id="edge2" class="edge">
<title>1:s&#45;&gt;2:n</title>
<path fill="none" stroke="blue" d="M195.38,-621.4C195.38,-610.03 195.38,-604.72 195.38,-596.85"/>
<polygon fill="blue" stroke="blue" points="198.88,-596.91 195.38,-586.91 191.88,-596.92 198.88,-596.91"/>
</g>
<!-- 4 -->
<g id="node6" class="node">
<title>4</title>
<polygon fill="none" stroke="black" points="251.38,-369.4 224.38,-351.4 251.38,-333.4 278.38,-351.4 251.38,-369.4"/>
<text text-anchor="middle" x="251.38" y="-346.73" font-family="Helvetica,sans-Serif" font-size="14.00">4</text>
</g>
<!-- 1&#45;&gt;4 -->
<g id="edge5" class="edge">
<title>1:e&#45;&gt;4:n</title>
<path fill="none" stroke="black" d="M224.19,-639.4C253.72,-639.4 252.17,-432.48 251.52,-380.67"/>
<polygon fill="black" stroke="black" points="255.02,-380.87 251.39,-370.91 248.02,-380.96 255.02,-380.87"/>
</g>
<!-- 3 -->
<g id="node5" class="node">
<title>3</title>
<polygon fill="none" stroke="black" points="140.38,-513.4 113.38,-495.4 140.38,-477.4 167.38,-495.4 140.38,-513.4"/>
<text text-anchor="middle" x="140.38" y="-490.73" font-family="Helvetica,sans-Serif" font-size="14.00">3</text>
</g>
<!-- 2&#45;&gt;3 -->
<g id="edge3" class="edge">
<title>2:s&#45;&gt;3:n</title>
<path fill="none" stroke="black" d="M195.38,-549.4C195.38,-524.98 156.94,-536.65 144.33,-524.07"/>
<polygon fill="black" stroke="black" points="147.66,-522.98 140.9,-514.82 141.1,-525.41 147.66,-522.98"/>
</g>
<!-- 5 -->
<g id="node7" class="node">
<title>5</title>
<polygon fill="none" stroke="black" points="140.38,-225.4 113.38,-207.4 140.38,-189.4 167.38,-207.4 140.38,-225.4"/>
<text text-anchor="middle" x="140.38" y="-202.73" font-family="Helvetica,sans-Serif" font-size="14.00">5</text>
</g>
<!-- 2&#45;&gt;5 -->
<g id="edge7" class="edge">
<title>2:w&#45;&gt;5:n</title>
<path fill="none" stroke="black" d="M166.56,-567.4C90.94,-567.4 74.38,-500.02 74.38,-424.4 74.38,-424.4 74.38,-424.4 74.38,-350.4 74.38,-291.63 132.14,-288.41 139.59,-236.79"/>
<polygon fill="black" stroke="black" points="143.07,-237.13 140.27,-226.91 136.09,-236.65 143.07,-237.13"/>
</g>
<!-- 3&#45;&gt;1 -->
<g id="edge4" class="edge">
<title>3:s&#45;&gt;1:w</title>
<path fill="none" stroke="blue" d="M140.38,-476.08C140.38,-464.07 159.04,-468.43 167.38,-477.08 178.58,-488.7 169.14,-497.36 167.38,-513.4 165.59,-529.69 161.16,-533.11 159.38,-549.4 157.63,-565.31 158.32,-569.44 159.38,-585.4 160.61,-604.09 149.75,-626.17 155.97,-635.22"/>
<polygon fill="blue" stroke="blue" points="154.57,-638.43 165.15,-638.85 157.14,-631.92 154.57,-638.43"/>
</g>
<!-- 6 -->
<g id="node8" class="node">
<title>6</title>
<polygon fill="none" stroke="black" points="167.38,-441.4 140.38,-423.4 167.38,-405.4 194.38,-423.4 167.38,-441.4"/>
<text text-anchor="middle" x="167.38" y="-418.73" font-family="Helvetica,sans-Serif" font-size="14.00">6</text>
</g>
<!-- 3&#45;&gt;6 -->
<g id="edge9" class="edge">
<title>3:e&#45;&gt;6:n</title>
<path fill="none" stroke="black" d="M169.19,-495.4C189.54,-495.4 174.09,-473.86 168.91,-452.67"/>
<polygon fill="black" stroke="black" points="172.39,-452.34 167.58,-442.9 165.46,-453.28 172.39,-452.34"/>
</g>
<!-- 4&#45;&gt;2 -->
<g id="edge6" class="edge">
<title>4:s&#45;&gt;2:e</title>
<path fill="none" stroke="blue" d="M251.38,-332.08C251.38,-308.56 295.89,-323.32 278.38,-369.4 270.77,-389.41 255.33,-385.96 246.38,-405.4 232.96,-434.54 254.26,-538.49 234.43,-562.45"/>
<polygon fill="blue" stroke="blue" points="233.03,-559.24 225.55,-566.74 236.08,-565.54 233.03,-559.24"/>
</g>
<!-- 7 -->
<g id="node9" class="node">
<title>7</title>
<polygon fill="none" stroke="black" points="233.38,-297.4 206.38,-279.4 233.38,-261.4 260.38,-279.4 233.38,-297.4"/>
<text text-anchor="middle" x="233.38" y="-274.73" font-family="Helvetica,sans-Serif" font-size="14.00">7</text>
</g>
<!-- 4&#45;&gt;7 -->
<g id="edge11" class="edge">
<title>4:w&#45;&gt;7:n</title>
<path fill="none" stroke="black" d="M222.56,-351.4C214.55,-351.4 222.28,-341.31 223.56,-333.4 225.47,-321.64 229.71,-316.75 231.94,-308.78"/>
<polygon fill="black" stroke="black" points="235.4,-309.26 233.19,-298.9 228.46,-308.38 235.4,-309.26"/>
</g>
<!-- 5&#45;&gt;3 -->
<g id="edge8" class="edge">
<title>5:s&#45;&gt;3:w</title>
<path fill="none" stroke="blue" d="M140.38,-188.08C140.38,-176.07 159.04,-180.43 167.38,-189.08 178.58,-200.7 169.76,-209.44 167.38,-225.4 159,-281.5 65.78,-465.14 100.61,-492.09"/>
<polygon fill="blue" stroke="blue" points="99.53,-495.42 110.11,-494.96 101.56,-488.72 99.53,-495.42"/>
</g>
<!-- 5&#45;&gt;6 -->
<g id="edge13" class="edge">
<title>5:e&#45;&gt;6:e</title>
<path fill="none" stroke="black" d="M169.19,-207.4C179.63,-207.4 201.18,-368.38 199.09,-412.39"/>
<polygon fill="black" stroke="black" points="195.74,-411.38 196.57,-421.94 202.51,-413.16 195.74,-411.38"/>
</g>
<!-- 6&#45;&gt;4 -->
<g id="edge10" class="edge">
<title>6:s&#45;&gt;4:e</title>
<path fill="none" stroke="blue" d="M167.38,-405.4C167.38,-353.19 247.29,-410.73 279.19,-369.4 280.72,-367.42 282.17,-364.92 283.2,-362.42"/>
<polygon fill="blue" stroke="blue" points="286.6,-361.58 280.59,-352.86 279.85,-363.43 286.6,-361.58"/>
</g>
<!-- 6&#45;&gt;7 -->
<g id="edge14" class="edge">
<title>6:w&#45;&gt;7:w</title>
<path fill="none" stroke="black" d="M138.56,-423.4C106.66,-423.4 157.88,-305.14 193.96,-282.96"/>
<polygon fill="black" stroke="black" points="194.76,-286.38 203.13,-279.88 192.53,-279.75 194.76,-286.38"/>
</g>
<!-- 7&#45;&gt;b -->
<g id="edge15" class="edge">
<title>7:e&#45;&gt;b:n</title>
<path fill="none" stroke="black" d="M262.19,-279.4C282.54,-279.4 267.09,-257.86 261.91,-236.67"/>
<polygon fill="black" stroke="black" points="265.39,-236.34 260.58,-226.9 258.46,-237.28 265.39,-236.34"/>
</g>
<!-- 7&#45;&gt;5 -->
<g id="edge12" class="edge">
<title>7:s&#45;&gt;5:w</title>
<path fill="none" stroke="blue" d="M233.38,-261.4C233.38,-205.37 147.28,-269.37 112.56,-225.4 111.01,-223.44 109.55,-220.94 108.52,-218.44"/>
<polygon fill="blue" stroke="blue" points="111.87,-219.43 111.16,-208.86 105.13,-217.57 111.87,-219.43"/>
</g>
</g>
</svg>
