<?xml version="1.0" encoding="UTF-8" standalone="no"?>
<!DOCTYPE svg PUBLIC "-//W3C//DTD SVG 1.1//EN"
 "http://www.w3.org/Graphics/SVG/1.1/DTD/svg11.dtd">
<!-- Generated by graphviz version 12.2.1 (20241206.2353)
 -->
<!-- Pages: 1 -->
<svg width="264pt" height="999pt"
 viewBox="0.00 0.00 264.00 999.25" xmlns="http://www.w3.org/2000/svg" xmlns:xlink="http://www.w3.org/1999/xlink">
<g id="graph0" class="graph" transform="scale(1 1) rotate(0) translate(4 995.25)">
<polygon fill="white" stroke="none" points="-4,4 -4,-995.25 260,-995.25 260,4 -4,4"/>
<text text-anchor="middle" x="128" y="-145.95" font-family="Helvetica,sans-Serif" font-size="14.00">1 1 2 2 3 3 4 5 6 4 7 5 6 7 8 8 9 9 10 10 </text>
<text text-anchor="middle" x="128" y="-128.7" font-family="Helvetica,sans-Serif" font-size="14.00">A double occurrence word</text>
<text text-anchor="middle" x="128" y="-111.45" font-family="Helvetica,sans-Serif" font-size="14.00">Already in ascending order</text>
<text text-anchor="middle" x="128" y="-94.2" font-family="Helvetica,sans-Serif" font-size="14.00">Palindrome: yes</text>
<text text-anchor="middle" x="128" y="-76.95" font-family="Helvetica,sans-Serif" font-size="14.00">Semi&#45;palindrome: yes</text>
<text text-anchor="middle" x="128" y="-59.7" font-family="Helvetica,sans-Serif" font-size="14.00">Irreducible: no</text>
<text text-anchor="middle" x="128" y="-42.45" font-family="Helvetica,sans-Serif" font-size="14.00">Strongly&#45;irreducible: no</text>
<text text-anchor="middle" x="128" y="-25.2" font-family="Helvetica,sans-Serif" font-size="14.00">Assembly number: 2</text>
<text text-anchor="middle" x="128" y="-7.95" font-family="Helvetica,sans-Serif" font-size="14.00">Unrealizable</text>
<!-- a -->
<!-- 1 -->
<g id="node3" class="node">
<title>1</title>
<polygon fill="none" stroke="black" points="92.36,-919.25 65.36,-901.25 92.36,-883.25 119.36,-901.25 92.36,-919.25"/>
<text text-anchor="middle" x="92.36" y="-896.58" font-family="Helvetica,sans-Serif" font-size="14.00">1</text>
</g>
<!-- a&#45;&gt;1 -->
<g id="edge1" class="edge">
<title>a:s&#45;&gt;1:n</title>
<path fill="none" stroke="black" d="M92.36,-955.25C92.36,-943.88 92.36,-938.57 92.36,-930.7"/>
<polygon fill="black" stroke="black" points="95.86,-930.76 92.36,-920.76 88.86,-930.76 95.86,-930.76"/>
</g>
<!-- b -->
<!-- 1&#45;&gt;1 -->
<g id="edge2" class="edge">
<title>1:s&#45;&gt;1:w</title>
<path fill="none" stroke="black" d="M92.36,-882.93C77.36,-864.93 47.36,-864.93 47.36,-892.09 47.36,-912.46 54.11,-917.55 59.67,-911.23"/>
<polygon fill="black" stroke="black" points="62.64,-913.13 63.88,-902.61 56.35,-910.06 62.64,-913.13"/>
</g>
<!-- 2 -->
<g id="node4" class="node">
<title>2</title>
<polygon fill="none" stroke="black" points="119.36,-847.25 92.36,-829.25 119.36,-811.25 146.36,-829.25 119.36,-847.25"/>
<text text-anchor="middle" x="119.36" y="-824.58" font-family="Helvetica,sans-Serif" font-size="14.00">2</text>
</g>
<!-- 1&#45;&gt;2 -->
<g id="edge3" class="edge">
<title>1:e&#45;&gt;2:n</title>
<path fill="none" stroke="black" d="M121.17,-901.25C141.52,-901.25 126.07,-879.7 120.89,-858.51"/>
<polygon fill="black" stroke="black" points="124.37,-858.19 119.56,-848.75 117.44,-859.13 124.37,-858.19"/>
</g>
<!-- 2&#45;&gt;2 -->
<g id="edge4" class="edge">
<title>2:s&#45;&gt;2:e</title>
<path fill="none" stroke="black" d="M119.36,-810.93C134.36,-792.93 164.36,-792.93 164.36,-820.09 164.36,-840.46 157.61,-845.55 152.04,-839.23"/>
<polygon fill="black" stroke="black" points="155.36,-838.06 147.83,-830.61 149.07,-841.13 155.36,-838.06"/>
</g>
<!-- 3 -->
<g id="node5" class="node">
<title>3</title>
<polygon fill="none" stroke="black" points="92.36,-775.25 65.36,-757.25 92.36,-739.25 119.36,-757.25 92.36,-775.25"/>
<text text-anchor="middle" x="92.36" y="-752.58" font-family="Helvetica,sans-Serif" font-size="14.00">3</text>
</g>
<!-- 2&#45;&gt;3 -->
<g id="edge5" class="edge">
<title>2:w&#45;&gt;3:n</title>
<path fill="none" stroke="black" d="M90.54,-829.25C70.19,-829.25 85.64,-807.7 90.82,-786.51"/>
<polygon fill="black" stroke="black" points="94.27,-787.13 92.15,-776.75 87.34,-786.19 94.27,-787.13"/>
</g>
<!-- 3&#45;&gt;3 -->
<g id="edge6" class="edge">
<title>3:s&#45;&gt;3:w</title>
<path fill="none" stroke="black" d="M92.36,-738.93C77.36,-720.93 47.36,-720.93 47.36,-748.09 47.36,-768.46 54.11,-773.55 59.67,-767.23"/>
<polygon fill="black" stroke="black" points="62.64,-769.13 63.88,-758.61 56.35,-766.06 62.64,-769.13"/>
</g>
<!-- 4 -->
<g id="node6" class="node">
<title>4</title>
<polygon fill="none" stroke="black" points="119.36,-703.25 92.36,-685.25 119.36,-667.25 146.36,-685.25 119.36,-703.25"/>
<text text-anchor="middle" x="119.36" y="-680.58" font-family="Helvetica,sans-Serif" font-size="14.00">4</text>
</g>
<!-- 3&#45;&gt;4 -->
<g id="edge7" class="edge">
<title>3:e&#45;&gt;4:n</title>
<path fill="none" stroke="black" d="M121.17,-757.25C141.52,-757.25 126.07,-735.7 120.89,-714.51"/>
<polygon fill="black" stroke="black" points="124.37,-714.19 119.56,-704.75 117.44,-715.13 124.37,-714.19"/>
</g>
<!-- 5 -->
<g id="node7" class="node">
<title>5</title>
<polygon fill="none" stroke="black" points="119.36,-631.25 92.36,-613.25 119.36,-595.25 146.36,-613.25 119.36,-631.25"/>
<text text-anchor="middle" x="119.36" y="-608.58" font-family="Helvetica,sans-Serif" font-size="14.00">5</text>
</g>
<!-- 4&#45;&gt;5 -->
<g id="edge8" class="edge">
<title>4:s&#45;&gt;5:n</title>
<path fill="none" stroke="black" d="M119.36,-667.25C119.36,-655.88 119.36,-650.57 119.36,-642.7"/>
<polygon fill="black" stroke="black" points="122.86,-642.76 119.36,-632.76 115.86,-642.76 122.86,-642.76"/>
</g>
<!-- 7 -->
<g id="node9" class="node">
<title>7</title>
<polygon fill="none" stroke="black" points="92.36,-487.25 65.36,-469.25 92.36,-451.25 119.36,-469.25 92.36,-487.25"/>
<text text-anchor="middle" x="92.36" y="-464.57" font-family="Helvetica,sans-Serif" font-size="14.00">7</text>
</g>
<!-- 4&#45;&gt;7 -->
<g id="edge11" class="edge">
<title>4:w&#45;&gt;7:n</title>
<path fill="none" stroke="black" d="M90.54,-685.25C67.84,-685.25 88.63,-551.19 91.93,-498.5"/>
<polygon fill="black" stroke="black" points="95.42,-498.89 92.3,-488.76 88.42,-498.62 95.42,-498.89"/>
</g>
<!-- 6 -->
<g id="node8" class="node">
<title>6</title>
<polygon fill="none" stroke="black" points="147.36,-559.25 120.36,-541.25 147.36,-523.25 174.36,-541.25 147.36,-559.25"/>
<text text-anchor="middle" x="147.36" y="-536.58" font-family="Helvetica,sans-Serif" font-size="14.00">6</text>
</g>
<!-- 5&#45;&gt;6 -->
<g id="edge9" class="edge">
<title>5:s&#45;&gt;6:n</title>
<path fill="none" stroke="black" d="M119.36,-595.25C119.36,-579.73 135.77,-578.75 143.46,-570.05"/>
<polygon fill="black" stroke="black" points="146.74,-571.27 146.84,-560.67 140.16,-568.89 146.74,-571.27"/>
</g>
<!-- 5&#45;&gt;6 -->
<g id="edge13" class="edge">
<title>5:e&#45;&gt;6:e</title>
<path fill="none" stroke="black" d="M148.17,-613.25C151.52,-613.25 174.31,-562.49 175.17,-559.25 175.75,-557.07 176.71,-554.7 177.62,-552.4"/>
<polygon fill="black" stroke="black" points="181.13,-552.21 176.36,-542.75 174.19,-553.12 181.13,-552.21"/>
</g>
<!-- 6&#45;&gt;4 -->
<g id="edge10" class="edge">
<title>6:s&#45;&gt;4:e</title>
<path fill="none" stroke="black" d="M147.36,-521.93C147.36,-509.92 166.02,-514.28 174.36,-522.93 222.29,-572.67 221.5,-673.42 159.54,-684.29"/>
<polygon fill="black" stroke="black" points="159.35,-680.8 149.68,-685.12 159.93,-687.77 159.35,-680.8"/>
</g>
<!-- 6&#45;&gt;7 -->
<g id="edge14" class="edge">
<title>6:w&#45;&gt;7:w</title>
<path fill="none" stroke="black" d="M118.54,-541.25C108.88,-541.25 112.78,-530.46 106.36,-523.25 90.05,-504.94 75.38,-509.25 64.54,-487.25 63.49,-485.12 62.27,-482.66 61.28,-480.27"/>
<polygon fill="black" stroke="black" points="64.66,-481.23 63.24,-470.73 57.8,-479.83 64.66,-481.23"/>
</g>
<!-- 7&#45;&gt;5 -->
<g id="edge12" class="edge">
<title>7:s&#45;&gt;5:w</title>
<path fill="none" stroke="black" d="M92.36,-449.93C92.36,-437.92 111.02,-442.28 119.36,-450.93 130.56,-462.55 121.38,-471.24 119.36,-487.25 116.24,-511.84 95.34,-570.76 91.54,-595.25 91.22,-597.35 90.43,-599.61 89.6,-601.79"/>
<polygon fill="black" stroke="black" points="86.11,-602.06 90.42,-611.74 93.08,-601.49 86.11,-602.06"/>
</g>
<!-- 8 -->
<g id="node10" class="node">
<title>8</title>
<polygon fill="none" stroke="black" points="119.36,-415.25 92.36,-397.25 119.36,-379.25 146.36,-397.25 119.36,-415.25"/>
<text text-anchor="middle" x="119.36" y="-392.57" font-family="Helvetica,sans-Serif" font-size="14.00">8</text>
</g>
<!-- 7&#45;&gt;8 -->
<g id="edge15" class="edge">
<title>7:e&#45;&gt;8:n</title>
<path fill="none" stroke="black" d="M121.17,-469.25C141.52,-469.25 126.07,-447.7 120.89,-426.51"/>
<polygon fill="black" stroke="black" points="124.37,-426.19 119.56,-416.75 117.44,-427.13 124.37,-426.19"/>
</g>
<!-- 8&#45;&gt;8 -->
<g id="edge16" class="edge">
<title>8:s&#45;&gt;8:e</title>
<path fill="none" stroke="black" d="M119.36,-378.93C134.36,-360.93 164.36,-360.93 164.36,-388.09 164.36,-408.46 157.61,-413.55 152.04,-407.23"/>
<polygon fill="black" stroke="black" points="155.36,-406.06 147.83,-398.61 149.07,-409.13 155.36,-406.06"/>
</g>
<!-- 9 -->
<g id="node11" class="node">
<title>9</title>
<polygon fill="none" stroke="black" points="92.36,-343.25 65.36,-325.25 92.36,-307.25 119.36,-325.25 92.36,-343.25"/>
<text text-anchor="middle" x="92.36" y="-320.57" font-family="Helvetica,sans-Serif" font-size="14.00">9</text>
</g>
<!-- 8&#45;&gt;9 -->
<g id="edge17" class="edge">
<title>8:w&#45;&gt;9:n</title>
<path fill="none" stroke="black" d="M90.54,-397.25C70.19,-397.25 85.64,-375.7 90.82,-354.51"/>
<polygon fill="black" stroke="black" points="94.27,-355.13 92.15,-344.75 87.34,-354.19 94.27,-355.13"/>
</g>
<!-- 9&#45;&gt;9 -->
<g id="edge18" class="edge">
<title>9:s&#45;&gt;9:w</title>
<path fill="none" stroke="black" d="M92.36,-306.93C77.36,-288.93 47.36,-288.93 47.36,-316.09 47.36,-336.46 54.11,-341.55 59.67,-335.23"/>
<polygon fill="black" stroke="black" points="62.64,-337.13 63.88,-326.61 56.35,-334.06 62.64,-337.13"/>
</g>
<!-- 10 -->
<g id="node12" class="node">
<title>10</title>
<polygon fill="none" stroke="black" points="119.36,-271.25 88.6,-253.25 119.36,-235.25 150.11,-253.25 119.36,-271.25"/>
<text text-anchor="middle" x="119.36" y="-248.57" font-family="Helvetica,sans-Serif" font-size="14.00">10</text>
</g>
<!-- 9&#45;&gt;10 -->
<g id="edge19" class="edge">
<title>9:e&#45;&gt;10:n</title>
<path fill="none" stroke="black" d="M121.17,-325.25C141.52,-325.25 126.07,-303.7 120.89,-282.51"/>
<polygon fill="black" stroke="black" points="124.37,-282.19 119.56,-272.75 117.44,-283.13 124.37,-282.19"/>
</g>
<!-- 10&#45;&gt;b -->
<g id="edge21" class="edge">
<title>10:w&#45;&gt;b:n</title>
<path fill="none" stroke="black" d="M86.68,-253.25C66.32,-253.25 81.68,-231.7 86.83,-210.51"/>
<polygon fill="black" stroke="black" points="90.28,-211.13 88.15,-200.75 83.34,-210.19 90.28,-211.13"/>
</g>
<!-- 10&#45;&gt;10 -->
<g id="edge20" class="edge">
<title>10:s&#45;&gt;10:e</title>
<path fill="none" stroke="black" d="M119.36,-234.83C135.61,-216.83 168.11,-216.83 168.11,-244.04 168.11,-264.45 161.36,-269.55 155.84,-263.23"/>
<polygon fill="black" stroke="black" points="159.18,-262.1 151.69,-254.61 152.88,-265.14 159.18,-262.1"/>
</g>
</g>
</svg>
