<?xml version="1.0" encoding="UTF-8" standalone="no"?>
<!DOCTYPE svg PUBLIC "-//W3C//DTD SVG 1.1//EN"
 "http://www.w3.org/Graphics/SVG/1.1/DTD/svg11.dtd">
<!-- Generated by graphviz version 12.2.1 (20241206.2353)
 -->
<!-- Pages: 1 -->
<svg width="293pt" height="999pt"
 viewBox="0.00 0.00 293.11 999.25" xmlns="http://www.w3.org/2000/svg" xmlns:xlink="http://www.w3.org/1999/xlink">
<g id="graph0" class="graph" transform="scale(1 1) rotate(0) translate(4 995.25)">
<polygon fill="white" stroke="none" points="-4,4 -4,-995.25 289.11,-995.25 289.11,4 -4,4"/>
<text text-anchor="middle" x="142.55" y="-145.95" font-family="Helvetica,sans-Serif" font-size="14.00">1 1 2 3 4 5 6 2 3 7 4 8 9 5 6 7 8 9 10 10 </text>
<text text-anchor="middle" x="142.55" y="-128.7" font-family="Helvetica,sans-Serif" font-size="14.00">A double occurrence word</text>
<text text-anchor="middle" x="142.55" y="-111.45" font-family="Helvetica,sans-Serif" font-size="14.00">Already in ascending order</text>
<text text-anchor="middle" x="142.55" y="-94.2" font-family="Helvetica,sans-Serif" font-size="14.00">Palindrome: yes</text>
<text text-anchor="middle" x="142.55" y="-76.95" font-family="Helvetica,sans-Serif" font-size="14.00">Semi&#45;palindrome: yes</text>
<text text-anchor="middle" x="142.55" y="-59.7" font-family="Helvetica,sans-Serif" font-size="14.00">Irreducible: no</text>
<text text-anchor="middle" x="142.55" y="-42.45" font-family="Helvetica,sans-Serif" font-size="14.00">Strongly&#45;irreducible: no</text>
<text text-anchor="middle" x="142.55" y="-25.2" font-family="Helvetica,sans-Serif" font-size="14.00">Assembly number: 2</text>
<text text-anchor="middle" x="142.55" y="-7.95" font-family="Helvetica,sans-Serif" font-size="14.00">Unrealizable</text>
<!-- a -->
<!-- 1 -->
<g id="node3" class="node">
<title>1</title>
<polygon fill="none" stroke="black" points="202.31,-919.25 175.31,-901.25 202.31,-883.25 229.31,-901.25 202.31,-919.25"/>
<text text-anchor="middle" x="202.31" y="-896.58" font-family="Helvetica,sans-Serif" font-size="14.00">1</text>
</g>
<!-- a&#45;&gt;1 -->
<g id="edge1" class="edge">
<title>a:s&#45;&gt;1:n</title>
<path fill="none" stroke="black" d="M202.31,-955.25C202.31,-943.88 202.31,-938.57 202.31,-930.7"/>
<polygon fill="black" stroke="black" points="205.81,-930.76 202.31,-920.76 198.81,-930.76 205.81,-930.76"/>
</g>
<!-- b -->
<!-- 1&#45;&gt;1 -->
<g id="edge2" class="edge">
<title>1:s&#45;&gt;1:w</title>
<path fill="none" stroke="black" d="M202.31,-882.93C187.31,-864.93 157.31,-864.93 157.31,-892.09 157.31,-912.46 164.06,-917.55 169.63,-911.23"/>
<polygon fill="black" stroke="black" points="172.59,-913.13 173.84,-902.61 166.3,-910.06 172.59,-913.13"/>
</g>
<!-- 2 -->
<g id="node4" class="node">
<title>2</title>
<polygon fill="none" stroke="black" points="229.31,-847.25 202.31,-829.25 229.31,-811.25 256.31,-829.25 229.31,-847.25"/>
<text text-anchor="middle" x="229.31" y="-824.58" font-family="Helvetica,sans-Serif" font-size="14.00">2</text>
</g>
<!-- 1&#45;&gt;2 -->
<g id="edge3" class="edge">
<title>1:e&#45;&gt;2:n</title>
<path fill="none" stroke="blue" d="M231.12,-901.25C251.48,-901.25 236.02,-879.7 230.84,-858.51"/>
<polygon fill="blue" stroke="blue" points="234.33,-858.19 229.52,-848.75 227.39,-859.13 234.33,-858.19"/>
</g>
<!-- 3 -->
<g id="node5" class="node">
<title>3</title>
<polygon fill="none" stroke="black" points="229.31,-775.25 202.31,-757.25 229.31,-739.25 256.31,-757.25 229.31,-775.25"/>
<text text-anchor="middle" x="229.31" y="-752.58" font-family="Helvetica,sans-Serif" font-size="14.00">3</text>
</g>
<!-- 2&#45;&gt;3 -->
<g id="edge4" class="edge">
<title>2:s&#45;&gt;3:n</title>
<path fill="none" stroke="black" d="M229.31,-811.25C229.31,-799.88 229.31,-794.57 229.31,-786.7"/>
<polygon fill="black" stroke="black" points="232.81,-786.76 229.31,-776.76 225.81,-786.76 232.81,-786.76"/>
</g>
<!-- 2&#45;&gt;3 -->
<g id="edge9" class="edge">
<title>2:w&#45;&gt;3:w</title>
<path fill="none" stroke="blue" d="M200.5,-829.25C172.62,-829.25 169.03,-774.62 189.72,-760.53"/>
<polygon fill="blue" stroke="blue" points="190.5,-763.95 199.05,-757.69 188.47,-757.25 190.5,-763.95"/>
</g>
<!-- 4 -->
<g id="node6" class="node">
<title>4</title>
<polygon fill="none" stroke="black" points="177.31,-703.25 150.31,-685.25 177.31,-667.25 204.31,-685.25 177.31,-703.25"/>
<text text-anchor="middle" x="177.31" y="-680.58" font-family="Helvetica,sans-Serif" font-size="14.00">4</text>
</g>
<!-- 3&#45;&gt;4 -->
<g id="edge5" class="edge">
<title>3:s&#45;&gt;4:n</title>
<path fill="none" stroke="blue" d="M229.31,-739.25C229.31,-715.97 193.65,-725.84 181.39,-713.95"/>
<polygon fill="blue" stroke="blue" points="184.68,-712.76 177.85,-704.66 178.14,-715.26 184.68,-712.76"/>
</g>
<!-- 7 -->
<g id="node9" class="node">
<title>7</title>
<polygon fill="none" stroke="black" points="190.31,-487.25 163.31,-469.25 190.31,-451.25 217.31,-469.25 190.31,-487.25"/>
<text text-anchor="middle" x="190.31" y="-464.57" font-family="Helvetica,sans-Serif" font-size="14.00">7</text>
</g>
<!-- 3&#45;&gt;7 -->
<g id="edge10" class="edge">
<title>3:e&#45;&gt;7:n</title>
<path fill="none" stroke="black" d="M258.12,-757.25C264.28,-757.25 323.74,-666.51 242.31,-523.25 230.81,-503.01 202.7,-510.88 193.37,-498.22"/>
<polygon fill="black" stroke="black" points="196.78,-497.4 190.72,-488.71 190.04,-499.28 196.78,-497.4"/>
</g>
<!-- 5 -->
<g id="node7" class="node">
<title>5</title>
<polygon fill="none" stroke="black" points="163.31,-631.25 136.31,-613.25 163.31,-595.25 190.31,-613.25 163.31,-631.25"/>
<text text-anchor="middle" x="163.31" y="-608.58" font-family="Helvetica,sans-Serif" font-size="14.00">5</text>
</g>
<!-- 4&#45;&gt;5 -->
<g id="edge6" class="edge">
<title>4:s&#45;&gt;5:n</title>
<path fill="none" stroke="black" d="M177.31,-667.25C177.31,-654.64 169.76,-650.4 165.75,-642.23"/>
<polygon fill="black" stroke="black" points="169.23,-641.73 163.64,-632.73 162.39,-643.25 169.23,-641.73"/>
</g>
<!-- 8 -->
<g id="node10" class="node">
<title>8</title>
<polygon fill="none" stroke="black" points="53.31,-415.25 26.31,-397.25 53.31,-379.25 80.31,-397.25 53.31,-415.25"/>
<text text-anchor="middle" x="53.31" y="-392.57" font-family="Helvetica,sans-Serif" font-size="14.00">8</text>
</g>
<!-- 4&#45;&gt;8 -->
<g id="edge12" class="edge">
<title>4:w&#45;&gt;8:n</title>
<path fill="none" stroke="black" d="M148.5,-685.25C24.99,-685.25 51.57,-550.73 53.23,-426.47"/>
<polygon fill="black" stroke="black" points="56.73,-426.79 53.3,-416.76 49.73,-426.74 56.73,-426.79"/>
</g>
<!-- 6 -->
<g id="node8" class="node">
<title>6</title>
<polygon fill="none" stroke="black" points="163.31,-559.25 136.31,-541.25 163.31,-523.25 190.31,-541.25 163.31,-559.25"/>
<text text-anchor="middle" x="163.31" y="-536.58" font-family="Helvetica,sans-Serif" font-size="14.00">6</text>
</g>
<!-- 5&#45;&gt;6 -->
<g id="edge7" class="edge">
<title>5:s&#45;&gt;6:n</title>
<path fill="none" stroke="blue" d="M163.31,-595.25C163.31,-583.88 163.31,-578.57 163.31,-570.7"/>
<polygon fill="blue" stroke="blue" points="166.81,-570.76 163.31,-560.76 159.81,-570.76 166.81,-570.76"/>
</g>
<!-- 5&#45;&gt;6 -->
<g id="edge15" class="edge">
<title>5:e&#45;&gt;6:e</title>
<path fill="none" stroke="black" d="M192.12,-613.25C204.75,-613.25 207.41,-568.42 200.11,-549.51"/>
<polygon fill="black" stroke="black" points="202.65,-547.09 193.18,-542.34 197.61,-551.96 202.65,-547.09"/>
</g>
<!-- 6&#45;&gt;2 -->
<g id="edge8" class="edge">
<title>6:s&#45;&gt;2:e</title>
<path fill="none" stroke="black" d="M163.31,-521.93C163.31,-509.92 180.66,-515.79 190.31,-522.93 272.11,-583.46 248.41,-638.91 265.31,-739.25 271.22,-774.34 292.55,-817.96 269.33,-827.4"/>
<polygon fill="black" stroke="black" points="268.91,-823.92 259.62,-829 270.06,-830.83 268.91,-823.92"/>
</g>
<!-- 6&#45;&gt;7 -->
<g id="edge16" class="edge">
<title>6:w&#45;&gt;7:w</title>
<path fill="none" stroke="blue" d="M134.5,-541.25C120.35,-541.25 136.43,-491.87 152.08,-474.9"/>
<polygon fill="blue" stroke="blue" points="153.43,-478.18 160.2,-470.03 149.83,-472.17 153.43,-478.18"/>
</g>
<!-- 7&#45;&gt;4 -->
<g id="edge11" class="edge">
<title>7:s&#45;&gt;4:e</title>
<path fill="none" stroke="blue" d="M190.31,-449.93C190.31,-437.92 208.98,-442.28 217.31,-450.93 233.31,-467.54 232.65,-638.19 214.23,-677.29"/>
<polygon fill="blue" stroke="blue" points="211.89,-674.69 207.2,-684.19 216.79,-679.68 211.89,-674.69"/>
</g>
<!-- 7&#45;&gt;8 -->
<g id="edge17" class="edge">
<title>7:e&#45;&gt;8:e</title>
<path fill="none" stroke="black" d="M219.12,-469.25C284.28,-469.25 164.79,-404.64 93.54,-397.83"/>
<polygon fill="black" stroke="black" points="93.8,-394.34 83.64,-397.33 93.45,-401.33 93.8,-394.34"/>
</g>
<!-- 9 -->
<g id="node11" class="node">
<title>9</title>
<polygon fill="none" stroke="black" points="53.31,-343.25 26.31,-325.25 53.31,-307.25 80.31,-325.25 53.31,-343.25"/>
<text text-anchor="middle" x="53.31" y="-320.57" font-family="Helvetica,sans-Serif" font-size="14.00">9</text>
</g>
<!-- 8&#45;&gt;9 -->
<g id="edge13" class="edge">
<title>8:s&#45;&gt;9:n</title>
<path fill="none" stroke="blue" d="M53.31,-379.25C53.31,-367.88 53.31,-362.57 53.31,-354.7"/>
<polygon fill="blue" stroke="blue" points="56.81,-354.76 53.31,-344.76 49.81,-354.76 56.81,-354.76"/>
</g>
<!-- 8&#45;&gt;9 -->
<g id="edge18" class="edge">
<title>8:w&#45;&gt;9:w</title>
<path fill="none" stroke="black" d="M24.5,-397.25C-3.38,-397.25 -6.97,-342.62 13.72,-328.53"/>
<polygon fill="black" stroke="black" points="14.5,-331.95 23.05,-325.69 12.47,-325.25 14.5,-331.95"/>
</g>
<!-- 9&#45;&gt;5 -->
<g id="edge14" class="edge">
<title>9:s&#45;&gt;5:w</title>
<path fill="none" stroke="black" d="M53.31,-305.93C53.31,-293.92 71.26,-299.04 80.31,-306.93 181.53,-395.06 7.03,-600.73 123.17,-612.7"/>
<polygon fill="black" stroke="black" points="122.83,-616.19 132.99,-613.18 123.17,-609.2 122.83,-616.19"/>
</g>
<!-- 10 -->
<g id="node12" class="node">
<title>10</title>
<polygon fill="none" stroke="black" points="80.31,-271.25 49.56,-253.25 80.31,-235.25 111.07,-253.25 80.31,-271.25"/>
<text text-anchor="middle" x="80.31" y="-248.57" font-family="Helvetica,sans-Serif" font-size="14.00">10</text>
</g>
<!-- 9&#45;&gt;10 -->
<g id="edge19" class="edge">
<title>9:e&#45;&gt;10:n</title>
<path fill="none" stroke="blue" d="M82.12,-325.25C102.48,-325.25 87.02,-303.7 81.84,-282.51"/>
<polygon fill="blue" stroke="blue" points="85.33,-282.19 80.52,-272.75 78.39,-283.13 85.33,-282.19"/>
</g>
<!-- 10&#45;&gt;b -->
<g id="edge21" class="edge">
<title>10:w&#45;&gt;b:n</title>
<path fill="none" stroke="black" d="M47.63,-253.25C27.28,-253.25 42.64,-231.7 47.79,-210.51"/>
<polygon fill="black" stroke="black" points="51.24,-211.13 49.11,-200.75 44.3,-210.19 51.24,-211.13"/>
</g>
<!-- 10&#45;&gt;10 -->
<g id="edge20" class="edge">
<title>10:s&#45;&gt;10:e</title>
<path fill="none" stroke="black" d="M80.31,-234.83C96.56,-216.83 129.07,-216.83 129.07,-244.04 129.07,-264.45 122.32,-269.55 116.8,-263.23"/>
<polygon fill="black" stroke="black" points="120.14,-262.1 112.65,-254.61 113.84,-265.14 120.14,-262.1"/>
</g>
</g>
</svg>
