<?xml version="1.0" encoding="UTF-8" standalone="no"?>
<!DOCTYPE svg PUBLIC "-//W3C//DTD SVG 1.1//EN"
 "http://www.w3.org/Graphics/SVG/1.1/DTD/svg11.dtd">
<!-- Generated by graphviz version 12.2.1 (20241206.2353)
 -->
<!-- Pages: 1 -->
<svg width="370pt" height="801pt"
 viewBox="0.00 0.00 369.75 800.50" xmlns="http://www.w3.org/2000/svg" xmlns:xlink="http://www.w3.org/1999/xlink">
<g id="graph0" class="graph" transform="scale(1 1) rotate(0) translate(4 796.5)">
<polygon fill="white" stroke="none" points="-4,4 -4,-796.5 365.75,-796.5 365.75,4 -4,4"/>
<text text-anchor="middle" x="180.88" y="-163.2" font-family="Helvetica,sans-Serif" font-size="14.00">1 2 1 3 4 5 2 6 3 4 5 7 6 7 </text>
<text text-anchor="middle" x="180.88" y="-145.95" font-family="Helvetica,sans-Serif" font-size="14.00">A double occurrence word</text>
<text text-anchor="middle" x="180.88" y="-128.7" font-family="Helvetica,sans-Serif" font-size="14.00">Already in ascending order</text>
<text text-anchor="middle" x="180.88" y="-111.45" font-family="Helvetica,sans-Serif" font-size="14.00">Palindrome: yes</text>
<text text-anchor="middle" x="180.88" y="-94.2" font-family="Helvetica,sans-Serif" font-size="14.00">Semi&#45;palindrome: yes</text>
<text text-anchor="middle" x="180.88" y="-76.95" font-family="Helvetica,sans-Serif" font-size="14.00">Irreducible: yes</text>
<text text-anchor="middle" x="180.88" y="-59.7" font-family="Helvetica,sans-Serif" font-size="14.00">Strongly&#45;irreducible: yes</text>
<text text-anchor="middle" x="180.88" y="-42.45" font-family="Helvetica,sans-Serif" font-size="14.00">Assembly number: 1</text>
<text text-anchor="middle" x="180.88" y="-25.2" font-family="Helvetica,sans-Serif" font-size="14.00">Edges in Hamiltonion set of polygonal paths: 0 2 4 6 8 10 </text>
<text text-anchor="middle" x="180.88" y="-7.95" font-family="Helvetica,sans-Serif" font-size="14.00">Realizable</text>
<!-- a -->
<!-- 1 -->
<g id="node3" class="node">
<title>1</title>
<polygon fill="none" stroke="black" points="212.89,-720.5 185.89,-702.5 212.89,-684.5 239.89,-702.5 212.89,-720.5"/>
<text text-anchor="middle" x="212.89" y="-697.83" font-family="Helvetica,sans-Serif" font-size="14.00">1</text>
</g>
<!-- a&#45;&gt;1 -->
<g id="edge1" class="edge">
<title>a:s&#45;&gt;1:n</title>
<path fill="none" stroke="black" d="M212.89,-756.5C212.89,-745.12 212.89,-739.82 212.89,-731.95"/>
<polygon fill="black" stroke="black" points="216.39,-732.01 212.89,-722.01 209.39,-732.01 216.39,-732.01"/>
</g>
<!-- b -->
<!-- 2 -->
<g id="node4" class="node">
<title>2</title>
<polygon fill="none" stroke="black" points="185.89,-648.5 158.89,-630.5 185.89,-612.5 212.89,-630.5 185.89,-648.5"/>
<text text-anchor="middle" x="185.89" y="-625.83" font-family="Helvetica,sans-Serif" font-size="14.00">2</text>
</g>
<!-- 1&#45;&gt;2 -->
<g id="edge2" class="edge">
<title>1:s&#45;&gt;2:n</title>
<path fill="none" stroke="blue" d="M212.89,-684.5C212.89,-669.19 197.06,-667.94 189.64,-659.23"/>
<polygon fill="blue" stroke="blue" points="192.99,-658.21 186.39,-649.93 186.39,-660.52 192.99,-658.21"/>
</g>
<!-- 3 -->
<g id="node5" class="node">
<title>3</title>
<polygon fill="none" stroke="black" points="267.89,-504.5 240.89,-486.5 267.89,-468.5 294.89,-486.5 267.89,-504.5"/>
<text text-anchor="middle" x="267.89" y="-481.82" font-family="Helvetica,sans-Serif" font-size="14.00">3</text>
</g>
<!-- 1&#45;&gt;3 -->
<g id="edge4" class="edge">
<title>1:e&#45;&gt;3:n</title>
<path fill="none" stroke="blue" d="M241.7,-702.5C326.74,-702.5 272.88,-602.25 268.2,-515.78"/>
<polygon fill="blue" stroke="blue" points="271.71,-515.91 267.93,-506.01 264.71,-516.11 271.71,-515.91"/>
</g>
<!-- 2&#45;&gt;1 -->
<g id="edge3" class="edge">
<title>2:s&#45;&gt;1:w</title>
<path fill="none" stroke="black" d="M185.89,-611.18C185.89,-583.75 230.41,-597.17 212.89,-648.5 206.36,-667.64 192.13,-665.55 185.07,-684.5 184.29,-686.61 183.23,-688.96 182.3,-691.24"/>
<polygon fill="black" stroke="black" points="178.82,-691.67 183.84,-701.01 185.73,-690.58 178.82,-691.67"/>
</g>
<!-- 6 -->
<g id="node8" class="node">
<title>6</title>
<polygon fill="none" stroke="black" points="157.89,-576.5 130.89,-558.5 157.89,-540.5 184.89,-558.5 157.89,-576.5"/>
<text text-anchor="middle" x="157.89" y="-553.83" font-family="Helvetica,sans-Serif" font-size="14.00">6</text>
</g>
<!-- 2&#45;&gt;6 -->
<g id="edge8" class="edge">
<title>2:w&#45;&gt;6:n</title>
<path fill="none" stroke="blue" d="M157.07,-630.5C136.73,-630.5 151.46,-608.95 156.42,-587.76"/>
<polygon fill="blue" stroke="blue" points="159.87,-588.37 157.69,-578 152.93,-587.46 159.87,-588.37"/>
</g>
<!-- 4 -->
<g id="node6" class="node">
<title>4</title>
<polygon fill="none" stroke="black" points="267.89,-432.5 240.89,-414.5 267.89,-396.5 294.89,-414.5 267.89,-432.5"/>
<text text-anchor="middle" x="267.89" y="-409.82" font-family="Helvetica,sans-Serif" font-size="14.00">4</text>
</g>
<!-- 3&#45;&gt;4 -->
<g id="edge5" class="edge">
<title>3:s&#45;&gt;4:n</title>
<path fill="none" stroke="black" d="M267.89,-468.5C267.89,-457.12 267.89,-451.82 267.89,-443.95"/>
<polygon fill="black" stroke="black" points="271.39,-444.01 267.89,-434.01 264.39,-444.01 271.39,-444.01"/>
</g>
<!-- 3&#45;&gt;4 -->
<g id="edge10" class="edge">
<title>3:e&#45;&gt;4:e</title>
<path fill="none" stroke="blue" d="M296.7,-486.5C324.57,-486.5 328.17,-431.87 307.48,-417.78"/>
<polygon fill="blue" stroke="blue" points="308.73,-414.5 298.15,-414.94 306.7,-421.2 308.73,-414.5"/>
</g>
<!-- 5 -->
<g id="node7" class="node">
<title>5</title>
<polygon fill="none" stroke="black" points="248.89,-360.5 221.89,-342.5 248.89,-324.5 275.89,-342.5 248.89,-360.5"/>
<text text-anchor="middle" x="248.89" y="-337.82" font-family="Helvetica,sans-Serif" font-size="14.00">5</text>
</g>
<!-- 4&#45;&gt;5 -->
<g id="edge6" class="edge">
<title>4:s&#45;&gt;5:n</title>
<path fill="none" stroke="blue" d="M267.89,-396.5C267.89,-383.07 257.42,-379.71 252.02,-371.48"/>
<polygon fill="blue" stroke="blue" points="255.42,-370.61 249.3,-361.96 248.69,-372.53 255.42,-370.61"/>
</g>
<!-- 4&#45;&gt;5 -->
<g id="edge11" class="edge">
<title>4:w&#45;&gt;5:w</title>
<path fill="none" stroke="black" d="M239.07,-414.5C232.87,-414.5 220.63,-374 218.39,-353.75"/>
<polygon fill="black" stroke="black" points="221.83,-354.41 219.85,-344 214.91,-353.37 221.83,-354.41"/>
</g>
<!-- 5&#45;&gt;2 -->
<g id="edge7" class="edge">
<title>5:s&#45;&gt;2:e</title>
<path fill="none" stroke="black" d="M248.89,-323.18C248.89,-311.17 267.55,-315.53 275.89,-324.18 287.09,-335.8 282.8,-345.91 275.89,-360.5 265.07,-383.33 243.54,-374.08 231.89,-396.5 185.69,-485.42 308.7,-619.52 225.85,-629.86"/>
<polygon fill="black" stroke="black" points="226,-626.35 216.21,-630.41 226.39,-633.34 226,-626.35"/>
</g>
<!-- 7 -->
<g id="node9" class="node">
<title>7</title>
<polygon fill="none" stroke="black" points="174.89,-288.5 147.89,-270.5 174.89,-252.5 201.89,-270.5 174.89,-288.5"/>
<text text-anchor="middle" x="174.89" y="-265.82" font-family="Helvetica,sans-Serif" font-size="14.00">7</text>
</g>
<!-- 5&#45;&gt;7 -->
<g id="edge12" class="edge">
<title>5:e&#45;&gt;7:n</title>
<path fill="none" stroke="blue" d="M277.7,-342.5C285.71,-342.5 281.51,-330.91 276.7,-324.5 250.61,-289.7 188.19,-327.83 176.72,-299.56"/>
<polygon fill="blue" stroke="blue" points="180.22,-299.29 175.13,-289.99 173.31,-300.43 180.22,-299.29"/>
</g>
<!-- 6&#45;&gt;3 -->
<g id="edge9" class="edge">
<title>6:s&#45;&gt;3:w</title>
<path fill="none" stroke="black" d="M157.89,-540.5C157.89,-521.88 201.84,-495.38 227.96,-488.3"/>
<polygon fill="black" stroke="black" points="228.27,-491.79 237.58,-486.74 227.15,-484.88 228.27,-491.79"/>
</g>
<!-- 6&#45;&gt;7 -->
<g id="edge14" class="edge">
<title>6:w&#45;&gt;7:w</title>
<path fill="none" stroke="black" d="M129.07,-558.5C4.73,-558.5 16.96,-287.67 134.74,-271.28"/>
<polygon fill="black" stroke="black" points="134.83,-274.78 144.56,-270.6 134.35,-267.79 134.83,-274.78"/>
</g>
<!-- 7&#45;&gt;b -->
<g id="edge15" class="edge">
<title>7:e&#45;&gt;b:n</title>
<path fill="none" stroke="black" d="M203.7,-270.5C224.05,-270.5 208.6,-248.95 203.42,-227.76"/>
<polygon fill="black" stroke="black" points="206.91,-227.44 202.09,-218 199.97,-228.38 206.91,-227.44"/>
</g>
<!-- 7&#45;&gt;6 -->
<g id="edge13" class="edge">
<title>7:s&#45;&gt;6:e</title>
<path fill="none" stroke="black" d="M174.89,-251.18C174.89,-239.17 193.55,-243.53 201.89,-252.18 213.09,-263.8 202.34,-272.36 201.89,-288.5 201.7,-295.08 195.94,-497.76 189.46,-547.54"/>
<polygon fill="black" stroke="black" points="186.12,-546.48 187.07,-557.03 192.9,-548.19 186.12,-546.48"/>
</g>
</g>
</svg>
