<?xml version="1.0" encoding="UTF-8" standalone="no"?>
<!DOCTYPE svg PUBLIC "-//W3C//DTD SVG 1.1//EN"
 "http://www.w3.org/Graphics/SVG/1.1/DTD/svg11.dtd">
<!-- Generated by graphviz version 12.2.1 (20241206.2353)
 -->
<!-- Pages: 1 -->
<svg width="370pt" height="801pt"
 viewBox="0.00 0.00 369.75 800.50" xmlns="http://www.w3.org/2000/svg" xmlns:xlink="http://www.w3.org/1999/xlink">
<g id="graph0" class="graph" transform="scale(1 1) rotate(0) translate(4 796.5)">
<polygon fill="white" stroke="none" points="-4,4 -4,-796.5 365.75,-796.5 365.75,4 -4,4"/>
<text text-anchor="middle" x="180.88" y="-163.2" font-family="Helvetica,sans-Serif" font-size="14.00">1 2 3 4 1 5 6 2 3 7 4 5 6 7 </text>
<text text-anchor="middle" x="180.88" y="-145.95" font-family="Helvetica,sans-Serif" font-size="14.00">A double occurrence word</text>
<text text-anchor="middle" x="180.88" y="-128.7" font-family="Helvetica,sans-Serif" font-size="14.00">Already in ascending order</text>
<text text-anchor="middle" x="180.88" y="-111.45" font-family="Helvetica,sans-Serif" font-size="14.00">Palindrome: yes</text>
<text text-anchor="middle" x="180.88" y="-94.2" font-family="Helvetica,sans-Serif" font-size="14.00">Semi&#45;palindrome: yes</text>
<text text-anchor="middle" x="180.88" y="-76.95" font-family="Helvetica,sans-Serif" font-size="14.00">Irreducible: yes</text>
<text text-anchor="middle" x="180.88" y="-59.7" font-family="Helvetica,sans-Serif" font-size="14.00">Strongly&#45;irreducible: yes</text>
<text text-anchor="middle" x="180.88" y="-42.45" font-family="Helvetica,sans-Serif" font-size="14.00">Assembly number: 1</text>
<text text-anchor="middle" x="180.88" y="-25.2" font-family="Helvetica,sans-Serif" font-size="14.00">Edges in Hamiltonion set of polygonal paths: 0 2 4 6 8 10 </text>
<text text-anchor="middle" x="180.88" y="-7.95" font-family="Helvetica,sans-Serif" font-size="14.00">Realizable</text>
<!-- a -->
<!-- 1 -->
<g id="node3" class="node">
<title>1</title>
<polygon fill="none" stroke="black" points="148.85,-720.5 121.85,-702.5 148.85,-684.5 175.85,-702.5 148.85,-720.5"/>
<text text-anchor="middle" x="148.85" y="-697.83" font-family="Helvetica,sans-Serif" font-size="14.00">1</text>
</g>
<!-- a&#45;&gt;1 -->
<g id="edge1" class="edge">
<title>a:s&#45;&gt;1:n</title>
<path fill="none" stroke="black" d="M148.85,-756.5C148.85,-745.12 148.85,-739.82 148.85,-731.95"/>
<polygon fill="black" stroke="black" points="152.35,-732.01 148.85,-722.01 145.35,-732.01 152.35,-732.01"/>
</g>
<!-- b -->
<!-- 2 -->
<g id="node4" class="node">
<title>2</title>
<polygon fill="none" stroke="black" points="148.85,-648.5 121.85,-630.5 148.85,-612.5 175.85,-630.5 148.85,-648.5"/>
<text text-anchor="middle" x="148.85" y="-625.83" font-family="Helvetica,sans-Serif" font-size="14.00">2</text>
</g>
<!-- 1&#45;&gt;2 -->
<g id="edge2" class="edge">
<title>1:s&#45;&gt;2:n</title>
<path fill="none" stroke="blue" d="M148.85,-684.5C148.85,-673.12 148.85,-667.82 148.85,-659.95"/>
<polygon fill="blue" stroke="blue" points="152.35,-660.01 148.85,-650.01 145.35,-660.01 152.35,-660.01"/>
</g>
<!-- 5 -->
<g id="node7" class="node">
<title>5</title>
<polygon fill="none" stroke="black" points="258.85,-432.5 231.85,-414.5 258.85,-396.5 285.85,-414.5 258.85,-432.5"/>
<text text-anchor="middle" x="258.85" y="-409.82" font-family="Helvetica,sans-Serif" font-size="14.00">5</text>
</g>
<!-- 1&#45;&gt;5 -->
<g id="edge6" class="edge">
<title>1:e&#45;&gt;5:n</title>
<path fill="none" stroke="blue" d="M177.67,-702.5C299.18,-702.5 261.37,-566.44 258.97,-443.93"/>
<polygon fill="blue" stroke="blue" points="262.47,-443.98 258.87,-434.01 255.47,-444.05 262.47,-443.98"/>
</g>
<!-- 3 -->
<g id="node5" class="node">
<title>3</title>
<polygon fill="none" stroke="black" points="148.85,-576.5 121.85,-558.5 148.85,-540.5 175.85,-558.5 148.85,-576.5"/>
<text text-anchor="middle" x="148.85" y="-553.83" font-family="Helvetica,sans-Serif" font-size="14.00">3</text>
</g>
<!-- 2&#45;&gt;3 -->
<g id="edge3" class="edge">
<title>2:s&#45;&gt;3:n</title>
<path fill="none" stroke="black" d="M148.85,-612.5C148.85,-601.12 148.85,-595.82 148.85,-587.95"/>
<polygon fill="black" stroke="black" points="152.35,-588.01 148.85,-578.01 145.35,-588.01 152.35,-588.01"/>
</g>
<!-- 2&#45;&gt;3 -->
<g id="edge9" class="edge">
<title>2:w&#45;&gt;3:w</title>
<path fill="none" stroke="black" d="M120.04,-630.5C107.41,-630.5 104.75,-585.67 112.05,-566.76"/>
<polygon fill="black" stroke="black" points="114.55,-569.21 118.99,-559.59 109.52,-564.34 114.55,-569.21"/>
</g>
<!-- 4 -->
<g id="node6" class="node">
<title>4</title>
<polygon fill="none" stroke="black" points="105.85,-504.5 78.85,-486.5 105.85,-468.5 132.85,-486.5 105.85,-504.5"/>
<text text-anchor="middle" x="105.85" y="-481.82" font-family="Helvetica,sans-Serif" font-size="14.00">4</text>
</g>
<!-- 3&#45;&gt;4 -->
<g id="edge4" class="edge">
<title>3:s&#45;&gt;4:n</title>
<path fill="none" stroke="blue" d="M148.85,-540.5C148.85,-520.25 120.47,-525.59 109.82,-514.94"/>
<polygon fill="blue" stroke="blue" points="113.21,-514.02 106.39,-505.91 106.67,-516.51 113.21,-514.02"/>
</g>
<!-- 7 -->
<g id="node9" class="node">
<title>7</title>
<polygon fill="none" stroke="black" points="165.85,-288.5 138.85,-270.5 165.85,-252.5 192.85,-270.5 165.85,-288.5"/>
<text text-anchor="middle" x="165.85" y="-265.82" font-family="Helvetica,sans-Serif" font-size="14.00">7</text>
</g>
<!-- 3&#45;&gt;7 -->
<g id="edge10" class="edge">
<title>3:e&#45;&gt;7:n</title>
<path fill="none" stroke="blue" d="M177.67,-558.5C205.23,-558.5 172.23,-356.28 166.63,-299.88"/>
<polygon fill="blue" stroke="blue" points="170.13,-299.75 165.96,-290.01 163.15,-300.23 170.13,-299.75"/>
</g>
<!-- 4&#45;&gt;1 -->
<g id="edge5" class="edge">
<title>4:s&#45;&gt;1:w</title>
<path fill="none" stroke="black" d="M105.85,-467.18C105.85,-455.17 124.52,-459.53 132.85,-468.18 144.05,-479.8 136.9,-488.87 132.85,-504.5 128.26,-522.22 117.44,-522.78 112.85,-540.5 100.81,-586.97 109.68,-600.61 112.85,-648.5 114.09,-667.19 103.23,-689.27 109.45,-698.32"/>
<polygon fill="black" stroke="black" points="108.05,-701.53 118.63,-701.94 110.62,-695.02 108.05,-701.53"/>
</g>
<!-- 4&#45;&gt;5 -->
<g id="edge12" class="edge">
<title>4:w&#45;&gt;5:w</title>
<path fill="none" stroke="blue" d="M77.04,-486.5C5.41,-486.5 141.04,-421.09 218.99,-414.96"/>
<polygon fill="blue" stroke="blue" points="218.68,-418.48 228.53,-414.56 218.39,-411.48 218.68,-418.48"/>
</g>
<!-- 6 -->
<g id="node8" class="node">
<title>6</title>
<polygon fill="none" stroke="black" points="239.85,-360.5 212.85,-342.5 239.85,-324.5 266.85,-342.5 239.85,-360.5"/>
<text text-anchor="middle" x="239.85" y="-337.82" font-family="Helvetica,sans-Serif" font-size="14.00">6</text>
</g>
<!-- 5&#45;&gt;6 -->
<g id="edge7" class="edge">
<title>5:s&#45;&gt;6:n</title>
<path fill="none" stroke="black" d="M258.85,-396.5C258.85,-383.07 248.39,-379.71 242.99,-371.48"/>
<polygon fill="black" stroke="black" points="246.38,-370.61 240.27,-361.96 239.65,-372.53 246.38,-370.61"/>
</g>
<!-- 5&#45;&gt;6 -->
<g id="edge13" class="edge">
<title>5:e&#45;&gt;6:e</title>
<path fill="none" stroke="black" d="M287.67,-414.5C316.88,-414.5 305.5,-358.39 279.66,-345.23"/>
<polygon fill="black" stroke="black" points="280.68,-341.88 270.13,-342.87 278.99,-348.68 280.68,-341.88"/>
</g>
<!-- 6&#45;&gt;2 -->
<g id="edge8" class="edge">
<title>6:s&#45;&gt;2:e</title>
<path fill="none" stroke="blue" d="M239.85,-323.18C239.85,-311.17 258.52,-315.53 266.85,-324.18 278.05,-335.8 273.77,-345.91 266.85,-360.5 256.03,-383.33 235.8,-374.8 222.85,-396.5 170.7,-483.91 274.86,-619.4 189.09,-629.86"/>
<polygon fill="blue" stroke="blue" points="188.96,-626.36 179.18,-630.41 189.36,-633.35 188.96,-626.36"/>
</g>
<!-- 6&#45;&gt;7 -->
<g id="edge14" class="edge">
<title>6:w&#45;&gt;7:w</title>
<path fill="none" stroke="black" d="M211.04,-342.5C200.95,-342.5 142.83,-297.38 138.04,-288.5 136.91,-286.41 135.66,-283.97 134.66,-281.58"/>
<polygon fill="black" stroke="black" points="138.05,-282.49 136.72,-271.98 131.2,-281.02 138.05,-282.49"/>
</g>
<!-- 7&#45;&gt;b -->
<g id="edge15" class="edge">
<title>7:e&#45;&gt;b:n</title>
<path fill="none" stroke="black" d="M194.67,-270.5C215.02,-270.5 199.56,-248.95 194.38,-227.76"/>
<polygon fill="black" stroke="black" points="197.87,-227.44 193.06,-218 190.93,-228.38 197.87,-227.44"/>
</g>
<!-- 7&#45;&gt;4 -->
<g id="edge11" class="edge">
<title>7:s&#45;&gt;4:e</title>
<path fill="none" stroke="black" d="M165.85,-251.18C165.85,-239.17 184.52,-243.53 192.85,-252.18 204.05,-263.8 199.51,-273.79 192.85,-288.5 182.85,-310.59 163.01,-302.97 151.85,-324.5 137.22,-352.75 163,-456.48 144.88,-481.19"/>
<polygon fill="black" stroke="black" points="143.27,-478.08 136.01,-485.8 146.5,-484.29 143.27,-478.08"/>
</g>
</g>
</svg>
