<?xml version="1.0" encoding="UTF-8" standalone="no"?>
<!DOCTYPE svg PUBLIC "-//W3C//DTD SVG 1.1//EN"
 "http://www.w3.org/Graphics/SVG/1.1/DTD/svg11.dtd">
<!-- Generated by graphviz version 12.2.1 (20241206.2353)
 -->
<!-- Pages: 1 -->
<svg width="370pt" height="729pt"
 viewBox="0.00 0.00 369.75 728.50" xmlns="http://www.w3.org/2000/svg" xmlns:xlink="http://www.w3.org/1999/xlink">
<g id="graph0" class="graph" transform="scale(1 1) rotate(0) translate(4 724.5)">
<polygon fill="white" stroke="none" points="-4,4 -4,-724.5 365.75,-724.5 365.75,4 -4,4"/>
<text text-anchor="middle" x="180.87" y="-163.2" font-family="Helvetica,sans-Serif" font-size="14.00">1 2 1 3 4 2 5 3 6 4 5 7 6 7 </text>
<text text-anchor="middle" x="180.87" y="-145.95" font-family="Helvetica,sans-Serif" font-size="14.00">A double occurrence word</text>
<text text-anchor="middle" x="180.87" y="-128.7" font-family="Helvetica,sans-Serif" font-size="14.00">Already in ascending order</text>
<text text-anchor="middle" x="180.87" y="-111.45" font-family="Helvetica,sans-Serif" font-size="14.00">Palindrome: yes</text>
<text text-anchor="middle" x="180.87" y="-94.2" font-family="Helvetica,sans-Serif" font-size="14.00">Semi&#45;palindrome: yes</text>
<text text-anchor="middle" x="180.87" y="-76.95" font-family="Helvetica,sans-Serif" font-size="14.00">Irreducible: yes</text>
<text text-anchor="middle" x="180.87" y="-59.7" font-family="Helvetica,sans-Serif" font-size="14.00">Strongly&#45;irreducible: yes</text>
<text text-anchor="middle" x="180.87" y="-42.45" font-family="Helvetica,sans-Serif" font-size="14.00">Assembly number: 1</text>
<text text-anchor="middle" x="180.87" y="-25.2" font-family="Helvetica,sans-Serif" font-size="14.00">Edges in Hamiltonion set of polygonal paths: 0 2 4 6 8 10 </text>
<text text-anchor="middle" x="180.87" y="-7.95" font-family="Helvetica,sans-Serif" font-size="14.00">Realizable</text>
<!-- a -->
<!-- 1 -->
<g id="node3" class="node">
<title>1</title>
<polygon fill="none" stroke="black" points="158.98,-648.5 131.98,-630.5 158.98,-612.5 185.98,-630.5 158.98,-648.5"/>
<text text-anchor="middle" x="158.98" y="-625.83" font-family="Helvetica,sans-Serif" font-size="14.00">1</text>
</g>
<!-- a&#45;&gt;1 -->
<g id="edge1" class="edge">
<title>a:s&#45;&gt;1:n</title>
<path fill="none" stroke="black" d="M158.98,-684.5C158.98,-673.12 158.98,-667.82 158.98,-659.95"/>
<polygon fill="black" stroke="black" points="162.48,-660.01 158.98,-650.01 155.48,-660.01 162.48,-660.01"/>
</g>
<!-- b -->
<!-- 2 -->
<g id="node4" class="node">
<title>2</title>
<polygon fill="none" stroke="black" points="131.98,-576.5 104.98,-558.5 131.98,-540.5 158.98,-558.5 131.98,-576.5"/>
<text text-anchor="middle" x="131.98" y="-553.83" font-family="Helvetica,sans-Serif" font-size="14.00">2</text>
</g>
<!-- 1&#45;&gt;2 -->
<g id="edge2" class="edge">
<title>1:s&#45;&gt;2:n</title>
<path fill="none" stroke="blue" d="M158.98,-612.5C158.98,-597.19 143.15,-595.94 135.74,-587.23"/>
<polygon fill="blue" stroke="blue" points="139.09,-586.21 132.48,-577.93 132.48,-588.52 139.09,-586.21"/>
</g>
<!-- 3 -->
<g id="node5" class="node">
<title>3</title>
<polygon fill="none" stroke="black" points="165.98,-432.5 138.98,-414.5 165.98,-396.5 192.98,-414.5 165.98,-432.5"/>
<text text-anchor="middle" x="165.98" y="-409.82" font-family="Helvetica,sans-Serif" font-size="14.00">3</text>
</g>
<!-- 1&#45;&gt;3 -->
<g id="edge4" class="edge">
<title>1:e&#45;&gt;3:n</title>
<path fill="none" stroke="blue" d="M187.79,-630.5C272.61,-630.5 174.9,-530.03 166.54,-443.75"/>
<polygon fill="blue" stroke="blue" points="170.05,-443.83 166.06,-434.01 163.06,-444.17 170.05,-443.83"/>
</g>
<!-- 2&#45;&gt;1 -->
<g id="edge3" class="edge">
<title>2:s&#45;&gt;1:w</title>
<path fill="none" stroke="black" d="M131.98,-539.18C131.98,-511.75 176.5,-525.17 158.98,-576.5 152.45,-595.64 138.23,-593.55 131.17,-612.5 130.38,-614.61 129.32,-616.96 128.39,-619.24"/>
<polygon fill="black" stroke="black" points="124.91,-619.67 129.93,-629.01 131.83,-618.58 124.91,-619.67"/>
</g>
<!-- 5 -->
<g id="node7" class="node">
<title>5</title>
<polygon fill="none" stroke="black" points="131.98,-504.5 104.98,-486.5 131.98,-468.5 158.98,-486.5 131.98,-504.5"/>
<text text-anchor="middle" x="131.98" y="-481.82" font-family="Helvetica,sans-Serif" font-size="14.00">5</text>
</g>
<!-- 2&#45;&gt;5 -->
<g id="edge7" class="edge">
<title>2:w&#45;&gt;5:n</title>
<path fill="none" stroke="black" d="M103.17,-558.5C95.16,-558.5 101.37,-548.01 104.17,-540.5 109.57,-525.99 123.01,-524.45 129,-515.45"/>
<polygon fill="black" stroke="black" points="132.34,-516.53 131.58,-505.96 125.58,-514.69 132.34,-516.53"/>
</g>
<!-- 4 -->
<g id="node6" class="node">
<title>4</title>
<polygon fill="none" stroke="black" points="137.98,-288.5 110.98,-270.5 137.98,-252.5 164.98,-270.5 137.98,-288.5"/>
<text text-anchor="middle" x="137.98" y="-265.82" font-family="Helvetica,sans-Serif" font-size="14.00">4</text>
</g>
<!-- 3&#45;&gt;4 -->
<g id="edge5" class="edge">
<title>3:s&#45;&gt;4:n</title>
<path fill="none" stroke="black" d="M165.98,-396.5C165.98,-350.98 142.39,-339.81 138.52,-299.93"/>
<polygon fill="black" stroke="black" points="142.02,-299.84 138.05,-290.01 135.02,-300.16 142.02,-299.84"/>
</g>
<!-- 6 -->
<g id="node8" class="node">
<title>6</title>
<polygon fill="none" stroke="black" points="197.98,-360.5 170.98,-342.5 197.98,-324.5 224.98,-342.5 197.98,-360.5"/>
<text text-anchor="middle" x="197.98" y="-337.82" font-family="Helvetica,sans-Serif" font-size="14.00">6</text>
</g>
<!-- 3&#45;&gt;6 -->
<g id="edge9" class="edge">
<title>3:e&#45;&gt;6:n</title>
<path fill="none" stroke="black" d="M194.79,-414.5C215.17,-414.5 203.29,-392.97 199.2,-371.77"/>
<polygon fill="black" stroke="black" points="202.7,-371.57 198.14,-362 195.74,-372.32 202.7,-371.57"/>
</g>
<!-- 4&#45;&gt;2 -->
<g id="edge6" class="edge">
<title>4:s&#45;&gt;2:e</title>
<path fill="none" stroke="blue" d="M137.98,-251.18C137.98,-232.38 200.02,-234.31 164.98,-288.5 143.81,-321.24 106.38,-291.91 84.98,-324.5 82.83,-327.77 82.13,-410.13 83.98,-432.5 86.66,-464.83 77.37,-477.93 95.98,-504.5 114.67,-531.17 142.6,-512.85 159.79,-540.5 161.05,-542.52 162.35,-544.93 163.36,-547.31"/>
<polygon fill="blue" stroke="blue" points="159.96,-546.5 161.13,-557.02 166.78,-548.06 159.96,-546.5"/>
</g>
<!-- 4&#45;&gt;5 -->
<g id="edge11" class="edge">
<title>4:w&#45;&gt;5:w</title>
<path fill="none" stroke="black" d="M109.17,-270.5C88.07,-270.5 80.88,-437.35 95.75,-477.77"/>
<polygon fill="black" stroke="black" points="93.05,-479.99 102.19,-485.35 98.38,-475.46 93.05,-479.99"/>
</g>
<!-- 5&#45;&gt;3 -->
<g id="edge8" class="edge">
<title>5:s&#45;&gt;3:w</title>
<path fill="none" stroke="blue" d="M131.98,-468.5C131.98,-449.85 120.66,-427.75 126.69,-418.69"/>
<polygon fill="blue" stroke="blue" points="127.78,-422.02 135.76,-415.06 125.18,-415.52 127.78,-422.02"/>
</g>
<!-- 7 -->
<g id="node9" class="node">
<title>7</title>
<polygon fill="none" stroke="black" points="224.98,-288.5 197.98,-270.5 224.98,-252.5 251.98,-270.5 224.98,-288.5"/>
<text text-anchor="middle" x="224.98" y="-265.82" font-family="Helvetica,sans-Serif" font-size="14.00">7</text>
</g>
<!-- 5&#45;&gt;7 -->
<g id="edge12" class="edge">
<title>5:e&#45;&gt;7:n</title>
<path fill="none" stroke="blue" d="M160.79,-486.5C225.56,-486.5 220.54,-423.85 233.98,-360.5 237.3,-344.85 235.94,-340.38 233.98,-324.5 232.53,-312.73 228.52,-307.8 226.37,-299.84"/>
<polygon fill="blue" stroke="blue" points="229.86,-299.5 225.17,-290 222.91,-300.35 229.86,-299.5"/>
</g>
<!-- 6&#45;&gt;4 -->
<g id="edge10" class="edge">
<title>6:s&#45;&gt;4:e</title>
<path fill="none" stroke="blue" d="M197.98,-324.5C197.98,-313.78 187.61,-287.34 176.51,-275.91"/>
<polygon fill="blue" stroke="blue" points="178.56,-273.04 168.12,-271.24 175.15,-279.16 178.56,-273.04"/>
</g>
<!-- 6&#45;&gt;7 -->
<g id="edge14" class="edge">
<title>6:w&#45;&gt;7:w</title>
<path fill="none" stroke="black" d="M169.17,-342.5C155.02,-342.5 171.1,-293.12 186.75,-276.15"/>
<polygon fill="black" stroke="black" points="188.1,-279.43 194.87,-271.28 184.5,-273.42 188.1,-279.43"/>
</g>
<!-- 7&#45;&gt;b -->
<g id="edge15" class="edge">
<title>7:e&#45;&gt;b:n</title>
<path fill="none" stroke="black" d="M253.79,-270.5C274.15,-270.5 258.69,-248.95 253.51,-227.76"/>
<polygon fill="black" stroke="black" points="257,-227.44 252.19,-218 250.06,-228.38 257,-227.44"/>
</g>
<!-- 7&#45;&gt;6 -->
<g id="edge13" class="edge">
<title>7:s&#45;&gt;6:e</title>
<path fill="none" stroke="black" d="M224.98,-251.18C224.98,-239.17 243.65,-243.53 251.98,-252.18 263.18,-263.8 255.48,-272.74 251.98,-288.5 250.94,-293.2 241.61,-319.57 234.05,-333.65"/>
<polygon fill="black" stroke="black" points="231.38,-331.38 227.75,-341.33 236.8,-335.81 231.38,-331.38"/>
</g>
</g>
</svg>
