<?xml version="1.0" encoding="UTF-8" standalone="no"?>
<!DOCTYPE svg PUBLIC "-//W3C//DTD SVG 1.1//EN"
 "http://www.w3.org/Graphics/SVG/1.1/DTD/svg11.dtd">
<!-- Generated by graphviz version 12.2.1 (20241206.2353)
 -->
<!-- Pages: 1 -->
<svg width="370pt" height="801pt"
 viewBox="0.00 0.00 369.75 800.50" xmlns="http://www.w3.org/2000/svg" xmlns:xlink="http://www.w3.org/1999/xlink">
<g id="graph0" class="graph" transform="scale(1 1) rotate(0) translate(4 796.5)">
<polygon fill="white" stroke="none" points="-4,4 -4,-796.5 365.75,-796.5 365.75,4 -4,4"/>
<text text-anchor="middle" x="180.88" y="-163.2" font-family="Helvetica,sans-Serif" font-size="14.00">1 2 3 4 5 6 1 7 2 3 4 5 6 7 </text>
<text text-anchor="middle" x="180.88" y="-145.95" font-family="Helvetica,sans-Serif" font-size="14.00">A double occurrence word</text>
<text text-anchor="middle" x="180.88" y="-128.7" font-family="Helvetica,sans-Serif" font-size="14.00">Already in ascending order</text>
<text text-anchor="middle" x="180.88" y="-111.45" font-family="Helvetica,sans-Serif" font-size="14.00">Palindrome: yes</text>
<text text-anchor="middle" x="180.88" y="-94.2" font-family="Helvetica,sans-Serif" font-size="14.00">Semi&#45;palindrome: yes</text>
<text text-anchor="middle" x="180.88" y="-76.95" font-family="Helvetica,sans-Serif" font-size="14.00">Irreducible: yes</text>
<text text-anchor="middle" x="180.88" y="-59.7" font-family="Helvetica,sans-Serif" font-size="14.00">Strongly&#45;irreducible: yes</text>
<text text-anchor="middle" x="180.88" y="-42.45" font-family="Helvetica,sans-Serif" font-size="14.00">Assembly number: 1</text>
<text text-anchor="middle" x="180.88" y="-25.2" font-family="Helvetica,sans-Serif" font-size="14.00">Edges in Hamiltonion set of polygonal paths: 0 2 4 6 8 10 </text>
<text text-anchor="middle" x="180.88" y="-7.95" font-family="Helvetica,sans-Serif" font-size="14.00">Realizable</text>
<!-- a -->
<!-- 1 -->
<g id="node3" class="node">
<title>1</title>
<polygon fill="none" stroke="black" points="159.64,-720.5 132.64,-702.5 159.64,-684.5 186.64,-702.5 159.64,-720.5"/>
<text text-anchor="middle" x="159.64" y="-697.83" font-family="Helvetica,sans-Serif" font-size="14.00">1</text>
</g>
<!-- a&#45;&gt;1 -->
<g id="edge1" class="edge">
<title>a:s&#45;&gt;1:n</title>
<path fill="none" stroke="black" d="M159.64,-756.5C159.64,-745.12 159.64,-739.82 159.64,-731.95"/>
<polygon fill="black" stroke="black" points="163.14,-732.01 159.64,-722.01 156.14,-732.01 163.14,-732.01"/>
</g>
<!-- b -->
<!-- 2 -->
<g id="node4" class="node">
<title>2</title>
<polygon fill="none" stroke="black" points="159.64,-648.5 132.64,-630.5 159.64,-612.5 186.64,-630.5 159.64,-648.5"/>
<text text-anchor="middle" x="159.64" y="-625.83" font-family="Helvetica,sans-Serif" font-size="14.00">2</text>
</g>
<!-- 1&#45;&gt;2 -->
<g id="edge2" class="edge">
<title>1:s&#45;&gt;2:n</title>
<path fill="none" stroke="blue" d="M159.64,-684.5C159.64,-673.12 159.64,-667.82 159.64,-659.95"/>
<polygon fill="blue" stroke="blue" points="163.14,-660.01 159.64,-650.01 156.14,-660.01 163.14,-660.01"/>
</g>
<!-- 7 -->
<g id="node9" class="node">
<title>7</title>
<polygon fill="none" stroke="black" points="214.64,-288.5 187.64,-270.5 214.64,-252.5 241.64,-270.5 214.64,-288.5"/>
<text text-anchor="middle" x="214.64" y="-265.82" font-family="Helvetica,sans-Serif" font-size="14.00">7</text>
</g>
<!-- 1&#45;&gt;7 -->
<g id="edge8" class="edge">
<title>1:e&#45;&gt;7:n</title>
<path fill="none" stroke="blue" d="M188.45,-702.5C258.12,-702.5 252.64,-629.16 252.64,-559.5 252.64,-559.5 252.64,-559.5 252.64,-413.5 252.64,-373.46 253.2,-361.8 238.64,-324.5 233.34,-310.92 222.29,-308.29 217.25,-299.45"/>
<polygon fill="blue" stroke="blue" points="220.72,-298.89 214.99,-289.97 213.91,-300.51 220.72,-298.89"/>
</g>
<!-- 3 -->
<g id="node5" class="node">
<title>3</title>
<polygon fill="none" stroke="black" points="159.64,-576.5 132.64,-558.5 159.64,-540.5 186.64,-558.5 159.64,-576.5"/>
<text text-anchor="middle" x="159.64" y="-553.83" font-family="Helvetica,sans-Serif" font-size="14.00">3</text>
</g>
<!-- 2&#45;&gt;3 -->
<g id="edge3" class="edge">
<title>2:s&#45;&gt;3:n</title>
<path fill="none" stroke="black" d="M159.64,-612.5C159.64,-601.12 159.64,-595.82 159.64,-587.95"/>
<polygon fill="black" stroke="black" points="163.14,-588.01 159.64,-578.01 156.14,-588.01 163.14,-588.01"/>
</g>
<!-- 2&#45;&gt;3 -->
<g id="edge10" class="edge">
<title>2:w&#45;&gt;3:w</title>
<path fill="none" stroke="blue" d="M130.83,-630.5C118.2,-630.5 115.54,-585.67 122.84,-566.76"/>
<polygon fill="blue" stroke="blue" points="125.34,-569.21 129.78,-559.59 120.31,-564.34 125.34,-569.21"/>
</g>
<!-- 4 -->
<g id="node6" class="node">
<title>4</title>
<polygon fill="none" stroke="black" points="159.64,-504.5 132.64,-486.5 159.64,-468.5 186.64,-486.5 159.64,-504.5"/>
<text text-anchor="middle" x="159.64" y="-481.82" font-family="Helvetica,sans-Serif" font-size="14.00">4</text>
</g>
<!-- 3&#45;&gt;4 -->
<g id="edge4" class="edge">
<title>3:s&#45;&gt;4:n</title>
<path fill="none" stroke="blue" d="M159.64,-540.5C159.64,-529.12 159.64,-523.82 159.64,-515.95"/>
<polygon fill="blue" stroke="blue" points="163.14,-516.01 159.64,-506.01 156.14,-516.01 163.14,-516.01"/>
</g>
<!-- 3&#45;&gt;4 -->
<g id="edge11" class="edge">
<title>3:e&#45;&gt;4:e</title>
<path fill="none" stroke="black" d="M188.45,-558.5C201.08,-558.5 203.74,-513.67 196.44,-494.76"/>
<polygon fill="black" stroke="black" points="198.97,-492.34 189.51,-487.59 193.94,-497.21 198.97,-492.34"/>
</g>
<!-- 5 -->
<g id="node7" class="node">
<title>5</title>
<polygon fill="none" stroke="black" points="159.64,-432.5 132.64,-414.5 159.64,-396.5 186.64,-414.5 159.64,-432.5"/>
<text text-anchor="middle" x="159.64" y="-409.82" font-family="Helvetica,sans-Serif" font-size="14.00">5</text>
</g>
<!-- 4&#45;&gt;5 -->
<g id="edge5" class="edge">
<title>4:s&#45;&gt;5:n</title>
<path fill="none" stroke="black" d="M159.64,-468.5C159.64,-457.12 159.64,-451.82 159.64,-443.95"/>
<polygon fill="black" stroke="black" points="163.14,-444.01 159.64,-434.01 156.14,-444.01 163.14,-444.01"/>
</g>
<!-- 4&#45;&gt;5 -->
<g id="edge12" class="edge">
<title>4:w&#45;&gt;5:w</title>
<path fill="none" stroke="blue" d="M130.83,-486.5C118.2,-486.5 115.54,-441.67 122.84,-422.76"/>
<polygon fill="blue" stroke="blue" points="125.34,-425.21 129.78,-415.59 120.31,-420.34 125.34,-425.21"/>
</g>
<!-- 6 -->
<g id="node8" class="node">
<title>6</title>
<polygon fill="none" stroke="black" points="159.64,-360.5 132.64,-342.5 159.64,-324.5 186.64,-342.5 159.64,-360.5"/>
<text text-anchor="middle" x="159.64" y="-337.82" font-family="Helvetica,sans-Serif" font-size="14.00">6</text>
</g>
<!-- 5&#45;&gt;6 -->
<g id="edge6" class="edge">
<title>5:s&#45;&gt;6:n</title>
<path fill="none" stroke="blue" d="M159.64,-396.5C159.64,-385.12 159.64,-379.82 159.64,-371.95"/>
<polygon fill="blue" stroke="blue" points="163.14,-372.01 159.64,-362.01 156.14,-372.01 163.14,-372.01"/>
</g>
<!-- 5&#45;&gt;6 -->
<g id="edge13" class="edge">
<title>5:e&#45;&gt;6:e</title>
<path fill="none" stroke="black" d="M188.45,-414.5C201.08,-414.5 203.74,-369.67 196.44,-350.76"/>
<polygon fill="black" stroke="black" points="198.97,-348.34 189.51,-343.59 193.94,-353.21 198.97,-348.34"/>
</g>
<!-- 6&#45;&gt;1 -->
<g id="edge7" class="edge">
<title>6:s&#45;&gt;1:w</title>
<path fill="none" stroke="black" d="M159.64,-323.18C159.64,-299.78 221.68,-300.12 186.64,-360.5 170.45,-388.39 142.67,-370.46 123.64,-396.5 99.78,-429.16 104.64,-445.05 104.64,-485.5 104.64,-559.5 104.64,-559.5 104.64,-559.5 104.64,-619.95 71.01,-692.45 119.58,-701.55"/>
<polygon fill="black" stroke="black" points="119.06,-705.02 129.32,-702.37 119.65,-698.04 119.06,-705.02"/>
</g>
<!-- 6&#45;&gt;7 -->
<g id="edge14" class="edge">
<title>6:w&#45;&gt;7:w</title>
<path fill="none" stroke="black" d="M130.83,-342.5C94.18,-342.5 136.45,-282.86 174.7,-272.14"/>
<polygon fill="black" stroke="black" points="174.95,-275.64 184.33,-270.72 173.93,-268.71 174.95,-275.64"/>
</g>
<!-- 7&#45;&gt;b -->
<g id="edge15" class="edge">
<title>7:e&#45;&gt;b:n</title>
<path fill="none" stroke="black" d="M243.45,-270.5C263.81,-270.5 248.35,-248.95 243.17,-227.76"/>
<polygon fill="black" stroke="black" points="246.66,-227.44 241.85,-218 239.72,-228.38 246.66,-227.44"/>
</g>
<!-- 7&#45;&gt;2 -->
<g id="edge9" class="edge">
<title>7:s&#45;&gt;2:e</title>
<path fill="none" stroke="black" d="M214.64,-251.18C214.64,-239.17 233.31,-243.53 241.64,-252.18 252.84,-263.8 243.36,-272.45 241.64,-288.5 235.61,-345.02 214.64,-356.66 214.64,-413.5 214.64,-487.5 214.64,-487.5 214.64,-487.5 214.64,-547.95 248.27,-620.45 199.7,-629.55"/>
<polygon fill="black" stroke="black" points="199.63,-626.04 189.96,-630.37 200.22,-633.02 199.63,-626.04"/>
</g>
</g>
</svg>
