<?xml version="1.0" encoding="UTF-8" standalone="no"?>
<!DOCTYPE svg PUBLIC "-//W3C//DTD SVG 1.1//EN"
 "http://www.w3.org/Graphics/SVG/1.1/DTD/svg11.dtd">
<!-- Generated by graphviz version 12.2.1 (20241206.2353)
 -->
<!-- Pages: 1 -->
<svg width="370pt" height="801pt"
 viewBox="0.00 0.00 369.75 800.50" xmlns="http://www.w3.org/2000/svg" xmlns:xlink="http://www.w3.org/1999/xlink">
<g id="graph0" class="graph" transform="scale(1 1) rotate(0) translate(4 796.5)">
<polygon fill="white" stroke="none" points="-4,4 -4,-796.5 365.75,-796.5 365.75,4 -4,4"/>
<text text-anchor="middle" x="180.88" y="-163.2" font-family="Helvetica,sans-Serif" font-size="14.00">1 2 3 4 1 2 3 5 6 7 4 5 6 7 </text>
<text text-anchor="middle" x="180.88" y="-145.95" font-family="Helvetica,sans-Serif" font-size="14.00">A double occurrence word</text>
<text text-anchor="middle" x="180.88" y="-128.7" font-family="Helvetica,sans-Serif" font-size="14.00">Already in ascending order</text>
<text text-anchor="middle" x="180.88" y="-111.45" font-family="Helvetica,sans-Serif" font-size="14.00">Palindrome: yes</text>
<text text-anchor="middle" x="180.88" y="-94.2" font-family="Helvetica,sans-Serif" font-size="14.00">Semi&#45;palindrome: yes</text>
<text text-anchor="middle" x="180.88" y="-76.95" font-family="Helvetica,sans-Serif" font-size="14.00">Irreducible: yes</text>
<text text-anchor="middle" x="180.88" y="-59.7" font-family="Helvetica,sans-Serif" font-size="14.00">Strongly&#45;irreducible: yes</text>
<text text-anchor="middle" x="180.88" y="-42.45" font-family="Helvetica,sans-Serif" font-size="14.00">Assembly number: 1</text>
<text text-anchor="middle" x="180.88" y="-25.2" font-family="Helvetica,sans-Serif" font-size="14.00">Edges in Hamiltonion set of polygonal paths: 0 2 5 7 9 12 </text>
<text text-anchor="middle" x="180.88" y="-7.95" font-family="Helvetica,sans-Serif" font-size="14.00">Realizable</text>
<!-- a -->
<!-- 1 -->
<g id="node3" class="node">
<title>1</title>
<polygon fill="none" stroke="black" points="187.23,-720.5 160.23,-702.5 187.23,-684.5 214.23,-702.5 187.23,-720.5"/>
<text text-anchor="middle" x="187.23" y="-697.83" font-family="Helvetica,sans-Serif" font-size="14.00">1</text>
</g>
<!-- a&#45;&gt;1 -->
<g id="edge1" class="edge">
<title>a:s&#45;&gt;1:n</title>
<path fill="none" stroke="black" d="M187.23,-756.5C187.23,-745.12 187.23,-739.82 187.23,-731.95"/>
<polygon fill="black" stroke="black" points="190.73,-732.01 187.23,-722.01 183.73,-732.01 190.73,-732.01"/>
</g>
<!-- b -->
<!-- 2 -->
<g id="node4" class="node">
<title>2</title>
<polygon fill="none" stroke="black" points="187.23,-648.5 160.23,-630.5 187.23,-612.5 214.23,-630.5 187.23,-648.5"/>
<text text-anchor="middle" x="187.23" y="-625.83" font-family="Helvetica,sans-Serif" font-size="14.00">2</text>
</g>
<!-- 1&#45;&gt;2 -->
<g id="edge2" class="edge">
<title>1:s&#45;&gt;2:n</title>
<path fill="none" stroke="blue" d="M187.23,-684.5C187.23,-673.12 187.23,-667.82 187.23,-659.95"/>
<polygon fill="blue" stroke="blue" points="190.73,-660.01 187.23,-650.01 183.73,-660.01 190.73,-660.01"/>
</g>
<!-- 1&#45;&gt;2 -->
<g id="edge6" class="edge">
<title>1:e&#45;&gt;2:e</title>
<path fill="none" stroke="black" d="M216.04,-702.5C243.91,-702.5 247.51,-647.87 226.82,-633.78"/>
<polygon fill="black" stroke="black" points="228.07,-630.5 217.49,-630.94 226.03,-637.2 228.07,-630.5"/>
</g>
<!-- 3 -->
<g id="node5" class="node">
<title>3</title>
<polygon fill="none" stroke="black" points="187.23,-576.5 160.23,-558.5 187.23,-540.5 214.23,-558.5 187.23,-576.5"/>
<text text-anchor="middle" x="187.23" y="-553.83" font-family="Helvetica,sans-Serif" font-size="14.00">3</text>
</g>
<!-- 2&#45;&gt;3 -->
<g id="edge3" class="edge">
<title>2:s&#45;&gt;3:n</title>
<path fill="none" stroke="black" d="M187.23,-612.5C187.23,-601.12 187.23,-595.82 187.23,-587.95"/>
<polygon fill="black" stroke="black" points="190.73,-588.01 187.23,-578.01 183.73,-588.01 190.73,-588.01"/>
</g>
<!-- 2&#45;&gt;3 -->
<g id="edge7" class="edge">
<title>2:w&#45;&gt;3:w</title>
<path fill="none" stroke="blue" d="M158.41,-630.5C145.79,-630.5 143.13,-585.67 150.42,-566.76"/>
<polygon fill="blue" stroke="blue" points="152.92,-569.21 157.36,-559.59 147.89,-564.34 152.92,-569.21"/>
</g>
<!-- 4 -->
<g id="node6" class="node">
<title>4</title>
<polygon fill="none" stroke="black" points="159.23,-504.5 132.23,-486.5 159.23,-468.5 186.23,-486.5 159.23,-504.5"/>
<text text-anchor="middle" x="159.23" y="-481.82" font-family="Helvetica,sans-Serif" font-size="14.00">4</text>
</g>
<!-- 3&#45;&gt;4 -->
<g id="edge4" class="edge">
<title>3:s&#45;&gt;4:n</title>
<path fill="none" stroke="blue" d="M187.23,-540.5C187.23,-524.98 170.81,-524 163.12,-515.3"/>
<polygon fill="blue" stroke="blue" points="166.42,-514.14 159.74,-505.92 159.84,-516.52 166.42,-514.14"/>
</g>
<!-- 5 -->
<g id="node7" class="node">
<title>5</title>
<polygon fill="none" stroke="black" points="159.23,-432.5 132.23,-414.5 159.23,-396.5 186.23,-414.5 159.23,-432.5"/>
<text text-anchor="middle" x="159.23" y="-409.82" font-family="Helvetica,sans-Serif" font-size="14.00">5</text>
</g>
<!-- 3&#45;&gt;5 -->
<g id="edge8" class="edge">
<title>3:e&#45;&gt;5:n</title>
<path fill="none" stroke="black" d="M216.04,-558.5C227.24,-558.5 233.91,-534.98 195.23,-468.5 186.25,-453.07 169.02,-453.66 162.16,-443.48"/>
<polygon fill="black" stroke="black" points="165.58,-442.72 159.62,-433.96 158.81,-444.53 165.58,-442.72"/>
</g>
<!-- 4&#45;&gt;1 -->
<g id="edge5" class="edge">
<title>4:s&#45;&gt;1:w</title>
<path fill="none" stroke="black" d="M159.23,-467.18C159.23,-455.17 177.89,-459.53 186.23,-468.18 191.83,-473.99 189.26,-497.02 186.23,-504.5 177.83,-525.18 159.62,-519.82 151.23,-540.5 126.87,-600.48 127.63,-678.89 148.06,-698.11"/>
<polygon fill="black" stroke="black" points="146.45,-701.22 157.02,-701.91 149.18,-694.78 146.45,-701.22"/>
</g>
<!-- 4&#45;&gt;5 -->
<g id="edge12" class="edge">
<title>4:w&#45;&gt;5:w</title>
<path fill="none" stroke="black" d="M130.41,-486.5C102.54,-486.5 98.95,-431.87 119.63,-417.78"/>
<polygon fill="black" stroke="black" points="120.42,-421.2 128.97,-414.94 118.38,-414.5 120.42,-421.2"/>
</g>
<!-- 6 -->
<g id="node8" class="node">
<title>6</title>
<polygon fill="none" stroke="black" points="159.23,-360.5 132.23,-342.5 159.23,-324.5 186.23,-342.5 159.23,-360.5"/>
<text text-anchor="middle" x="159.23" y="-337.82" font-family="Helvetica,sans-Serif" font-size="14.00">6</text>
</g>
<!-- 5&#45;&gt;6 -->
<g id="edge9" class="edge">
<title>5:s&#45;&gt;6:n</title>
<path fill="none" stroke="blue" d="M159.23,-396.5C159.23,-385.12 159.23,-379.82 159.23,-371.95"/>
<polygon fill="blue" stroke="blue" points="162.73,-372.01 159.23,-362.01 155.73,-372.01 162.73,-372.01"/>
</g>
<!-- 5&#45;&gt;6 -->
<g id="edge13" class="edge">
<title>5:e&#45;&gt;6:e</title>
<path fill="none" stroke="black" d="M188.04,-414.5C200.66,-414.5 203.33,-369.67 196.03,-350.76"/>
<polygon fill="black" stroke="black" points="198.56,-348.34 189.09,-343.59 193.53,-353.21 198.56,-348.34"/>
</g>
<!-- 7 -->
<g id="node9" class="node">
<title>7</title>
<polygon fill="none" stroke="black" points="159.23,-288.5 132.23,-270.5 159.23,-252.5 186.23,-270.5 159.23,-288.5"/>
<text text-anchor="middle" x="159.23" y="-265.82" font-family="Helvetica,sans-Serif" font-size="14.00">7</text>
</g>
<!-- 6&#45;&gt;7 -->
<g id="edge10" class="edge">
<title>6:s&#45;&gt;7:n</title>
<path fill="none" stroke="black" d="M159.23,-324.5C159.23,-313.12 159.23,-307.82 159.23,-299.95"/>
<polygon fill="black" stroke="black" points="162.73,-300.01 159.23,-290.01 155.73,-300.01 162.73,-300.01"/>
</g>
<!-- 6&#45;&gt;7 -->
<g id="edge14" class="edge">
<title>6:w&#45;&gt;7:w</title>
<path fill="none" stroke="blue" d="M130.41,-342.5C102.54,-342.5 98.95,-287.87 119.63,-273.78"/>
<polygon fill="blue" stroke="blue" points="120.42,-277.2 128.97,-270.94 118.38,-270.5 120.42,-277.2"/>
</g>
<!-- 7&#45;&gt;b -->
<g id="edge15" class="edge">
<title>7:e&#45;&gt;b:n</title>
<path fill="none" stroke="black" d="M188.04,-270.5C208.39,-270.5 192.94,-248.95 187.76,-227.76"/>
<polygon fill="black" stroke="black" points="191.25,-227.44 186.43,-218 184.31,-228.38 191.25,-227.44"/>
</g>
<!-- 7&#45;&gt;4 -->
<g id="edge11" class="edge">
<title>7:s&#45;&gt;4:e</title>
<path fill="none" stroke="blue" d="M159.23,-251.18C159.23,-239.17 177.38,-244.06 186.23,-252.18 260.07,-319.88 289.89,-474.15 199.36,-485.8"/>
<polygon fill="blue" stroke="blue" points="199.32,-482.3 189.55,-486.41 199.75,-489.28 199.32,-482.3"/>
</g>
</g>
</svg>
