<?xml version="1.0" encoding="UTF-8" standalone="no"?>
<!DOCTYPE svg PUBLIC "-//W3C//DTD SVG 1.1//EN"
 "http://www.w3.org/Graphics/SVG/1.1/DTD/svg11.dtd">
<!-- Generated by graphviz version 12.2.1 (20241206.2353)
 -->
<!-- Pages: 1 -->
<svg width="482pt" height="1377pt"
 viewBox="0.00 0.00 482.25 1376.50" xmlns="http://www.w3.org/2000/svg" xmlns:xlink="http://www.w3.org/1999/xlink">
<g id="graph0" class="graph" transform="scale(1 1) rotate(0) translate(4 1372.5)">
<polygon fill="white" stroke="none" points="-4,4 -4,-1372.5 478.25,-1372.5 478.25,4 -4,4"/>
<text text-anchor="middle" x="237.12" y="-163.2" font-family="Helvetica,sans-Serif" font-size="14.00">1 1 2 2 3 3 4 5 6 4 7 5 6 7 8 8 9 10 11 9 12 10 11 12 13 13 14 14 15 15 </text>
<text text-anchor="middle" x="237.12" y="-145.95" font-family="Helvetica,sans-Serif" font-size="14.00">A double occurrence word</text>
<text text-anchor="middle" x="237.12" y="-128.7" font-family="Helvetica,sans-Serif" font-size="14.00">Already in ascending order</text>
<text text-anchor="middle" x="237.12" y="-111.45" font-family="Helvetica,sans-Serif" font-size="14.00">Palindrome: yes</text>
<text text-anchor="middle" x="237.12" y="-94.2" font-family="Helvetica,sans-Serif" font-size="14.00">Semi&#45;palindrome: yes</text>
<text text-anchor="middle" x="237.12" y="-76.95" font-family="Helvetica,sans-Serif" font-size="14.00">Irreducible: no</text>
<text text-anchor="middle" x="237.12" y="-59.7" font-family="Helvetica,sans-Serif" font-size="14.00">Strongly&#45;irreducible: no</text>
<text text-anchor="middle" x="237.12" y="-42.45" font-family="Helvetica,sans-Serif" font-size="14.00">Assembly number: 3</text>
<text text-anchor="middle" x="237.12" y="-25.2" font-family="Helvetica,sans-Serif" font-size="14.00">Edges in Hamiltonion set of polygonal paths: 1 3 5 7 9 12 15 17 19 22 25 27 </text>
<text text-anchor="middle" x="237.12" y="-7.95" font-family="Helvetica,sans-Serif" font-size="14.00">Unrealizable</text>
<!-- a -->
<!-- 1 -->
<g id="node3" class="node">
<title>1</title>
<polygon fill="none" stroke="black" points="208.02,-1296.5 181.02,-1278.5 208.02,-1260.5 235.02,-1278.5 208.02,-1296.5"/>
<text text-anchor="middle" x="208.02" y="-1273.83" font-family="Helvetica,sans-Serif" font-size="14.00">1</text>
</g>
<!-- a&#45;&gt;1 -->
<g id="edge1" class="edge">
<title>a:s&#45;&gt;1:n</title>
<path fill="none" stroke="black" d="M208.02,-1332.5C208.02,-1321.12 208.02,-1315.82 208.02,-1307.95"/>
<polygon fill="black" stroke="black" points="211.52,-1308.01 208.02,-1298.01 204.52,-1308.01 211.52,-1308.01"/>
</g>
<!-- b -->
<!-- 1&#45;&gt;1 -->
<g id="edge2" class="edge">
<title>1:s&#45;&gt;1:w</title>
<path fill="none" stroke="black" d="M208.02,-1260.18C193.02,-1242.18 163.02,-1242.18 163.02,-1269.34 163.02,-1289.71 169.77,-1294.8 175.33,-1288.48"/>
<polygon fill="black" stroke="black" points="178.3,-1290.38 179.54,-1279.86 172.01,-1287.31 178.3,-1290.38"/>
</g>
<!-- 2 -->
<g id="node4" class="node">
<title>2</title>
<polygon fill="none" stroke="black" points="235.02,-1224.5 208.02,-1206.5 235.02,-1188.5 262.02,-1206.5 235.02,-1224.5"/>
<text text-anchor="middle" x="235.02" y="-1201.83" font-family="Helvetica,sans-Serif" font-size="14.00">2</text>
</g>
<!-- 1&#45;&gt;2 -->
<g id="edge3" class="edge">
<title>1:e&#45;&gt;2:n</title>
<path fill="none" stroke="blue" d="M236.83,-1278.5C257.19,-1278.5 241.73,-1256.95 236.55,-1235.76"/>
<polygon fill="blue" stroke="blue" points="240.04,-1235.44 235.22,-1226 233.1,-1236.38 240.04,-1235.44"/>
</g>
<!-- 2&#45;&gt;2 -->
<g id="edge4" class="edge">
<title>2:s&#45;&gt;2:e</title>
<path fill="none" stroke="black" d="M235.02,-1188.18C250.02,-1170.18 280.02,-1170.18 280.02,-1197.34 280.02,-1217.71 273.27,-1222.8 267.7,-1216.48"/>
<polygon fill="black" stroke="black" points="271.03,-1215.31 263.5,-1207.86 264.74,-1218.38 271.03,-1215.31"/>
</g>
<!-- 3 -->
<g id="node5" class="node">
<title>3</title>
<polygon fill="none" stroke="black" points="208.02,-1152.5 181.02,-1134.5 208.02,-1116.5 235.02,-1134.5 208.02,-1152.5"/>
<text text-anchor="middle" x="208.02" y="-1129.83" font-family="Helvetica,sans-Serif" font-size="14.00">3</text>
</g>
<!-- 2&#45;&gt;3 -->
<g id="edge5" class="edge">
<title>2:w&#45;&gt;3:n</title>
<path fill="none" stroke="blue" d="M206.21,-1206.5C185.85,-1206.5 201.31,-1184.95 206.49,-1163.76"/>
<polygon fill="blue" stroke="blue" points="209.94,-1164.38 207.81,-1154 203,-1163.44 209.94,-1164.38"/>
</g>
<!-- 3&#45;&gt;3 -->
<g id="edge6" class="edge">
<title>3:s&#45;&gt;3:w</title>
<path fill="none" stroke="black" d="M208.02,-1116.18C193.02,-1098.18 163.02,-1098.18 163.02,-1125.34 163.02,-1145.71 169.77,-1150.8 175.33,-1144.48"/>
<polygon fill="black" stroke="black" points="178.3,-1146.38 179.54,-1135.86 172.01,-1143.31 178.3,-1146.38"/>
</g>
<!-- 4 -->
<g id="node6" class="node">
<title>4</title>
<polygon fill="none" stroke="black" points="235.02,-1080.5 208.02,-1062.5 235.02,-1044.5 262.02,-1062.5 235.02,-1080.5"/>
<text text-anchor="middle" x="235.02" y="-1057.83" font-family="Helvetica,sans-Serif" font-size="14.00">4</text>
</g>
<!-- 3&#45;&gt;4 -->
<g id="edge7" class="edge">
<title>3:e&#45;&gt;4:n</title>
<path fill="none" stroke="blue" d="M236.83,-1134.5C257.19,-1134.5 241.73,-1112.95 236.55,-1091.76"/>
<polygon fill="blue" stroke="blue" points="240.04,-1091.44 235.22,-1082 233.1,-1092.38 240.04,-1091.44"/>
</g>
<!-- 5 -->
<g id="node7" class="node">
<title>5</title>
<polygon fill="none" stroke="black" points="235.02,-1008.5 208.02,-990.5 235.02,-972.5 262.02,-990.5 235.02,-1008.5"/>
<text text-anchor="middle" x="235.02" y="-985.83" font-family="Helvetica,sans-Serif" font-size="14.00">5</text>
</g>
<!-- 4&#45;&gt;5 -->
<g id="edge8" class="edge">
<title>4:s&#45;&gt;5:n</title>
<path fill="none" stroke="black" d="M235.02,-1044.5C235.02,-1033.12 235.02,-1027.82 235.02,-1019.95"/>
<polygon fill="black" stroke="black" points="238.52,-1020.01 235.02,-1010.01 231.52,-1020.01 238.52,-1020.01"/>
</g>
<!-- 7 -->
<g id="node9" class="node">
<title>7</title>
<polygon fill="none" stroke="black" points="208.02,-864.5 181.02,-846.5 208.02,-828.5 235.02,-846.5 208.02,-864.5"/>
<text text-anchor="middle" x="208.02" y="-841.83" font-family="Helvetica,sans-Serif" font-size="14.00">7</text>
</g>
<!-- 4&#45;&gt;7 -->
<g id="edge11" class="edge">
<title>4:w&#45;&gt;7:n</title>
<path fill="none" stroke="blue" d="M206.21,-1062.5C183.5,-1062.5 204.29,-928.44 207.59,-875.75"/>
<polygon fill="blue" stroke="blue" points="211.08,-876.14 207.96,-866.01 204.09,-875.87 211.08,-876.14"/>
</g>
<!-- 6 -->
<g id="node8" class="node">
<title>6</title>
<polygon fill="none" stroke="black" points="263.02,-936.5 236.02,-918.5 263.02,-900.5 290.02,-918.5 263.02,-936.5"/>
<text text-anchor="middle" x="263.02" y="-913.83" font-family="Helvetica,sans-Serif" font-size="14.00">6</text>
</g>
<!-- 5&#45;&gt;6 -->
<g id="edge9" class="edge">
<title>5:s&#45;&gt;6:n</title>
<path fill="none" stroke="blue" d="M235.02,-972.5C235.02,-956.98 251.43,-956 259.13,-947.3"/>
<polygon fill="blue" stroke="blue" points="262.41,-948.52 262.51,-937.92 255.82,-946.14 262.41,-948.52"/>
</g>
<!-- 5&#45;&gt;6 -->
<g id="edge13" class="edge">
<title>5:e&#45;&gt;6:e</title>
<path fill="none" stroke="black" d="M263.83,-990.5C267.19,-990.5 289.97,-939.74 290.83,-936.5 291.41,-934.32 292.38,-931.95 293.29,-929.65"/>
<polygon fill="black" stroke="black" points="296.79,-929.46 292.03,-920 289.85,-930.37 296.79,-929.46"/>
</g>
<!-- 6&#45;&gt;4 -->
<g id="edge10" class="edge">
<title>6:s&#45;&gt;4:e</title>
<path fill="none" stroke="black" d="M263.02,-899.18C263.02,-887.17 281.69,-891.53 290.02,-900.18 337.95,-949.92 337.16,-1050.67 275.2,-1061.54"/>
<polygon fill="black" stroke="black" points="275.01,-1058.05 265.34,-1062.37 275.6,-1065.02 275.01,-1058.05"/>
</g>
<!-- 6&#45;&gt;7 -->
<g id="edge14" class="edge">
<title>6:w&#45;&gt;7:w</title>
<path fill="none" stroke="blue" d="M234.21,-918.5C224.54,-918.5 228.44,-907.71 222.02,-900.5 205.71,-882.19 191.04,-886.5 180.21,-864.5 179.15,-862.37 177.93,-859.91 176.94,-857.52"/>
<polygon fill="blue" stroke="blue" points="180.32,-858.48 178.9,-847.98 173.46,-857.08 180.32,-858.48"/>
</g>
<!-- 7&#45;&gt;5 -->
<g id="edge12" class="edge">
<title>7:s&#45;&gt;5:w</title>
<path fill="none" stroke="black" d="M208.02,-827.18C208.02,-815.17 226.69,-819.53 235.02,-828.18 246.22,-839.8 237.05,-848.49 235.02,-864.5 231.9,-889.09 211,-948.01 207.21,-972.5 206.88,-974.6 206.09,-976.86 205.26,-979.04"/>
<polygon fill="black" stroke="black" points="201.77,-979.31 206.08,-988.99 208.75,-978.74 201.77,-979.31"/>
</g>
<!-- 8 -->
<g id="node10" class="node">
<title>8</title>
<polygon fill="none" stroke="black" points="235.02,-792.5 208.02,-774.5 235.02,-756.5 262.02,-774.5 235.02,-792.5"/>
<text text-anchor="middle" x="235.02" y="-769.83" font-family="Helvetica,sans-Serif" font-size="14.00">8</text>
</g>
<!-- 7&#45;&gt;8 -->
<g id="edge15" class="edge">
<title>7:e&#45;&gt;8:n</title>
<path fill="none" stroke="black" d="M236.83,-846.5C257.19,-846.5 241.73,-824.95 236.55,-803.76"/>
<polygon fill="black" stroke="black" points="240.04,-803.44 235.22,-794 233.1,-804.38 240.04,-803.44"/>
</g>
<!-- 8&#45;&gt;8 -->
<g id="edge16" class="edge">
<title>8:s&#45;&gt;8:e</title>
<path fill="none" stroke="black" d="M235.02,-756.18C250.02,-738.18 280.02,-738.18 280.02,-765.34 280.02,-785.71 273.27,-790.8 267.7,-784.48"/>
<polygon fill="black" stroke="black" points="271.03,-783.31 263.5,-775.86 264.74,-786.38 271.03,-783.31"/>
</g>
<!-- 9 -->
<g id="node11" class="node">
<title>9</title>
<polygon fill="none" stroke="black" points="208.02,-720.5 181.02,-702.5 208.02,-684.5 235.02,-702.5 208.02,-720.5"/>
<text text-anchor="middle" x="208.02" y="-697.83" font-family="Helvetica,sans-Serif" font-size="14.00">9</text>
</g>
<!-- 8&#45;&gt;9 -->
<g id="edge17" class="edge">
<title>8:w&#45;&gt;9:n</title>
<path fill="none" stroke="blue" d="M206.21,-774.5C185.85,-774.5 201.31,-752.95 206.49,-731.76"/>
<polygon fill="blue" stroke="blue" points="209.94,-732.38 207.81,-722 203,-731.44 209.94,-732.38"/>
</g>
<!-- 10 -->
<g id="node12" class="node">
<title>10</title>
<polygon fill="none" stroke="black" points="208.02,-648.5 177.26,-630.5 208.02,-612.5 238.77,-630.5 208.02,-648.5"/>
<text text-anchor="middle" x="208.02" y="-625.83" font-family="Helvetica,sans-Serif" font-size="14.00">10</text>
</g>
<!-- 9&#45;&gt;10 -->
<g id="edge18" class="edge">
<title>9:s&#45;&gt;10:n</title>
<path fill="none" stroke="black" d="M208.02,-684.5C208.02,-673.12 208.02,-667.82 208.02,-659.95"/>
<polygon fill="black" stroke="black" points="211.52,-660.01 208.02,-650.01 204.52,-660.01 211.52,-660.01"/>
</g>
<!-- 12 -->
<g id="node14" class="node">
<title>12</title>
<polygon fill="none" stroke="black" points="239.02,-504.5 208.26,-486.5 239.02,-468.5 269.77,-486.5 239.02,-504.5"/>
<text text-anchor="middle" x="239.02" y="-481.82" font-family="Helvetica,sans-Serif" font-size="14.00">12</text>
</g>
<!-- 9&#45;&gt;12 -->
<g id="edge21" class="edge">
<title>9:e&#45;&gt;12:n</title>
<path fill="none" stroke="blue" d="M236.83,-702.5C309.77,-702.5 284.15,-610.31 263.02,-540.5 258.8,-526.55 247.19,-524.11 241.82,-515.38"/>
<polygon fill="blue" stroke="blue" points="245.28,-514.78 239.4,-505.97 238.5,-516.52 245.28,-514.78"/>
</g>
<!-- 11 -->
<g id="node13" class="node">
<title>11</title>
<polygon fill="none" stroke="black" points="182.02,-576.5 152.75,-558.5 182.02,-540.5 211.28,-558.5 182.02,-576.5"/>
<text text-anchor="middle" x="182.02" y="-553.83" font-family="Helvetica,sans-Serif" font-size="14.00">11</text>
</g>
<!-- 10&#45;&gt;11 -->
<g id="edge19" class="edge">
<title>10:s&#45;&gt;11:n</title>
<path fill="none" stroke="blue" d="M208.02,-612.5C208.02,-597.39 192.78,-595.88 185.63,-587.15"/>
<polygon fill="blue" stroke="blue" points="189.03,-586.28 182.5,-577.93 182.4,-588.53 189.03,-586.28"/>
</g>
<!-- 10&#45;&gt;11 -->
<g id="edge23" class="edge">
<title>10:w&#45;&gt;11:w</title>
<path fill="none" stroke="black" d="M175.34,-630.5C169,-630.5 153.66,-590 149.94,-569.75"/>
<polygon fill="black" stroke="black" points="153.41,-570.26 150.75,-560.01 146.44,-569.69 153.41,-570.26"/>
</g>
<!-- 11&#45;&gt;9 -->
<g id="edge20" class="edge">
<title>11:s&#45;&gt;9:w</title>
<path fill="none" stroke="black" d="M182.02,-538.95C182.02,-525.94 202.24,-530.59 211.28,-539.95 222.57,-551.63 218.18,-561.79 211.28,-576.5 200.66,-599.15 178.64,-589.85 168.02,-612.5 152.71,-645.15 141.49,-691.4 168.14,-700.8"/>
<polygon fill="black" stroke="black" points="167.29,-704.21 177.71,-702.27 168.36,-697.29 167.29,-704.21"/>
</g>
<!-- 11&#45;&gt;12 -->
<g id="edge24" class="edge">
<title>11:e&#45;&gt;12:e</title>
<path fill="none" stroke="blue" d="M213.16,-558.5C222.74,-558.5 218.54,-547.56 225.02,-540.5 242.5,-521.46 258.77,-527.43 270.7,-504.5 271.79,-502.39 273.03,-499.95 274.03,-497.55"/>
<polygon fill="blue" stroke="blue" points="277.5,-497.04 272.01,-487.98 270.65,-498.49 277.5,-497.04"/>
</g>
<!-- 12&#45;&gt;10 -->
<g id="edge22" class="edge">
<title>12:s&#45;&gt;10:e</title>
<path fill="none" stroke="black" d="M239.02,-467.08C239.02,-453.41 260.26,-458.26 269.77,-468.08 281.03,-479.71 271.6,-488.42 269.77,-504.5 269.44,-507.43 252.5,-590.34 244.45,-620.04"/>
<polygon fill="black" stroke="black" points="241.29,-618.48 241.21,-629.08 247.88,-620.84 241.29,-618.48"/>
</g>
<!-- 13 -->
<g id="node15" class="node">
<title>13</title>
<polygon fill="none" stroke="black" points="208.02,-432.5 177.26,-414.5 208.02,-396.5 238.77,-414.5 208.02,-432.5"/>
<text text-anchor="middle" x="208.02" y="-409.82" font-family="Helvetica,sans-Serif" font-size="14.00">13</text>
</g>
<!-- 12&#45;&gt;13 -->
<g id="edge25" class="edge">
<title>12:w&#45;&gt;13:n</title>
<path fill="none" stroke="black" d="M206.34,-486.5C185.99,-486.5 201.34,-464.95 206.5,-443.76"/>
<polygon fill="black" stroke="black" points="209.94,-444.38 207.82,-434 203.01,-443.44 209.94,-444.38"/>
</g>
<!-- 13&#45;&gt;13 -->
<g id="edge26" class="edge">
<title>13:s&#45;&gt;13:w</title>
<path fill="none" stroke="black" d="M208.02,-396.08C191.77,-378.08 159.26,-378.08 159.26,-405.29 159.26,-425.7 166.01,-430.8 171.53,-424.48"/>
<polygon fill="black" stroke="black" points="174.5,-426.39 175.68,-415.86 168.19,-423.35 174.5,-426.39"/>
</g>
<!-- 14 -->
<g id="node16" class="node">
<title>14</title>
<polygon fill="none" stroke="black" points="239.02,-360.5 208.26,-342.5 239.02,-324.5 269.77,-342.5 239.02,-360.5"/>
<text text-anchor="middle" x="239.02" y="-337.82" font-family="Helvetica,sans-Serif" font-size="14.00">14</text>
</g>
<!-- 13&#45;&gt;14 -->
<g id="edge27" class="edge">
<title>13:e&#45;&gt;14:n</title>
<path fill="none" stroke="blue" d="M240.7,-414.5C261.05,-414.5 245.69,-392.95 240.54,-371.76"/>
<polygon fill="blue" stroke="blue" points="244.03,-371.44 239.22,-362 237.09,-372.38 244.03,-371.44"/>
</g>
<!-- 14&#45;&gt;14 -->
<g id="edge28" class="edge">
<title>14:s&#45;&gt;14:e</title>
<path fill="none" stroke="black" d="M239.02,-324.08C255.27,-306.08 287.77,-306.08 287.77,-333.29 287.77,-353.7 281.02,-358.8 275.51,-352.48"/>
<polygon fill="black" stroke="black" points="278.85,-351.35 271.35,-343.86 272.54,-354.39 278.85,-351.35"/>
</g>
<!-- 15 -->
<g id="node17" class="node">
<title>15</title>
<polygon fill="none" stroke="black" points="208.02,-288.5 177.26,-270.5 208.02,-252.5 238.77,-270.5 208.02,-288.5"/>
<text text-anchor="middle" x="208.02" y="-265.82" font-family="Helvetica,sans-Serif" font-size="14.00">15</text>
</g>
<!-- 14&#45;&gt;15 -->
<g id="edge29" class="edge">
<title>14:w&#45;&gt;15:n</title>
<path fill="none" stroke="blue" d="M206.34,-342.5C185.99,-342.5 201.34,-320.95 206.5,-299.76"/>
<polygon fill="blue" stroke="blue" points="209.94,-300.38 207.82,-290 203.01,-299.44 209.94,-300.38"/>
</g>
<!-- 15&#45;&gt;b -->
<g id="edge31" class="edge">
<title>15:e&#45;&gt;b:n</title>
<path fill="none" stroke="black" d="M240.7,-270.5C261.05,-270.5 245.69,-248.95 240.54,-227.76"/>
<polygon fill="black" stroke="black" points="244.03,-227.44 239.22,-218 237.09,-228.38 244.03,-227.44"/>
</g>
<!-- 15&#45;&gt;15 -->
<g id="edge30" class="edge">
<title>15:s&#45;&gt;15:w</title>
<path fill="none" stroke="black" d="M208.02,-252.08C191.77,-234.08 159.26,-234.08 159.26,-261.29 159.26,-281.7 166.01,-286.8 171.53,-280.48"/>
<polygon fill="black" stroke="black" points="174.5,-282.39 175.68,-271.86 168.19,-279.35 174.5,-282.39"/>
</g>
</g>
</svg>
