<?xml version="1.0" encoding="UTF-8" standalone="no"?>
<!DOCTYPE svg PUBLIC "-//W3C//DTD SVG 1.1//EN"
 "http://www.w3.org/Graphics/SVG/1.1/DTD/svg11.dtd">
<!-- Generated by graphviz version 12.2.1 (20241206.2353)
 -->
<!-- Pages: 1 -->
<svg width="185pt" height="495pt"
 viewBox="0.00 0.00 184.50 495.25" xmlns="http://www.w3.org/2000/svg" xmlns:xlink="http://www.w3.org/1999/xlink">
<g id="graph0" class="graph" transform="scale(1 1) rotate(0) translate(4 491.25)">
<polygon fill="white" stroke="none" points="-4,4 -4,-491.25 180.5,-491.25 180.5,4 -4,4"/>
<text text-anchor="middle" x="88.25" y="-145.95" font-family="Helvetica,sans-Serif" font-size="14.00">1 1 2 2 3 3 </text>
<text text-anchor="middle" x="88.25" y="-128.7" font-family="Helvetica,sans-Serif" font-size="14.00">A double occurrence word</text>
<text text-anchor="middle" x="88.25" y="-111.45" font-family="Helvetica,sans-Serif" font-size="14.00">Already in ascending order</text>
<text text-anchor="middle" x="88.25" y="-94.2" font-family="Helvetica,sans-Serif" font-size="14.00">Palindrome: yes</text>
<text text-anchor="middle" x="88.25" y="-76.95" font-family="Helvetica,sans-Serif" font-size="14.00">Semi&#45;palindrome: yes</text>
<text text-anchor="middle" x="88.25" y="-59.7" font-family="Helvetica,sans-Serif" font-size="14.00">Irreducible: no</text>
<text text-anchor="middle" x="88.25" y="-42.45" font-family="Helvetica,sans-Serif" font-size="14.00">Strongly&#45;irreducible: no</text>
<text text-anchor="middle" x="88.25" y="-25.2" font-family="Helvetica,sans-Serif" font-size="14.00">Assembly number: 1</text>
<text text-anchor="middle" x="88.25" y="-7.95" font-family="Helvetica,sans-Serif" font-size="14.00">Realizable</text>
<!-- a -->
<!-- 1 -->
<g id="node3" class="node">
<title>1</title>
<polygon fill="none" stroke="black" points="74.75,-415.25 47.75,-397.25 74.75,-379.25 101.75,-397.25 74.75,-415.25"/>
<text text-anchor="middle" x="74.75" y="-392.57" font-family="Helvetica,sans-Serif" font-size="14.00">1</text>
</g>
<!-- a&#45;&gt;1 -->
<g id="edge1" class="edge">
<title>a:s&#45;&gt;1:n</title>
<path fill="none" stroke="black" d="M74.75,-451.25C74.75,-439.88 74.75,-434.57 74.75,-426.7"/>
<polygon fill="black" stroke="black" points="78.25,-426.76 74.75,-416.76 71.25,-426.76 78.25,-426.76"/>
</g>
<!-- b -->
<!-- 1&#45;&gt;1 -->
<g id="edge2" class="edge">
<title>1:s&#45;&gt;1:w</title>
<path fill="none" stroke="black" d="M74.75,-378.93C59.75,-360.93 29.75,-360.93 29.75,-388.09 29.75,-408.46 36.5,-413.55 42.06,-407.23"/>
<polygon fill="black" stroke="black" points="45.03,-409.13 46.27,-398.61 38.74,-406.06 45.03,-409.13"/>
</g>
<!-- 2 -->
<g id="node4" class="node">
<title>2</title>
<polygon fill="none" stroke="black" points="101.75,-343.25 74.75,-325.25 101.75,-307.25 128.75,-325.25 101.75,-343.25"/>
<text text-anchor="middle" x="101.75" y="-320.57" font-family="Helvetica,sans-Serif" font-size="14.00">2</text>
</g>
<!-- 1&#45;&gt;2 -->
<g id="edge3" class="edge">
<title>1:e&#45;&gt;2:n</title>
<path fill="none" stroke="black" d="M103.56,-397.25C123.92,-397.25 108.46,-375.7 103.28,-354.51"/>
<polygon fill="black" stroke="black" points="106.77,-354.19 101.95,-344.75 99.83,-355.13 106.77,-354.19"/>
</g>
<!-- 2&#45;&gt;2 -->
<g id="edge4" class="edge">
<title>2:s&#45;&gt;2:e</title>
<path fill="none" stroke="black" d="M101.75,-306.93C116.75,-288.93 146.75,-288.93 146.75,-316.09 146.75,-336.46 140,-341.55 134.44,-335.23"/>
<polygon fill="black" stroke="black" points="137.76,-334.06 130.23,-326.61 131.47,-337.13 137.76,-334.06"/>
</g>
<!-- 3 -->
<g id="node5" class="node">
<title>3</title>
<polygon fill="none" stroke="black" points="74.75,-271.25 47.75,-253.25 74.75,-235.25 101.75,-253.25 74.75,-271.25"/>
<text text-anchor="middle" x="74.75" y="-248.57" font-family="Helvetica,sans-Serif" font-size="14.00">3</text>
</g>
<!-- 2&#45;&gt;3 -->
<g id="edge5" class="edge">
<title>2:w&#45;&gt;3:n</title>
<path fill="none" stroke="black" d="M72.94,-325.25C52.58,-325.25 68.04,-303.7 73.22,-282.51"/>
<polygon fill="black" stroke="black" points="76.67,-283.13 74.55,-272.75 69.73,-282.19 76.67,-283.13"/>
</g>
<!-- 3&#45;&gt;b -->
<g id="edge7" class="edge">
<title>3:e&#45;&gt;b:n</title>
<path fill="none" stroke="black" d="M103.56,-253.25C123.92,-253.25 108.46,-231.7 103.28,-210.51"/>
<polygon fill="black" stroke="black" points="106.77,-210.19 101.95,-200.75 99.83,-211.13 106.77,-210.19"/>
</g>
<!-- 3&#45;&gt;3 -->
<g id="edge6" class="edge">
<title>3:s&#45;&gt;3:w</title>
<path fill="none" stroke="black" d="M74.75,-234.93C59.75,-216.93 29.75,-216.93 29.75,-244.09 29.75,-264.46 36.5,-269.55 42.06,-263.23"/>
<polygon fill="black" stroke="black" points="45.03,-265.13 46.27,-254.61 38.74,-262.06 45.03,-265.13"/>
</g>
</g>
</svg>
