<?xml version="1.0" encoding="UTF-8" standalone="no"?>
<!DOCTYPE svg PUBLIC "-//W3C//DTD SVG 1.1//EN"
 "http://www.w3.org/Graphics/SVG/1.1/DTD/svg11.dtd">
<!-- Generated by graphviz version 12.2.1 (20241206.2353)
 -->
<!-- Pages: 1 -->
<svg width="452pt" height="1233pt"
 viewBox="0.00 0.00 452.25 1232.50" xmlns="http://www.w3.org/2000/svg" xmlns:xlink="http://www.w3.org/1999/xlink">
<g id="graph0" class="graph" transform="scale(1 1) rotate(0) translate(4 1228.5)">
<polygon fill="white" stroke="none" points="-4,4 -4,-1228.5 448.25,-1228.5 448.25,4 -4,4"/>
<text text-anchor="middle" x="222.12" y="-163.2" font-family="Helvetica,sans-Serif" font-size="14.00">1 1 2 2 3 4 5 3 6 4 5 6 7 7 8 9 10 8 11 9 10 11 12 12 13 13 </text>
<text text-anchor="middle" x="222.12" y="-145.95" font-family="Helvetica,sans-Serif" font-size="14.00">A double occurrence word</text>
<text text-anchor="middle" x="222.12" y="-128.7" font-family="Helvetica,sans-Serif" font-size="14.00">Already in ascending order</text>
<text text-anchor="middle" x="222.12" y="-111.45" font-family="Helvetica,sans-Serif" font-size="14.00">Palindrome: yes</text>
<text text-anchor="middle" x="222.12" y="-94.2" font-family="Helvetica,sans-Serif" font-size="14.00">Semi&#45;palindrome: yes</text>
<text text-anchor="middle" x="222.12" y="-76.95" font-family="Helvetica,sans-Serif" font-size="14.00">Irreducible: no</text>
<text text-anchor="middle" x="222.12" y="-59.7" font-family="Helvetica,sans-Serif" font-size="14.00">Strongly&#45;irreducible: no</text>
<text text-anchor="middle" x="222.12" y="-42.45" font-family="Helvetica,sans-Serif" font-size="14.00">Assembly number: 3</text>
<text text-anchor="middle" x="222.12" y="-25.2" font-family="Helvetica,sans-Serif" font-size="14.00">Edges in Hamiltonion set of polygonal paths: 1 3 5 7 10 13 15 17 20 23 </text>
<text text-anchor="middle" x="222.12" y="-7.95" font-family="Helvetica,sans-Serif" font-size="14.00">Unrealizable</text>
<!-- a -->
<!-- 1 -->
<g id="node3" class="node">
<title>1</title>
<polygon fill="none" stroke="black" points="190.52,-1152.5 163.52,-1134.5 190.52,-1116.5 217.52,-1134.5 190.52,-1152.5"/>
<text text-anchor="middle" x="190.52" y="-1129.83" font-family="Helvetica,sans-Serif" font-size="14.00">1</text>
</g>
<!-- a&#45;&gt;1 -->
<g id="edge1" class="edge">
<title>a:s&#45;&gt;1:n</title>
<path fill="none" stroke="black" d="M190.52,-1188.5C190.52,-1177.12 190.52,-1171.82 190.52,-1163.95"/>
<polygon fill="black" stroke="black" points="194.02,-1164.01 190.52,-1154.01 187.02,-1164.01 194.02,-1164.01"/>
</g>
<!-- b -->
<!-- 1&#45;&gt;1 -->
<g id="edge2" class="edge">
<title>1:s&#45;&gt;1:w</title>
<path fill="none" stroke="black" d="M190.52,-1116.18C175.52,-1098.18 145.52,-1098.18 145.52,-1125.34 145.52,-1145.71 152.27,-1150.8 157.84,-1144.48"/>
<polygon fill="black" stroke="black" points="160.8,-1146.38 162.05,-1135.86 154.51,-1143.31 160.8,-1146.38"/>
</g>
<!-- 2 -->
<g id="node4" class="node">
<title>2</title>
<polygon fill="none" stroke="black" points="217.52,-1080.5 190.52,-1062.5 217.52,-1044.5 244.52,-1062.5 217.52,-1080.5"/>
<text text-anchor="middle" x="217.52" y="-1057.83" font-family="Helvetica,sans-Serif" font-size="14.00">2</text>
</g>
<!-- 1&#45;&gt;2 -->
<g id="edge3" class="edge">
<title>1:e&#45;&gt;2:n</title>
<path fill="none" stroke="blue" d="M219.34,-1134.5C239.69,-1134.5 224.24,-1112.95 219.05,-1091.76"/>
<polygon fill="blue" stroke="blue" points="222.54,-1091.44 217.73,-1082 215.61,-1092.38 222.54,-1091.44"/>
</g>
<!-- 2&#45;&gt;2 -->
<g id="edge4" class="edge">
<title>2:s&#45;&gt;2:e</title>
<path fill="none" stroke="black" d="M217.52,-1044.18C232.52,-1026.18 262.52,-1026.18 262.52,-1053.34 262.52,-1073.71 255.77,-1078.8 250.21,-1072.48"/>
<polygon fill="black" stroke="black" points="253.53,-1071.31 246,-1063.86 247.24,-1074.38 253.53,-1071.31"/>
</g>
<!-- 3 -->
<g id="node5" class="node">
<title>3</title>
<polygon fill="none" stroke="black" points="190.52,-1008.5 163.52,-990.5 190.52,-972.5 217.52,-990.5 190.52,-1008.5"/>
<text text-anchor="middle" x="190.52" y="-985.83" font-family="Helvetica,sans-Serif" font-size="14.00">3</text>
</g>
<!-- 2&#45;&gt;3 -->
<g id="edge5" class="edge">
<title>2:w&#45;&gt;3:n</title>
<path fill="none" stroke="blue" d="M188.71,-1062.5C168.36,-1062.5 183.81,-1040.95 188.99,-1019.76"/>
<polygon fill="blue" stroke="blue" points="192.44,-1020.38 190.32,-1010 185.51,-1019.44 192.44,-1020.38"/>
</g>
<!-- 4 -->
<g id="node6" class="node">
<title>4</title>
<polygon fill="none" stroke="black" points="190.52,-936.5 163.52,-918.5 190.52,-900.5 217.52,-918.5 190.52,-936.5"/>
<text text-anchor="middle" x="190.52" y="-913.83" font-family="Helvetica,sans-Serif" font-size="14.00">4</text>
</g>
<!-- 3&#45;&gt;4 -->
<g id="edge6" class="edge">
<title>3:s&#45;&gt;4:n</title>
<path fill="none" stroke="black" d="M190.52,-972.5C190.52,-961.12 190.52,-955.82 190.52,-947.95"/>
<polygon fill="black" stroke="black" points="194.02,-948.01 190.52,-938.01 187.02,-948.01 194.02,-948.01"/>
</g>
<!-- 6 -->
<g id="node8" class="node">
<title>6</title>
<polygon fill="none" stroke="black" points="217.52,-792.5 190.52,-774.5 217.52,-756.5 244.52,-774.5 217.52,-792.5"/>
<text text-anchor="middle" x="217.52" y="-769.83" font-family="Helvetica,sans-Serif" font-size="14.00">6</text>
</g>
<!-- 3&#45;&gt;6 -->
<g id="edge9" class="edge">
<title>3:e&#45;&gt;6:n</title>
<path fill="none" stroke="blue" d="M219.34,-990.5C292.01,-990.5 262.58,-898.05 241.52,-828.5 237.3,-814.55 225.7,-812.11 220.32,-803.38"/>
<polygon fill="blue" stroke="blue" points="223.78,-802.78 217.9,-793.97 217,-804.52 223.78,-802.78"/>
</g>
<!-- 5 -->
<g id="node7" class="node">
<title>5</title>
<polygon fill="none" stroke="black" points="162.52,-864.5 135.52,-846.5 162.52,-828.5 189.52,-846.5 162.52,-864.5"/>
<text text-anchor="middle" x="162.52" y="-841.83" font-family="Helvetica,sans-Serif" font-size="14.00">5</text>
</g>
<!-- 4&#45;&gt;5 -->
<g id="edge7" class="edge">
<title>4:s&#45;&gt;5:n</title>
<path fill="none" stroke="blue" d="M190.52,-900.5C190.52,-884.98 174.11,-884 166.42,-875.3"/>
<polygon fill="blue" stroke="blue" points="169.72,-874.14 163.04,-865.92 163.13,-876.52 169.72,-874.14"/>
</g>
<!-- 4&#45;&gt;5 -->
<g id="edge11" class="edge">
<title>4:w&#45;&gt;5:w</title>
<path fill="none" stroke="black" d="M161.71,-918.5C158.36,-918.5 135.57,-867.74 134.71,-864.5 134.13,-862.32 133.17,-859.95 132.26,-857.65"/>
<polygon fill="black" stroke="black" points="135.69,-858.37 133.52,-848 128.75,-857.46 135.69,-858.37"/>
</g>
<!-- 5&#45;&gt;3 -->
<g id="edge8" class="edge">
<title>5:s&#45;&gt;3:w</title>
<path fill="none" stroke="black" d="M162.52,-827.18C162.52,-815.17 181.19,-819.53 189.52,-828.18 200.72,-839.8 195.6,-849.54 189.52,-864.5 181.13,-885.18 162.92,-879.82 154.52,-900.5 141.08,-933.61 125.45,-979.13 150.55,-988.69"/>
<polygon fill="black" stroke="black" points="149.79,-992.12 160.22,-990.26 150.9,-985.21 149.79,-992.12"/>
</g>
<!-- 5&#45;&gt;6 -->
<g id="edge12" class="edge">
<title>5:e&#45;&gt;6:e</title>
<path fill="none" stroke="blue" d="M191.34,-846.5C201,-846.5 197.1,-835.71 203.52,-828.5 219.83,-810.19 234.5,-814.5 245.34,-792.5 246.39,-790.37 247.61,-787.91 248.6,-785.52"/>
<polygon fill="blue" stroke="blue" points="252.08,-785.08 246.64,-775.98 245.22,-786.48 252.08,-785.08"/>
</g>
<!-- 6&#45;&gt;4 -->
<g id="edge10" class="edge">
<title>6:s&#45;&gt;4:e</title>
<path fill="none" stroke="black" d="M217.52,-755.18C217.52,-743.17 236.19,-747.53 244.52,-756.18 255.72,-767.8 246.11,-776.44 244.52,-792.5 243.36,-804.27 236.64,-882.95 226.26,-909.66"/>
<polygon fill="black" stroke="black" points="223.68,-907.28 220.27,-917.31 229.19,-911.59 223.68,-907.28"/>
</g>
<!-- 7 -->
<g id="node9" class="node">
<title>7</title>
<polygon fill="none" stroke="black" points="190.52,-720.5 163.52,-702.5 190.52,-684.5 217.52,-702.5 190.52,-720.5"/>
<text text-anchor="middle" x="190.52" y="-697.83" font-family="Helvetica,sans-Serif" font-size="14.00">7</text>
</g>
<!-- 6&#45;&gt;7 -->
<g id="edge13" class="edge">
<title>6:w&#45;&gt;7:n</title>
<path fill="none" stroke="black" d="M188.71,-774.5C168.36,-774.5 183.81,-752.95 188.99,-731.76"/>
<polygon fill="black" stroke="black" points="192.44,-732.38 190.32,-722 185.51,-731.44 192.44,-732.38"/>
</g>
<!-- 7&#45;&gt;7 -->
<g id="edge14" class="edge">
<title>7:s&#45;&gt;7:w</title>
<path fill="none" stroke="black" d="M190.52,-684.18C175.52,-666.18 145.52,-666.18 145.52,-693.34 145.52,-713.71 152.27,-718.8 157.84,-712.48"/>
<polygon fill="black" stroke="black" points="160.8,-714.38 162.05,-703.86 154.51,-711.31 160.8,-714.38"/>
</g>
<!-- 8 -->
<g id="node10" class="node">
<title>8</title>
<polygon fill="none" stroke="black" points="217.52,-648.5 190.52,-630.5 217.52,-612.5 244.52,-630.5 217.52,-648.5"/>
<text text-anchor="middle" x="217.52" y="-625.83" font-family="Helvetica,sans-Serif" font-size="14.00">8</text>
</g>
<!-- 7&#45;&gt;8 -->
<g id="edge15" class="edge">
<title>7:e&#45;&gt;8:n</title>
<path fill="none" stroke="blue" d="M219.34,-702.5C239.69,-702.5 224.24,-680.95 219.05,-659.76"/>
<polygon fill="blue" stroke="blue" points="222.54,-659.44 217.73,-650 215.61,-660.38 222.54,-659.44"/>
</g>
<!-- 9 -->
<g id="node11" class="node">
<title>9</title>
<polygon fill="none" stroke="black" points="217.52,-576.5 190.52,-558.5 217.52,-540.5 244.52,-558.5 217.52,-576.5"/>
<text text-anchor="middle" x="217.52" y="-553.83" font-family="Helvetica,sans-Serif" font-size="14.00">9</text>
</g>
<!-- 8&#45;&gt;9 -->
<g id="edge16" class="edge">
<title>8:s&#45;&gt;9:n</title>
<path fill="none" stroke="black" d="M217.52,-612.5C217.52,-601.12 217.52,-595.82 217.52,-587.95"/>
<polygon fill="black" stroke="black" points="221.02,-588.01 217.52,-578.01 214.02,-588.01 221.02,-588.01"/>
</g>
<!-- 11 -->
<g id="node13" class="node">
<title>11</title>
<polygon fill="none" stroke="black" points="190.52,-432.5 161.26,-414.5 190.52,-396.5 219.79,-414.5 190.52,-432.5"/>
<text text-anchor="middle" x="190.52" y="-409.82" font-family="Helvetica,sans-Serif" font-size="14.00">11</text>
</g>
<!-- 8&#45;&gt;11 -->
<g id="edge19" class="edge">
<title>8:w&#45;&gt;11:n</title>
<path fill="none" stroke="blue" d="M188.71,-630.5C164.5,-630.5 183.12,-600.66 181.52,-576.5 179.95,-552.68 183.48,-468.93 183.52,-468.5 184.81,-456.86 187.86,-451.77 189.48,-443.78"/>
<polygon fill="blue" stroke="blue" points="192.95,-444.29 190.38,-434.01 185.98,-443.64 192.95,-444.29"/>
</g>
<!-- 10 -->
<g id="node12" class="node">
<title>10</title>
<polygon fill="none" stroke="black" points="249.52,-504.5 218.77,-486.5 249.52,-468.5 280.28,-486.5 249.52,-504.5"/>
<text text-anchor="middle" x="249.52" y="-481.82" font-family="Helvetica,sans-Serif" font-size="14.00">10</text>
</g>
<!-- 9&#45;&gt;10 -->
<g id="edge17" class="edge">
<title>9:s&#45;&gt;10:n</title>
<path fill="none" stroke="blue" d="M217.52,-540.5C217.52,-523.78 237.05,-524.28 245.6,-515.09"/>
<polygon fill="blue" stroke="blue" points="248.8,-516.51 249,-505.92 242.24,-514.08 248.8,-516.51"/>
</g>
<!-- 9&#45;&gt;10 -->
<g id="edge21" class="edge">
<title>9:e&#45;&gt;10:e</title>
<path fill="none" stroke="black" d="M246.34,-558.5C247.23,-558.5 280.93,-505.35 281.2,-504.5 281.9,-502.36 282.92,-500 283.84,-497.71"/>
<polygon fill="black" stroke="black" points="287.33,-497.39 282.42,-488 280.41,-498.4 287.33,-497.39"/>
</g>
<!-- 10&#45;&gt;8 -->
<g id="edge18" class="edge">
<title>10:s&#45;&gt;8:e</title>
<path fill="none" stroke="black" d="M249.52,-467.08C249.52,-453.41 270.77,-458.26 280.28,-468.08 328.86,-518.28 321.12,-619.12 257.48,-629.61"/>
<polygon fill="black" stroke="black" points="257.54,-626.1 247.85,-630.38 258.09,-633.07 257.54,-626.1"/>
</g>
<!-- 10&#45;&gt;11 -->
<g id="edge22" class="edge">
<title>10:w&#45;&gt;11:w</title>
<path fill="none" stroke="blue" d="M216.84,-486.5C207.15,-486.5 211.09,-475.64 204.52,-468.5 187.39,-449.86 171.87,-455.06 160.38,-432.5 159.3,-430.38 158.07,-427.93 157.07,-425.54"/>
<polygon fill="blue" stroke="blue" points="160.45,-426.49 159.07,-415.98 153.6,-425.06 160.45,-426.49"/>
</g>
<!-- 11&#45;&gt;9 -->
<g id="edge20" class="edge">
<title>11:s&#45;&gt;9:w</title>
<path fill="none" stroke="black" d="M190.52,-394.95C190.52,-381.94 210.74,-386.59 219.79,-395.95 231.08,-407.63 222.04,-416.41 219.79,-432.5 212.43,-485.16 143.21,-547.81 177.63,-557.28"/>
<polygon fill="black" stroke="black" points="176.88,-560.72 187.21,-558.33 177.65,-553.76 176.88,-560.72"/>
</g>
<!-- 12 -->
<g id="node14" class="node">
<title>12</title>
<polygon fill="none" stroke="black" points="220.52,-360.5 189.77,-342.5 220.52,-324.5 251.28,-342.5 220.52,-360.5"/>
<text text-anchor="middle" x="220.52" y="-337.82" font-family="Helvetica,sans-Serif" font-size="14.00">12</text>
</g>
<!-- 11&#45;&gt;12 -->
<g id="edge23" class="edge">
<title>11:e&#45;&gt;12:n</title>
<path fill="none" stroke="black" d="M221.67,-414.5C242.02,-414.5 227.05,-392.95 222.01,-371.76"/>
<polygon fill="black" stroke="black" points="225.5,-371.46 220.72,-362 218.56,-372.37 225.5,-371.46"/>
</g>
<!-- 12&#45;&gt;12 -->
<g id="edge24" class="edge">
<title>12:s&#45;&gt;12:e</title>
<path fill="none" stroke="black" d="M220.52,-324.08C236.77,-306.08 269.28,-306.08 269.28,-333.29 269.28,-353.7 262.53,-358.8 257.01,-352.48"/>
<polygon fill="black" stroke="black" points="260.35,-351.35 252.86,-343.86 254.05,-354.39 260.35,-351.35"/>
</g>
<!-- 13 -->
<g id="node15" class="node">
<title>13</title>
<polygon fill="none" stroke="black" points="189.52,-288.5 158.77,-270.5 189.52,-252.5 220.28,-270.5 189.52,-288.5"/>
<text text-anchor="middle" x="189.52" y="-265.82" font-family="Helvetica,sans-Serif" font-size="14.00">13</text>
</g>
<!-- 12&#45;&gt;13 -->
<g id="edge25" class="edge">
<title>12:w&#45;&gt;13:n</title>
<path fill="none" stroke="blue" d="M187.84,-342.5C167.49,-342.5 182.85,-320.95 188,-299.76"/>
<polygon fill="blue" stroke="blue" points="191.45,-300.38 189.32,-290 184.51,-299.44 191.45,-300.38"/>
</g>
<!-- 13&#45;&gt;b -->
<g id="edge27" class="edge">
<title>13:e&#45;&gt;b:n</title>
<path fill="none" stroke="black" d="M222.2,-270.5C242.56,-270.5 227.2,-248.95 222.05,-227.76"/>
<polygon fill="black" stroke="black" points="225.53,-227.44 220.73,-218 218.6,-228.38 225.53,-227.44"/>
</g>
<!-- 13&#45;&gt;13 -->
<g id="edge26" class="edge">
<title>13:s&#45;&gt;13:w</title>
<path fill="none" stroke="black" d="M189.52,-252.08C173.27,-234.08 140.77,-234.08 140.77,-261.29 140.77,-281.7 147.52,-286.8 153.04,-280.48"/>
<polygon fill="black" stroke="black" points="156,-282.39 157.19,-271.86 149.69,-279.35 156,-282.39"/>
</g>
</g>
</svg>
