<?xml version="1.0" encoding="UTF-8" standalone="no"?>
<!DOCTYPE svg PUBLIC "-//W3C//DTD SVG 1.1//EN"
 "http://www.w3.org/Graphics/SVG/1.1/DTD/svg11.dtd">
<!-- Generated by graphviz version 12.2.1 (20241206.2353)
 -->
<!-- Pages: 1 -->
<svg width="370pt" height="801pt"
 viewBox="0.00 0.00 369.75 800.50" xmlns="http://www.w3.org/2000/svg" xmlns:xlink="http://www.w3.org/1999/xlink">
<g id="graph0" class="graph" transform="scale(1 1) rotate(0) translate(4 796.5)">
<polygon fill="white" stroke="none" points="-4,4 -4,-796.5 365.75,-796.5 365.75,4 -4,4"/>
<text text-anchor="middle" x="180.88" y="-163.2" font-family="Helvetica,sans-Serif" font-size="14.00">1 2 3 4 5 1 6 2 7 3 4 5 6 7 </text>
<text text-anchor="middle" x="180.88" y="-145.95" font-family="Helvetica,sans-Serif" font-size="14.00">A double occurrence word</text>
<text text-anchor="middle" x="180.88" y="-128.7" font-family="Helvetica,sans-Serif" font-size="14.00">Already in ascending order</text>
<text text-anchor="middle" x="180.88" y="-111.45" font-family="Helvetica,sans-Serif" font-size="14.00">Palindrome: yes</text>
<text text-anchor="middle" x="180.88" y="-94.2" font-family="Helvetica,sans-Serif" font-size="14.00">Semi&#45;palindrome: yes</text>
<text text-anchor="middle" x="180.88" y="-76.95" font-family="Helvetica,sans-Serif" font-size="14.00">Irreducible: yes</text>
<text text-anchor="middle" x="180.88" y="-59.7" font-family="Helvetica,sans-Serif" font-size="14.00">Strongly&#45;irreducible: yes</text>
<text text-anchor="middle" x="180.88" y="-42.45" font-family="Helvetica,sans-Serif" font-size="14.00">Assembly number: 1</text>
<text text-anchor="middle" x="180.88" y="-25.2" font-family="Helvetica,sans-Serif" font-size="14.00">Edges in Hamiltonion set of polygonal paths: 0 2 4 6 8 10 </text>
<text text-anchor="middle" x="180.88" y="-7.95" font-family="Helvetica,sans-Serif" font-size="14.00">Realizable</text>
<!-- a -->
<!-- 1 -->
<g id="node3" class="node">
<title>1</title>
<polygon fill="none" stroke="black" points="173.87,-720.5 146.87,-702.5 173.87,-684.5 200.87,-702.5 173.87,-720.5"/>
<text text-anchor="middle" x="173.87" y="-697.83" font-family="Helvetica,sans-Serif" font-size="14.00">1</text>
</g>
<!-- a&#45;&gt;1 -->
<g id="edge1" class="edge">
<title>a:s&#45;&gt;1:n</title>
<path fill="none" stroke="black" d="M173.87,-756.5C173.87,-745.12 173.87,-739.82 173.87,-731.95"/>
<polygon fill="black" stroke="black" points="177.37,-732.01 173.87,-722.01 170.37,-732.01 177.37,-732.01"/>
</g>
<!-- b -->
<!-- 2 -->
<g id="node4" class="node">
<title>2</title>
<polygon fill="none" stroke="black" points="107.87,-648.5 80.87,-630.5 107.87,-612.5 134.87,-630.5 107.87,-648.5"/>
<text text-anchor="middle" x="107.87" y="-625.83" font-family="Helvetica,sans-Serif" font-size="14.00">2</text>
</g>
<!-- 1&#45;&gt;2 -->
<g id="edge2" class="edge">
<title>1:s&#45;&gt;2:n</title>
<path fill="none" stroke="blue" d="M173.87,-684.5C173.87,-655.79 125.13,-674.51 111.42,-659.14"/>
<polygon fill="blue" stroke="blue" points="114.83,-658.32 108.35,-649.94 108.19,-660.53 114.83,-658.32"/>
</g>
<!-- 6 -->
<g id="node8" class="node">
<title>6</title>
<polygon fill="none" stroke="black" points="139.87,-360.5 112.87,-342.5 139.87,-324.5 166.87,-342.5 139.87,-360.5"/>
<text text-anchor="middle" x="139.87" y="-337.82" font-family="Helvetica,sans-Serif" font-size="14.00">6</text>
</g>
<!-- 1&#45;&gt;6 -->
<g id="edge7" class="edge">
<title>1:e&#45;&gt;6:n</title>
<path fill="none" stroke="black" d="M202.68,-702.5C220.34,-702.5 153.24,-432.9 141.57,-371.8"/>
<polygon fill="black" stroke="black" points="145.05,-371.36 140.1,-362 138.13,-372.41 145.05,-371.36"/>
</g>
<!-- 3 -->
<g id="node5" class="node">
<title>3</title>
<polygon fill="none" stroke="black" points="228.87,-576.5 201.87,-558.5 228.87,-540.5 255.87,-558.5 228.87,-576.5"/>
<text text-anchor="middle" x="228.87" y="-553.83" font-family="Helvetica,sans-Serif" font-size="14.00">3</text>
</g>
<!-- 2&#45;&gt;3 -->
<g id="edge3" class="edge">
<title>2:s&#45;&gt;3:n</title>
<path fill="none" stroke="black" d="M107.87,-612.5C107.87,-560.78 210.7,-621.51 226.77,-587.35"/>
<polygon fill="black" stroke="black" points="230.12,-588.47 228.58,-577.99 223.25,-587.14 230.12,-588.47"/>
</g>
<!-- 7 -->
<g id="node9" class="node">
<title>7</title>
<polygon fill="none" stroke="black" points="139.87,-288.5 112.87,-270.5 139.87,-252.5 166.87,-270.5 139.87,-288.5"/>
<text text-anchor="middle" x="139.87" y="-265.82" font-family="Helvetica,sans-Serif" font-size="14.00">7</text>
</g>
<!-- 2&#45;&gt;7 -->
<g id="edge9" class="edge">
<title>2:w&#45;&gt;7:n</title>
<path fill="none" stroke="black" d="M79.06,-630.5C15.5,-630.5 80.87,-551.06 80.87,-487.5 80.87,-487.5 80.87,-487.5 80.87,-413.5 80.87,-372.64 83.6,-359.97 103.87,-324.5 112.73,-309 130.02,-309.63 136.92,-299.48"/>
<polygon fill="black" stroke="black" points="140.27,-300.53 139.48,-289.96 133.5,-298.71 140.27,-300.53"/>
</g>
<!-- 4 -->
<g id="node6" class="node">
<title>4</title>
<polygon fill="none" stroke="black" points="249.87,-504.5 222.87,-486.5 249.87,-468.5 276.87,-486.5 249.87,-504.5"/>
<text text-anchor="middle" x="249.87" y="-481.82" font-family="Helvetica,sans-Serif" font-size="14.00">4</text>
</g>
<!-- 3&#45;&gt;4 -->
<g id="edge4" class="edge">
<title>3:s&#45;&gt;4:n</title>
<path fill="none" stroke="blue" d="M228.87,-540.5C228.87,-526.61 240.68,-523.72 246.59,-515.33"/>
<polygon fill="blue" stroke="blue" points="249.88,-516.53 249.43,-505.95 243.18,-514.5 249.88,-516.53"/>
</g>
<!-- 3&#45;&gt;4 -->
<g id="edge11" class="edge">
<title>3:e&#45;&gt;4:e</title>
<path fill="none" stroke="black" d="M257.68,-558.5C270.51,-558.5 285.9,-515.86 284.72,-496.21"/>
<polygon fill="black" stroke="black" points="287.73,-494.43 279.48,-487.79 281.79,-498.13 287.73,-494.43"/>
</g>
<!-- 5 -->
<g id="node7" class="node">
<title>5</title>
<polygon fill="none" stroke="black" points="249.87,-432.5 222.87,-414.5 249.87,-396.5 276.87,-414.5 249.87,-432.5"/>
<text text-anchor="middle" x="249.87" y="-409.82" font-family="Helvetica,sans-Serif" font-size="14.00">5</text>
</g>
<!-- 4&#45;&gt;5 -->
<g id="edge5" class="edge">
<title>4:s&#45;&gt;5:n</title>
<path fill="none" stroke="black" d="M249.87,-468.5C249.87,-457.12 249.87,-451.82 249.87,-443.95"/>
<polygon fill="black" stroke="black" points="253.37,-444.01 249.87,-434.01 246.37,-444.01 253.37,-444.01"/>
</g>
<!-- 4&#45;&gt;5 -->
<g id="edge12" class="edge">
<title>4:w&#45;&gt;5:w</title>
<path fill="none" stroke="blue" d="M221.06,-486.5C208.43,-486.5 205.77,-441.67 213.07,-422.76"/>
<polygon fill="blue" stroke="blue" points="215.57,-425.21 220.01,-415.59 210.54,-420.34 215.57,-425.21"/>
</g>
<!-- 5&#45;&gt;1 -->
<g id="edge6" class="edge">
<title>5:s&#45;&gt;1:w</title>
<path fill="none" stroke="blue" d="M249.87,-395.18C249.87,-383.17 268.02,-388.06 276.87,-396.18 336.08,-450.46 307.43,-508.38 264.87,-576.5 227.06,-637.02 176.73,-620.07 146.06,-684.5 145.04,-686.65 143.83,-689.11 142.84,-691.5"/>
<polygon fill="blue" stroke="blue" points="139.35,-691.91 144.76,-701.02 146.21,-690.52 139.35,-691.91"/>
</g>
<!-- 5&#45;&gt;6 -->
<g id="edge13" class="edge">
<title>5:e&#45;&gt;6:e</title>
<path fill="none" stroke="black" d="M278.68,-414.5C333.58,-414.5 239.82,-350.95 179.82,-343.26"/>
<polygon fill="black" stroke="black" points="180.41,-339.79 170.19,-342.6 179.93,-346.78 180.41,-339.79"/>
</g>
<!-- 6&#45;&gt;2 -->
<g id="edge8" class="edge">
<title>6:s&#45;&gt;2:e</title>
<path fill="none" stroke="blue" d="M139.87,-323.18C139.87,-311.17 158.54,-315.53 166.87,-324.18 178.07,-335.8 171.55,-345.05 166.87,-360.5 161.3,-378.9 148.69,-378.17 142.87,-396.5 141.17,-401.87 142.65,-573.9 138.84,-619.5"/>
<polygon fill="blue" stroke="blue" points="135.46,-618.53 136.97,-629.01 142.33,-619.87 135.46,-618.53"/>
</g>
<!-- 6&#45;&gt;7 -->
<g id="edge14" class="edge">
<title>6:w&#45;&gt;7:w</title>
<path fill="none" stroke="black" d="M111.06,-342.5C98.43,-342.5 95.77,-297.67 103.07,-278.76"/>
<polygon fill="black" stroke="black" points="105.57,-281.21 110.01,-271.59 100.54,-276.34 105.57,-281.21"/>
</g>
<!-- 7&#45;&gt;b -->
<g id="edge15" class="edge">
<title>7:e&#45;&gt;b:n</title>
<path fill="none" stroke="black" d="M168.68,-270.5C189.04,-270.5 173.58,-248.95 168.4,-227.76"/>
<polygon fill="black" stroke="black" points="171.89,-227.44 167.07,-218 164.95,-228.38 171.89,-227.44"/>
</g>
<!-- 7&#45;&gt;3 -->
<g id="edge10" class="edge">
<title>7:s&#45;&gt;3:w</title>
<path fill="none" stroke="blue" d="M139.87,-251.18C139.87,-239.17 158.02,-244.06 166.87,-252.18 190.75,-274.07 172.21,-292.32 175.87,-324.5 178.48,-347.43 174.96,-512.24 192.09,-550.56"/>
<polygon fill="blue" stroke="blue" points="189.43,-552.85 198.99,-557.43 194.37,-547.89 189.43,-552.85"/>
</g>
</g>
</svg>
