<?xml version="1.0" encoding="UTF-8" standalone="no"?>
<!DOCTYPE svg PUBLIC "-//W3C//DTD SVG 1.1//EN"
 "http://www.w3.org/Graphics/SVG/1.1/DTD/svg11.dtd">
<!-- Generated by graphviz version 12.2.1 (20241206.2353)
 -->
<!-- Pages: 1 -->
<svg width="185pt" height="351pt"
 viewBox="0.00 0.00 184.50 351.25" xmlns="http://www.w3.org/2000/svg" xmlns:xlink="http://www.w3.org/1999/xlink">
<g id="graph0" class="graph" transform="scale(1 1) rotate(0) translate(4 347.25)">
<polygon fill="white" stroke="none" points="-4,4 -4,-347.25 180.5,-347.25 180.5,4 -4,4"/>
<text text-anchor="middle" x="88.25" y="-145.95" font-family="Helvetica,sans-Serif" font-size="14.00">1 1 </text>
<text text-anchor="middle" x="88.25" y="-128.7" font-family="Helvetica,sans-Serif" font-size="14.00">A double occurrence word</text>
<text text-anchor="middle" x="88.25" y="-111.45" font-family="Helvetica,sans-Serif" font-size="14.00">Already in ascending order</text>
<text text-anchor="middle" x="88.25" y="-94.2" font-family="Helvetica,sans-Serif" font-size="14.00">Palindrome: yes</text>
<text text-anchor="middle" x="88.25" y="-76.95" font-family="Helvetica,sans-Serif" font-size="14.00">Semi&#45;palindrome: yes</text>
<text text-anchor="middle" x="88.25" y="-59.7" font-family="Helvetica,sans-Serif" font-size="14.00">Irreducible: yes</text>
<text text-anchor="middle" x="88.25" y="-42.45" font-family="Helvetica,sans-Serif" font-size="14.00">Strongly&#45;irreducible: yes</text>
<text text-anchor="middle" x="88.25" y="-25.2" font-family="Helvetica,sans-Serif" font-size="14.00">Assembly number: 1</text>
<text text-anchor="middle" x="88.25" y="-7.95" font-family="Helvetica,sans-Serif" font-size="14.00">Realizable</text>
<!-- a -->
<!-- 1 -->
<g id="node3" class="node">
<title>1</title>
<polygon fill="none" stroke="black" points="83.75,-271.25 56.75,-253.25 83.75,-235.25 110.75,-253.25 83.75,-271.25"/>
<text text-anchor="middle" x="83.75" y="-248.57" font-family="Helvetica,sans-Serif" font-size="14.00">1</text>
</g>
<!-- a&#45;&gt;1 -->
<g id="edge1" class="edge">
<title>a:s&#45;&gt;1:n</title>
<path fill="none" stroke="black" d="M83.75,-307.25C83.75,-295.88 83.75,-290.57 83.75,-282.7"/>
<polygon fill="black" stroke="black" points="87.25,-282.76 83.75,-272.76 80.25,-282.76 87.25,-282.76"/>
</g>
<!-- b -->
<!-- 1&#45;&gt;b -->
<g id="edge3" class="edge">
<title>1:e&#45;&gt;b:n</title>
<path fill="none" stroke="black" d="M112.56,-253.25C132.92,-253.25 117.46,-231.7 112.28,-210.51"/>
<polygon fill="black" stroke="black" points="115.77,-210.19 110.95,-200.75 108.83,-211.13 115.77,-210.19"/>
</g>
<!-- 1&#45;&gt;1 -->
<g id="edge2" class="edge">
<title>1:s&#45;&gt;1:w</title>
<path fill="none" stroke="black" d="M83.75,-234.93C68.75,-216.93 38.75,-216.93 38.75,-244.09 38.75,-264.46 45.5,-269.55 51.06,-263.23"/>
<polygon fill="black" stroke="black" points="54.03,-265.13 55.27,-254.61 47.74,-262.06 54.03,-265.13"/>
</g>
</g>
</svg>
