<?xml version="1.0" encoding="UTF-8" standalone="no"?>
<!DOCTYPE svg PUBLIC "-//W3C//DTD SVG 1.1//EN"
 "http://www.w3.org/Graphics/SVG/1.1/DTD/svg11.dtd">
<!-- Generated by graphviz version 12.2.1 (20241206.2353)
 -->
<!-- Pages: 1 -->
<svg width="204pt" height="855pt"
 viewBox="0.00 0.00 204.00 855.25" xmlns="http://www.w3.org/2000/svg" xmlns:xlink="http://www.w3.org/1999/xlink">
<g id="graph0" class="graph" transform="scale(1 1) rotate(0) translate(4 851.25)">
<polygon fill="white" stroke="none" points="-4,4 -4,-851.25 200,-851.25 200,4 -4,4"/>
<text text-anchor="middle" x="98" y="-145.95" font-family="Helvetica,sans-Serif" font-size="14.00">1 1 2 2 3 4 5 3 6 4 5 6 7 7 8 8 </text>
<text text-anchor="middle" x="98" y="-128.7" font-family="Helvetica,sans-Serif" font-size="14.00">A double occurrence word</text>
<text text-anchor="middle" x="98" y="-111.45" font-family="Helvetica,sans-Serif" font-size="14.00">Already in ascending order</text>
<text text-anchor="middle" x="98" y="-94.2" font-family="Helvetica,sans-Serif" font-size="14.00">Palindrome: yes</text>
<text text-anchor="middle" x="98" y="-76.95" font-family="Helvetica,sans-Serif" font-size="14.00">Semi&#45;palindrome: yes</text>
<text text-anchor="middle" x="98" y="-59.7" font-family="Helvetica,sans-Serif" font-size="14.00">Irreducible: no</text>
<text text-anchor="middle" x="98" y="-42.45" font-family="Helvetica,sans-Serif" font-size="14.00">Strongly&#45;irreducible: no</text>
<text text-anchor="middle" x="98" y="-25.2" font-family="Helvetica,sans-Serif" font-size="14.00">Assembly number: 2</text>
<text text-anchor="middle" x="98" y="-7.95" font-family="Helvetica,sans-Serif" font-size="14.00">Unrealizable</text>
<!-- a -->
<!-- 1 -->
<g id="node3" class="node">
<title>1</title>
<polygon fill="none" stroke="black" points="89.49,-775.25 62.49,-757.25 89.49,-739.25 116.49,-757.25 89.49,-775.25"/>
<text text-anchor="middle" x="89.49" y="-752.58" font-family="Helvetica,sans-Serif" font-size="14.00">1</text>
</g>
<!-- a&#45;&gt;1 -->
<g id="edge1" class="edge">
<title>a:s&#45;&gt;1:n</title>
<path fill="none" stroke="black" d="M89.49,-811.25C89.49,-799.88 89.49,-794.57 89.49,-786.7"/>
<polygon fill="black" stroke="black" points="92.99,-786.76 89.49,-776.76 85.99,-786.76 92.99,-786.76"/>
</g>
<!-- b -->
<!-- 1&#45;&gt;1 -->
<g id="edge2" class="edge">
<title>1:s&#45;&gt;1:w</title>
<path fill="none" stroke="black" d="M89.49,-738.93C74.49,-720.93 44.49,-720.93 44.49,-748.09 44.49,-768.46 51.24,-773.55 56.81,-767.23"/>
<polygon fill="black" stroke="black" points="59.77,-769.13 61.02,-758.61 53.48,-766.06 59.77,-769.13"/>
</g>
<!-- 2 -->
<g id="node4" class="node">
<title>2</title>
<polygon fill="none" stroke="black" points="116.49,-703.25 89.49,-685.25 116.49,-667.25 143.49,-685.25 116.49,-703.25"/>
<text text-anchor="middle" x="116.49" y="-680.58" font-family="Helvetica,sans-Serif" font-size="14.00">2</text>
</g>
<!-- 1&#45;&gt;2 -->
<g id="edge3" class="edge">
<title>1:e&#45;&gt;2:n</title>
<path fill="none" stroke="black" d="M118.31,-757.25C138.66,-757.25 123.21,-735.7 118.02,-714.51"/>
<polygon fill="black" stroke="black" points="121.51,-714.19 116.7,-704.75 114.58,-715.13 121.51,-714.19"/>
</g>
<!-- 2&#45;&gt;2 -->
<g id="edge4" class="edge">
<title>2:s&#45;&gt;2:e</title>
<path fill="none" stroke="black" d="M116.49,-666.93C131.49,-648.93 161.49,-648.93 161.49,-676.09 161.49,-696.46 154.74,-701.55 149.18,-695.23"/>
<polygon fill="black" stroke="black" points="152.5,-694.06 144.97,-686.61 146.21,-697.13 152.5,-694.06"/>
</g>
<!-- 3 -->
<g id="node5" class="node">
<title>3</title>
<polygon fill="none" stroke="black" points="89.49,-631.25 62.49,-613.25 89.49,-595.25 116.49,-613.25 89.49,-631.25"/>
<text text-anchor="middle" x="89.49" y="-608.58" font-family="Helvetica,sans-Serif" font-size="14.00">3</text>
</g>
<!-- 2&#45;&gt;3 -->
<g id="edge5" class="edge">
<title>2:w&#45;&gt;3:n</title>
<path fill="none" stroke="black" d="M87.68,-685.25C67.33,-685.25 82.78,-663.7 87.96,-642.51"/>
<polygon fill="black" stroke="black" points="91.41,-643.13 89.29,-632.75 84.47,-642.19 91.41,-643.13"/>
</g>
<!-- 4 -->
<g id="node6" class="node">
<title>4</title>
<polygon fill="none" stroke="black" points="89.49,-559.25 62.49,-541.25 89.49,-523.25 116.49,-541.25 89.49,-559.25"/>
<text text-anchor="middle" x="89.49" y="-536.58" font-family="Helvetica,sans-Serif" font-size="14.00">4</text>
</g>
<!-- 3&#45;&gt;4 -->
<g id="edge6" class="edge">
<title>3:s&#45;&gt;4:n</title>
<path fill="none" stroke="black" d="M89.49,-595.25C89.49,-583.88 89.49,-578.57 89.49,-570.7"/>
<polygon fill="black" stroke="black" points="92.99,-570.76 89.49,-560.76 85.99,-570.76 92.99,-570.76"/>
</g>
<!-- 6 -->
<g id="node8" class="node">
<title>6</title>
<polygon fill="none" stroke="black" points="116.49,-415.25 89.49,-397.25 116.49,-379.25 143.49,-397.25 116.49,-415.25"/>
<text text-anchor="middle" x="116.49" y="-392.57" font-family="Helvetica,sans-Serif" font-size="14.00">6</text>
</g>
<!-- 3&#45;&gt;6 -->
<g id="edge9" class="edge">
<title>3:e&#45;&gt;6:n</title>
<path fill="none" stroke="black" d="M118.31,-613.25C190.98,-613.25 161.55,-520.8 140.49,-451.25 136.27,-437.3 124.67,-434.86 119.29,-426.13"/>
<polygon fill="black" stroke="black" points="122.75,-425.53 116.87,-416.72 115.97,-427.27 122.75,-425.53"/>
</g>
<!-- 5 -->
<g id="node7" class="node">
<title>5</title>
<polygon fill="none" stroke="black" points="61.49,-487.25 34.49,-469.25 61.49,-451.25 88.49,-469.25 61.49,-487.25"/>
<text text-anchor="middle" x="61.49" y="-464.57" font-family="Helvetica,sans-Serif" font-size="14.00">5</text>
</g>
<!-- 4&#45;&gt;5 -->
<g id="edge7" class="edge">
<title>4:s&#45;&gt;5:n</title>
<path fill="none" stroke="black" d="M89.49,-523.25C89.49,-507.73 73.08,-506.75 65.39,-498.05"/>
<polygon fill="black" stroke="black" points="68.69,-496.89 62.01,-488.67 62.1,-499.27 68.69,-496.89"/>
</g>
<!-- 4&#45;&gt;5 -->
<g id="edge11" class="edge">
<title>4:w&#45;&gt;5:w</title>
<path fill="none" stroke="black" d="M60.68,-541.25C57.33,-541.25 34.54,-490.49 33.68,-487.25 33.1,-485.07 32.14,-482.7 31.22,-480.4"/>
<polygon fill="black" stroke="black" points="34.66,-481.12 32.48,-470.75 27.72,-480.21 34.66,-481.12"/>
</g>
<!-- 5&#45;&gt;3 -->
<g id="edge8" class="edge">
<title>5:s&#45;&gt;3:w</title>
<path fill="none" stroke="black" d="M61.49,-449.93C61.49,-437.92 80.16,-442.28 88.49,-450.93 99.69,-462.55 94.57,-472.29 88.49,-487.25 80.1,-507.93 61.89,-502.57 53.49,-523.25 40.05,-556.36 24.42,-601.88 49.51,-611.44"/>
<polygon fill="black" stroke="black" points="48.76,-614.87 59.19,-613.01 49.87,-607.96 48.76,-614.87"/>
</g>
<!-- 5&#45;&gt;6 -->
<g id="edge12" class="edge">
<title>5:e&#45;&gt;6:e</title>
<path fill="none" stroke="black" d="M90.31,-469.25C99.97,-469.25 96.07,-458.46 102.49,-451.25 118.8,-432.94 133.47,-437.25 144.31,-415.25 145.36,-413.12 146.58,-410.66 147.57,-408.27"/>
<polygon fill="black" stroke="black" points="151.05,-407.83 145.61,-398.73 144.19,-409.23 151.05,-407.83"/>
</g>
<!-- 6&#45;&gt;4 -->
<g id="edge10" class="edge">
<title>6:s&#45;&gt;4:e</title>
<path fill="none" stroke="black" d="M116.49,-377.93C116.49,-365.92 135.16,-370.28 143.49,-378.93 154.69,-390.55 145.08,-399.19 143.49,-415.25 142.33,-427.02 135.61,-505.7 125.23,-532.41"/>
<polygon fill="black" stroke="black" points="122.65,-530.03 119.24,-540.06 128.16,-534.34 122.65,-530.03"/>
</g>
<!-- 7 -->
<g id="node9" class="node">
<title>7</title>
<polygon fill="none" stroke="black" points="89.49,-343.25 62.49,-325.25 89.49,-307.25 116.49,-325.25 89.49,-343.25"/>
<text text-anchor="middle" x="89.49" y="-320.57" font-family="Helvetica,sans-Serif" font-size="14.00">7</text>
</g>
<!-- 6&#45;&gt;7 -->
<g id="edge13" class="edge">
<title>6:w&#45;&gt;7:n</title>
<path fill="none" stroke="black" d="M87.68,-397.25C67.33,-397.25 82.78,-375.7 87.96,-354.51"/>
<polygon fill="black" stroke="black" points="91.41,-355.13 89.29,-344.75 84.47,-354.19 91.41,-355.13"/>
</g>
<!-- 7&#45;&gt;7 -->
<g id="edge14" class="edge">
<title>7:s&#45;&gt;7:w</title>
<path fill="none" stroke="black" d="M89.49,-306.93C74.49,-288.93 44.49,-288.93 44.49,-316.09 44.49,-336.46 51.24,-341.55 56.81,-335.23"/>
<polygon fill="black" stroke="black" points="59.77,-337.13 61.02,-326.61 53.48,-334.06 59.77,-337.13"/>
</g>
<!-- 8 -->
<g id="node10" class="node">
<title>8</title>
<polygon fill="none" stroke="black" points="116.49,-271.25 89.49,-253.25 116.49,-235.25 143.49,-253.25 116.49,-271.25"/>
<text text-anchor="middle" x="116.49" y="-248.57" font-family="Helvetica,sans-Serif" font-size="14.00">8</text>
</g>
<!-- 7&#45;&gt;8 -->
<g id="edge15" class="edge">
<title>7:e&#45;&gt;8:n</title>
<path fill="none" stroke="black" d="M118.31,-325.25C138.66,-325.25 123.21,-303.7 118.02,-282.51"/>
<polygon fill="black" stroke="black" points="121.51,-282.19 116.7,-272.75 114.58,-283.13 121.51,-282.19"/>
</g>
<!-- 8&#45;&gt;b -->
<g id="edge17" class="edge">
<title>8:w&#45;&gt;b:n</title>
<path fill="none" stroke="black" d="M87.68,-253.25C67.33,-253.25 82.78,-231.7 87.96,-210.51"/>
<polygon fill="black" stroke="black" points="91.41,-211.13 89.29,-200.75 84.47,-210.19 91.41,-211.13"/>
</g>
<!-- 8&#45;&gt;8 -->
<g id="edge16" class="edge">
<title>8:s&#45;&gt;8:e</title>
<path fill="none" stroke="black" d="M116.49,-234.93C131.49,-216.93 161.49,-216.93 161.49,-244.09 161.49,-264.46 154.74,-269.55 149.18,-263.23"/>
<polygon fill="black" stroke="black" points="152.5,-262.06 144.97,-254.61 146.21,-265.13 152.5,-262.06"/>
</g>
</g>
</svg>
