<?xml version="1.0" encoding="UTF-8" standalone="no"?>
<!DOCTYPE svg PUBLIC "-//W3C//DTD SVG 1.1//EN"
 "http://www.w3.org/Graphics/SVG/1.1/DTD/svg11.dtd">
<!-- Generated by graphviz version 12.2.1 (20241206.2353)
 -->
<!-- Pages: 1 -->
<svg width="336pt" height="1143pt"
 viewBox="0.00 0.00 336.00 1143.25" xmlns="http://www.w3.org/2000/svg" xmlns:xlink="http://www.w3.org/1999/xlink">
<g id="graph0" class="graph" transform="scale(1 1) rotate(0) translate(4 1139.25)">
<polygon fill="white" stroke="none" points="-4,4 -4,-1139.25 332,-1139.25 332,4 -4,4"/>
<text text-anchor="middle" x="164" y="-145.95" font-family="Helvetica,sans-Serif" font-size="14.00">1 1 2 3 4 2 5 3 4 5 6 6 7 7 8 9 10 8 11 9 10 11 12 12 </text>
<text text-anchor="middle" x="164" y="-128.7" font-family="Helvetica,sans-Serif" font-size="14.00">A double occurrence word</text>
<text text-anchor="middle" x="164" y="-111.45" font-family="Helvetica,sans-Serif" font-size="14.00">Already in ascending order</text>
<text text-anchor="middle" x="164" y="-94.2" font-family="Helvetica,sans-Serif" font-size="14.00">Palindrome: yes</text>
<text text-anchor="middle" x="164" y="-76.95" font-family="Helvetica,sans-Serif" font-size="14.00">Semi&#45;palindrome: yes</text>
<text text-anchor="middle" x="164" y="-59.7" font-family="Helvetica,sans-Serif" font-size="14.00">Irreducible: no</text>
<text text-anchor="middle" x="164" y="-42.45" font-family="Helvetica,sans-Serif" font-size="14.00">Strongly&#45;irreducible: no</text>
<text text-anchor="middle" x="164" y="-25.2" font-family="Helvetica,sans-Serif" font-size="14.00">Assembly number: 3</text>
<text text-anchor="middle" x="164" y="-7.95" font-family="Helvetica,sans-Serif" font-size="14.00">Unrealizable</text>
<!-- a -->
<!-- 1 -->
<g id="node3" class="node">
<title>1</title>
<polygon fill="none" stroke="black" points="125.76,-1063.25 98.76,-1045.25 125.76,-1027.25 152.76,-1045.25 125.76,-1063.25"/>
<text text-anchor="middle" x="125.76" y="-1040.58" font-family="Helvetica,sans-Serif" font-size="14.00">1</text>
</g>
<!-- a&#45;&gt;1 -->
<g id="edge1" class="edge">
<title>a:s&#45;&gt;1:n</title>
<path fill="none" stroke="black" d="M125.76,-1099.25C125.76,-1087.88 125.76,-1082.57 125.76,-1074.7"/>
<polygon fill="black" stroke="black" points="129.26,-1074.76 125.76,-1064.76 122.26,-1074.76 129.26,-1074.76"/>
</g>
<!-- b -->
<!-- 1&#45;&gt;1 -->
<g id="edge2" class="edge">
<title>1:s&#45;&gt;1:w</title>
<path fill="none" stroke="black" d="M125.76,-1026.93C110.76,-1008.93 80.76,-1008.93 80.76,-1036.09 80.76,-1056.46 87.51,-1061.55 93.08,-1055.23"/>
<polygon fill="black" stroke="black" points="96.05,-1057.13 97.29,-1046.61 89.75,-1054.06 96.05,-1057.13"/>
</g>
<!-- 2 -->
<g id="node4" class="node">
<title>2</title>
<polygon fill="none" stroke="black" points="152.76,-991.25 125.76,-973.25 152.76,-955.25 179.76,-973.25 152.76,-991.25"/>
<text text-anchor="middle" x="152.76" y="-968.58" font-family="Helvetica,sans-Serif" font-size="14.00">2</text>
</g>
<!-- 1&#45;&gt;2 -->
<g id="edge3" class="edge">
<title>1:e&#45;&gt;2:n</title>
<path fill="none" stroke="black" d="M154.58,-1045.25C174.93,-1045.25 159.48,-1023.7 154.3,-1002.51"/>
<polygon fill="black" stroke="black" points="157.78,-1002.19 152.97,-992.75 150.85,-1003.13 157.78,-1002.19"/>
</g>
<!-- 3 -->
<g id="node5" class="node">
<title>3</title>
<polygon fill="none" stroke="black" points="152.76,-919.25 125.76,-901.25 152.76,-883.25 179.76,-901.25 152.76,-919.25"/>
<text text-anchor="middle" x="152.76" y="-896.58" font-family="Helvetica,sans-Serif" font-size="14.00">3</text>
</g>
<!-- 2&#45;&gt;3 -->
<g id="edge4" class="edge">
<title>2:s&#45;&gt;3:n</title>
<path fill="none" stroke="black" d="M152.76,-955.25C152.76,-943.88 152.76,-938.57 152.76,-930.7"/>
<polygon fill="black" stroke="black" points="156.26,-930.76 152.76,-920.76 149.26,-930.76 156.26,-930.76"/>
</g>
<!-- 5 -->
<g id="node7" class="node">
<title>5</title>
<polygon fill="none" stroke="black" points="125.76,-775.25 98.76,-757.25 125.76,-739.25 152.76,-757.25 125.76,-775.25"/>
<text text-anchor="middle" x="125.76" y="-752.58" font-family="Helvetica,sans-Serif" font-size="14.00">5</text>
</g>
<!-- 2&#45;&gt;5 -->
<g id="edge7" class="edge">
<title>2:w&#45;&gt;5:n</title>
<path fill="none" stroke="black" d="M123.95,-973.25C101.24,-973.25 122.04,-839.19 125.34,-786.5"/>
<polygon fill="black" stroke="black" points="128.83,-786.89 125.71,-776.76 121.83,-786.62 128.83,-786.89"/>
</g>
<!-- 4 -->
<g id="node6" class="node">
<title>4</title>
<polygon fill="none" stroke="black" points="180.76,-847.25 153.76,-829.25 180.76,-811.25 207.76,-829.25 180.76,-847.25"/>
<text text-anchor="middle" x="180.76" y="-824.58" font-family="Helvetica,sans-Serif" font-size="14.00">4</text>
</g>
<!-- 3&#45;&gt;4 -->
<g id="edge5" class="edge">
<title>3:s&#45;&gt;4:n</title>
<path fill="none" stroke="black" d="M152.76,-883.25C152.76,-867.73 169.18,-866.75 176.87,-858.05"/>
<polygon fill="black" stroke="black" points="180.15,-859.27 180.25,-848.67 173.57,-856.89 180.15,-859.27"/>
</g>
<!-- 3&#45;&gt;4 -->
<g id="edge9" class="edge">
<title>3:e&#45;&gt;4:e</title>
<path fill="none" stroke="black" d="M181.58,-901.25C184.93,-901.25 207.72,-850.49 208.58,-847.25 209.16,-845.07 210.12,-842.7 211.03,-840.4"/>
<polygon fill="black" stroke="black" points="214.54,-840.21 209.77,-830.75 207.6,-841.12 214.54,-840.21"/>
</g>
<!-- 4&#45;&gt;2 -->
<g id="edge6" class="edge">
<title>4:s&#45;&gt;2:e</title>
<path fill="none" stroke="black" d="M180.76,-809.93C180.76,-797.92 199.43,-802.28 207.76,-810.93 255.7,-860.67 254.91,-961.42 192.95,-972.29"/>
<polygon fill="black" stroke="black" points="192.76,-968.8 183.09,-973.12 193.34,-975.77 192.76,-968.8"/>
</g>
<!-- 4&#45;&gt;5 -->
<g id="edge10" class="edge">
<title>4:w&#45;&gt;5:w</title>
<path fill="none" stroke="black" d="M151.95,-829.25C142.29,-829.25 146.19,-818.46 139.76,-811.25 123.46,-792.94 108.79,-797.25 97.95,-775.25 96.9,-773.12 95.68,-770.66 94.69,-768.27"/>
<polygon fill="black" stroke="black" points="98.07,-769.23 96.65,-758.73 91.21,-767.83 98.07,-769.23"/>
</g>
<!-- 5&#45;&gt;3 -->
<g id="edge8" class="edge">
<title>5:s&#45;&gt;3:w</title>
<path fill="none" stroke="black" d="M125.76,-737.93C125.76,-725.92 144.43,-730.28 152.76,-738.93 163.97,-750.55 154.79,-759.24 152.76,-775.25 149.65,-799.84 128.75,-858.76 124.95,-883.25 124.63,-885.35 123.84,-887.61 123,-889.79"/>
<polygon fill="black" stroke="black" points="119.52,-890.06 123.83,-899.74 126.49,-889.49 119.52,-890.06"/>
</g>
<!-- 6 -->
<g id="node8" class="node">
<title>6</title>
<polygon fill="none" stroke="black" points="152.76,-703.25 125.76,-685.25 152.76,-667.25 179.76,-685.25 152.76,-703.25"/>
<text text-anchor="middle" x="152.76" y="-680.58" font-family="Helvetica,sans-Serif" font-size="14.00">6</text>
</g>
<!-- 5&#45;&gt;6 -->
<g id="edge11" class="edge">
<title>5:e&#45;&gt;6:n</title>
<path fill="none" stroke="black" d="M154.58,-757.25C174.93,-757.25 159.48,-735.7 154.3,-714.51"/>
<polygon fill="black" stroke="black" points="157.78,-714.19 152.97,-704.75 150.85,-715.13 157.78,-714.19"/>
</g>
<!-- 6&#45;&gt;6 -->
<g id="edge12" class="edge">
<title>6:s&#45;&gt;6:e</title>
<path fill="none" stroke="black" d="M152.76,-666.93C167.76,-648.93 197.76,-648.93 197.76,-676.09 197.76,-696.46 191.01,-701.55 185.45,-695.23"/>
<polygon fill="black" stroke="black" points="188.77,-694.06 181.24,-686.61 182.48,-697.13 188.77,-694.06"/>
</g>
<!-- 7 -->
<g id="node9" class="node">
<title>7</title>
<polygon fill="none" stroke="black" points="125.76,-631.25 98.76,-613.25 125.76,-595.25 152.76,-613.25 125.76,-631.25"/>
<text text-anchor="middle" x="125.76" y="-608.58" font-family="Helvetica,sans-Serif" font-size="14.00">7</text>
</g>
<!-- 6&#45;&gt;7 -->
<g id="edge13" class="edge">
<title>6:w&#45;&gt;7:n</title>
<path fill="none" stroke="black" d="M123.95,-685.25C103.6,-685.25 119.05,-663.7 124.23,-642.51"/>
<polygon fill="black" stroke="black" points="127.68,-643.13 125.56,-632.75 120.75,-642.19 127.68,-643.13"/>
</g>
<!-- 7&#45;&gt;7 -->
<g id="edge14" class="edge">
<title>7:s&#45;&gt;7:w</title>
<path fill="none" stroke="black" d="M125.76,-594.93C110.76,-576.93 80.76,-576.93 80.76,-604.09 80.76,-624.46 87.51,-629.55 93.08,-623.23"/>
<polygon fill="black" stroke="black" points="96.05,-625.13 97.29,-614.61 89.75,-622.06 96.05,-625.13"/>
</g>
<!-- 8 -->
<g id="node10" class="node">
<title>8</title>
<polygon fill="none" stroke="black" points="152.76,-559.25 125.76,-541.25 152.76,-523.25 179.76,-541.25 152.76,-559.25"/>
<text text-anchor="middle" x="152.76" y="-536.58" font-family="Helvetica,sans-Serif" font-size="14.00">8</text>
</g>
<!-- 7&#45;&gt;8 -->
<g id="edge15" class="edge">
<title>7:e&#45;&gt;8:n</title>
<path fill="none" stroke="black" d="M154.58,-613.25C174.93,-613.25 159.48,-591.7 154.3,-570.51"/>
<polygon fill="black" stroke="black" points="157.78,-570.19 152.97,-560.75 150.85,-571.13 157.78,-570.19"/>
</g>
<!-- 9 -->
<g id="node11" class="node">
<title>9</title>
<polygon fill="none" stroke="black" points="152.76,-487.25 125.76,-469.25 152.76,-451.25 179.76,-469.25 152.76,-487.25"/>
<text text-anchor="middle" x="152.76" y="-464.57" font-family="Helvetica,sans-Serif" font-size="14.00">9</text>
</g>
<!-- 8&#45;&gt;9 -->
<g id="edge16" class="edge">
<title>8:s&#45;&gt;9:n</title>
<path fill="none" stroke="black" d="M152.76,-523.25C152.76,-511.88 152.76,-506.57 152.76,-498.7"/>
<polygon fill="black" stroke="black" points="156.26,-498.76 152.76,-488.76 149.26,-498.76 156.26,-498.76"/>
</g>
<!-- 11 -->
<g id="node13" class="node">
<title>11</title>
<polygon fill="none" stroke="black" points="125.76,-343.25 96.5,-325.25 125.76,-307.25 155.03,-325.25 125.76,-343.25"/>
<text text-anchor="middle" x="125.76" y="-320.57" font-family="Helvetica,sans-Serif" font-size="14.00">11</text>
</g>
<!-- 8&#45;&gt;11 -->
<g id="edge19" class="edge">
<title>8:w&#45;&gt;11:n</title>
<path fill="none" stroke="black" d="M123.95,-541.25C99.74,-541.25 118.37,-511.41 116.76,-487.25 115.19,-463.43 118.72,-379.68 118.76,-379.25 120.05,-367.61 123.1,-362.52 124.72,-354.53"/>
<polygon fill="black" stroke="black" points="128.19,-355.04 125.62,-344.76 121.22,-354.39 128.19,-355.04"/>
</g>
<!-- 10 -->
<g id="node12" class="node">
<title>10</title>
<polygon fill="none" stroke="black" points="184.76,-415.25 154.01,-397.25 184.76,-379.25 215.52,-397.25 184.76,-415.25"/>
<text text-anchor="middle" x="184.76" y="-392.57" font-family="Helvetica,sans-Serif" font-size="14.00">10</text>
</g>
<!-- 9&#45;&gt;10 -->
<g id="edge17" class="edge">
<title>9:s&#45;&gt;10:n</title>
<path fill="none" stroke="black" d="M152.76,-451.25C152.76,-434.53 172.3,-435.03 180.84,-425.84"/>
<polygon fill="black" stroke="black" points="184.05,-427.26 184.24,-416.67 177.48,-424.83 184.05,-427.26"/>
</g>
<!-- 9&#45;&gt;10 -->
<g id="edge21" class="edge">
<title>9:e&#45;&gt;10:e</title>
<path fill="none" stroke="black" d="M181.58,-469.25C182.47,-469.25 216.17,-416.1 216.44,-415.25 217.14,-413.11 218.16,-410.75 219.08,-408.46"/>
<polygon fill="black" stroke="black" points="222.57,-408.14 217.66,-398.75 215.65,-409.15 222.57,-408.14"/>
</g>
<!-- 10&#45;&gt;8 -->
<g id="edge18" class="edge">
<title>10:s&#45;&gt;8:e</title>
<path fill="none" stroke="black" d="M184.76,-377.83C184.76,-364.16 206.01,-369.01 215.52,-378.83 264.1,-429.03 256.36,-529.87 192.72,-540.36"/>
<polygon fill="black" stroke="black" points="192.78,-536.85 183.09,-541.13 193.33,-543.82 192.78,-536.85"/>
</g>
<!-- 10&#45;&gt;11 -->
<g id="edge22" class="edge">
<title>10:w&#45;&gt;11:w</title>
<path fill="none" stroke="black" d="M152.09,-397.25C142.39,-397.25 146.33,-386.39 139.76,-379.25 122.63,-360.61 107.11,-365.81 95.62,-343.25 94.54,-341.13 93.31,-338.68 92.32,-336.29"/>
<polygon fill="black" stroke="black" points="95.69,-337.24 94.31,-326.73 88.84,-335.81 95.69,-337.24"/>
</g>
<!-- 11&#45;&gt;9 -->
<g id="edge20" class="edge">
<title>11:s&#45;&gt;9:w</title>
<path fill="none" stroke="black" d="M125.76,-305.7C125.76,-292.69 145.99,-297.34 155.03,-306.7 166.32,-318.38 157.28,-327.16 155.03,-343.25 147.67,-395.91 78.45,-458.56 112.87,-468.03"/>
<polygon fill="black" stroke="black" points="112.12,-471.47 122.45,-469.08 112.89,-464.51 112.12,-471.47"/>
</g>
<!-- 12 -->
<g id="node14" class="node">
<title>12</title>
<polygon fill="none" stroke="black" points="155.76,-271.25 125.01,-253.25 155.76,-235.25 186.52,-253.25 155.76,-271.25"/>
<text text-anchor="middle" x="155.76" y="-248.57" font-family="Helvetica,sans-Serif" font-size="14.00">12</text>
</g>
<!-- 11&#45;&gt;12 -->
<g id="edge23" class="edge">
<title>11:e&#45;&gt;12:n</title>
<path fill="none" stroke="black" d="M156.91,-325.25C177.26,-325.25 162.29,-303.7 157.25,-282.51"/>
<polygon fill="black" stroke="black" points="160.74,-282.21 155.96,-272.75 153.8,-283.12 160.74,-282.21"/>
</g>
<!-- 12&#45;&gt;b -->
<g id="edge25" class="edge">
<title>12:w&#45;&gt;b:n</title>
<path fill="none" stroke="black" d="M123.09,-253.25C102.73,-253.25 118.09,-231.7 123.24,-210.51"/>
<polygon fill="black" stroke="black" points="126.69,-211.13 124.56,-200.75 119.75,-210.19 126.69,-211.13"/>
</g>
<!-- 12&#45;&gt;12 -->
<g id="edge24" class="edge">
<title>12:s&#45;&gt;12:e</title>
<path fill="none" stroke="black" d="M155.76,-234.83C172.02,-216.83 204.52,-216.83 204.52,-244.04 204.52,-264.45 197.77,-269.55 192.25,-263.23"/>
<polygon fill="black" stroke="black" points="195.59,-262.1 188.1,-254.61 189.29,-265.14 195.59,-262.1"/>
</g>
</g>
</svg>
