<?xml version="1.0" encoding="UTF-8" standalone="no"?>
<!DOCTYPE svg PUBLIC "-//W3C//DTD SVG 1.1//EN"
 "http://www.w3.org/Graphics/SVG/1.1/DTD/svg11.dtd">
<!-- Generated by graphviz version 12.2.1 (20241206.2353)
 -->
<!-- Pages: 1 -->
<svg width="370pt" height="801pt"
 viewBox="0.00 0.00 369.75 800.50" xmlns="http://www.w3.org/2000/svg" xmlns:xlink="http://www.w3.org/1999/xlink">
<g id="graph0" class="graph" transform="scale(1 1) rotate(0) translate(4 796.5)">
<polygon fill="white" stroke="none" points="-4,4 -4,-796.5 365.75,-796.5 365.75,4 -4,4"/>
<text text-anchor="middle" x="180.88" y="-163.2" font-family="Helvetica,sans-Serif" font-size="14.00">1 2 1 3 4 5 6 2 3 4 5 7 6 7 </text>
<text text-anchor="middle" x="180.88" y="-145.95" font-family="Helvetica,sans-Serif" font-size="14.00">A double occurrence word</text>
<text text-anchor="middle" x="180.88" y="-128.7" font-family="Helvetica,sans-Serif" font-size="14.00">Already in ascending order</text>
<text text-anchor="middle" x="180.88" y="-111.45" font-family="Helvetica,sans-Serif" font-size="14.00">Palindrome: yes</text>
<text text-anchor="middle" x="180.88" y="-94.2" font-family="Helvetica,sans-Serif" font-size="14.00">Semi&#45;palindrome: yes</text>
<text text-anchor="middle" x="180.88" y="-76.95" font-family="Helvetica,sans-Serif" font-size="14.00">Irreducible: yes</text>
<text text-anchor="middle" x="180.88" y="-59.7" font-family="Helvetica,sans-Serif" font-size="14.00">Strongly&#45;irreducible: yes</text>
<text text-anchor="middle" x="180.88" y="-42.45" font-family="Helvetica,sans-Serif" font-size="14.00">Assembly number: 1</text>
<text text-anchor="middle" x="180.88" y="-25.2" font-family="Helvetica,sans-Serif" font-size="14.00">Edges in Hamiltonion set of polygonal paths: 0 2 4 6 8 10 </text>
<text text-anchor="middle" x="180.88" y="-7.95" font-family="Helvetica,sans-Serif" font-size="14.00">Realizable</text>
<!-- a -->
<!-- 1 -->
<g id="node3" class="node">
<title>1</title>
<polygon fill="none" stroke="black" points="194.03,-720.5 167.03,-702.5 194.03,-684.5 221.03,-702.5 194.03,-720.5"/>
<text text-anchor="middle" x="194.03" y="-697.83" font-family="Helvetica,sans-Serif" font-size="14.00">1</text>
</g>
<!-- a&#45;&gt;1 -->
<g id="edge1" class="edge">
<title>a:s&#45;&gt;1:n</title>
<path fill="none" stroke="black" d="M194.03,-756.5C194.03,-745.12 194.03,-739.82 194.03,-731.95"/>
<polygon fill="black" stroke="black" points="197.53,-732.01 194.03,-722.01 190.53,-732.01 197.53,-732.01"/>
</g>
<!-- b -->
<!-- 2 -->
<g id="node4" class="node">
<title>2</title>
<polygon fill="none" stroke="black" points="167.03,-648.5 140.03,-630.5 167.03,-612.5 194.03,-630.5 167.03,-648.5"/>
<text text-anchor="middle" x="167.03" y="-625.83" font-family="Helvetica,sans-Serif" font-size="14.00">2</text>
</g>
<!-- 1&#45;&gt;2 -->
<g id="edge2" class="edge">
<title>1:s&#45;&gt;2:n</title>
<path fill="none" stroke="blue" d="M194.03,-684.5C194.03,-669.19 178.2,-667.94 170.79,-659.23"/>
<polygon fill="blue" stroke="blue" points="174.14,-658.21 167.53,-649.93 167.53,-660.52 174.14,-658.21"/>
</g>
<!-- 3 -->
<g id="node5" class="node">
<title>3</title>
<polygon fill="none" stroke="black" points="167.03,-576.5 140.03,-558.5 167.03,-540.5 194.03,-558.5 167.03,-576.5"/>
<text text-anchor="middle" x="167.03" y="-553.83" font-family="Helvetica,sans-Serif" font-size="14.00">3</text>
</g>
<!-- 1&#45;&gt;3 -->
<g id="edge4" class="edge">
<title>1:e&#45;&gt;3:n</title>
<path fill="none" stroke="blue" d="M222.84,-702.5C233.68,-702.5 240.76,-678.32 203.03,-612.5 194.15,-597.01 176.87,-597.64 169.98,-587.48"/>
<polygon fill="blue" stroke="blue" points="173.39,-586.71 167.42,-577.96 166.63,-588.53 173.39,-586.71"/>
</g>
<!-- 2&#45;&gt;1 -->
<g id="edge3" class="edge">
<title>2:s&#45;&gt;1:w</title>
<path fill="none" stroke="black" d="M167.03,-611.18C167.03,-583.75 211.55,-597.17 194.03,-648.5 187.5,-667.64 173.28,-665.55 166.22,-684.5 165.43,-686.61 164.37,-688.96 163.44,-691.24"/>
<polygon fill="black" stroke="black" points="159.96,-691.67 164.98,-701.01 166.88,-690.58 159.96,-691.67"/>
</g>
<!-- 2&#45;&gt;3 -->
<g id="edge9" class="edge">
<title>2:w&#45;&gt;3:w</title>
<path fill="none" stroke="black" d="M138.22,-630.5C110.34,-630.5 106.75,-575.87 127.44,-561.78"/>
<polygon fill="black" stroke="black" points="128.22,-565.2 136.77,-558.94 126.18,-558.5 128.22,-565.2"/>
</g>
<!-- 4 -->
<g id="node6" class="node">
<title>4</title>
<polygon fill="none" stroke="black" points="167.03,-504.5 140.03,-486.5 167.03,-468.5 194.03,-486.5 167.03,-504.5"/>
<text text-anchor="middle" x="167.03" y="-481.82" font-family="Helvetica,sans-Serif" font-size="14.00">4</text>
</g>
<!-- 3&#45;&gt;4 -->
<g id="edge5" class="edge">
<title>3:s&#45;&gt;4:n</title>
<path fill="none" stroke="black" d="M167.03,-540.5C167.03,-529.12 167.03,-523.82 167.03,-515.95"/>
<polygon fill="black" stroke="black" points="170.53,-516.01 167.03,-506.01 163.53,-516.01 170.53,-516.01"/>
</g>
<!-- 3&#45;&gt;4 -->
<g id="edge10" class="edge">
<title>3:e&#45;&gt;4:e</title>
<path fill="none" stroke="blue" d="M195.84,-558.5C208.47,-558.5 211.13,-513.67 203.83,-494.76"/>
<polygon fill="blue" stroke="blue" points="206.36,-492.34 196.9,-487.59 201.33,-497.21 206.36,-492.34"/>
</g>
<!-- 5 -->
<g id="node7" class="node">
<title>5</title>
<polygon fill="none" stroke="black" points="167.03,-432.5 140.03,-414.5 167.03,-396.5 194.03,-414.5 167.03,-432.5"/>
<text text-anchor="middle" x="167.03" y="-409.82" font-family="Helvetica,sans-Serif" font-size="14.00">5</text>
</g>
<!-- 4&#45;&gt;5 -->
<g id="edge6" class="edge">
<title>4:s&#45;&gt;5:n</title>
<path fill="none" stroke="blue" d="M167.03,-468.5C167.03,-457.12 167.03,-451.82 167.03,-443.95"/>
<polygon fill="blue" stroke="blue" points="170.53,-444.01 167.03,-434.01 163.53,-444.01 170.53,-444.01"/>
</g>
<!-- 4&#45;&gt;5 -->
<g id="edge11" class="edge">
<title>4:w&#45;&gt;5:w</title>
<path fill="none" stroke="black" d="M138.22,-486.5C110.34,-486.5 106.75,-431.87 127.44,-417.78"/>
<polygon fill="black" stroke="black" points="128.22,-421.2 136.77,-414.94 126.18,-414.5 128.22,-421.2"/>
</g>
<!-- 6 -->
<g id="node8" class="node">
<title>6</title>
<polygon fill="none" stroke="black" points="167.03,-360.5 140.03,-342.5 167.03,-324.5 194.03,-342.5 167.03,-360.5"/>
<text text-anchor="middle" x="167.03" y="-337.82" font-family="Helvetica,sans-Serif" font-size="14.00">6</text>
</g>
<!-- 5&#45;&gt;6 -->
<g id="edge7" class="edge">
<title>5:s&#45;&gt;6:n</title>
<path fill="none" stroke="black" d="M167.03,-396.5C167.03,-385.12 167.03,-379.82 167.03,-371.95"/>
<polygon fill="black" stroke="black" points="170.53,-372.01 167.03,-362.01 163.53,-372.01 170.53,-372.01"/>
</g>
<!-- 7 -->
<g id="node9" class="node">
<title>7</title>
<polygon fill="none" stroke="black" points="194.03,-288.5 167.03,-270.5 194.03,-252.5 221.03,-270.5 194.03,-288.5"/>
<text text-anchor="middle" x="194.03" y="-265.82" font-family="Helvetica,sans-Serif" font-size="14.00">7</text>
</g>
<!-- 5&#45;&gt;7 -->
<g id="edge12" class="edge">
<title>5:e&#45;&gt;7:n</title>
<path fill="none" stroke="blue" d="M195.84,-414.5C220.06,-414.5 201.43,-384.66 203.03,-360.5 204.09,-344.54 204.99,-340.38 203.03,-324.5 201.58,-312.73 197.57,-307.8 195.42,-299.84"/>
<polygon fill="blue" stroke="blue" points="198.91,-299.5 194.22,-290 191.96,-300.35 198.91,-299.5"/>
</g>
<!-- 6&#45;&gt;2 -->
<g id="edge8" class="edge">
<title>6:s&#45;&gt;2:e</title>
<path fill="none" stroke="blue" d="M167.03,-323.18C167.03,-311.17 185.18,-316.06 194.03,-324.18 217.91,-346.07 201.03,-364.17 203.03,-396.5 207.98,-476.35 208.32,-496.68 203.03,-576.5 201.79,-595.19 212.65,-617.27 206.44,-626.32"/>
<polygon fill="blue" stroke="blue" points="205.27,-623.02 197.25,-629.94 207.84,-629.53 205.27,-623.02"/>
</g>
<!-- 6&#45;&gt;7 -->
<g id="edge14" class="edge">
<title>6:w&#45;&gt;7:w</title>
<path fill="none" stroke="black" d="M138.22,-342.5C107.78,-342.5 125.87,-285.39 154.33,-272.9"/>
<polygon fill="black" stroke="black" points="154.73,-276.39 163.74,-270.83 153.22,-269.56 154.73,-276.39"/>
</g>
<!-- 7&#45;&gt;b -->
<g id="edge15" class="edge">
<title>7:e&#45;&gt;b:n</title>
<path fill="none" stroke="black" d="M222.84,-270.5C243.2,-270.5 227.74,-248.95 222.56,-227.76"/>
<polygon fill="black" stroke="black" points="226.05,-227.44 221.23,-218 219.11,-228.38 226.05,-227.44"/>
</g>
<!-- 7&#45;&gt;6 -->
<g id="edge13" class="edge">
<title>7:s&#45;&gt;6:e</title>
<path fill="none" stroke="black" d="M194.03,-251.18C194.03,-239.17 212.7,-243.53 221.03,-252.18 232.23,-263.8 224.53,-272.74 221.03,-288.5 219.99,-293.2 210.66,-319.57 203.1,-333.65"/>
<polygon fill="black" stroke="black" points="200.43,-331.38 196.8,-341.33 205.85,-335.81 200.43,-331.38"/>
</g>
</g>
</svg>
