<?xml version="1.0" encoding="UTF-8" standalone="no"?>
<!DOCTYPE svg PUBLIC "-//W3C//DTD SVG 1.1//EN"
 "http://www.w3.org/Graphics/SVG/1.1/DTD/svg11.dtd">
<!-- Generated by graphviz version 12.2.1 (20241206.2353)
 -->
<!-- Pages: 1 -->
<svg width="234pt" height="927pt"
 viewBox="0.00 0.00 234.49 927.25" xmlns="http://www.w3.org/2000/svg" xmlns:xlink="http://www.w3.org/1999/xlink">
<g id="graph0" class="graph" transform="scale(1 1) rotate(0) translate(4 923.25)">
<polygon fill="white" stroke="none" points="-4,4 -4,-923.25 230.49,-923.25 230.49,4 -4,4"/>
<text text-anchor="middle" x="113.24" y="-145.95" font-family="Helvetica,sans-Serif" font-size="14.00">1 1 2 3 4 2 5 3 4 6 7 5 8 6 7 8 9 9 </text>
<text text-anchor="middle" x="113.24" y="-128.7" font-family="Helvetica,sans-Serif" font-size="14.00">A double occurrence word</text>
<text text-anchor="middle" x="113.24" y="-111.45" font-family="Helvetica,sans-Serif" font-size="14.00">Already in ascending order</text>
<text text-anchor="middle" x="113.24" y="-94.2" font-family="Helvetica,sans-Serif" font-size="14.00">Palindrome: yes</text>
<text text-anchor="middle" x="113.24" y="-76.95" font-family="Helvetica,sans-Serif" font-size="14.00">Semi&#45;palindrome: yes</text>
<text text-anchor="middle" x="113.24" y="-59.7" font-family="Helvetica,sans-Serif" font-size="14.00">Irreducible: no</text>
<text text-anchor="middle" x="113.24" y="-42.45" font-family="Helvetica,sans-Serif" font-size="14.00">Strongly&#45;irreducible: no</text>
<text text-anchor="middle" x="113.24" y="-25.2" font-family="Helvetica,sans-Serif" font-size="14.00">Assembly number: 2</text>
<text text-anchor="middle" x="113.24" y="-7.95" font-family="Helvetica,sans-Serif" font-size="14.00">Unrealizable</text>
<!-- a -->
<!-- 1 -->
<g id="node3" class="node">
<title>1</title>
<polygon fill="none" stroke="black" points="45,-847.25 18,-829.25 45,-811.25 72,-829.25 45,-847.25"/>
<text text-anchor="middle" x="45" y="-824.58" font-family="Helvetica,sans-Serif" font-size="14.00">1</text>
</g>
<!-- a&#45;&gt;1 -->
<g id="edge1" class="edge">
<title>a:s&#45;&gt;1:n</title>
<path fill="none" stroke="black" d="M45,-883.25C45,-871.88 45,-866.57 45,-858.7"/>
<polygon fill="black" stroke="black" points="48.5,-858.76 45,-848.76 41.5,-858.76 48.5,-858.76"/>
</g>
<!-- b -->
<!-- 1&#45;&gt;1 -->
<g id="edge2" class="edge">
<title>1:s&#45;&gt;1:w</title>
<path fill="none" stroke="black" d="M45,-810.93C30,-792.93 0,-792.93 0,-820.09 0,-840.46 6.75,-845.55 12.31,-839.23"/>
<polygon fill="black" stroke="black" points="15.28,-841.13 16.52,-830.61 8.99,-838.06 15.28,-841.13"/>
</g>
<!-- 2 -->
<g id="node4" class="node">
<title>2</title>
<polygon fill="none" stroke="black" points="72,-775.25 45,-757.25 72,-739.25 99,-757.25 72,-775.25"/>
<text text-anchor="middle" x="72" y="-752.58" font-family="Helvetica,sans-Serif" font-size="14.00">2</text>
</g>
<!-- 1&#45;&gt;2 -->
<g id="edge3" class="edge">
<title>1:e&#45;&gt;2:n</title>
<path fill="none" stroke="black" d="M73.81,-829.25C94.17,-829.25 78.71,-807.7 73.53,-786.51"/>
<polygon fill="black" stroke="black" points="77.02,-786.19 72.2,-776.75 70.08,-787.13 77.02,-786.19"/>
</g>
<!-- 3 -->
<g id="node5" class="node">
<title>3</title>
<polygon fill="none" stroke="black" points="72,-703.25 45,-685.25 72,-667.25 99,-685.25 72,-703.25"/>
<text text-anchor="middle" x="72" y="-680.58" font-family="Helvetica,sans-Serif" font-size="14.00">3</text>
</g>
<!-- 2&#45;&gt;3 -->
<g id="edge4" class="edge">
<title>2:s&#45;&gt;3:n</title>
<path fill="none" stroke="black" d="M72,-739.25C72,-727.88 72,-722.57 72,-714.7"/>
<polygon fill="black" stroke="black" points="75.5,-714.76 72,-704.76 68.5,-714.76 75.5,-714.76"/>
</g>
<!-- 5 -->
<g id="node7" class="node">
<title>5</title>
<polygon fill="none" stroke="black" points="73,-415.25 46,-397.25 73,-379.25 100,-397.25 73,-415.25"/>
<text text-anchor="middle" x="73" y="-392.57" font-family="Helvetica,sans-Serif" font-size="14.00">5</text>
</g>
<!-- 2&#45;&gt;5 -->
<g id="edge7" class="edge">
<title>2:w&#45;&gt;5:n</title>
<path fill="none" stroke="black" d="M43.19,-757.25C-22.37,-757.25 7,-679.81 7,-614.25 7,-614.25 7,-614.25 7,-540.25 7,-497.06 24.23,-488.55 46,-451.25 53.72,-438.02 65.44,-435.67 70.52,-426.32"/>
<polygon fill="black" stroke="black" points="73.9,-427.25 72.67,-416.73 67.07,-425.72 73.9,-427.25"/>
</g>
<!-- 4 -->
<g id="node6" class="node">
<title>4</title>
<polygon fill="none" stroke="black" points="113,-631.25 86,-613.25 113,-595.25 140,-613.25 113,-631.25"/>
<text text-anchor="middle" x="113" y="-608.58" font-family="Helvetica,sans-Serif" font-size="14.00">4</text>
</g>
<!-- 3&#45;&gt;4 -->
<g id="edge5" class="edge">
<title>3:s&#45;&gt;4:n</title>
<path fill="none" stroke="black" d="M72,-667.25C72,-647.74 98.55,-652.02 108.92,-641.8"/>
<polygon fill="black" stroke="black" points="112.11,-643.25 112.45,-632.66 105.58,-640.73 112.11,-643.25"/>
</g>
<!-- 3&#45;&gt;4 -->
<g id="edge9" class="edge">
<title>3:e&#45;&gt;4:e</title>
<path fill="none" stroke="black" d="M100.81,-685.25C110.47,-685.25 107.34,-675.08 113,-667.25 124.85,-650.87 133.75,-650.2 140.81,-631.25 141.6,-629.14 142.66,-626.79 143.59,-624.51"/>
<polygon fill="black" stroke="black" points="147.07,-624.08 142.05,-614.74 140.15,-625.17 147.07,-624.08"/>
</g>
<!-- 4&#45;&gt;2 -->
<g id="edge6" class="edge">
<title>4:s&#45;&gt;2:e</title>
<path fill="none" stroke="black" d="M113,-593.93C113,-581.92 131.67,-586.28 140,-594.93 188.78,-645.55 176.58,-745.92 112.07,-756.37"/>
<polygon fill="black" stroke="black" points="112.02,-752.86 102.32,-757.13 112.56,-759.84 112.02,-752.86"/>
</g>
<!-- 6 -->
<g id="node8" class="node">
<title>6</title>
<polygon fill="none" stroke="black" points="100,-559.25 73,-541.25 100,-523.25 127,-541.25 100,-559.25"/>
<text text-anchor="middle" x="100" y="-536.58" font-family="Helvetica,sans-Serif" font-size="14.00">6</text>
</g>
<!-- 4&#45;&gt;6 -->
<g id="edge10" class="edge">
<title>4:w&#45;&gt;6:n</title>
<path fill="none" stroke="black" d="M84.19,-613.25C76.17,-613.25 83.42,-603.06 85.19,-595.25 88,-582.86 94.67,-578.58 98.01,-570.33"/>
<polygon fill="black" stroke="black" points="101.41,-571.2 99.73,-560.74 94.52,-569.97 101.41,-571.2"/>
</g>
<!-- 5&#45;&gt;3 -->
<g id="edge8" class="edge">
<title>5:s&#45;&gt;3:w</title>
<path fill="none" stroke="black" d="M73,-377.93C73,-365.92 91.67,-370.28 100,-378.93 111.2,-390.55 106.18,-400.34 100,-415.25 91.34,-436.16 73.61,-430.76 64,-451.25 9.46,-567.58 26.21,-648.78 37.29,-675.6"/>
<polygon fill="black" stroke="black" points="34.2,-677.25 42.4,-683.96 40.17,-673.6 34.2,-677.25"/>
</g>
<!-- 8 -->
<g id="node10" class="node">
<title>8</title>
<polygon fill="none" stroke="black" points="155,-343.25 128,-325.25 155,-307.25 182,-325.25 155,-343.25"/>
<text text-anchor="middle" x="155" y="-320.57" font-family="Helvetica,sans-Serif" font-size="14.00">8</text>
</g>
<!-- 5&#45;&gt;8 -->
<g id="edge13" class="edge">
<title>5:e&#45;&gt;8:n</title>
<path fill="none" stroke="black" d="M101.81,-397.25C115.56,-397.25 142.31,-372.48 151.67,-354.23"/>
<polygon fill="black" stroke="black" points="155.01,-355.28 154.56,-344.7 148.31,-353.25 155.01,-355.28"/>
</g>
<!-- 7 -->
<g id="node9" class="node">
<title>7</title>
<polygon fill="none" stroke="black" points="100,-487.25 73,-469.25 100,-451.25 127,-469.25 100,-487.25"/>
<text text-anchor="middle" x="100" y="-464.57" font-family="Helvetica,sans-Serif" font-size="14.00">7</text>
</g>
<!-- 6&#45;&gt;7 -->
<g id="edge11" class="edge">
<title>6:s&#45;&gt;7:n</title>
<path fill="none" stroke="black" d="M100,-523.25C100,-511.88 100,-506.57 100,-498.7"/>
<polygon fill="black" stroke="black" points="103.5,-498.76 100,-488.76 96.5,-498.76 103.5,-498.76"/>
</g>
<!-- 6&#45;&gt;7 -->
<g id="edge15" class="edge">
<title>6:w&#45;&gt;7:w</title>
<path fill="none" stroke="black" d="M71.19,-541.25C58.56,-541.25 55.9,-496.42 63.2,-477.51"/>
<polygon fill="black" stroke="black" points="65.7,-479.96 70.14,-470.34 60.67,-475.09 65.7,-479.96"/>
</g>
<!-- 7&#45;&gt;5 -->
<g id="edge12" class="edge">
<title>7:s&#45;&gt;5:w</title>
<path fill="none" stroke="black" d="M100,-451.25C100,-422.1 59.73,-440.51 45.19,-415.25 44,-413.19 42.72,-410.77 41.72,-408.38"/>
<polygon fill="black" stroke="black" points="45.12,-409.25 43.86,-398.73 38.28,-407.74 45.12,-409.25"/>
</g>
<!-- 7&#45;&gt;8 -->
<g id="edge16" class="edge">
<title>7:e&#45;&gt;8:e</title>
<path fill="none" stroke="black" d="M128.81,-469.25C193.17,-469.25 245.61,-342.16 194.92,-326.77"/>
<polygon fill="black" stroke="black" points="195.69,-323.34 185.31,-325.46 194.75,-330.28 195.69,-323.34"/>
</g>
<!-- 8&#45;&gt;6 -->
<g id="edge14" class="edge">
<title>8:s&#45;&gt;6:e</title>
<path fill="none" stroke="black" d="M155,-305.93C155,-293.92 173.67,-298.28 182,-306.93 253.42,-381.05 236.96,-529.98 140.05,-540.64"/>
<polygon fill="black" stroke="black" points="140.12,-537.14 130.32,-541.17 140.5,-544.13 140.12,-537.14"/>
</g>
<!-- 9 -->
<g id="node11" class="node">
<title>9</title>
<polygon fill="none" stroke="black" points="128,-271.25 101,-253.25 128,-235.25 155,-253.25 128,-271.25"/>
<text text-anchor="middle" x="128" y="-248.57" font-family="Helvetica,sans-Serif" font-size="14.00">9</text>
</g>
<!-- 8&#45;&gt;9 -->
<g id="edge17" class="edge">
<title>8:w&#45;&gt;9:n</title>
<path fill="none" stroke="black" d="M126.19,-325.25C105.83,-325.25 121.29,-303.7 126.47,-282.51"/>
<polygon fill="black" stroke="black" points="129.92,-283.13 127.8,-272.75 122.98,-282.19 129.92,-283.13"/>
</g>
<!-- 9&#45;&gt;b -->
<g id="edge19" class="edge">
<title>9:e&#45;&gt;b:n</title>
<path fill="none" stroke="black" d="M156.81,-253.25C177.17,-253.25 161.71,-231.7 156.53,-210.51"/>
<polygon fill="black" stroke="black" points="160.02,-210.19 155.2,-200.75 153.08,-211.13 160.02,-210.19"/>
</g>
<!-- 9&#45;&gt;9 -->
<g id="edge18" class="edge">
<title>9:s&#45;&gt;9:w</title>
<path fill="none" stroke="black" d="M128,-234.93C113,-216.93 83,-216.93 83,-244.09 83,-264.46 89.75,-269.55 95.31,-263.23"/>
<polygon fill="black" stroke="black" points="98.28,-265.13 99.52,-254.61 91.99,-262.06 98.28,-265.13"/>
</g>
</g>
</svg>
