<?xml version="1.0" encoding="UTF-8" standalone="no"?>
<!DOCTYPE svg PUBLIC "-//W3C//DTD SVG 1.1//EN"
 "http://www.w3.org/Graphics/SVG/1.1/DTD/svg11.dtd">
<!-- Generated by graphviz version 12.2.1 (20241206.2353)
 -->
<!-- Pages: 1 -->
<svg width="370pt" height="801pt"
 viewBox="0.00 0.00 369.75 800.50" xmlns="http://www.w3.org/2000/svg" xmlns:xlink="http://www.w3.org/1999/xlink">
<g id="graph0" class="graph" transform="scale(1 1) rotate(0) translate(4 796.5)">
<polygon fill="white" stroke="none" points="-4,4 -4,-796.5 365.75,-796.5 365.75,4 -4,4"/>
<text text-anchor="middle" x="180.88" y="-163.2" font-family="Helvetica,sans-Serif" font-size="14.00">1 2 3 1 4 5 2 6 3 4 7 5 6 7 </text>
<text text-anchor="middle" x="180.88" y="-145.95" font-family="Helvetica,sans-Serif" font-size="14.00">A double occurrence word</text>
<text text-anchor="middle" x="180.88" y="-128.7" font-family="Helvetica,sans-Serif" font-size="14.00">Already in ascending order</text>
<text text-anchor="middle" x="180.88" y="-111.45" font-family="Helvetica,sans-Serif" font-size="14.00">Palindrome: yes</text>
<text text-anchor="middle" x="180.88" y="-94.2" font-family="Helvetica,sans-Serif" font-size="14.00">Semi&#45;palindrome: yes</text>
<text text-anchor="middle" x="180.88" y="-76.95" font-family="Helvetica,sans-Serif" font-size="14.00">Irreducible: yes</text>
<text text-anchor="middle" x="180.88" y="-59.7" font-family="Helvetica,sans-Serif" font-size="14.00">Strongly&#45;irreducible: yes</text>
<text text-anchor="middle" x="180.88" y="-42.45" font-family="Helvetica,sans-Serif" font-size="14.00">Assembly number: 1</text>
<text text-anchor="middle" x="180.88" y="-25.2" font-family="Helvetica,sans-Serif" font-size="14.00">Edges in Hamiltonion set of polygonal paths: 0 2 4 6 8 10 </text>
<text text-anchor="middle" x="180.88" y="-7.95" font-family="Helvetica,sans-Serif" font-size="14.00">Realizable</text>
<!-- a -->
<!-- 1 -->
<g id="node3" class="node">
<title>1</title>
<polygon fill="none" stroke="black" points="201.39,-720.5 174.39,-702.5 201.39,-684.5 228.39,-702.5 201.39,-720.5"/>
<text text-anchor="middle" x="201.39" y="-697.83" font-family="Helvetica,sans-Serif" font-size="14.00">1</text>
</g>
<!-- a&#45;&gt;1 -->
<g id="edge1" class="edge">
<title>a:s&#45;&gt;1:n</title>
<path fill="none" stroke="black" d="M201.39,-756.5C201.39,-745.12 201.39,-739.82 201.39,-731.95"/>
<polygon fill="black" stroke="black" points="204.89,-732.01 201.39,-722.01 197.89,-732.01 204.89,-732.01"/>
</g>
<!-- b -->
<!-- 2 -->
<g id="node4" class="node">
<title>2</title>
<polygon fill="none" stroke="black" points="201.39,-648.5 174.39,-630.5 201.39,-612.5 228.39,-630.5 201.39,-648.5"/>
<text text-anchor="middle" x="201.39" y="-625.83" font-family="Helvetica,sans-Serif" font-size="14.00">2</text>
</g>
<!-- 1&#45;&gt;2 -->
<g id="edge2" class="edge">
<title>1:s&#45;&gt;2:n</title>
<path fill="none" stroke="blue" d="M201.39,-684.5C201.39,-673.12 201.39,-667.82 201.39,-659.95"/>
<polygon fill="blue" stroke="blue" points="204.89,-660.01 201.39,-650.01 197.89,-660.01 204.89,-660.01"/>
</g>
<!-- 4 -->
<g id="node6" class="node">
<title>4</title>
<polygon fill="none" stroke="black" points="173.39,-504.5 146.39,-486.5 173.39,-468.5 200.39,-486.5 173.39,-504.5"/>
<text text-anchor="middle" x="173.39" y="-481.82" font-family="Helvetica,sans-Serif" font-size="14.00">4</text>
</g>
<!-- 1&#45;&gt;4 -->
<g id="edge5" class="edge">
<title>1:e&#45;&gt;4:n</title>
<path fill="none" stroke="black" d="M230.21,-702.5C270.33,-702.5 247.66,-651.29 237.39,-612.5 227.97,-576.9 215.42,-572.03 196.39,-540.5 188.96,-528.18 179.58,-524.76 175.48,-515.57"/>
<polygon fill="black" stroke="black" points="178.97,-515.17 173.67,-505.99 172.09,-516.46 178.97,-515.17"/>
</g>
<!-- 3 -->
<g id="node5" class="node">
<title>3</title>
<polygon fill="none" stroke="black" points="160.39,-576.5 133.39,-558.5 160.39,-540.5 187.39,-558.5 160.39,-576.5"/>
<text text-anchor="middle" x="160.39" y="-553.83" font-family="Helvetica,sans-Serif" font-size="14.00">3</text>
</g>
<!-- 2&#45;&gt;3 -->
<g id="edge3" class="edge">
<title>2:s&#45;&gt;3:n</title>
<path fill="none" stroke="black" d="M201.39,-612.5C201.39,-592.99 174.85,-597.27 164.48,-587.05"/>
<polygon fill="black" stroke="black" points="167.81,-585.98 160.94,-577.91 161.28,-588.5 167.81,-585.98"/>
</g>
<!-- 6 -->
<g id="node8" class="node">
<title>6</title>
<polygon fill="none" stroke="black" points="101.39,-360.5 74.39,-342.5 101.39,-324.5 128.39,-342.5 101.39,-360.5"/>
<text text-anchor="middle" x="101.39" y="-337.82" font-family="Helvetica,sans-Serif" font-size="14.00">6</text>
</g>
<!-- 2&#45;&gt;6 -->
<g id="edge8" class="edge">
<title>2:w&#45;&gt;6:n</title>
<path fill="none" stroke="blue" d="M172.58,-630.5C59.3,-630.5 98.52,-483.11 101.25,-371.83"/>
<polygon fill="blue" stroke="blue" points="104.75,-372.06 101.38,-362.01 97.75,-371.97 104.75,-372.06"/>
</g>
<!-- 3&#45;&gt;1 -->
<g id="edge4" class="edge">
<title>3:s&#45;&gt;1:w</title>
<path fill="none" stroke="blue" d="M160.39,-539.18C160.39,-527.17 179.06,-531.53 187.39,-540.18 198.6,-551.8 191.77,-560.96 187.39,-576.5 182.32,-594.55 170.47,-594.45 165.39,-612.5 155.76,-646.75 137.31,-691.02 161.23,-700.62"/>
<polygon fill="blue" stroke="blue" points="160.65,-704.07 171.09,-702.25 161.8,-697.16 160.65,-704.07"/>
</g>
<!-- 3&#45;&gt;4 -->
<g id="edge10" class="edge">
<title>3:e&#45;&gt;4:e</title>
<path fill="none" stroke="blue" d="M189.21,-558.5C201.85,-558.5 212.52,-514.99 209,-495.62"/>
<polygon fill="blue" stroke="blue" points="211.89,-493.64 203.11,-487.71 206.28,-497.82 211.89,-493.64"/>
</g>
<!-- 5 -->
<g id="node7" class="node">
<title>5</title>
<polygon fill="none" stroke="black" points="216.39,-432.5 189.39,-414.5 216.39,-396.5 243.39,-414.5 216.39,-432.5"/>
<text text-anchor="middle" x="216.39" y="-409.82" font-family="Helvetica,sans-Serif" font-size="14.00">5</text>
</g>
<!-- 4&#45;&gt;5 -->
<g id="edge6" class="edge">
<title>4:s&#45;&gt;5:n</title>
<path fill="none" stroke="blue" d="M173.39,-468.5C173.39,-448.25 201.78,-453.59 212.43,-442.94"/>
<polygon fill="blue" stroke="blue" points="215.58,-444.51 215.86,-433.91 209.03,-442.02 215.58,-444.51"/>
</g>
<!-- 7 -->
<g id="node9" class="node">
<title>7</title>
<polygon fill="none" stroke="black" points="156.39,-288.5 129.39,-270.5 156.39,-252.5 183.39,-270.5 156.39,-288.5"/>
<text text-anchor="middle" x="156.39" y="-265.82" font-family="Helvetica,sans-Serif" font-size="14.00">7</text>
</g>
<!-- 4&#45;&gt;7 -->
<g id="edge11" class="edge">
<title>4:w&#45;&gt;7:n</title>
<path fill="none" stroke="black" d="M144.58,-486.5C124.82,-486.5 149.98,-345.08 155.41,-299.93"/>
<polygon fill="black" stroke="black" points="158.89,-300.27 156.26,-290.01 151.91,-299.67 158.89,-300.27"/>
</g>
<!-- 5&#45;&gt;2 -->
<g id="edge7" class="edge">
<title>5:s&#45;&gt;2:e</title>
<path fill="none" stroke="black" d="M216.39,-395.18C216.39,-383.17 235.06,-387.53 243.39,-396.18 313.02,-468.43 333.01,-618.49 241.59,-629.82"/>
<polygon fill="black" stroke="black" points="241.49,-626.32 231.72,-630.41 241.91,-633.31 241.49,-626.32"/>
</g>
<!-- 5&#45;&gt;6 -->
<g id="edge13" class="edge">
<title>5:e&#45;&gt;6:e</title>
<path fill="none" stroke="black" d="M245.21,-414.5C253.22,-414.5 248.68,-403.15 244.21,-396.5 237.55,-386.6 169.73,-354.4 141.08,-345.06"/>
<polygon fill="black" stroke="black" points="142.22,-341.73 131.68,-342.85 140.61,-348.55 142.22,-341.73"/>
</g>
<!-- 6&#45;&gt;3 -->
<g id="edge9" class="edge">
<title>6:s&#45;&gt;3:w</title>
<path fill="none" stroke="black" d="M101.39,-323.18C101.39,-311.17 120,-315.59 128.39,-324.18 144.35,-340.51 114.75,-508.4 124.78,-549.47"/>
<polygon fill="black" stroke="black" points="121.86,-551.41 130.67,-557.29 127.45,-547.2 121.86,-551.41"/>
</g>
<!-- 6&#45;&gt;7 -->
<g id="edge14" class="edge">
<title>6:w&#45;&gt;7:w</title>
<path fill="none" stroke="black" d="M72.58,-342.5C35.93,-342.5 78.2,-282.86 116.45,-272.14"/>
<polygon fill="black" stroke="black" points="116.7,-275.64 126.08,-270.72 115.68,-268.71 116.7,-275.64"/>
</g>
<!-- 7&#45;&gt;b -->
<g id="edge15" class="edge">
<title>7:e&#45;&gt;b:n</title>
<path fill="none" stroke="black" d="M185.21,-270.5C205.56,-270.5 190.11,-248.95 184.93,-227.76"/>
<polygon fill="black" stroke="black" points="188.41,-227.44 183.6,-218 181.48,-228.38 188.41,-227.44"/>
</g>
<!-- 7&#45;&gt;5 -->
<g id="edge12" class="edge">
<title>7:s&#45;&gt;5:w</title>
<path fill="none" stroke="blue" d="M156.39,-251.18C156.39,-239.17 174.95,-243.64 183.39,-252.18 205.59,-274.63 164.52,-382.07 178.08,-408.58"/>
<polygon fill="blue" stroke="blue" points="175.96,-411.38 186.3,-413.7 179.66,-405.44 175.96,-411.38"/>
</g>
</g>
</svg>
