<?xml version="1.0" encoding="UTF-8" standalone="no"?>
<!DOCTYPE svg PUBLIC "-//W3C//DTD SVG 1.1//EN"
 "http://www.w3.org/Graphics/SVG/1.1/DTD/svg11.dtd">
<!-- Generated by graphviz version 12.2.1 (20241206.2353)
 -->
<!-- Pages: 1 -->
<svg width="204pt" height="855pt"
 viewBox="0.00 0.00 204.00 855.25" xmlns="http://www.w3.org/2000/svg" xmlns:xlink="http://www.w3.org/1999/xlink">
<g id="graph0" class="graph" transform="scale(1 1) rotate(0) translate(4 851.25)">
<polygon fill="white" stroke="none" points="-4,4 -4,-851.25 200,-851.25 200,4 -4,4"/>
<text text-anchor="middle" x="98" y="-145.95" font-family="Helvetica,sans-Serif" font-size="14.00">1 2 1 2 3 4 5 6 3 4 5 6 7 8 7 8 </text>
<text text-anchor="middle" x="98" y="-128.7" font-family="Helvetica,sans-Serif" font-size="14.00">A double occurrence word</text>
<text text-anchor="middle" x="98" y="-111.45" font-family="Helvetica,sans-Serif" font-size="14.00">Already in ascending order</text>
<text text-anchor="middle" x="98" y="-94.2" font-family="Helvetica,sans-Serif" font-size="14.00">Palindrome: yes</text>
<text text-anchor="middle" x="98" y="-76.95" font-family="Helvetica,sans-Serif" font-size="14.00">Semi&#45;palindrome: yes</text>
<text text-anchor="middle" x="98" y="-59.7" font-family="Helvetica,sans-Serif" font-size="14.00">Irreducible: no</text>
<text text-anchor="middle" x="98" y="-42.45" font-family="Helvetica,sans-Serif" font-size="14.00">Strongly&#45;irreducible: no</text>
<text text-anchor="middle" x="98" y="-25.2" font-family="Helvetica,sans-Serif" font-size="14.00">Assembly number: 2</text>
<text text-anchor="middle" x="98" y="-7.95" font-family="Helvetica,sans-Serif" font-size="14.00">Unrealizable</text>
<!-- a -->
<!-- 1 -->
<g id="node3" class="node">
<title>1</title>
<polygon fill="none" stroke="black" points="125.34,-775.25 98.34,-757.25 125.34,-739.25 152.34,-757.25 125.34,-775.25"/>
<text text-anchor="middle" x="125.34" y="-752.58" font-family="Helvetica,sans-Serif" font-size="14.00">1</text>
</g>
<!-- a&#45;&gt;1 -->
<g id="edge1" class="edge">
<title>a:s&#45;&gt;1:n</title>
<path fill="none" stroke="black" d="M125.34,-811.25C125.34,-799.88 125.34,-794.57 125.34,-786.7"/>
<polygon fill="black" stroke="black" points="128.84,-786.76 125.34,-776.76 121.84,-786.76 128.84,-786.76"/>
</g>
<!-- b -->
<!-- 2 -->
<g id="node4" class="node">
<title>2</title>
<polygon fill="none" stroke="black" points="125.34,-703.25 98.34,-685.25 125.34,-667.25 152.34,-685.25 125.34,-703.25"/>
<text text-anchor="middle" x="125.34" y="-680.58" font-family="Helvetica,sans-Serif" font-size="14.00">2</text>
</g>
<!-- 1&#45;&gt;2 -->
<g id="edge2" class="edge">
<title>1:s&#45;&gt;2:n</title>
<path fill="none" stroke="blue" d="M125.34,-739.25C125.34,-727.88 125.34,-722.57 125.34,-714.7"/>
<polygon fill="blue" stroke="blue" points="128.84,-714.76 125.34,-704.76 121.84,-714.76 128.84,-714.76"/>
</g>
<!-- 1&#45;&gt;2 -->
<g id="edge4" class="edge">
<title>1:e&#45;&gt;2:e</title>
<path fill="none" stroke="black" d="M154.16,-757.25C182.03,-757.25 185.62,-702.62 164.94,-688.53"/>
<polygon fill="black" stroke="black" points="166.19,-685.25 155.6,-685.69 164.15,-691.95 166.19,-685.25"/>
</g>
<!-- 2&#45;&gt;1 -->
<g id="edge3" class="edge">
<title>2:s&#45;&gt;1:w</title>
<path fill="none" stroke="black" d="M125.34,-665.93C125.34,-653.92 144.01,-658.28 152.34,-666.93 163.55,-678.55 160.01,-689.04 152.34,-703.25 138.5,-728.9 112.08,-713.99 97.53,-739.25 96.34,-741.31 95.07,-743.73 94.07,-746.12"/>
<polygon fill="black" stroke="black" points="90.63,-746.76 96.2,-755.77 97.46,-745.25 90.63,-746.76"/>
</g>
<!-- 3 -->
<g id="node5" class="node">
<title>3</title>
<polygon fill="none" stroke="black" points="98.34,-631.25 71.34,-613.25 98.34,-595.25 125.34,-613.25 98.34,-631.25"/>
<text text-anchor="middle" x="98.34" y="-608.58" font-family="Helvetica,sans-Serif" font-size="14.00">3</text>
</g>
<!-- 2&#45;&gt;3 -->
<g id="edge5" class="edge">
<title>2:w&#45;&gt;3:n</title>
<path fill="none" stroke="blue" d="M96.53,-685.25C76.18,-685.25 91.63,-663.7 96.81,-642.51"/>
<polygon fill="blue" stroke="blue" points="100.26,-643.13 98.14,-632.75 93.33,-642.19 100.26,-643.13"/>
</g>
<!-- 4 -->
<g id="node6" class="node">
<title>4</title>
<polygon fill="none" stroke="black" points="98.34,-559.25 71.34,-541.25 98.34,-523.25 125.34,-541.25 98.34,-559.25"/>
<text text-anchor="middle" x="98.34" y="-536.58" font-family="Helvetica,sans-Serif" font-size="14.00">4</text>
</g>
<!-- 3&#45;&gt;4 -->
<g id="edge6" class="edge">
<title>3:s&#45;&gt;4:n</title>
<path fill="none" stroke="black" d="M98.34,-595.25C98.34,-583.88 98.34,-578.57 98.34,-570.7"/>
<polygon fill="black" stroke="black" points="101.84,-570.76 98.34,-560.76 94.84,-570.76 101.84,-570.76"/>
</g>
<!-- 3&#45;&gt;4 -->
<g id="edge10" class="edge">
<title>3:e&#45;&gt;4:e</title>
<path fill="none" stroke="black" d="M127.16,-613.25C155.03,-613.25 158.62,-558.62 137.94,-544.53"/>
<polygon fill="black" stroke="black" points="139.19,-541.25 128.6,-541.69 137.15,-547.95 139.19,-541.25"/>
</g>
<!-- 5 -->
<g id="node7" class="node">
<title>5</title>
<polygon fill="none" stroke="black" points="98.34,-487.25 71.34,-469.25 98.34,-451.25 125.34,-469.25 98.34,-487.25"/>
<text text-anchor="middle" x="98.34" y="-464.57" font-family="Helvetica,sans-Serif" font-size="14.00">5</text>
</g>
<!-- 4&#45;&gt;5 -->
<g id="edge7" class="edge">
<title>4:s&#45;&gt;5:n</title>
<path fill="none" stroke="blue" d="M98.34,-523.25C98.34,-511.88 98.34,-506.57 98.34,-498.7"/>
<polygon fill="blue" stroke="blue" points="101.84,-498.76 98.34,-488.76 94.84,-498.76 101.84,-498.76"/>
</g>
<!-- 4&#45;&gt;5 -->
<g id="edge11" class="edge">
<title>4:w&#45;&gt;5:w</title>
<path fill="none" stroke="black" d="M69.53,-541.25C56.91,-541.25 54.24,-496.42 61.54,-477.51"/>
<polygon fill="black" stroke="black" points="64.04,-479.96 68.48,-470.34 59.01,-475.09 64.04,-479.96"/>
</g>
<!-- 6 -->
<g id="node8" class="node">
<title>6</title>
<polygon fill="none" stroke="black" points="98.34,-415.25 71.34,-397.25 98.34,-379.25 125.34,-397.25 98.34,-415.25"/>
<text text-anchor="middle" x="98.34" y="-392.57" font-family="Helvetica,sans-Serif" font-size="14.00">6</text>
</g>
<!-- 5&#45;&gt;6 -->
<g id="edge8" class="edge">
<title>5:s&#45;&gt;6:n</title>
<path fill="none" stroke="black" d="M98.34,-451.25C98.34,-439.88 98.34,-434.57 98.34,-426.7"/>
<polygon fill="black" stroke="black" points="101.84,-426.76 98.34,-416.76 94.84,-426.76 101.84,-426.76"/>
</g>
<!-- 5&#45;&gt;6 -->
<g id="edge12" class="edge">
<title>5:e&#45;&gt;6:e</title>
<path fill="none" stroke="blue" d="M127.16,-469.25C155.03,-469.25 158.62,-414.62 137.94,-400.53"/>
<polygon fill="blue" stroke="blue" points="139.19,-397.25 128.6,-397.69 137.15,-403.95 139.19,-397.25"/>
</g>
<!-- 6&#45;&gt;3 -->
<g id="edge9" class="edge">
<title>6:s&#45;&gt;3:w</title>
<path fill="none" stroke="blue" d="M98.34,-377.93C98.34,-354.53 160.38,-354.87 125.34,-415.25 109.16,-443.14 78.53,-423.36 62.34,-451.25 26.75,-512.58 31.65,-593.17 58.63,-610.06"/>
<polygon fill="blue" stroke="blue" points="57.5,-613.38 68.08,-612.83 59.46,-606.66 57.5,-613.38"/>
</g>
<!-- 7 -->
<g id="node9" class="node">
<title>7</title>
<polygon fill="none" stroke="black" points="71.34,-343.25 44.34,-325.25 71.34,-307.25 98.34,-325.25 71.34,-343.25"/>
<text text-anchor="middle" x="71.34" y="-320.57" font-family="Helvetica,sans-Serif" font-size="14.00">7</text>
</g>
<!-- 6&#45;&gt;7 -->
<g id="edge13" class="edge">
<title>6:w&#45;&gt;7:n</title>
<path fill="none" stroke="black" d="M69.53,-397.25C49.18,-397.25 64.63,-375.7 69.81,-354.51"/>
<polygon fill="black" stroke="black" points="73.26,-355.13 71.14,-344.75 66.33,-354.19 73.26,-355.13"/>
</g>
<!-- 8 -->
<g id="node10" class="node">
<title>8</title>
<polygon fill="none" stroke="black" points="71.34,-271.25 44.34,-253.25 71.34,-235.25 98.34,-253.25 71.34,-271.25"/>
<text text-anchor="middle" x="71.34" y="-248.57" font-family="Helvetica,sans-Serif" font-size="14.00">8</text>
</g>
<!-- 7&#45;&gt;8 -->
<g id="edge14" class="edge">
<title>7:s&#45;&gt;8:n</title>
<path fill="none" stroke="blue" d="M71.34,-307.25C71.34,-295.88 71.34,-290.57 71.34,-282.7"/>
<polygon fill="blue" stroke="blue" points="74.84,-282.76 71.34,-272.76 67.84,-282.76 74.84,-282.76"/>
</g>
<!-- 7&#45;&gt;8 -->
<g id="edge16" class="edge">
<title>7:e&#45;&gt;8:e</title>
<path fill="none" stroke="black" d="M100.16,-325.25C128.03,-325.25 131.62,-270.62 110.94,-256.53"/>
<polygon fill="black" stroke="black" points="112.19,-253.25 101.6,-253.69 110.15,-259.95 112.19,-253.25"/>
</g>
<!-- 8&#45;&gt;b -->
<g id="edge17" class="edge">
<title>8:w&#45;&gt;b:n</title>
<path fill="none" stroke="black" d="M42.53,-253.25C22.18,-253.25 37.63,-231.7 42.81,-210.51"/>
<polygon fill="black" stroke="black" points="46.26,-211.13 44.14,-200.75 39.33,-210.19 46.26,-211.13"/>
</g>
<!-- 8&#45;&gt;7 -->
<g id="edge15" class="edge">
<title>8:s&#45;&gt;7:w</title>
<path fill="none" stroke="black" d="M71.34,-233.93C71.34,-221.92 90.01,-226.28 98.34,-234.93 109.55,-246.55 106.01,-257.04 98.34,-271.25 84.5,-296.9 58.08,-281.99 43.53,-307.25 42.34,-309.31 41.07,-311.73 40.07,-314.12"/>
<polygon fill="black" stroke="black" points="36.63,-314.76 42.2,-323.77 43.46,-313.25 36.63,-314.76"/>
</g>
</g>
</svg>
