<?xml version="1.0" encoding="UTF-8" standalone="no"?>
<!DOCTYPE svg PUBLIC "-//W3C//DTD SVG 1.1//EN"
 "http://www.w3.org/Graphics/SVG/1.1/DTD/svg11.dtd">
<!-- Generated by graphviz version 12.2.1 (20241206.2353)
 -->
<!-- Pages: 1 -->
<svg width="368pt" height="801pt"
 viewBox="0.00 0.00 368.25 800.50" xmlns="http://www.w3.org/2000/svg" xmlns:xlink="http://www.w3.org/1999/xlink">
<g id="graph0" class="graph" transform="scale(1 1) rotate(0) translate(4 796.5)">
<polygon fill="white" stroke="none" points="-4,4 -4,-796.5 364.25,-796.5 364.25,4 -4,4"/>
<text text-anchor="middle" x="180.12" y="-163.2" font-family="Helvetica,sans-Serif" font-size="14.00">1 1 2 2 3 3 4 4 5 5 6 6 7 7 </text>
<text text-anchor="middle" x="180.12" y="-145.95" font-family="Helvetica,sans-Serif" font-size="14.00">A double occurrence word</text>
<text text-anchor="middle" x="180.12" y="-128.7" font-family="Helvetica,sans-Serif" font-size="14.00">Already in ascending order</text>
<text text-anchor="middle" x="180.12" y="-111.45" font-family="Helvetica,sans-Serif" font-size="14.00">Palindrome: yes</text>
<text text-anchor="middle" x="180.12" y="-94.2" font-family="Helvetica,sans-Serif" font-size="14.00">Semi&#45;palindrome: yes</text>
<text text-anchor="middle" x="180.12" y="-76.95" font-family="Helvetica,sans-Serif" font-size="14.00">Irreducible: no</text>
<text text-anchor="middle" x="180.12" y="-59.7" font-family="Helvetica,sans-Serif" font-size="14.00">Strongly&#45;irreducible: no</text>
<text text-anchor="middle" x="180.12" y="-42.45" font-family="Helvetica,sans-Serif" font-size="14.00">Assembly number: 1</text>
<text text-anchor="middle" x="180.12" y="-25.2" font-family="Helvetica,sans-Serif" font-size="14.00">Edges in Hamiltonion set of polygonal paths: 1 3 5 7 9 11 </text>
<text text-anchor="middle" x="180.12" y="-7.95" font-family="Helvetica,sans-Serif" font-size="14.00">Realizable</text>
<!-- a -->
<!-- 1 -->
<g id="node3" class="node">
<title>1</title>
<polygon fill="none" stroke="black" points="166.62,-720.5 139.62,-702.5 166.62,-684.5 193.62,-702.5 166.62,-720.5"/>
<text text-anchor="middle" x="166.62" y="-697.83" font-family="Helvetica,sans-Serif" font-size="14.00">1</text>
</g>
<!-- a&#45;&gt;1 -->
<g id="edge1" class="edge">
<title>a:s&#45;&gt;1:n</title>
<path fill="none" stroke="black" d="M166.62,-756.5C166.62,-745.12 166.62,-739.82 166.62,-731.95"/>
<polygon fill="black" stroke="black" points="170.13,-732.01 166.63,-722.01 163.13,-732.01 170.13,-732.01"/>
</g>
<!-- b -->
<!-- 1&#45;&gt;1 -->
<g id="edge2" class="edge">
<title>1:s&#45;&gt;1:w</title>
<path fill="none" stroke="black" d="M166.62,-684.18C151.62,-666.18 121.62,-666.18 121.62,-693.34 121.62,-713.71 128.38,-718.8 133.94,-712.48"/>
<polygon fill="black" stroke="black" points="136.91,-714.38 138.15,-703.86 130.62,-711.31 136.91,-714.38"/>
</g>
<!-- 2 -->
<g id="node4" class="node">
<title>2</title>
<polygon fill="none" stroke="black" points="193.62,-648.5 166.62,-630.5 193.62,-612.5 220.62,-630.5 193.62,-648.5"/>
<text text-anchor="middle" x="193.62" y="-625.83" font-family="Helvetica,sans-Serif" font-size="14.00">2</text>
</g>
<!-- 1&#45;&gt;2 -->
<g id="edge3" class="edge">
<title>1:e&#45;&gt;2:n</title>
<path fill="none" stroke="blue" d="M195.44,-702.5C215.79,-702.5 200.34,-680.95 195.16,-659.76"/>
<polygon fill="blue" stroke="blue" points="198.64,-659.44 193.83,-650 191.71,-660.38 198.64,-659.44"/>
</g>
<!-- 2&#45;&gt;2 -->
<g id="edge4" class="edge">
<title>2:s&#45;&gt;2:e</title>
<path fill="none" stroke="black" d="M193.62,-612.18C208.62,-594.18 238.62,-594.18 238.62,-621.34 238.62,-641.71 231.88,-646.8 226.31,-640.48"/>
<polygon fill="black" stroke="black" points="229.63,-639.31 222.1,-631.86 223.34,-642.38 229.63,-639.31"/>
</g>
<!-- 3 -->
<g id="node5" class="node">
<title>3</title>
<polygon fill="none" stroke="black" points="166.62,-576.5 139.62,-558.5 166.62,-540.5 193.62,-558.5 166.62,-576.5"/>
<text text-anchor="middle" x="166.62" y="-553.83" font-family="Helvetica,sans-Serif" font-size="14.00">3</text>
</g>
<!-- 2&#45;&gt;3 -->
<g id="edge5" class="edge">
<title>2:w&#45;&gt;3:n</title>
<path fill="none" stroke="blue" d="M164.81,-630.5C144.46,-630.5 159.91,-608.95 165.09,-587.76"/>
<polygon fill="blue" stroke="blue" points="168.54,-588.38 166.42,-578 161.61,-587.44 168.54,-588.38"/>
</g>
<!-- 3&#45;&gt;3 -->
<g id="edge6" class="edge">
<title>3:s&#45;&gt;3:w</title>
<path fill="none" stroke="black" d="M166.62,-540.18C151.62,-522.18 121.62,-522.18 121.62,-549.34 121.62,-569.71 128.38,-574.8 133.94,-568.48"/>
<polygon fill="black" stroke="black" points="136.91,-570.38 138.15,-559.86 130.62,-567.31 136.91,-570.38"/>
</g>
<!-- 4 -->
<g id="node6" class="node">
<title>4</title>
<polygon fill="none" stroke="black" points="193.62,-504.5 166.62,-486.5 193.62,-468.5 220.62,-486.5 193.62,-504.5"/>
<text text-anchor="middle" x="193.62" y="-481.82" font-family="Helvetica,sans-Serif" font-size="14.00">4</text>
</g>
<!-- 3&#45;&gt;4 -->
<g id="edge7" class="edge">
<title>3:e&#45;&gt;4:n</title>
<path fill="none" stroke="blue" d="M195.44,-558.5C215.79,-558.5 200.34,-536.95 195.16,-515.76"/>
<polygon fill="blue" stroke="blue" points="198.64,-515.44 193.83,-506 191.71,-516.38 198.64,-515.44"/>
</g>
<!-- 4&#45;&gt;4 -->
<g id="edge8" class="edge">
<title>4:s&#45;&gt;4:e</title>
<path fill="none" stroke="black" d="M193.62,-468.18C208.62,-450.18 238.62,-450.18 238.62,-477.34 238.62,-497.71 231.88,-502.8 226.31,-496.48"/>
<polygon fill="black" stroke="black" points="229.63,-495.31 222.1,-487.86 223.34,-498.38 229.63,-495.31"/>
</g>
<!-- 5 -->
<g id="node7" class="node">
<title>5</title>
<polygon fill="none" stroke="black" points="166.62,-432.5 139.62,-414.5 166.62,-396.5 193.62,-414.5 166.62,-432.5"/>
<text text-anchor="middle" x="166.62" y="-409.82" font-family="Helvetica,sans-Serif" font-size="14.00">5</text>
</g>
<!-- 4&#45;&gt;5 -->
<g id="edge9" class="edge">
<title>4:w&#45;&gt;5:n</title>
<path fill="none" stroke="blue" d="M164.81,-486.5C144.46,-486.5 159.91,-464.95 165.09,-443.76"/>
<polygon fill="blue" stroke="blue" points="168.54,-444.38 166.42,-434 161.61,-443.44 168.54,-444.38"/>
</g>
<!-- 5&#45;&gt;5 -->
<g id="edge10" class="edge">
<title>5:s&#45;&gt;5:w</title>
<path fill="none" stroke="black" d="M166.62,-396.18C151.62,-378.18 121.62,-378.18 121.62,-405.34 121.62,-425.71 128.38,-430.8 133.94,-424.48"/>
<polygon fill="black" stroke="black" points="136.91,-426.38 138.15,-415.86 130.62,-423.31 136.91,-426.38"/>
</g>
<!-- 6 -->
<g id="node8" class="node">
<title>6</title>
<polygon fill="none" stroke="black" points="193.62,-360.5 166.62,-342.5 193.62,-324.5 220.62,-342.5 193.62,-360.5"/>
<text text-anchor="middle" x="193.62" y="-337.82" font-family="Helvetica,sans-Serif" font-size="14.00">6</text>
</g>
<!-- 5&#45;&gt;6 -->
<g id="edge11" class="edge">
<title>5:e&#45;&gt;6:n</title>
<path fill="none" stroke="blue" d="M195.44,-414.5C215.79,-414.5 200.34,-392.95 195.16,-371.76"/>
<polygon fill="blue" stroke="blue" points="198.64,-371.44 193.83,-362 191.71,-372.38 198.64,-371.44"/>
</g>
<!-- 6&#45;&gt;6 -->
<g id="edge12" class="edge">
<title>6:s&#45;&gt;6:e</title>
<path fill="none" stroke="black" d="M193.62,-324.18C208.62,-306.18 238.62,-306.18 238.62,-333.34 238.62,-353.71 231.88,-358.8 226.31,-352.48"/>
<polygon fill="black" stroke="black" points="229.63,-351.31 222.1,-343.86 223.34,-354.38 229.63,-351.31"/>
</g>
<!-- 7 -->
<g id="node9" class="node">
<title>7</title>
<polygon fill="none" stroke="black" points="166.62,-288.5 139.62,-270.5 166.62,-252.5 193.62,-270.5 166.62,-288.5"/>
<text text-anchor="middle" x="166.62" y="-265.82" font-family="Helvetica,sans-Serif" font-size="14.00">7</text>
</g>
<!-- 6&#45;&gt;7 -->
<g id="edge13" class="edge">
<title>6:w&#45;&gt;7:n</title>
<path fill="none" stroke="blue" d="M164.81,-342.5C144.46,-342.5 159.91,-320.95 165.09,-299.76"/>
<polygon fill="blue" stroke="blue" points="168.54,-300.38 166.42,-290 161.61,-299.44 168.54,-300.38"/>
</g>
<!-- 7&#45;&gt;b -->
<g id="edge15" class="edge">
<title>7:e&#45;&gt;b:n</title>
<path fill="none" stroke="black" d="M195.44,-270.5C215.79,-270.5 200.34,-248.95 195.16,-227.76"/>
<polygon fill="black" stroke="black" points="198.64,-227.44 193.83,-218 191.71,-228.38 198.64,-227.44"/>
</g>
<!-- 7&#45;&gt;7 -->
<g id="edge14" class="edge">
<title>7:s&#45;&gt;7:w</title>
<path fill="none" stroke="black" d="M166.62,-252.18C151.62,-234.18 121.62,-234.18 121.62,-261.34 121.62,-281.71 128.38,-286.8 133.94,-280.48"/>
<polygon fill="black" stroke="black" points="136.91,-282.38 138.15,-271.86 130.62,-279.31 136.91,-282.38"/>
</g>
</g>
</svg>
