<?xml version="1.0" encoding="UTF-8" standalone="no"?>
<!DOCTYPE svg PUBLIC "-//W3C//DTD SVG 1.1//EN"
 "http://www.w3.org/Graphics/SVG/1.1/DTD/svg11.dtd">
<!-- Generated by graphviz version 12.2.1 (20241206.2353)
 -->
<!-- Pages: 1 -->
<svg width="370pt" height="801pt"
 viewBox="0.00 0.00 369.75 800.50" xmlns="http://www.w3.org/2000/svg" xmlns:xlink="http://www.w3.org/1999/xlink">
<g id="graph0" class="graph" transform="scale(1 1) rotate(0) translate(4 796.5)">
<polygon fill="white" stroke="none" points="-4,4 -4,-796.5 365.75,-796.5 365.75,4 -4,4"/>
<text text-anchor="middle" x="180.88" y="-163.2" font-family="Helvetica,sans-Serif" font-size="14.00">1 2 3 4 5 6 7 1 2 3 4 5 6 7 </text>
<text text-anchor="middle" x="180.88" y="-145.95" font-family="Helvetica,sans-Serif" font-size="14.00">A double occurrence word</text>
<text text-anchor="middle" x="180.88" y="-128.7" font-family="Helvetica,sans-Serif" font-size="14.00">Already in ascending order</text>
<text text-anchor="middle" x="180.88" y="-111.45" font-family="Helvetica,sans-Serif" font-size="14.00">Palindrome: yes</text>
<text text-anchor="middle" x="180.88" y="-94.2" font-family="Helvetica,sans-Serif" font-size="14.00">Semi&#45;palindrome: yes</text>
<text text-anchor="middle" x="180.88" y="-76.95" font-family="Helvetica,sans-Serif" font-size="14.00">Irreducible: yes</text>
<text text-anchor="middle" x="180.88" y="-59.7" font-family="Helvetica,sans-Serif" font-size="14.00">Strongly&#45;irreducible: yes</text>
<text text-anchor="middle" x="180.88" y="-42.45" font-family="Helvetica,sans-Serif" font-size="14.00">Assembly number: 1</text>
<text text-anchor="middle" x="180.88" y="-25.2" font-family="Helvetica,sans-Serif" font-size="14.00">Edges in Hamiltonion set of polygonal paths: 0 2 4 6 8 10 </text>
<text text-anchor="middle" x="180.88" y="-7.95" font-family="Helvetica,sans-Serif" font-size="14.00">Realizable</text>
<!-- a -->
<!-- 1 -->
<g id="node3" class="node">
<title>1</title>
<polygon fill="none" stroke="black" points="187.14,-720.5 160.14,-702.5 187.14,-684.5 214.14,-702.5 187.14,-720.5"/>
<text text-anchor="middle" x="187.14" y="-697.83" font-family="Helvetica,sans-Serif" font-size="14.00">1</text>
</g>
<!-- a&#45;&gt;1 -->
<g id="edge1" class="edge">
<title>a:s&#45;&gt;1:n</title>
<path fill="none" stroke="black" d="M187.14,-756.5C187.14,-745.12 187.14,-739.82 187.14,-731.95"/>
<polygon fill="black" stroke="black" points="190.64,-732.01 187.14,-722.01 183.64,-732.01 190.64,-732.01"/>
</g>
<!-- b -->
<!-- 2 -->
<g id="node4" class="node">
<title>2</title>
<polygon fill="none" stroke="black" points="187.14,-648.5 160.14,-630.5 187.14,-612.5 214.14,-630.5 187.14,-648.5"/>
<text text-anchor="middle" x="187.14" y="-625.83" font-family="Helvetica,sans-Serif" font-size="14.00">2</text>
</g>
<!-- 1&#45;&gt;2 -->
<g id="edge2" class="edge">
<title>1:s&#45;&gt;2:n</title>
<path fill="none" stroke="blue" d="M187.14,-684.5C187.14,-673.12 187.14,-667.82 187.14,-659.95"/>
<polygon fill="blue" stroke="blue" points="190.64,-660.01 187.14,-650.01 183.64,-660.01 190.64,-660.01"/>
</g>
<!-- 1&#45;&gt;2 -->
<g id="edge9" class="edge">
<title>1:e&#45;&gt;2:e</title>
<path fill="none" stroke="black" d="M215.95,-702.5C243.83,-702.5 247.42,-647.87 226.73,-633.78"/>
<polygon fill="black" stroke="black" points="227.99,-630.5 217.4,-630.94 225.95,-637.2 227.99,-630.5"/>
</g>
<!-- 3 -->
<g id="node5" class="node">
<title>3</title>
<polygon fill="none" stroke="black" points="187.14,-576.5 160.14,-558.5 187.14,-540.5 214.14,-558.5 187.14,-576.5"/>
<text text-anchor="middle" x="187.14" y="-553.83" font-family="Helvetica,sans-Serif" font-size="14.00">3</text>
</g>
<!-- 2&#45;&gt;3 -->
<g id="edge3" class="edge">
<title>2:s&#45;&gt;3:n</title>
<path fill="none" stroke="black" d="M187.14,-612.5C187.14,-601.12 187.14,-595.82 187.14,-587.95"/>
<polygon fill="black" stroke="black" points="190.64,-588.01 187.14,-578.01 183.64,-588.01 190.64,-588.01"/>
</g>
<!-- 2&#45;&gt;3 -->
<g id="edge10" class="edge">
<title>2:w&#45;&gt;3:w</title>
<path fill="none" stroke="blue" d="M158.33,-630.5C145.7,-630.5 143.04,-585.67 150.34,-566.76"/>
<polygon fill="blue" stroke="blue" points="152.84,-569.21 157.28,-559.59 147.81,-564.34 152.84,-569.21"/>
</g>
<!-- 4 -->
<g id="node6" class="node">
<title>4</title>
<polygon fill="none" stroke="black" points="187.14,-504.5 160.14,-486.5 187.14,-468.5 214.14,-486.5 187.14,-504.5"/>
<text text-anchor="middle" x="187.14" y="-481.82" font-family="Helvetica,sans-Serif" font-size="14.00">4</text>
</g>
<!-- 3&#45;&gt;4 -->
<g id="edge4" class="edge">
<title>3:s&#45;&gt;4:n</title>
<path fill="none" stroke="blue" d="M187.14,-540.5C187.14,-529.12 187.14,-523.82 187.14,-515.95"/>
<polygon fill="blue" stroke="blue" points="190.64,-516.01 187.14,-506.01 183.64,-516.01 190.64,-516.01"/>
</g>
<!-- 3&#45;&gt;4 -->
<g id="edge11" class="edge">
<title>3:e&#45;&gt;4:e</title>
<path fill="none" stroke="black" d="M215.95,-558.5C243.83,-558.5 247.42,-503.87 226.73,-489.78"/>
<polygon fill="black" stroke="black" points="227.99,-486.5 217.4,-486.94 225.95,-493.2 227.99,-486.5"/>
</g>
<!-- 5 -->
<g id="node7" class="node">
<title>5</title>
<polygon fill="none" stroke="black" points="187.14,-432.5 160.14,-414.5 187.14,-396.5 214.14,-414.5 187.14,-432.5"/>
<text text-anchor="middle" x="187.14" y="-409.82" font-family="Helvetica,sans-Serif" font-size="14.00">5</text>
</g>
<!-- 4&#45;&gt;5 -->
<g id="edge5" class="edge">
<title>4:s&#45;&gt;5:n</title>
<path fill="none" stroke="black" d="M187.14,-468.5C187.14,-457.12 187.14,-451.82 187.14,-443.95"/>
<polygon fill="black" stroke="black" points="190.64,-444.01 187.14,-434.01 183.64,-444.01 190.64,-444.01"/>
</g>
<!-- 4&#45;&gt;5 -->
<g id="edge12" class="edge">
<title>4:w&#45;&gt;5:w</title>
<path fill="none" stroke="blue" d="M158.33,-486.5C145.7,-486.5 143.04,-441.67 150.34,-422.76"/>
<polygon fill="blue" stroke="blue" points="152.84,-425.21 157.28,-415.59 147.81,-420.34 152.84,-425.21"/>
</g>
<!-- 6 -->
<g id="node8" class="node">
<title>6</title>
<polygon fill="none" stroke="black" points="187.14,-360.5 160.14,-342.5 187.14,-324.5 214.14,-342.5 187.14,-360.5"/>
<text text-anchor="middle" x="187.14" y="-337.82" font-family="Helvetica,sans-Serif" font-size="14.00">6</text>
</g>
<!-- 5&#45;&gt;6 -->
<g id="edge6" class="edge">
<title>5:s&#45;&gt;6:n</title>
<path fill="none" stroke="blue" d="M187.14,-396.5C187.14,-385.12 187.14,-379.82 187.14,-371.95"/>
<polygon fill="blue" stroke="blue" points="190.64,-372.01 187.14,-362.01 183.64,-372.01 190.64,-372.01"/>
</g>
<!-- 5&#45;&gt;6 -->
<g id="edge13" class="edge">
<title>5:e&#45;&gt;6:e</title>
<path fill="none" stroke="black" d="M215.95,-414.5C243.83,-414.5 247.42,-359.87 226.73,-345.78"/>
<polygon fill="black" stroke="black" points="227.99,-342.5 217.4,-342.94 225.95,-349.2 227.99,-342.5"/>
</g>
<!-- 7 -->
<g id="node9" class="node">
<title>7</title>
<polygon fill="none" stroke="black" points="187.14,-288.5 160.14,-270.5 187.14,-252.5 214.14,-270.5 187.14,-288.5"/>
<text text-anchor="middle" x="187.14" y="-265.82" font-family="Helvetica,sans-Serif" font-size="14.00">7</text>
</g>
<!-- 6&#45;&gt;7 -->
<g id="edge7" class="edge">
<title>6:s&#45;&gt;7:n</title>
<path fill="none" stroke="black" d="M187.14,-324.5C187.14,-313.12 187.14,-307.82 187.14,-299.95"/>
<polygon fill="black" stroke="black" points="190.64,-300.01 187.14,-290.01 183.64,-300.01 190.64,-300.01"/>
</g>
<!-- 6&#45;&gt;7 -->
<g id="edge14" class="edge">
<title>6:w&#45;&gt;7:w</title>
<path fill="none" stroke="black" d="M158.33,-342.5C145.7,-342.5 143.04,-297.67 150.34,-278.76"/>
<polygon fill="black" stroke="black" points="152.84,-281.21 157.28,-271.59 147.81,-276.34 152.84,-281.21"/>
</g>
<!-- 7&#45;&gt;b -->
<g id="edge15" class="edge">
<title>7:e&#45;&gt;b:n</title>
<path fill="none" stroke="black" d="M215.95,-270.5C236.31,-270.5 220.85,-248.95 215.67,-227.76"/>
<polygon fill="black" stroke="black" points="219.16,-227.44 214.35,-218 212.22,-228.38 219.16,-227.44"/>
</g>
<!-- 7&#45;&gt;1 -->
<g id="edge8" class="edge">
<title>7:s&#45;&gt;1:w</title>
<path fill="none" stroke="blue" d="M187.14,-251.18C187.14,-227.78 249.18,-228.12 214.14,-288.5 197.95,-316.39 170.17,-298.46 151.14,-324.5 127.28,-357.16 132.14,-373.05 132.14,-413.5 132.14,-559.5 132.14,-559.5 132.14,-559.5 132.14,-619.95 98.51,-692.45 147.08,-701.55"/>
<polygon fill="blue" stroke="blue" points="146.56,-705.02 156.82,-702.37 147.15,-698.04 146.56,-705.02"/>
</g>
</g>
</svg>
