<?xml version="1.0" encoding="UTF-8" standalone="no"?>
<!DOCTYPE svg PUBLIC "-//W3C//DTD SVG 1.1//EN"
 "http://www.w3.org/Graphics/SVG/1.1/DTD/svg11.dtd">
<!-- Generated by graphviz version 12.2.1 (20241206.2353)
 -->
<!-- Pages: 1 -->
<svg width="368pt" height="801pt"
 viewBox="0.00 0.00 368.25 800.50" xmlns="http://www.w3.org/2000/svg" xmlns:xlink="http://www.w3.org/1999/xlink">
<g id="graph0" class="graph" transform="scale(1 1) rotate(0) translate(4 796.5)">
<polygon fill="white" stroke="none" points="-4,4 -4,-796.5 364.25,-796.5 364.25,4 -4,4"/>
<text text-anchor="middle" x="180.12" y="-163.2" font-family="Helvetica,sans-Serif" font-size="14.00">1 2 3 1 2 3 4 4 5 6 7 5 6 7 </text>
<text text-anchor="middle" x="180.12" y="-145.95" font-family="Helvetica,sans-Serif" font-size="14.00">A double occurrence word</text>
<text text-anchor="middle" x="180.12" y="-128.7" font-family="Helvetica,sans-Serif" font-size="14.00">Already in ascending order</text>
<text text-anchor="middle" x="180.12" y="-111.45" font-family="Helvetica,sans-Serif" font-size="14.00">Palindrome: yes</text>
<text text-anchor="middle" x="180.12" y="-94.2" font-family="Helvetica,sans-Serif" font-size="14.00">Semi&#45;palindrome: yes</text>
<text text-anchor="middle" x="180.12" y="-76.95" font-family="Helvetica,sans-Serif" font-size="14.00">Irreducible: no</text>
<text text-anchor="middle" x="180.12" y="-59.7" font-family="Helvetica,sans-Serif" font-size="14.00">Strongly&#45;irreducible: no</text>
<text text-anchor="middle" x="180.12" y="-42.45" font-family="Helvetica,sans-Serif" font-size="14.00">Assembly number: 1</text>
<text text-anchor="middle" x="180.12" y="-25.2" font-family="Helvetica,sans-Serif" font-size="14.00">Edges in Hamiltonion set of polygonal paths: 0 2 5 7 9 11 </text>
<text text-anchor="middle" x="180.12" y="-7.95" font-family="Helvetica,sans-Serif" font-size="14.00">Realizable</text>
<!-- a -->
<!-- 1 -->
<g id="node3" class="node">
<title>1</title>
<polygon fill="none" stroke="black" points="171.89,-720.5 144.89,-702.5 171.89,-684.5 198.89,-702.5 171.89,-720.5"/>
<text text-anchor="middle" x="171.89" y="-697.83" font-family="Helvetica,sans-Serif" font-size="14.00">1</text>
</g>
<!-- a&#45;&gt;1 -->
<g id="edge1" class="edge">
<title>a:s&#45;&gt;1:n</title>
<path fill="none" stroke="black" d="M171.89,-756.5C171.89,-745.12 171.89,-739.82 171.89,-731.95"/>
<polygon fill="black" stroke="black" points="175.39,-732.01 171.89,-722.01 168.39,-732.01 175.39,-732.01"/>
</g>
<!-- b -->
<!-- 2 -->
<g id="node4" class="node">
<title>2</title>
<polygon fill="none" stroke="black" points="171.89,-648.5 144.89,-630.5 171.89,-612.5 198.89,-630.5 171.89,-648.5"/>
<text text-anchor="middle" x="171.89" y="-625.83" font-family="Helvetica,sans-Serif" font-size="14.00">2</text>
</g>
<!-- 1&#45;&gt;2 -->
<g id="edge2" class="edge">
<title>1:s&#45;&gt;2:n</title>
<path fill="none" stroke="blue" d="M171.89,-684.5C171.89,-673.12 171.89,-667.82 171.89,-659.95"/>
<polygon fill="blue" stroke="blue" points="175.39,-660.01 171.89,-650.01 168.39,-660.01 175.39,-660.01"/>
</g>
<!-- 1&#45;&gt;2 -->
<g id="edge5" class="edge">
<title>1:e&#45;&gt;2:e</title>
<path fill="none" stroke="black" d="M200.7,-702.5C228.58,-702.5 232.17,-647.87 211.48,-633.78"/>
<polygon fill="black" stroke="black" points="212.74,-630.5 202.15,-630.94 210.7,-637.2 212.74,-630.5"/>
</g>
<!-- 3 -->
<g id="node5" class="node">
<title>3</title>
<polygon fill="none" stroke="black" points="171.89,-576.5 144.89,-558.5 171.89,-540.5 198.89,-558.5 171.89,-576.5"/>
<text text-anchor="middle" x="171.89" y="-553.83" font-family="Helvetica,sans-Serif" font-size="14.00">3</text>
</g>
<!-- 2&#45;&gt;3 -->
<g id="edge3" class="edge">
<title>2:s&#45;&gt;3:n</title>
<path fill="none" stroke="black" d="M171.89,-612.5C171.89,-601.12 171.89,-595.82 171.89,-587.95"/>
<polygon fill="black" stroke="black" points="175.39,-588.01 171.89,-578.01 168.39,-588.01 175.39,-588.01"/>
</g>
<!-- 2&#45;&gt;3 -->
<g id="edge6" class="edge">
<title>2:w&#45;&gt;3:w</title>
<path fill="none" stroke="black" d="M143.08,-630.5C130.45,-630.5 127.79,-585.67 135.09,-566.76"/>
<polygon fill="black" stroke="black" points="137.59,-569.21 142.02,-559.59 132.56,-564.34 137.59,-569.21"/>
</g>
<!-- 3&#45;&gt;1 -->
<g id="edge4" class="edge">
<title>3:s&#45;&gt;1:w</title>
<path fill="none" stroke="blue" d="M171.89,-539.18C171.89,-515.78 233.93,-516.12 198.89,-576.5 182.7,-604.39 152.08,-584.61 135.89,-612.5 117.95,-643.41 105.84,-690.65 131.75,-700.61"/>
<polygon fill="blue" stroke="blue" points="131.15,-704.06 141.58,-702.25 132.29,-697.16 131.15,-704.06"/>
</g>
<!-- 4 -->
<g id="node6" class="node">
<title>4</title>
<polygon fill="none" stroke="black" points="198.89,-504.5 171.89,-486.5 198.89,-468.5 225.89,-486.5 198.89,-504.5"/>
<text text-anchor="middle" x="198.89" y="-481.82" font-family="Helvetica,sans-Serif" font-size="14.00">4</text>
</g>
<!-- 3&#45;&gt;4 -->
<g id="edge7" class="edge">
<title>3:e&#45;&gt;4:n</title>
<path fill="none" stroke="blue" d="M200.7,-558.5C221.06,-558.5 205.6,-536.95 200.42,-515.76"/>
<polygon fill="blue" stroke="blue" points="203.91,-515.44 199.09,-506 196.97,-516.38 203.91,-515.44"/>
</g>
<!-- 4&#45;&gt;4 -->
<g id="edge8" class="edge">
<title>4:s&#45;&gt;4:e</title>
<path fill="none" stroke="black" d="M198.89,-468.18C213.89,-450.18 243.89,-450.18 243.89,-477.34 243.89,-497.71 237.14,-502.8 231.58,-496.48"/>
<polygon fill="black" stroke="black" points="234.9,-495.31 227.37,-487.86 228.61,-498.38 234.9,-495.31"/>
</g>
<!-- 5 -->
<g id="node7" class="node">
<title>5</title>
<polygon fill="none" stroke="black" points="171.89,-432.5 144.89,-414.5 171.89,-396.5 198.89,-414.5 171.89,-432.5"/>
<text text-anchor="middle" x="171.89" y="-409.82" font-family="Helvetica,sans-Serif" font-size="14.00">5</text>
</g>
<!-- 4&#45;&gt;5 -->
<g id="edge9" class="edge">
<title>4:w&#45;&gt;5:n</title>
<path fill="none" stroke="blue" d="M170.08,-486.5C149.72,-486.5 165.18,-464.95 170.36,-443.76"/>
<polygon fill="blue" stroke="blue" points="173.81,-444.38 171.69,-434 166.87,-443.44 173.81,-444.38"/>
</g>
<!-- 6 -->
<g id="node8" class="node">
<title>6</title>
<polygon fill="none" stroke="black" points="171.89,-360.5 144.89,-342.5 171.89,-324.5 198.89,-342.5 171.89,-360.5"/>
<text text-anchor="middle" x="171.89" y="-337.82" font-family="Helvetica,sans-Serif" font-size="14.00">6</text>
</g>
<!-- 5&#45;&gt;6 -->
<g id="edge10" class="edge">
<title>5:s&#45;&gt;6:n</title>
<path fill="none" stroke="black" d="M171.89,-396.5C171.89,-385.12 171.89,-379.82 171.89,-371.95"/>
<polygon fill="black" stroke="black" points="175.39,-372.01 171.89,-362.01 168.39,-372.01 175.39,-372.01"/>
</g>
<!-- 5&#45;&gt;6 -->
<g id="edge13" class="edge">
<title>5:e&#45;&gt;6:e</title>
<path fill="none" stroke="blue" d="M200.7,-414.5C228.58,-414.5 232.17,-359.87 211.48,-345.78"/>
<polygon fill="blue" stroke="blue" points="212.74,-342.5 202.15,-342.94 210.7,-349.2 212.74,-342.5"/>
</g>
<!-- 7 -->
<g id="node9" class="node">
<title>7</title>
<polygon fill="none" stroke="black" points="171.89,-288.5 144.89,-270.5 171.89,-252.5 198.89,-270.5 171.89,-288.5"/>
<text text-anchor="middle" x="171.89" y="-265.82" font-family="Helvetica,sans-Serif" font-size="14.00">7</text>
</g>
<!-- 6&#45;&gt;7 -->
<g id="edge11" class="edge">
<title>6:s&#45;&gt;7:n</title>
<path fill="none" stroke="blue" d="M171.89,-324.5C171.89,-313.12 171.89,-307.82 171.89,-299.95"/>
<polygon fill="blue" stroke="blue" points="175.39,-300.01 171.89,-290.01 168.39,-300.01 175.39,-300.01"/>
</g>
<!-- 6&#45;&gt;7 -->
<g id="edge14" class="edge">
<title>6:w&#45;&gt;7:w</title>
<path fill="none" stroke="black" d="M143.08,-342.5C130.45,-342.5 127.79,-297.67 135.09,-278.76"/>
<polygon fill="black" stroke="black" points="137.59,-281.21 142.02,-271.59 132.56,-276.34 137.59,-281.21"/>
</g>
<!-- 7&#45;&gt;b -->
<g id="edge15" class="edge">
<title>7:e&#45;&gt;b:n</title>
<path fill="none" stroke="black" d="M200.7,-270.5C221.06,-270.5 205.6,-248.95 200.42,-227.76"/>
<polygon fill="black" stroke="black" points="203.91,-227.44 199.09,-218 196.97,-228.38 203.91,-227.44"/>
</g>
<!-- 7&#45;&gt;5 -->
<g id="edge12" class="edge">
<title>7:s&#45;&gt;5:w</title>
<path fill="none" stroke="black" d="M171.89,-251.18C171.89,-227.78 233.93,-228.12 198.89,-288.5 182.7,-316.39 152.08,-296.61 135.89,-324.5 117.95,-355.41 105.84,-402.65 131.75,-412.61"/>
<polygon fill="black" stroke="black" points="131.15,-416.06 141.58,-414.25 132.29,-409.16 131.15,-416.06"/>
</g>
</g>
</svg>
