<?xml version="1.0" encoding="UTF-8" standalone="no"?>
<!DOCTYPE svg PUBLIC "-//W3C//DTD SVG 1.1//EN"
 "http://www.w3.org/Graphics/SVG/1.1/DTD/svg11.dtd">
<!-- Generated by graphviz version 12.2.1 (20241206.2353)
 -->
<!-- Pages: 1 -->
<svg width="368pt" height="801pt"
 viewBox="0.00 0.00 368.25 800.50" xmlns="http://www.w3.org/2000/svg" xmlns:xlink="http://www.w3.org/1999/xlink">
<g id="graph0" class="graph" transform="scale(1 1) rotate(0) translate(4 796.5)">
<polygon fill="white" stroke="none" points="-4,4 -4,-796.5 364.25,-796.5 364.25,4 -4,4"/>
<text text-anchor="middle" x="180.12" y="-163.2" font-family="Helvetica,sans-Serif" font-size="14.00">1 2 1 2 3 3 4 4 5 5 6 7 6 7 </text>
<text text-anchor="middle" x="180.12" y="-145.95" font-family="Helvetica,sans-Serif" font-size="14.00">A double occurrence word</text>
<text text-anchor="middle" x="180.12" y="-128.7" font-family="Helvetica,sans-Serif" font-size="14.00">Already in ascending order</text>
<text text-anchor="middle" x="180.12" y="-111.45" font-family="Helvetica,sans-Serif" font-size="14.00">Palindrome: yes</text>
<text text-anchor="middle" x="180.12" y="-94.2" font-family="Helvetica,sans-Serif" font-size="14.00">Semi&#45;palindrome: yes</text>
<text text-anchor="middle" x="180.12" y="-76.95" font-family="Helvetica,sans-Serif" font-size="14.00">Irreducible: no</text>
<text text-anchor="middle" x="180.12" y="-59.7" font-family="Helvetica,sans-Serif" font-size="14.00">Strongly&#45;irreducible: no</text>
<text text-anchor="middle" x="180.12" y="-42.45" font-family="Helvetica,sans-Serif" font-size="14.00">Assembly number: 1</text>
<text text-anchor="middle" x="180.12" y="-25.2" font-family="Helvetica,sans-Serif" font-size="14.00">Edges in Hamiltonion set of polygonal paths: 0 3 5 7 9 11 </text>
<text text-anchor="middle" x="180.12" y="-7.95" font-family="Helvetica,sans-Serif" font-size="14.00">Realizable</text>
<!-- a -->
<!-- 1 -->
<g id="node3" class="node">
<title>1</title>
<polygon fill="none" stroke="black" points="188.95,-720.5 161.95,-702.5 188.95,-684.5 215.95,-702.5 188.95,-720.5"/>
<text text-anchor="middle" x="188.95" y="-697.83" font-family="Helvetica,sans-Serif" font-size="14.00">1</text>
</g>
<!-- a&#45;&gt;1 -->
<g id="edge1" class="edge">
<title>a:s&#45;&gt;1:n</title>
<path fill="none" stroke="black" d="M188.95,-756.5C188.95,-745.12 188.95,-739.82 188.95,-731.95"/>
<polygon fill="black" stroke="black" points="192.45,-732.01 188.95,-722.01 185.45,-732.01 192.45,-732.01"/>
</g>
<!-- b -->
<!-- 2 -->
<g id="node4" class="node">
<title>2</title>
<polygon fill="none" stroke="black" points="188.95,-648.5 161.95,-630.5 188.95,-612.5 215.95,-630.5 188.95,-648.5"/>
<text text-anchor="middle" x="188.95" y="-625.83" font-family="Helvetica,sans-Serif" font-size="14.00">2</text>
</g>
<!-- 1&#45;&gt;2 -->
<g id="edge2" class="edge">
<title>1:s&#45;&gt;2:n</title>
<path fill="none" stroke="blue" d="M188.95,-684.5C188.95,-673.12 188.95,-667.82 188.95,-659.95"/>
<polygon fill="blue" stroke="blue" points="192.45,-660.01 188.95,-650.01 185.45,-660.01 192.45,-660.01"/>
</g>
<!-- 1&#45;&gt;2 -->
<g id="edge4" class="edge">
<title>1:e&#45;&gt;2:e</title>
<path fill="none" stroke="black" d="M217.77,-702.5C245.64,-702.5 249.23,-647.87 228.55,-633.78"/>
<polygon fill="black" stroke="black" points="229.8,-630.5 219.21,-630.94 227.76,-637.2 229.8,-630.5"/>
</g>
<!-- 2&#45;&gt;1 -->
<g id="edge3" class="edge">
<title>2:s&#45;&gt;1:w</title>
<path fill="none" stroke="black" d="M188.95,-611.18C188.95,-599.17 207.62,-603.53 215.95,-612.18 227.16,-623.8 223.62,-634.29 215.95,-648.5 202.11,-674.15 175.69,-659.24 161.14,-684.5 159.95,-686.56 158.68,-688.98 157.68,-691.37"/>
<polygon fill="black" stroke="black" points="154.24,-692.01 159.81,-701.02 161.07,-690.5 154.24,-692.01"/>
</g>
<!-- 3 -->
<g id="node5" class="node">
<title>3</title>
<polygon fill="none" stroke="black" points="161.95,-576.5 134.95,-558.5 161.95,-540.5 188.95,-558.5 161.95,-576.5"/>
<text text-anchor="middle" x="161.95" y="-553.83" font-family="Helvetica,sans-Serif" font-size="14.00">3</text>
</g>
<!-- 2&#45;&gt;3 -->
<g id="edge5" class="edge">
<title>2:w&#45;&gt;3:n</title>
<path fill="none" stroke="blue" d="M160.14,-630.5C139.79,-630.5 155.24,-608.95 160.42,-587.76"/>
<polygon fill="blue" stroke="blue" points="163.87,-588.38 161.75,-578 156.94,-587.44 163.87,-588.38"/>
</g>
<!-- 3&#45;&gt;3 -->
<g id="edge6" class="edge">
<title>3:s&#45;&gt;3:w</title>
<path fill="none" stroke="black" d="M161.95,-540.18C146.95,-522.18 116.95,-522.18 116.95,-549.34 116.95,-569.71 123.7,-574.8 129.27,-568.48"/>
<polygon fill="black" stroke="black" points="132.23,-570.38 133.48,-559.86 125.94,-567.31 132.23,-570.38"/>
</g>
<!-- 4 -->
<g id="node6" class="node">
<title>4</title>
<polygon fill="none" stroke="black" points="188.95,-504.5 161.95,-486.5 188.95,-468.5 215.95,-486.5 188.95,-504.5"/>
<text text-anchor="middle" x="188.95" y="-481.82" font-family="Helvetica,sans-Serif" font-size="14.00">4</text>
</g>
<!-- 3&#45;&gt;4 -->
<g id="edge7" class="edge">
<title>3:e&#45;&gt;4:n</title>
<path fill="none" stroke="blue" d="M190.77,-558.5C211.12,-558.5 195.67,-536.95 190.48,-515.76"/>
<polygon fill="blue" stroke="blue" points="193.97,-515.44 189.16,-506 187.04,-516.38 193.97,-515.44"/>
</g>
<!-- 4&#45;&gt;4 -->
<g id="edge8" class="edge">
<title>4:s&#45;&gt;4:e</title>
<path fill="none" stroke="black" d="M188.95,-468.18C203.95,-450.18 233.95,-450.18 233.95,-477.34 233.95,-497.71 227.2,-502.8 221.64,-496.48"/>
<polygon fill="black" stroke="black" points="224.96,-495.31 217.43,-487.86 218.67,-498.38 224.96,-495.31"/>
</g>
<!-- 5 -->
<g id="node7" class="node">
<title>5</title>
<polygon fill="none" stroke="black" points="161.95,-432.5 134.95,-414.5 161.95,-396.5 188.95,-414.5 161.95,-432.5"/>
<text text-anchor="middle" x="161.95" y="-409.82" font-family="Helvetica,sans-Serif" font-size="14.00">5</text>
</g>
<!-- 4&#45;&gt;5 -->
<g id="edge9" class="edge">
<title>4:w&#45;&gt;5:n</title>
<path fill="none" stroke="blue" d="M160.14,-486.5C139.79,-486.5 155.24,-464.95 160.42,-443.76"/>
<polygon fill="blue" stroke="blue" points="163.87,-444.38 161.75,-434 156.94,-443.44 163.87,-444.38"/>
</g>
<!-- 5&#45;&gt;5 -->
<g id="edge10" class="edge">
<title>5:s&#45;&gt;5:w</title>
<path fill="none" stroke="black" d="M161.95,-396.18C146.95,-378.18 116.95,-378.18 116.95,-405.34 116.95,-425.71 123.7,-430.8 129.27,-424.48"/>
<polygon fill="black" stroke="black" points="132.23,-426.38 133.48,-415.86 125.94,-423.31 132.23,-426.38"/>
</g>
<!-- 6 -->
<g id="node8" class="node">
<title>6</title>
<polygon fill="none" stroke="black" points="188.95,-360.5 161.95,-342.5 188.95,-324.5 215.95,-342.5 188.95,-360.5"/>
<text text-anchor="middle" x="188.95" y="-337.82" font-family="Helvetica,sans-Serif" font-size="14.00">6</text>
</g>
<!-- 5&#45;&gt;6 -->
<g id="edge11" class="edge">
<title>5:e&#45;&gt;6:n</title>
<path fill="none" stroke="blue" d="M190.77,-414.5C211.12,-414.5 195.67,-392.95 190.48,-371.76"/>
<polygon fill="blue" stroke="blue" points="193.97,-371.44 189.16,-362 187.04,-372.38 193.97,-371.44"/>
</g>
<!-- 7 -->
<g id="node9" class="node">
<title>7</title>
<polygon fill="none" stroke="black" points="188.95,-288.5 161.95,-270.5 188.95,-252.5 215.95,-270.5 188.95,-288.5"/>
<text text-anchor="middle" x="188.95" y="-265.82" font-family="Helvetica,sans-Serif" font-size="14.00">7</text>
</g>
<!-- 6&#45;&gt;7 -->
<g id="edge12" class="edge">
<title>6:s&#45;&gt;7:n</title>
<path fill="none" stroke="black" d="M188.95,-324.5C188.95,-313.12 188.95,-307.82 188.95,-299.95"/>
<polygon fill="black" stroke="black" points="192.45,-300.01 188.95,-290.01 185.45,-300.01 192.45,-300.01"/>
</g>
<!-- 6&#45;&gt;7 -->
<g id="edge14" class="edge">
<title>6:w&#45;&gt;7:w</title>
<path fill="none" stroke="black" d="M160.14,-342.5C132.27,-342.5 128.67,-287.87 149.36,-273.78"/>
<polygon fill="black" stroke="black" points="150.15,-277.2 158.69,-270.94 148.11,-270.5 150.15,-277.2"/>
</g>
<!-- 7&#45;&gt;b -->
<g id="edge15" class="edge">
<title>7:e&#45;&gt;b:n</title>
<path fill="none" stroke="black" d="M217.77,-270.5C238.12,-270.5 222.67,-248.95 217.48,-227.76"/>
<polygon fill="black" stroke="black" points="220.97,-227.44 216.16,-218 214.04,-228.38 220.97,-227.44"/>
</g>
<!-- 7&#45;&gt;6 -->
<g id="edge13" class="edge">
<title>7:s&#45;&gt;6:e</title>
<path fill="none" stroke="blue" d="M188.95,-251.18C188.95,-239.17 207.53,-243.62 215.95,-252.18 241.02,-277.68 254.72,-329.4 229.06,-340.41"/>
<polygon fill="blue" stroke="blue" points="228.45,-336.96 219.25,-342.22 229.72,-343.85 228.45,-336.96"/>
</g>
</g>
</svg>
