<?xml version="1.0" encoding="UTF-8" standalone="no"?>
<!DOCTYPE svg PUBLIC "-//W3C//DTD SVG 1.1//EN"
 "http://www.w3.org/Graphics/SVG/1.1/DTD/svg11.dtd">
<!-- Generated by graphviz version 12.2.1 (20241206.2353)
 -->
<!-- Pages: 1 -->
<svg width="368pt" height="801pt"
 viewBox="0.00 0.00 368.25 800.50" xmlns="http://www.w3.org/2000/svg" xmlns:xlink="http://www.w3.org/1999/xlink">
<g id="graph0" class="graph" transform="scale(1 1) rotate(0) translate(4 796.5)">
<polygon fill="white" stroke="none" points="-4,4 -4,-796.5 364.25,-796.5 364.25,4 -4,4"/>
<text text-anchor="middle" x="180.12" y="-163.2" font-family="Helvetica,sans-Serif" font-size="14.00">1 1 2 3 2 4 5 3 4 6 5 6 7 7 </text>
<text text-anchor="middle" x="180.12" y="-145.95" font-family="Helvetica,sans-Serif" font-size="14.00">A double occurrence word</text>
<text text-anchor="middle" x="180.12" y="-128.7" font-family="Helvetica,sans-Serif" font-size="14.00">Already in ascending order</text>
<text text-anchor="middle" x="180.12" y="-111.45" font-family="Helvetica,sans-Serif" font-size="14.00">Palindrome: yes</text>
<text text-anchor="middle" x="180.12" y="-94.2" font-family="Helvetica,sans-Serif" font-size="14.00">Semi&#45;palindrome: yes</text>
<text text-anchor="middle" x="180.12" y="-76.95" font-family="Helvetica,sans-Serif" font-size="14.00">Irreducible: no</text>
<text text-anchor="middle" x="180.12" y="-59.7" font-family="Helvetica,sans-Serif" font-size="14.00">Strongly&#45;irreducible: no</text>
<text text-anchor="middle" x="180.12" y="-42.45" font-family="Helvetica,sans-Serif" font-size="14.00">Assembly number: 1</text>
<text text-anchor="middle" x="180.12" y="-25.2" font-family="Helvetica,sans-Serif" font-size="14.00">Edges in Hamiltonion set of polygonal paths: 1 3 5 7 9 11 </text>
<text text-anchor="middle" x="180.12" y="-7.95" font-family="Helvetica,sans-Serif" font-size="14.00">Realizable</text>
<!-- a -->
<!-- 1 -->
<g id="node3" class="node">
<title>1</title>
<polygon fill="none" stroke="black" points="167.46,-720.5 140.46,-702.5 167.46,-684.5 194.46,-702.5 167.46,-720.5"/>
<text text-anchor="middle" x="167.46" y="-697.83" font-family="Helvetica,sans-Serif" font-size="14.00">1</text>
</g>
<!-- a&#45;&gt;1 -->
<g id="edge1" class="edge">
<title>a:s&#45;&gt;1:n</title>
<path fill="none" stroke="black" d="M167.46,-756.5C167.46,-745.12 167.46,-739.82 167.46,-731.95"/>
<polygon fill="black" stroke="black" points="170.96,-732.01 167.46,-722.01 163.96,-732.01 170.96,-732.01"/>
</g>
<!-- b -->
<!-- 1&#45;&gt;1 -->
<g id="edge2" class="edge">
<title>1:s&#45;&gt;1:w</title>
<path fill="none" stroke="black" d="M167.46,-684.18C152.46,-666.18 122.46,-666.18 122.46,-693.34 122.46,-713.71 129.21,-718.8 134.77,-712.48"/>
<polygon fill="black" stroke="black" points="137.74,-714.38 138.98,-703.86 131.45,-711.31 137.74,-714.38"/>
</g>
<!-- 2 -->
<g id="node4" class="node">
<title>2</title>
<polygon fill="none" stroke="black" points="194.46,-648.5 167.46,-630.5 194.46,-612.5 221.46,-630.5 194.46,-648.5"/>
<text text-anchor="middle" x="194.46" y="-625.83" font-family="Helvetica,sans-Serif" font-size="14.00">2</text>
</g>
<!-- 1&#45;&gt;2 -->
<g id="edge3" class="edge">
<title>1:e&#45;&gt;2:n</title>
<path fill="none" stroke="blue" d="M196.27,-702.5C216.62,-702.5 201.17,-680.95 195.99,-659.76"/>
<polygon fill="blue" stroke="blue" points="199.47,-659.44 194.66,-650 192.54,-660.38 199.47,-659.44"/>
</g>
<!-- 3 -->
<g id="node5" class="node">
<title>3</title>
<polygon fill="none" stroke="black" points="221.46,-576.5 194.46,-558.5 221.46,-540.5 248.46,-558.5 221.46,-576.5"/>
<text text-anchor="middle" x="221.46" y="-553.83" font-family="Helvetica,sans-Serif" font-size="14.00">3</text>
</g>
<!-- 2&#45;&gt;3 -->
<g id="edge4" class="edge">
<title>2:s&#45;&gt;3:n</title>
<path fill="none" stroke="black" d="M194.46,-612.5C194.46,-597.19 210.28,-595.94 217.7,-587.23"/>
<polygon fill="black" stroke="black" points="220.95,-588.52 220.96,-577.93 214.35,-586.21 220.95,-588.52"/>
</g>
<!-- 4 -->
<g id="node6" class="node">
<title>4</title>
<polygon fill="none" stroke="black" points="166.46,-504.5 139.46,-486.5 166.46,-468.5 193.46,-486.5 166.46,-504.5"/>
<text text-anchor="middle" x="166.46" y="-481.82" font-family="Helvetica,sans-Serif" font-size="14.00">4</text>
</g>
<!-- 2&#45;&gt;4 -->
<g id="edge6" class="edge">
<title>2:w&#45;&gt;4:n</title>
<path fill="none" stroke="black" d="M165.64,-630.5C113.36,-630.5 159.41,-569.49 165.75,-515.82"/>
<polygon fill="black" stroke="black" points="169.24,-516.21 166.36,-506.01 162.25,-515.77 169.24,-516.21"/>
</g>
<!-- 3&#45;&gt;2 -->
<g id="edge5" class="edge">
<title>3:s&#45;&gt;2:e</title>
<path fill="none" stroke="blue" d="M221.46,-539.18C221.46,-527.17 240.12,-531.53 248.46,-540.18 274.55,-567.26 266.98,-619.01 234.63,-628.86"/>
<polygon fill="blue" stroke="blue" points="234.16,-625.39 224.77,-630.28 235.16,-632.32 234.16,-625.39"/>
</g>
<!-- 3&#45;&gt;4 -->
<g id="edge9" class="edge">
<title>3:e&#45;&gt;4:e</title>
<path fill="none" stroke="blue" d="M250.27,-558.5C258.28,-558.5 252.81,-547.69 249.27,-540.5 238.43,-518.5 223.76,-522.81 207.46,-504.5 204.85,-501.57 203.94,-498.05 203.13,-494.9"/>
<polygon fill="blue" stroke="blue" points="205.69,-492.51 196.3,-487.6 200.58,-497.3 205.69,-492.51"/>
</g>
<!-- 5 -->
<g id="node7" class="node">
<title>5</title>
<polygon fill="none" stroke="black" points="194.46,-432.5 167.46,-414.5 194.46,-396.5 221.46,-414.5 194.46,-432.5"/>
<text text-anchor="middle" x="194.46" y="-409.82" font-family="Helvetica,sans-Serif" font-size="14.00">5</text>
</g>
<!-- 4&#45;&gt;5 -->
<g id="edge7" class="edge">
<title>4:s&#45;&gt;5:n</title>
<path fill="none" stroke="blue" d="M166.46,-468.5C166.46,-452.98 182.87,-452 190.56,-443.3"/>
<polygon fill="blue" stroke="blue" points="193.84,-444.52 193.94,-433.92 187.26,-442.14 193.84,-444.52"/>
</g>
<!-- 6 -->
<g id="node8" class="node">
<title>6</title>
<polygon fill="none" stroke="black" points="167.46,-360.5 140.46,-342.5 167.46,-324.5 194.46,-342.5 167.46,-360.5"/>
<text text-anchor="middle" x="167.46" y="-337.82" font-family="Helvetica,sans-Serif" font-size="14.00">6</text>
</g>
<!-- 4&#45;&gt;6 -->
<g id="edge10" class="edge">
<title>4:w&#45;&gt;6:n</title>
<path fill="none" stroke="black" d="M137.64,-486.5C129.63,-486.5 137.38,-476.41 138.64,-468.5 139.44,-463.47 158.32,-398.2 165.08,-371.47"/>
<polygon fill="black" stroke="black" points="168.44,-372.49 167.13,-361.98 161.6,-371.01 168.44,-372.49"/>
</g>
<!-- 5&#45;&gt;3 -->
<g id="edge8" class="edge">
<title>5:s&#45;&gt;3:w</title>
<path fill="none" stroke="black" d="M194.46,-395.18C194.46,-383.17 213.12,-387.53 221.46,-396.18 232.66,-407.8 223.48,-416.49 221.46,-432.5 218.34,-457.09 197.44,-516.01 193.64,-540.5 193.32,-542.6 192.53,-544.86 191.7,-547.04"/>
<polygon fill="black" stroke="black" points="188.21,-547.31 192.52,-556.99 195.18,-546.74 188.21,-547.31"/>
</g>
<!-- 5&#45;&gt;6 -->
<g id="edge12" class="edge">
<title>5:e&#45;&gt;6:e</title>
<path fill="none" stroke="black" d="M223.27,-414.5C253.71,-414.5 235.62,-357.39 207.15,-344.9"/>
<polygon fill="black" stroke="black" points="208.26,-341.56 197.75,-342.83 206.76,-348.39 208.26,-341.56"/>
</g>
<!-- 6&#45;&gt;5 -->
<g id="edge11" class="edge">
<title>6:s&#45;&gt;5:w</title>
<path fill="none" stroke="blue" d="M167.46,-323.18C167.46,-295.75 211.98,-309.17 194.46,-360.5 187.92,-379.64 173.7,-377.55 166.64,-396.5 165.86,-398.61 164.8,-400.96 163.86,-403.24"/>
<polygon fill="blue" stroke="blue" points="160.39,-403.67 165.41,-413.01 167.3,-402.58 160.39,-403.67"/>
</g>
<!-- 7 -->
<g id="node9" class="node">
<title>7</title>
<polygon fill="none" stroke="black" points="140.46,-288.5 113.46,-270.5 140.46,-252.5 167.46,-270.5 140.46,-288.5"/>
<text text-anchor="middle" x="140.46" y="-265.82" font-family="Helvetica,sans-Serif" font-size="14.00">7</text>
</g>
<!-- 6&#45;&gt;7 -->
<g id="edge13" class="edge">
<title>6:w&#45;&gt;7:n</title>
<path fill="none" stroke="blue" d="M138.64,-342.5C118.29,-342.5 133.74,-320.95 138.92,-299.76"/>
<polygon fill="blue" stroke="blue" points="142.37,-300.38 140.25,-290 135.44,-299.44 142.37,-300.38"/>
</g>
<!-- 7&#45;&gt;b -->
<g id="edge15" class="edge">
<title>7:e&#45;&gt;b:n</title>
<path fill="none" stroke="black" d="M169.27,-270.5C189.62,-270.5 174.17,-248.95 168.99,-227.76"/>
<polygon fill="black" stroke="black" points="172.47,-227.44 167.66,-218 165.54,-228.38 172.47,-227.44"/>
</g>
<!-- 7&#45;&gt;7 -->
<g id="edge14" class="edge">
<title>7:s&#45;&gt;7:w</title>
<path fill="none" stroke="black" d="M140.46,-252.18C125.46,-234.18 95.46,-234.18 95.46,-261.34 95.46,-281.71 102.21,-286.8 107.77,-280.48"/>
<polygon fill="black" stroke="black" points="110.74,-282.38 111.98,-271.86 104.45,-279.31 110.74,-282.38"/>
</g>
</g>
</svg>
