<?xml version="1.0" encoding="UTF-8" standalone="no"?>
<!DOCTYPE svg PUBLIC "-//W3C//DTD SVG 1.1//EN"
 "http://www.w3.org/Graphics/SVG/1.1/DTD/svg11.dtd">
<!-- Generated by graphviz version 12.2.1 (20241206.2353)
 -->
<!-- Pages: 1 -->
<svg width="368pt" height="801pt"
 viewBox="0.00 0.00 368.25 800.50" xmlns="http://www.w3.org/2000/svg" xmlns:xlink="http://www.w3.org/1999/xlink">
<g id="graph0" class="graph" transform="scale(1 1) rotate(0) translate(4 796.5)">
<polygon fill="white" stroke="none" points="-4,4 -4,-796.5 364.25,-796.5 364.25,4 -4,4"/>
<text text-anchor="middle" x="180.12" y="-163.2" font-family="Helvetica,sans-Serif" font-size="14.00">1 2 3 4 1 2 5 3 6 7 4 5 6 7 </text>
<text text-anchor="middle" x="180.12" y="-145.95" font-family="Helvetica,sans-Serif" font-size="14.00">A double occurrence word</text>
<text text-anchor="middle" x="180.12" y="-128.7" font-family="Helvetica,sans-Serif" font-size="14.00">Already in ascending order</text>
<text text-anchor="middle" x="180.12" y="-111.45" font-family="Helvetica,sans-Serif" font-size="14.00">Palindrome: yes</text>
<text text-anchor="middle" x="180.12" y="-94.2" font-family="Helvetica,sans-Serif" font-size="14.00">Semi&#45;palindrome: yes</text>
<text text-anchor="middle" x="180.12" y="-76.95" font-family="Helvetica,sans-Serif" font-size="14.00">Irreducible: yes</text>
<text text-anchor="middle" x="180.12" y="-59.7" font-family="Helvetica,sans-Serif" font-size="14.00">Strongly&#45;irreducible: yes</text>
<text text-anchor="middle" x="180.12" y="-42.45" font-family="Helvetica,sans-Serif" font-size="14.00">Assembly number: 1</text>
<text text-anchor="middle" x="180.12" y="-25.2" font-family="Helvetica,sans-Serif" font-size="14.00">Edges in Hamiltonion set of polygonal paths: 0 2 5 7 9 11 </text>
<text text-anchor="middle" x="180.12" y="-7.95" font-family="Helvetica,sans-Serif" font-size="14.00">Realizable</text>
<!-- a -->
<!-- 1 -->
<g id="node3" class="node">
<title>1</title>
<polygon fill="none" stroke="black" points="127.96,-720.5 100.96,-702.5 127.96,-684.5 154.96,-702.5 127.96,-720.5"/>
<text text-anchor="middle" x="127.96" y="-697.83" font-family="Helvetica,sans-Serif" font-size="14.00">1</text>
</g>
<!-- a&#45;&gt;1 -->
<g id="edge1" class="edge">
<title>a:s&#45;&gt;1:n</title>
<path fill="none" stroke="black" d="M127.96,-756.5C127.96,-745.12 127.96,-739.82 127.96,-731.95"/>
<polygon fill="black" stroke="black" points="131.46,-732.01 127.96,-722.01 124.46,-732.01 131.46,-732.01"/>
</g>
<!-- b -->
<!-- 2 -->
<g id="node4" class="node">
<title>2</title>
<polygon fill="none" stroke="black" points="127.96,-648.5 100.96,-630.5 127.96,-612.5 154.96,-630.5 127.96,-648.5"/>
<text text-anchor="middle" x="127.96" y="-625.83" font-family="Helvetica,sans-Serif" font-size="14.00">2</text>
</g>
<!-- 1&#45;&gt;2 -->
<g id="edge2" class="edge">
<title>1:s&#45;&gt;2:n</title>
<path fill="none" stroke="blue" d="M127.96,-684.5C127.96,-673.12 127.96,-667.82 127.96,-659.95"/>
<polygon fill="blue" stroke="blue" points="131.46,-660.01 127.96,-650.01 124.46,-660.01 131.46,-660.01"/>
</g>
<!-- 1&#45;&gt;2 -->
<g id="edge6" class="edge">
<title>1:e&#45;&gt;2:e</title>
<path fill="none" stroke="black" d="M156.77,-702.5C184.64,-702.5 188.24,-647.87 167.55,-633.78"/>
<polygon fill="black" stroke="black" points="168.8,-630.5 158.22,-630.94 166.76,-637.2 168.8,-630.5"/>
</g>
<!-- 3 -->
<g id="node5" class="node">
<title>3</title>
<polygon fill="none" stroke="black" points="188.96,-576.5 161.96,-558.5 188.96,-540.5 215.96,-558.5 188.96,-576.5"/>
<text text-anchor="middle" x="188.96" y="-553.83" font-family="Helvetica,sans-Serif" font-size="14.00">3</text>
</g>
<!-- 2&#45;&gt;3 -->
<g id="edge3" class="edge">
<title>2:s&#45;&gt;3:n</title>
<path fill="none" stroke="black" d="M127.96,-612.5C127.96,-585.69 172.19,-601.26 185.32,-587.04"/>
<polygon fill="black" stroke="black" points="188.51,-588.53 188.46,-577.93 181.89,-586.24 188.51,-588.53"/>
</g>
<!-- 5 -->
<g id="node7" class="node">
<title>5</title>
<polygon fill="none" stroke="black" points="174.96,-432.5 147.96,-414.5 174.96,-396.5 201.96,-414.5 174.96,-432.5"/>
<text text-anchor="middle" x="174.96" y="-409.82" font-family="Helvetica,sans-Serif" font-size="14.00">5</text>
</g>
<!-- 2&#45;&gt;5 -->
<g id="edge7" class="edge">
<title>2:w&#45;&gt;5:n</title>
<path fill="none" stroke="blue" d="M99.14,-630.5C89.44,-630.5 38.73,-596.92 119.96,-468.5 133.01,-447.86 162.67,-456.99 172.05,-443.47"/>
<polygon fill="blue" stroke="blue" points="175.4,-444.53 174.57,-433.96 168.63,-442.74 175.4,-444.53"/>
</g>
<!-- 4 -->
<g id="node6" class="node">
<title>4</title>
<polygon fill="none" stroke="black" points="155.96,-504.5 128.96,-486.5 155.96,-468.5 182.96,-486.5 155.96,-504.5"/>
<text text-anchor="middle" x="155.96" y="-481.82" font-family="Helvetica,sans-Serif" font-size="14.00">4</text>
</g>
<!-- 3&#45;&gt;4 -->
<g id="edge4" class="edge">
<title>3:s&#45;&gt;4:n</title>
<path fill="none" stroke="blue" d="M188.96,-540.5C188.96,-523.54 168.81,-524.36 160,-515.17"/>
<polygon fill="blue" stroke="blue" points="163.31,-514.03 156.49,-505.92 156.76,-516.51 163.31,-514.03"/>
</g>
<!-- 6 -->
<g id="node8" class="node">
<title>6</title>
<polygon fill="none" stroke="black" points="231.96,-360.5 204.96,-342.5 231.96,-324.5 258.96,-342.5 231.96,-360.5"/>
<text text-anchor="middle" x="231.96" y="-337.82" font-family="Helvetica,sans-Serif" font-size="14.00">6</text>
</g>
<!-- 3&#45;&gt;6 -->
<g id="edge9" class="edge">
<title>3:e&#45;&gt;6:n</title>
<path fill="none" stroke="blue" d="M217.77,-558.5C302.2,-558.5 238.02,-457.96 232.35,-371.98"/>
<polygon fill="blue" stroke="blue" points="235.85,-371.89 232.01,-362.01 228.85,-372.13 235.85,-371.89"/>
</g>
<!-- 4&#45;&gt;1 -->
<g id="edge5" class="edge">
<title>4:s&#45;&gt;1:w</title>
<path fill="none" stroke="black" d="M155.96,-467.18C155.96,-442.24 200.48,-456.52 182.96,-504.5 181.61,-508.19 93.3,-608.81 91.96,-612.5 79.7,-646.07 63.15,-691.23 88.02,-700.71"/>
<polygon fill="black" stroke="black" points="87.22,-704.13 97.65,-702.26 88.33,-697.22 87.22,-704.13"/>
</g>
<!-- 4&#45;&gt;5 -->
<g id="edge12" class="edge">
<title>4:w&#45;&gt;5:w</title>
<path fill="none" stroke="black" d="M127.14,-486.5C113.7,-486.5 123.72,-438.97 136.83,-421.14"/>
<polygon fill="black" stroke="black" points="138.8,-424.04 144.91,-415.38 134.74,-418.34 138.8,-424.04"/>
</g>
<!-- 5&#45;&gt;3 -->
<g id="edge8" class="edge">
<title>5:s&#45;&gt;3:w</title>
<path fill="none" stroke="black" d="M174.96,-395.18C174.96,-383.17 193.62,-387.53 201.96,-396.18 235.5,-430.99 211.8,-460.41 191.96,-504.5 183.31,-523.7 168.99,-520.96 161.14,-540.5 160.3,-542.59 159.22,-544.93 158.28,-547.21"/>
<polygon fill="black" stroke="black" points="154.82,-547.71 159.9,-557.01 161.72,-546.57 154.82,-547.71"/>
</g>
<!-- 5&#45;&gt;6 -->
<g id="edge13" class="edge">
<title>5:e&#45;&gt;6:e</title>
<path fill="none" stroke="blue" d="M203.77,-414.5C219.15,-414.5 255.34,-373.58 263.47,-353.44"/>
<polygon fill="blue" stroke="blue" points="266.93,-352.84 261.13,-343.97 260.13,-354.52 266.93,-352.84"/>
</g>
<!-- 7 -->
<g id="node9" class="node">
<title>7</title>
<polygon fill="none" stroke="black" points="231.96,-288.5 204.96,-270.5 231.96,-252.5 258.96,-270.5 231.96,-288.5"/>
<text text-anchor="middle" x="231.96" y="-265.82" font-family="Helvetica,sans-Serif" font-size="14.00">7</text>
</g>
<!-- 6&#45;&gt;7 -->
<g id="edge10" class="edge">
<title>6:s&#45;&gt;7:n</title>
<path fill="none" stroke="black" d="M231.96,-324.5C231.96,-313.12 231.96,-307.82 231.96,-299.95"/>
<polygon fill="black" stroke="black" points="235.46,-300.01 231.96,-290.01 228.46,-300.01 235.46,-300.01"/>
</g>
<!-- 6&#45;&gt;7 -->
<g id="edge14" class="edge">
<title>6:w&#45;&gt;7:w</title>
<path fill="none" stroke="black" d="M203.14,-342.5C175.27,-342.5 171.67,-287.87 192.36,-273.78"/>
<polygon fill="black" stroke="black" points="193.15,-277.2 201.69,-270.94 191.11,-270.5 193.15,-277.2"/>
</g>
<!-- 7&#45;&gt;b -->
<g id="edge15" class="edge">
<title>7:e&#45;&gt;b:n</title>
<path fill="none" stroke="black" d="M260.77,-270.5C281.12,-270.5 265.67,-248.95 260.49,-227.76"/>
<polygon fill="black" stroke="black" points="263.97,-227.44 259.16,-218 257.04,-228.38 263.97,-227.44"/>
</g>
<!-- 7&#45;&gt;4 -->
<g id="edge11" class="edge">
<title>7:s&#45;&gt;4:e</title>
<path fill="none" stroke="blue" d="M231.96,-251.18C231.96,-239.17 250.1,-244.06 258.96,-252.18 259.87,-253.02 275.31,-336 267.96,-360.5 249.82,-420.88 251.56,-479.02 196.2,-485.83"/>
<polygon fill="blue" stroke="blue" points="196.06,-482.34 186.28,-486.41 196.47,-489.32 196.06,-482.34"/>
</g>
</g>
</svg>
