<?xml version="1.0" encoding="UTF-8" standalone="no"?>
<!DOCTYPE svg PUBLIC "-//W3C//DTD SVG 1.1//EN"
 "http://www.w3.org/Graphics/SVG/1.1/DTD/svg11.dtd">
<!-- Generated by graphviz version 12.2.1 (20241206.2353)
 -->
<!-- Pages: 1 -->
<svg width="370pt" height="801pt"
 viewBox="0.00 0.00 369.75 800.50" xmlns="http://www.w3.org/2000/svg" xmlns:xlink="http://www.w3.org/1999/xlink">
<g id="graph0" class="graph" transform="scale(1 1) rotate(0) translate(4 796.5)">
<polygon fill="white" stroke="none" points="-4,4 -4,-796.5 365.75,-796.5 365.75,4 -4,4"/>
<text text-anchor="middle" x="180.88" y="-163.2" font-family="Helvetica,sans-Serif" font-size="14.00">1 2 3 1 2 4 3 5 4 6 7 5 6 7 </text>
<text text-anchor="middle" x="180.88" y="-145.95" font-family="Helvetica,sans-Serif" font-size="14.00">A double occurrence word</text>
<text text-anchor="middle" x="180.88" y="-128.7" font-family="Helvetica,sans-Serif" font-size="14.00">Already in ascending order</text>
<text text-anchor="middle" x="180.88" y="-111.45" font-family="Helvetica,sans-Serif" font-size="14.00">Palindrome: yes</text>
<text text-anchor="middle" x="180.88" y="-94.2" font-family="Helvetica,sans-Serif" font-size="14.00">Semi&#45;palindrome: yes</text>
<text text-anchor="middle" x="180.88" y="-76.95" font-family="Helvetica,sans-Serif" font-size="14.00">Irreducible: yes</text>
<text text-anchor="middle" x="180.88" y="-59.7" font-family="Helvetica,sans-Serif" font-size="14.00">Strongly&#45;irreducible: yes</text>
<text text-anchor="middle" x="180.88" y="-42.45" font-family="Helvetica,sans-Serif" font-size="14.00">Assembly number: 1</text>
<text text-anchor="middle" x="180.88" y="-25.2" font-family="Helvetica,sans-Serif" font-size="14.00">Edges in Hamiltonion set of polygonal paths: 0 2 4 6 8 10 </text>
<text text-anchor="middle" x="180.88" y="-7.95" font-family="Helvetica,sans-Serif" font-size="14.00">Realizable</text>
<!-- a -->
<!-- 1 -->
<g id="node3" class="node">
<title>1</title>
<polygon fill="none" stroke="black" points="173.8,-720.5 146.8,-702.5 173.8,-684.5 200.8,-702.5 173.8,-720.5"/>
<text text-anchor="middle" x="173.8" y="-697.83" font-family="Helvetica,sans-Serif" font-size="14.00">1</text>
</g>
<!-- a&#45;&gt;1 -->
<g id="edge1" class="edge">
<title>a:s&#45;&gt;1:n</title>
<path fill="none" stroke="black" d="M173.8,-756.5C173.8,-745.12 173.8,-739.82 173.8,-731.95"/>
<polygon fill="black" stroke="black" points="177.3,-732.01 173.8,-722.01 170.3,-732.01 177.3,-732.01"/>
</g>
<!-- b -->
<!-- 2 -->
<g id="node4" class="node">
<title>2</title>
<polygon fill="none" stroke="black" points="173.8,-648.5 146.8,-630.5 173.8,-612.5 200.8,-630.5 173.8,-648.5"/>
<text text-anchor="middle" x="173.8" y="-625.83" font-family="Helvetica,sans-Serif" font-size="14.00">2</text>
</g>
<!-- 1&#45;&gt;2 -->
<g id="edge2" class="edge">
<title>1:s&#45;&gt;2:n</title>
<path fill="none" stroke="blue" d="M173.8,-684.5C173.8,-673.12 173.8,-667.82 173.8,-659.95"/>
<polygon fill="blue" stroke="blue" points="177.3,-660.01 173.8,-650.01 170.3,-660.01 177.3,-660.01"/>
</g>
<!-- 1&#45;&gt;2 -->
<g id="edge5" class="edge">
<title>1:e&#45;&gt;2:e</title>
<path fill="none" stroke="black" d="M202.62,-702.5C230.49,-702.5 234.09,-647.87 213.4,-633.78"/>
<polygon fill="black" stroke="black" points="214.65,-630.5 204.07,-630.94 212.61,-637.2 214.65,-630.5"/>
</g>
<!-- 3 -->
<g id="node5" class="node">
<title>3</title>
<polygon fill="none" stroke="black" points="173.8,-576.5 146.8,-558.5 173.8,-540.5 200.8,-558.5 173.8,-576.5"/>
<text text-anchor="middle" x="173.8" y="-553.83" font-family="Helvetica,sans-Serif" font-size="14.00">3</text>
</g>
<!-- 2&#45;&gt;3 -->
<g id="edge3" class="edge">
<title>2:s&#45;&gt;3:n</title>
<path fill="none" stroke="black" d="M173.8,-612.5C173.8,-601.12 173.8,-595.82 173.8,-587.95"/>
<polygon fill="black" stroke="black" points="177.3,-588.01 173.8,-578.01 170.3,-588.01 177.3,-588.01"/>
</g>
<!-- 4 -->
<g id="node6" class="node">
<title>4</title>
<polygon fill="none" stroke="black" points="146.8,-432.5 119.8,-414.5 146.8,-396.5 173.8,-414.5 146.8,-432.5"/>
<text text-anchor="middle" x="146.8" y="-409.82" font-family="Helvetica,sans-Serif" font-size="14.00">4</text>
</g>
<!-- 2&#45;&gt;4 -->
<g id="edge6" class="edge">
<title>2:w&#45;&gt;4:n</title>
<path fill="none" stroke="blue" d="M144.99,-630.5C122.29,-630.5 143.08,-496.44 146.38,-443.75"/>
<polygon fill="blue" stroke="blue" points="149.87,-444.14 146.75,-434.01 142.87,-443.87 149.87,-444.14"/>
</g>
<!-- 3&#45;&gt;1 -->
<g id="edge4" class="edge">
<title>3:s&#45;&gt;1:w</title>
<path fill="none" stroke="blue" d="M173.8,-539.18C173.8,-515.78 235.84,-516.12 200.8,-576.5 184.62,-604.39 153.99,-584.61 137.8,-612.5 119.87,-643.41 107.75,-690.65 133.67,-700.61"/>
<polygon fill="blue" stroke="blue" points="133.06,-704.06 143.5,-702.25 134.21,-697.16 133.06,-704.06"/>
</g>
<!-- 5 -->
<g id="node7" class="node">
<title>5</title>
<polygon fill="none" stroke="black" points="201.8,-504.5 174.8,-486.5 201.8,-468.5 228.8,-486.5 201.8,-504.5"/>
<text text-anchor="middle" x="201.8" y="-481.82" font-family="Helvetica,sans-Serif" font-size="14.00">5</text>
</g>
<!-- 3&#45;&gt;5 -->
<g id="edge8" class="edge">
<title>3:e&#45;&gt;5:n</title>
<path fill="none" stroke="blue" d="M202.62,-558.5C222.96,-558.5 208.23,-536.95 203.27,-515.76"/>
<polygon fill="blue" stroke="blue" points="206.76,-515.46 202,-506 199.82,-516.37 206.76,-515.46"/>
</g>
<!-- 4&#45;&gt;3 -->
<g id="edge7" class="edge">
<title>4:s&#45;&gt;3:w</title>
<path fill="none" stroke="black" d="M146.8,-395.18C146.8,-383.17 165.47,-387.53 173.8,-396.18 185.01,-407.8 175.83,-416.49 173.8,-432.5 170.69,-457.09 149.79,-516.01 145.99,-540.5 145.67,-542.6 144.88,-544.86 144.04,-547.04"/>
<polygon fill="black" stroke="black" points="140.56,-547.31 144.87,-556.99 147.53,-546.74 140.56,-547.31"/>
</g>
<!-- 6 -->
<g id="node8" class="node">
<title>6</title>
<polygon fill="none" stroke="black" points="174.8,-360.5 147.8,-342.5 174.8,-324.5 201.8,-342.5 174.8,-360.5"/>
<text text-anchor="middle" x="174.8" y="-337.82" font-family="Helvetica,sans-Serif" font-size="14.00">6</text>
</g>
<!-- 4&#45;&gt;6 -->
<g id="edge10" class="edge">
<title>4:w&#45;&gt;6:n</title>
<path fill="none" stroke="blue" d="M117.99,-414.5C109.98,-414.5 114.96,-403.43 118.99,-396.5 131.4,-375.17 162.06,-384.97 171.79,-371.52"/>
<polygon fill="blue" stroke="blue" points="175.14,-372.53 174.41,-361.96 168.39,-370.68 175.14,-372.53"/>
</g>
<!-- 5&#45;&gt;4 -->
<g id="edge9" class="edge">
<title>5:s&#45;&gt;4:e</title>
<path fill="none" stroke="black" d="M201.8,-468.5C201.8,-466.08 189.74,-438.67 181.86,-423.86"/>
<polygon fill="black" stroke="black" points="184.92,-422.13 176.46,-415.76 179.1,-426.02 184.92,-422.13"/>
</g>
<!-- 5&#45;&gt;6 -->
<g id="edge13" class="edge">
<title>5:e&#45;&gt;6:e</title>
<path fill="none" stroke="black" d="M230.62,-486.5C238.63,-486.5 230.65,-476.45 229.62,-468.5 228.09,-456.76 221.06,-378.06 210.58,-351.35"/>
<polygon fill="black" stroke="black" points="213.49,-349.39 204.55,-343.69 207.99,-353.71 213.49,-349.39"/>
</g>
<!-- 7 -->
<g id="node9" class="node">
<title>7</title>
<polygon fill="none" stroke="black" points="174.8,-288.5 147.8,-270.5 174.8,-252.5 201.8,-270.5 174.8,-288.5"/>
<text text-anchor="middle" x="174.8" y="-265.82" font-family="Helvetica,sans-Serif" font-size="14.00">7</text>
</g>
<!-- 6&#45;&gt;7 -->
<g id="edge11" class="edge">
<title>6:s&#45;&gt;7:n</title>
<path fill="none" stroke="black" d="M174.8,-324.5C174.8,-313.12 174.8,-307.82 174.8,-299.95"/>
<polygon fill="black" stroke="black" points="178.3,-300.01 174.8,-290.01 171.3,-300.01 178.3,-300.01"/>
</g>
<!-- 6&#45;&gt;7 -->
<g id="edge14" class="edge">
<title>6:w&#45;&gt;7:w</title>
<path fill="none" stroke="black" d="M145.99,-342.5C118.12,-342.5 114.52,-287.87 135.21,-273.78"/>
<polygon fill="black" stroke="black" points="136,-277.2 144.54,-270.94 133.96,-270.5 136,-277.2"/>
</g>
<!-- 7&#45;&gt;b -->
<g id="edge15" class="edge">
<title>7:e&#45;&gt;b:n</title>
<path fill="none" stroke="black" d="M203.62,-270.5C223.97,-270.5 208.52,-248.95 203.34,-227.76"/>
<polygon fill="black" stroke="black" points="206.82,-227.44 202.01,-218 199.89,-228.38 206.82,-227.44"/>
</g>
<!-- 7&#45;&gt;5 -->
<g id="edge12" class="edge">
<title>7:s&#45;&gt;5:w</title>
<path fill="none" stroke="blue" d="M174.8,-251.18C174.8,-239.17 192.79,-244.25 201.8,-252.18 268.02,-310.43 250.62,-385.04 225.8,-432.5 212.81,-457.35 187.67,-444.02 173.99,-468.5 173.29,-469.76 172.45,-472.44 171.84,-475.35"/>
<polygon fill="blue" stroke="blue" points="168.33,-475.41 172.84,-484.99 175.29,-474.69 168.33,-475.41"/>
</g>
</g>
</svg>
