<?xml version="1.0" encoding="UTF-8" standalone="no"?>
<!DOCTYPE svg PUBLIC "-//W3C//DTD SVG 1.1//EN"
 "http://www.w3.org/Graphics/SVG/1.1/DTD/svg11.dtd">
<!-- Generated by graphviz version 12.2.1 (20241206.2353)
 -->
<!-- Pages: 1 -->
<svg width="368pt" height="801pt"
 viewBox="0.00 0.00 368.25 800.50" xmlns="http://www.w3.org/2000/svg" xmlns:xlink="http://www.w3.org/1999/xlink">
<g id="graph0" class="graph" transform="scale(1 1) rotate(0) translate(4 796.5)">
<polygon fill="white" stroke="none" points="-4,4 -4,-796.5 364.25,-796.5 364.25,4 -4,4"/>
<text text-anchor="middle" x="180.12" y="-163.2" font-family="Helvetica,sans-Serif" font-size="14.00">1 1 2 3 4 5 2 6 3 4 5 6 7 7 </text>
<text text-anchor="middle" x="180.12" y="-145.95" font-family="Helvetica,sans-Serif" font-size="14.00">A double occurrence word</text>
<text text-anchor="middle" x="180.12" y="-128.7" font-family="Helvetica,sans-Serif" font-size="14.00">Already in ascending order</text>
<text text-anchor="middle" x="180.12" y="-111.45" font-family="Helvetica,sans-Serif" font-size="14.00">Palindrome: yes</text>
<text text-anchor="middle" x="180.12" y="-94.2" font-family="Helvetica,sans-Serif" font-size="14.00">Semi&#45;palindrome: yes</text>
<text text-anchor="middle" x="180.12" y="-76.95" font-family="Helvetica,sans-Serif" font-size="14.00">Irreducible: no</text>
<text text-anchor="middle" x="180.12" y="-59.7" font-family="Helvetica,sans-Serif" font-size="14.00">Strongly&#45;irreducible: no</text>
<text text-anchor="middle" x="180.12" y="-42.45" font-family="Helvetica,sans-Serif" font-size="14.00">Assembly number: 1</text>
<text text-anchor="middle" x="180.12" y="-25.2" font-family="Helvetica,sans-Serif" font-size="14.00">Edges in Hamiltonion set of polygonal paths: 1 3 5 7 9 11 </text>
<text text-anchor="middle" x="180.12" y="-7.95" font-family="Helvetica,sans-Serif" font-size="14.00">Realizable</text>
<!-- a -->
<!-- 1 -->
<g id="node3" class="node">
<title>1</title>
<polygon fill="none" stroke="black" points="168.32,-720.5 141.32,-702.5 168.32,-684.5 195.32,-702.5 168.32,-720.5"/>
<text text-anchor="middle" x="168.32" y="-697.83" font-family="Helvetica,sans-Serif" font-size="14.00">1</text>
</g>
<!-- a&#45;&gt;1 -->
<g id="edge1" class="edge">
<title>a:s&#45;&gt;1:n</title>
<path fill="none" stroke="black" d="M168.32,-756.5C168.32,-745.12 168.32,-739.82 168.32,-731.95"/>
<polygon fill="black" stroke="black" points="171.82,-732.01 168.32,-722.01 164.82,-732.01 171.82,-732.01"/>
</g>
<!-- b -->
<!-- 1&#45;&gt;1 -->
<g id="edge2" class="edge">
<title>1:s&#45;&gt;1:w</title>
<path fill="none" stroke="black" d="M168.32,-684.18C153.32,-666.18 123.32,-666.18 123.32,-693.34 123.32,-713.71 130.07,-718.8 135.63,-712.48"/>
<polygon fill="black" stroke="black" points="138.6,-714.38 139.84,-703.86 132.31,-711.31 138.6,-714.38"/>
</g>
<!-- 2 -->
<g id="node4" class="node">
<title>2</title>
<polygon fill="none" stroke="black" points="195.32,-648.5 168.32,-630.5 195.32,-612.5 222.32,-630.5 195.32,-648.5"/>
<text text-anchor="middle" x="195.32" y="-625.83" font-family="Helvetica,sans-Serif" font-size="14.00">2</text>
</g>
<!-- 1&#45;&gt;2 -->
<g id="edge3" class="edge">
<title>1:e&#45;&gt;2:n</title>
<path fill="none" stroke="blue" d="M197.13,-702.5C217.49,-702.5 202.03,-680.95 196.85,-659.76"/>
<polygon fill="blue" stroke="blue" points="200.34,-659.44 195.52,-650 193.4,-660.38 200.34,-659.44"/>
</g>
<!-- 3 -->
<g id="node5" class="node">
<title>3</title>
<polygon fill="none" stroke="black" points="195.32,-576.5 168.32,-558.5 195.32,-540.5 222.32,-558.5 195.32,-576.5"/>
<text text-anchor="middle" x="195.32" y="-553.83" font-family="Helvetica,sans-Serif" font-size="14.00">3</text>
</g>
<!-- 2&#45;&gt;3 -->
<g id="edge4" class="edge">
<title>2:s&#45;&gt;3:n</title>
<path fill="none" stroke="black" d="M195.32,-612.5C195.32,-601.12 195.32,-595.82 195.32,-587.95"/>
<polygon fill="black" stroke="black" points="198.82,-588.01 195.32,-578.01 191.82,-588.01 198.82,-588.01"/>
</g>
<!-- 6 -->
<g id="node8" class="node">
<title>6</title>
<polygon fill="none" stroke="black" points="140.32,-360.5 113.32,-342.5 140.32,-324.5 167.32,-342.5 140.32,-360.5"/>
<text text-anchor="middle" x="140.32" y="-337.82" font-family="Helvetica,sans-Serif" font-size="14.00">6</text>
</g>
<!-- 2&#45;&gt;6 -->
<g id="edge8" class="edge">
<title>2:w&#45;&gt;6:n</title>
<path fill="none" stroke="black" d="M166.51,-630.5C158.97,-630.5 141.11,-541.79 140.35,-371.81"/>
<polygon fill="black" stroke="black" points="143.85,-372.01 140.32,-362.01 136.85,-372.02 143.85,-372.01"/>
</g>
<!-- 4 -->
<g id="node6" class="node">
<title>4</title>
<polygon fill="none" stroke="black" points="195.32,-504.5 168.32,-486.5 195.32,-468.5 222.32,-486.5 195.32,-504.5"/>
<text text-anchor="middle" x="195.32" y="-481.82" font-family="Helvetica,sans-Serif" font-size="14.00">4</text>
</g>
<!-- 3&#45;&gt;4 -->
<g id="edge5" class="edge">
<title>3:s&#45;&gt;4:n</title>
<path fill="none" stroke="blue" d="M195.32,-540.5C195.32,-529.12 195.32,-523.82 195.32,-515.95"/>
<polygon fill="blue" stroke="blue" points="198.82,-516.01 195.32,-506.01 191.82,-516.01 198.82,-516.01"/>
</g>
<!-- 3&#45;&gt;4 -->
<g id="edge10" class="edge">
<title>3:e&#45;&gt;4:e</title>
<path fill="none" stroke="black" d="M224.13,-558.5C236.76,-558.5 239.42,-513.67 232.12,-494.76"/>
<polygon fill="black" stroke="black" points="234.65,-492.34 225.19,-487.59 229.62,-497.21 234.65,-492.34"/>
</g>
<!-- 5 -->
<g id="node7" class="node">
<title>5</title>
<polygon fill="none" stroke="black" points="195.32,-432.5 168.32,-414.5 195.32,-396.5 222.32,-414.5 195.32,-432.5"/>
<text text-anchor="middle" x="195.32" y="-409.82" font-family="Helvetica,sans-Serif" font-size="14.00">5</text>
</g>
<!-- 4&#45;&gt;5 -->
<g id="edge6" class="edge">
<title>4:s&#45;&gt;5:n</title>
<path fill="none" stroke="black" d="M195.32,-468.5C195.32,-457.12 195.32,-451.82 195.32,-443.95"/>
<polygon fill="black" stroke="black" points="198.82,-444.01 195.32,-434.01 191.82,-444.01 198.82,-444.01"/>
</g>
<!-- 4&#45;&gt;5 -->
<g id="edge11" class="edge">
<title>4:w&#45;&gt;5:w</title>
<path fill="none" stroke="blue" d="M166.51,-486.5C153.88,-486.5 151.22,-441.67 158.52,-422.76"/>
<polygon fill="blue" stroke="blue" points="161.02,-425.21 165.46,-415.59 155.99,-420.34 161.02,-425.21"/>
</g>
<!-- 5&#45;&gt;2 -->
<g id="edge7" class="edge">
<title>5:s&#45;&gt;2:e</title>
<path fill="none" stroke="blue" d="M195.32,-395.18C195.32,-383.17 213.47,-388.06 222.32,-396.18 296.16,-463.88 325.99,-618.15 235.46,-629.8"/>
<polygon fill="blue" stroke="blue" points="235.41,-626.3 225.64,-630.41 235.84,-633.28 235.41,-626.3"/>
</g>
<!-- 5&#45;&gt;6 -->
<g id="edge12" class="edge">
<title>5:e&#45;&gt;6:e</title>
<path fill="none" stroke="black" d="M224.13,-414.5C260.78,-414.5 218.52,-354.86 180.26,-344.14"/>
<polygon fill="black" stroke="black" points="181.03,-340.71 170.63,-342.72 180.01,-347.64 181.03,-340.71"/>
</g>
<!-- 6&#45;&gt;3 -->
<g id="edge9" class="edge">
<title>6:s&#45;&gt;3:w</title>
<path fill="none" stroke="blue" d="M140.32,-323.18C140.32,-311.17 158.99,-315.53 167.32,-324.18 178.52,-335.8 169.08,-344.45 167.32,-360.5 165.53,-376.79 161.11,-380.21 159.32,-396.5 154.08,-444.21 156.15,-456.61 159.32,-504.5 160.56,-523.19 149.7,-545.27 155.91,-554.32"/>
<polygon fill="blue" stroke="blue" points="154.51,-557.53 165.1,-557.94 157.08,-551.02 154.51,-557.53"/>
</g>
<!-- 7 -->
<g id="node9" class="node">
<title>7</title>
<polygon fill="none" stroke="black" points="113.32,-288.5 86.32,-270.5 113.32,-252.5 140.32,-270.5 113.32,-288.5"/>
<text text-anchor="middle" x="113.32" y="-265.82" font-family="Helvetica,sans-Serif" font-size="14.00">7</text>
</g>
<!-- 6&#45;&gt;7 -->
<g id="edge13" class="edge">
<title>6:w&#45;&gt;7:n</title>
<path fill="none" stroke="blue" d="M111.51,-342.5C91.15,-342.5 106.61,-320.95 111.79,-299.76"/>
<polygon fill="blue" stroke="blue" points="115.24,-300.38 113.12,-290 108.3,-299.44 115.24,-300.38"/>
</g>
<!-- 7&#45;&gt;b -->
<g id="edge15" class="edge">
<title>7:e&#45;&gt;b:n</title>
<path fill="none" stroke="black" d="M142.13,-270.5C162.49,-270.5 147.03,-248.95 141.85,-227.76"/>
<polygon fill="black" stroke="black" points="145.34,-227.44 140.52,-218 138.4,-228.38 145.34,-227.44"/>
</g>
<!-- 7&#45;&gt;7 -->
<g id="edge14" class="edge">
<title>7:s&#45;&gt;7:w</title>
<path fill="none" stroke="black" d="M113.32,-252.18C98.32,-234.18 68.32,-234.18 68.32,-261.34 68.32,-281.71 75.07,-286.8 80.63,-280.48"/>
<polygon fill="black" stroke="black" points="83.6,-282.38 84.84,-271.86 77.31,-279.31 83.6,-282.38"/>
</g>
</g>
</svg>
