<?xml version="1.0" encoding="UTF-8" standalone="no"?>
<!DOCTYPE svg PUBLIC "-//W3C//DTD SVG 1.1//EN"
 "http://www.w3.org/Graphics/SVG/1.1/DTD/svg11.dtd">
<!-- Generated by graphviz version 12.2.1 (20241206.2353)
 -->
<!-- Pages: 1 -->
<svg width="368pt" height="801pt"
 viewBox="0.00 0.00 368.25 800.50" xmlns="http://www.w3.org/2000/svg" xmlns:xlink="http://www.w3.org/1999/xlink">
<g id="graph0" class="graph" transform="scale(1 1) rotate(0) translate(4 796.5)">
<polygon fill="white" stroke="none" points="-4,4 -4,-796.5 364.25,-796.5 364.25,4 -4,4"/>
<text text-anchor="middle" x="180.12" y="-163.2" font-family="Helvetica,sans-Serif" font-size="14.00">1 1 2 3 4 2 3 5 6 4 5 6 7 7 </text>
<text text-anchor="middle" x="180.12" y="-145.95" font-family="Helvetica,sans-Serif" font-size="14.00">A double occurrence word</text>
<text text-anchor="middle" x="180.12" y="-128.7" font-family="Helvetica,sans-Serif" font-size="14.00">Already in ascending order</text>
<text text-anchor="middle" x="180.12" y="-111.45" font-family="Helvetica,sans-Serif" font-size="14.00">Palindrome: yes</text>
<text text-anchor="middle" x="180.12" y="-94.2" font-family="Helvetica,sans-Serif" font-size="14.00">Semi&#45;palindrome: yes</text>
<text text-anchor="middle" x="180.12" y="-76.95" font-family="Helvetica,sans-Serif" font-size="14.00">Irreducible: no</text>
<text text-anchor="middle" x="180.12" y="-59.7" font-family="Helvetica,sans-Serif" font-size="14.00">Strongly&#45;irreducible: no</text>
<text text-anchor="middle" x="180.12" y="-42.45" font-family="Helvetica,sans-Serif" font-size="14.00">Assembly number: 1</text>
<text text-anchor="middle" x="180.12" y="-25.2" font-family="Helvetica,sans-Serif" font-size="14.00">Edges in Hamiltonion set of polygonal paths: 1 3 5 7 9 11 </text>
<text text-anchor="middle" x="180.12" y="-7.95" font-family="Helvetica,sans-Serif" font-size="14.00">Realizable</text>
<!-- a -->
<!-- 1 -->
<g id="node3" class="node">
<title>1</title>
<polygon fill="none" stroke="black" points="134.97,-720.5 107.97,-702.5 134.97,-684.5 161.97,-702.5 134.97,-720.5"/>
<text text-anchor="middle" x="134.97" y="-697.83" font-family="Helvetica,sans-Serif" font-size="14.00">1</text>
</g>
<!-- a&#45;&gt;1 -->
<g id="edge1" class="edge">
<title>a:s&#45;&gt;1:n</title>
<path fill="none" stroke="black" d="M134.97,-756.5C134.97,-745.12 134.97,-739.82 134.97,-731.95"/>
<polygon fill="black" stroke="black" points="138.47,-732.01 134.97,-722.01 131.47,-732.01 138.47,-732.01"/>
</g>
<!-- b -->
<!-- 1&#45;&gt;1 -->
<g id="edge2" class="edge">
<title>1:s&#45;&gt;1:w</title>
<path fill="none" stroke="black" d="M134.97,-684.18C119.97,-666.18 89.97,-666.18 89.97,-693.34 89.97,-713.71 96.72,-718.8 102.28,-712.48"/>
<polygon fill="black" stroke="black" points="105.25,-714.38 106.49,-703.86 98.96,-711.31 105.25,-714.38"/>
</g>
<!-- 2 -->
<g id="node4" class="node">
<title>2</title>
<polygon fill="none" stroke="black" points="161.97,-648.5 134.97,-630.5 161.97,-612.5 188.97,-630.5 161.97,-648.5"/>
<text text-anchor="middle" x="161.97" y="-625.83" font-family="Helvetica,sans-Serif" font-size="14.00">2</text>
</g>
<!-- 1&#45;&gt;2 -->
<g id="edge3" class="edge">
<title>1:e&#45;&gt;2:n</title>
<path fill="none" stroke="blue" d="M163.78,-702.5C184.14,-702.5 168.68,-680.95 163.5,-659.76"/>
<polygon fill="blue" stroke="blue" points="166.99,-659.44 162.17,-650 160.05,-660.38 166.99,-659.44"/>
</g>
<!-- 3 -->
<g id="node5" class="node">
<title>3</title>
<polygon fill="none" stroke="black" points="161.97,-576.5 134.97,-558.5 161.97,-540.5 188.97,-558.5 161.97,-576.5"/>
<text text-anchor="middle" x="161.97" y="-553.83" font-family="Helvetica,sans-Serif" font-size="14.00">3</text>
</g>
<!-- 2&#45;&gt;3 -->
<g id="edge4" class="edge">
<title>2:s&#45;&gt;3:n</title>
<path fill="none" stroke="black" d="M161.97,-612.5C161.97,-601.12 161.97,-595.82 161.97,-587.95"/>
<polygon fill="black" stroke="black" points="165.47,-588.01 161.97,-578.01 158.47,-588.01 165.47,-588.01"/>
</g>
<!-- 2&#45;&gt;3 -->
<g id="edge7" class="edge">
<title>2:w&#45;&gt;3:w</title>
<path fill="none" stroke="blue" d="M133.16,-630.5C105.28,-630.5 101.69,-575.87 122.38,-561.78"/>
<polygon fill="blue" stroke="blue" points="123.16,-565.2 131.71,-558.94 121.12,-558.5 123.16,-565.2"/>
</g>
<!-- 4 -->
<g id="node6" class="node">
<title>4</title>
<polygon fill="none" stroke="black" points="161.97,-504.5 134.97,-486.5 161.97,-468.5 188.97,-486.5 161.97,-504.5"/>
<text text-anchor="middle" x="161.97" y="-481.82" font-family="Helvetica,sans-Serif" font-size="14.00">4</text>
</g>
<!-- 3&#45;&gt;4 -->
<g id="edge5" class="edge">
<title>3:s&#45;&gt;4:n</title>
<path fill="none" stroke="blue" d="M161.97,-540.5C161.97,-529.12 161.97,-523.82 161.97,-515.95"/>
<polygon fill="blue" stroke="blue" points="165.47,-516.01 161.97,-506.01 158.47,-516.01 165.47,-516.01"/>
</g>
<!-- 5 -->
<g id="node7" class="node">
<title>5</title>
<polygon fill="none" stroke="black" points="216.97,-432.5 189.97,-414.5 216.97,-396.5 243.97,-414.5 216.97,-432.5"/>
<text text-anchor="middle" x="216.97" y="-409.82" font-family="Helvetica,sans-Serif" font-size="14.00">5</text>
</g>
<!-- 3&#45;&gt;5 -->
<g id="edge8" class="edge">
<title>3:e&#45;&gt;5:n</title>
<path fill="none" stroke="black" d="M190.78,-558.5C244.29,-558.5 220.6,-498.28 217.32,-443.68"/>
<polygon fill="black" stroke="black" points="220.83,-443.9 217.02,-434.01 213.84,-444.12 220.83,-443.9"/>
</g>
<!-- 4&#45;&gt;2 -->
<g id="edge6" class="edge">
<title>4:s&#45;&gt;2:e</title>
<path fill="none" stroke="black" d="M161.97,-467.18C161.97,-455.17 180.12,-460.06 188.97,-468.18 191.23,-470.25 212.63,-591.88 199.21,-623.21"/>
<polygon fill="black" stroke="black" points="197.2,-620.32 191.93,-629.51 201.78,-625.61 197.2,-620.32"/>
</g>
<!-- 4&#45;&gt;5 -->
<g id="edge11" class="edge">
<title>4:w&#45;&gt;5:w</title>
<path fill="none" stroke="blue" d="M133.16,-486.5C125.14,-486.5 130.62,-475.69 134.16,-468.5 144.99,-446.5 159.66,-450.81 175.97,-432.5 178.58,-429.57 179.49,-426.05 180.29,-422.9"/>
<polygon fill="blue" stroke="blue" points="182.84,-425.3 187.12,-415.6 177.73,-420.51 182.84,-425.3"/>
</g>
<!-- 6 -->
<g id="node8" class="node">
<title>6</title>
<polygon fill="none" stroke="black" points="216.97,-360.5 189.97,-342.5 216.97,-324.5 243.97,-342.5 216.97,-360.5"/>
<text text-anchor="middle" x="216.97" y="-337.82" font-family="Helvetica,sans-Serif" font-size="14.00">6</text>
</g>
<!-- 5&#45;&gt;6 -->
<g id="edge9" class="edge">
<title>5:s&#45;&gt;6:n</title>
<path fill="none" stroke="blue" d="M216.97,-396.5C216.97,-385.12 216.97,-379.82 216.97,-371.95"/>
<polygon fill="blue" stroke="blue" points="220.47,-372.01 216.97,-362.01 213.47,-372.01 220.47,-372.01"/>
</g>
<!-- 5&#45;&gt;6 -->
<g id="edge12" class="edge">
<title>5:e&#45;&gt;6:e</title>
<path fill="none" stroke="black" d="M245.78,-414.5C273.66,-414.5 277.25,-359.87 256.56,-345.78"/>
<polygon fill="black" stroke="black" points="257.82,-342.5 247.23,-342.94 255.78,-349.2 257.82,-342.5"/>
</g>
<!-- 6&#45;&gt;4 -->
<g id="edge10" class="edge">
<title>6:s&#45;&gt;4:e</title>
<path fill="none" stroke="black" d="M216.97,-323.18C216.97,-299.78 279.01,-300.12 243.97,-360.5 227.78,-388.39 197.16,-368.61 180.97,-396.5 164.79,-424.38 185.03,-436.61 189.78,-468.5 190.09,-470.61 190.88,-472.86 191.71,-475.04"/>
<polygon fill="black" stroke="black" points="188.22,-474.74 190.9,-484.99 195.2,-475.31 188.22,-474.74"/>
</g>
<!-- 7 -->
<g id="node9" class="node">
<title>7</title>
<polygon fill="none" stroke="black" points="189.97,-288.5 162.97,-270.5 189.97,-252.5 216.97,-270.5 189.97,-288.5"/>
<text text-anchor="middle" x="189.97" y="-265.82" font-family="Helvetica,sans-Serif" font-size="14.00">7</text>
</g>
<!-- 6&#45;&gt;7 -->
<g id="edge13" class="edge">
<title>6:w&#45;&gt;7:n</title>
<path fill="none" stroke="blue" d="M188.16,-342.5C167.8,-342.5 183.26,-320.95 188.44,-299.76"/>
<polygon fill="blue" stroke="blue" points="191.89,-300.38 189.77,-290 184.95,-299.44 191.89,-300.38"/>
</g>
<!-- 7&#45;&gt;b -->
<g id="edge15" class="edge">
<title>7:e&#45;&gt;b:n</title>
<path fill="none" stroke="black" d="M218.78,-270.5C239.14,-270.5 223.68,-248.95 218.5,-227.76"/>
<polygon fill="black" stroke="black" points="221.99,-227.44 217.17,-218 215.05,-228.38 221.99,-227.44"/>
</g>
<!-- 7&#45;&gt;7 -->
<g id="edge14" class="edge">
<title>7:s&#45;&gt;7:w</title>
<path fill="none" stroke="black" d="M189.97,-252.18C174.97,-234.18 144.97,-234.18 144.97,-261.34 144.97,-281.71 151.72,-286.8 157.28,-280.48"/>
<polygon fill="black" stroke="black" points="160.25,-282.38 161.49,-271.86 153.96,-279.31 160.25,-282.38"/>
</g>
</g>
</svg>
