<?xml version="1.0" encoding="UTF-8" standalone="no"?>
<!DOCTYPE svg PUBLIC "-//W3C//DTD SVG 1.1//EN"
 "http://www.w3.org/Graphics/SVG/1.1/DTD/svg11.dtd">
<!-- Generated by graphviz version 12.2.1 (20241206.2353)
 -->
<!-- Pages: 1 -->
<svg width="368pt" height="801pt"
 viewBox="0.00 0.00 368.25 800.50" xmlns="http://www.w3.org/2000/svg" xmlns:xlink="http://www.w3.org/1999/xlink">
<g id="graph0" class="graph" transform="scale(1 1) rotate(0) translate(4 796.5)">
<polygon fill="white" stroke="none" points="-4,4 -4,-796.5 364.25,-796.5 364.25,4 -4,4"/>
<text text-anchor="middle" x="180.12" y="-163.2" font-family="Helvetica,sans-Serif" font-size="14.00">1 1 2 2 3 4 3 5 4 5 6 6 7 7 </text>
<text text-anchor="middle" x="180.12" y="-145.95" font-family="Helvetica,sans-Serif" font-size="14.00">A double occurrence word</text>
<text text-anchor="middle" x="180.12" y="-128.7" font-family="Helvetica,sans-Serif" font-size="14.00">Already in ascending order</text>
<text text-anchor="middle" x="180.12" y="-111.45" font-family="Helvetica,sans-Serif" font-size="14.00">Palindrome: yes</text>
<text text-anchor="middle" x="180.12" y="-94.2" font-family="Helvetica,sans-Serif" font-size="14.00">Semi&#45;palindrome: yes</text>
<text text-anchor="middle" x="180.12" y="-76.95" font-family="Helvetica,sans-Serif" font-size="14.00">Irreducible: no</text>
<text text-anchor="middle" x="180.12" y="-59.7" font-family="Helvetica,sans-Serif" font-size="14.00">Strongly&#45;irreducible: no</text>
<text text-anchor="middle" x="180.12" y="-42.45" font-family="Helvetica,sans-Serif" font-size="14.00">Assembly number: 1</text>
<text text-anchor="middle" x="180.12" y="-25.2" font-family="Helvetica,sans-Serif" font-size="14.00">Edges in Hamiltonion set of polygonal paths: 1 3 5 7 9 11 </text>
<text text-anchor="middle" x="180.12" y="-7.95" font-family="Helvetica,sans-Serif" font-size="14.00">Realizable</text>
<!-- a -->
<!-- 1 -->
<g id="node3" class="node">
<title>1</title>
<polygon fill="none" stroke="black" points="179.96,-720.5 152.96,-702.5 179.96,-684.5 206.96,-702.5 179.96,-720.5"/>
<text text-anchor="middle" x="179.96" y="-697.83" font-family="Helvetica,sans-Serif" font-size="14.00">1</text>
</g>
<!-- a&#45;&gt;1 -->
<g id="edge1" class="edge">
<title>a:s&#45;&gt;1:n</title>
<path fill="none" stroke="black" d="M179.96,-756.5C179.96,-745.12 179.96,-739.82 179.96,-731.95"/>
<polygon fill="black" stroke="black" points="183.46,-732.01 179.96,-722.01 176.46,-732.01 183.46,-732.01"/>
</g>
<!-- b -->
<!-- 1&#45;&gt;1 -->
<g id="edge2" class="edge">
<title>1:s&#45;&gt;1:w</title>
<path fill="none" stroke="black" d="M179.96,-684.18C164.96,-666.18 134.96,-666.18 134.96,-693.34 134.96,-713.71 141.71,-718.8 147.27,-712.48"/>
<polygon fill="black" stroke="black" points="150.24,-714.38 151.48,-703.86 143.95,-711.31 150.24,-714.38"/>
</g>
<!-- 2 -->
<g id="node4" class="node">
<title>2</title>
<polygon fill="none" stroke="black" points="206.96,-648.5 179.96,-630.5 206.96,-612.5 233.96,-630.5 206.96,-648.5"/>
<text text-anchor="middle" x="206.96" y="-625.83" font-family="Helvetica,sans-Serif" font-size="14.00">2</text>
</g>
<!-- 1&#45;&gt;2 -->
<g id="edge3" class="edge">
<title>1:e&#45;&gt;2:n</title>
<path fill="none" stroke="blue" d="M208.77,-702.5C229.13,-702.5 213.67,-680.95 208.49,-659.76"/>
<polygon fill="blue" stroke="blue" points="211.98,-659.44 207.16,-650 205.04,-660.38 211.98,-659.44"/>
</g>
<!-- 2&#45;&gt;2 -->
<g id="edge4" class="edge">
<title>2:s&#45;&gt;2:e</title>
<path fill="none" stroke="black" d="M206.96,-612.18C221.96,-594.18 251.96,-594.18 251.96,-621.34 251.96,-641.71 245.21,-646.8 239.65,-640.48"/>
<polygon fill="black" stroke="black" points="242.97,-639.31 235.44,-631.86 236.68,-642.38 242.97,-639.31"/>
</g>
<!-- 3 -->
<g id="node5" class="node">
<title>3</title>
<polygon fill="none" stroke="black" points="179.96,-576.5 152.96,-558.5 179.96,-540.5 206.96,-558.5 179.96,-576.5"/>
<text text-anchor="middle" x="179.96" y="-553.83" font-family="Helvetica,sans-Serif" font-size="14.00">3</text>
</g>
<!-- 2&#45;&gt;3 -->
<g id="edge5" class="edge">
<title>2:w&#45;&gt;3:n</title>
<path fill="none" stroke="blue" d="M178.15,-630.5C157.79,-630.5 173.25,-608.95 178.43,-587.76"/>
<polygon fill="blue" stroke="blue" points="181.88,-588.38 179.76,-578 174.94,-587.44 181.88,-588.38"/>
</g>
<!-- 4 -->
<g id="node6" class="node">
<title>4</title>
<polygon fill="none" stroke="black" points="152.96,-504.5 125.96,-486.5 152.96,-468.5 179.96,-486.5 152.96,-504.5"/>
<text text-anchor="middle" x="152.96" y="-481.82" font-family="Helvetica,sans-Serif" font-size="14.00">4</text>
</g>
<!-- 3&#45;&gt;4 -->
<g id="edge6" class="edge">
<title>3:s&#45;&gt;4:n</title>
<path fill="none" stroke="black" d="M179.96,-540.5C179.96,-525.19 164.13,-523.94 156.71,-515.23"/>
<polygon fill="black" stroke="black" points="160.07,-514.21 153.46,-505.93 153.46,-516.52 160.07,-514.21"/>
</g>
<!-- 5 -->
<g id="node7" class="node">
<title>5</title>
<polygon fill="none" stroke="black" points="179.96,-432.5 152.96,-414.5 179.96,-396.5 206.96,-414.5 179.96,-432.5"/>
<text text-anchor="middle" x="179.96" y="-409.82" font-family="Helvetica,sans-Serif" font-size="14.00">5</text>
</g>
<!-- 3&#45;&gt;5 -->
<g id="edge8" class="edge">
<title>3:e&#45;&gt;5:n</title>
<path fill="none" stroke="black" d="M208.77,-558.5C216.78,-558.5 209,-548.42 207.77,-540.5 207.39,-538.01 189.27,-470.32 182.49,-443.35"/>
<polygon fill="black" stroke="black" points="185.98,-442.92 180.3,-433.97 179.16,-444.51 185.98,-442.92"/>
</g>
<!-- 4&#45;&gt;3 -->
<g id="edge7" class="edge">
<title>4:s&#45;&gt;3:w</title>
<path fill="none" stroke="blue" d="M152.96,-467.18C152.96,-439.75 197.48,-453.17 179.96,-504.5 173.43,-523.64 159.21,-521.55 152.15,-540.5 151.36,-542.61 150.3,-544.96 149.37,-547.24"/>
<polygon fill="blue" stroke="blue" points="145.89,-547.67 150.91,-557.01 152.81,-546.58 145.89,-547.67"/>
</g>
<!-- 4&#45;&gt;5 -->
<g id="edge10" class="edge">
<title>4:w&#45;&gt;5:w</title>
<path fill="none" stroke="black" d="M124.15,-486.5C93.71,-486.5 111.8,-429.39 140.26,-416.9"/>
<polygon fill="black" stroke="black" points="140.65,-420.39 149.67,-414.83 139.15,-413.56 140.65,-420.39"/>
</g>
<!-- 5&#45;&gt;4 -->
<g id="edge9" class="edge">
<title>5:s&#45;&gt;4:e</title>
<path fill="none" stroke="blue" d="M179.96,-395.18C179.96,-383.17 198.63,-387.53 206.96,-396.18 218.16,-407.8 210.45,-416.74 206.96,-432.5 205.92,-437.2 196.59,-463.57 189.03,-477.65"/>
<polygon fill="blue" stroke="blue" points="186.36,-475.38 182.73,-485.33 191.78,-479.81 186.36,-475.38"/>
</g>
<!-- 6 -->
<g id="node8" class="node">
<title>6</title>
<polygon fill="none" stroke="black" points="206.96,-360.5 179.96,-342.5 206.96,-324.5 233.96,-342.5 206.96,-360.5"/>
<text text-anchor="middle" x="206.96" y="-337.82" font-family="Helvetica,sans-Serif" font-size="14.00">6</text>
</g>
<!-- 5&#45;&gt;6 -->
<g id="edge11" class="edge">
<title>5:e&#45;&gt;6:n</title>
<path fill="none" stroke="blue" d="M208.77,-414.5C229.13,-414.5 213.67,-392.95 208.49,-371.76"/>
<polygon fill="blue" stroke="blue" points="211.98,-371.44 207.16,-362 205.04,-372.38 211.98,-371.44"/>
</g>
<!-- 6&#45;&gt;6 -->
<g id="edge12" class="edge">
<title>6:s&#45;&gt;6:e</title>
<path fill="none" stroke="black" d="M206.96,-324.18C221.96,-306.18 251.96,-306.18 251.96,-333.34 251.96,-353.71 245.21,-358.8 239.65,-352.48"/>
<polygon fill="black" stroke="black" points="242.97,-351.31 235.44,-343.86 236.68,-354.38 242.97,-351.31"/>
</g>
<!-- 7 -->
<g id="node9" class="node">
<title>7</title>
<polygon fill="none" stroke="black" points="179.96,-288.5 152.96,-270.5 179.96,-252.5 206.96,-270.5 179.96,-288.5"/>
<text text-anchor="middle" x="179.96" y="-265.82" font-family="Helvetica,sans-Serif" font-size="14.00">7</text>
</g>
<!-- 6&#45;&gt;7 -->
<g id="edge13" class="edge">
<title>6:w&#45;&gt;7:n</title>
<path fill="none" stroke="blue" d="M178.15,-342.5C157.79,-342.5 173.25,-320.95 178.43,-299.76"/>
<polygon fill="blue" stroke="blue" points="181.88,-300.38 179.76,-290 174.94,-299.44 181.88,-300.38"/>
</g>
<!-- 7&#45;&gt;b -->
<g id="edge15" class="edge">
<title>7:e&#45;&gt;b:n</title>
<path fill="none" stroke="black" d="M208.77,-270.5C229.13,-270.5 213.67,-248.95 208.49,-227.76"/>
<polygon fill="black" stroke="black" points="211.98,-227.44 207.16,-218 205.04,-228.38 211.98,-227.44"/>
</g>
<!-- 7&#45;&gt;7 -->
<g id="edge14" class="edge">
<title>7:s&#45;&gt;7:w</title>
<path fill="none" stroke="black" d="M179.96,-252.18C164.96,-234.18 134.96,-234.18 134.96,-261.34 134.96,-281.71 141.71,-286.8 147.27,-280.48"/>
<polygon fill="black" stroke="black" points="150.24,-282.38 151.48,-271.86 143.95,-279.31 150.24,-282.38"/>
</g>
</g>
</svg>
