<?xml version="1.0" encoding="UTF-8" standalone="no"?>
<!DOCTYPE svg PUBLIC "-//W3C//DTD SVG 1.1//EN"
 "http://www.w3.org/Graphics/SVG/1.1/DTD/svg11.dtd">
<!-- Generated by graphviz version 12.2.1 (20241206.2353)
 -->
<!-- Pages: 1 -->
<svg width="370pt" height="737pt"
 viewBox="0.00 0.00 369.75 737.40" xmlns="http://www.w3.org/2000/svg" xmlns:xlink="http://www.w3.org/1999/xlink">
<g id="graph0" class="graph" transform="scale(1 1) rotate(0) translate(4 733.4)">
<polygon fill="white" stroke="none" points="-4,4 -4,-733.4 365.75,-733.4 365.75,4 -4,4"/>
<text text-anchor="middle" x="180.88" y="-163.2" font-family="Helvetica,sans-Serif" font-size="14.00">1 2 1 3 2 4 3 5 4 6 5 7 6 7 </text>
<text text-anchor="middle" x="180.88" y="-145.95" font-family="Helvetica,sans-Serif" font-size="14.00">A double occurrence word</text>
<text text-anchor="middle" x="180.88" y="-128.7" font-family="Helvetica,sans-Serif" font-size="14.00">Already in ascending order</text>
<text text-anchor="middle" x="180.88" y="-111.45" font-family="Helvetica,sans-Serif" font-size="14.00">Palindrome: yes</text>
<text text-anchor="middle" x="180.88" y="-94.2" font-family="Helvetica,sans-Serif" font-size="14.00">Semi&#45;palindrome: yes</text>
<text text-anchor="middle" x="180.88" y="-76.95" font-family="Helvetica,sans-Serif" font-size="14.00">Irreducible: yes</text>
<text text-anchor="middle" x="180.88" y="-59.7" font-family="Helvetica,sans-Serif" font-size="14.00">Strongly&#45;irreducible: yes</text>
<text text-anchor="middle" x="180.88" y="-42.45" font-family="Helvetica,sans-Serif" font-size="14.00">Assembly number: 1</text>
<text text-anchor="middle" x="180.88" y="-25.2" font-family="Helvetica,sans-Serif" font-size="14.00">Edges in Hamiltonion set of polygonal paths: 0 2 4 6 8 10 </text>
<text text-anchor="middle" x="180.88" y="-7.95" font-family="Helvetica,sans-Serif" font-size="14.00">Realizable</text>
<!-- a -->
<!-- 1 -->
<g id="node3" class="node">
<title>1</title>
<polygon fill="none" stroke="black" points="192.12,-657.4 165.12,-639.4 192.12,-621.4 219.12,-639.4 192.12,-657.4"/>
<text text-anchor="middle" x="192.12" y="-634.73" font-family="Helvetica,sans-Serif" font-size="14.00">1</text>
</g>
<!-- a&#45;&gt;1 -->
<g id="edge1" class="edge">
<title>a:s&#45;&gt;1:n</title>
<path fill="none" stroke="black" d="M192.12,-693.4C192.12,-682.03 192.12,-676.72 192.12,-668.85"/>
<polygon fill="black" stroke="black" points="195.62,-668.91 192.12,-658.91 188.62,-668.92 195.62,-668.91"/>
</g>
<!-- b -->
<!-- 2 -->
<g id="node4" class="node">
<title>2</title>
<polygon fill="none" stroke="black" points="165.12,-585.4 138.12,-567.4 165.12,-549.4 192.12,-567.4 165.12,-585.4"/>
<text text-anchor="middle" x="165.12" y="-562.73" font-family="Helvetica,sans-Serif" font-size="14.00">2</text>
</g>
<!-- 1&#45;&gt;2 -->
<g id="edge2" class="edge">
<title>1:s&#45;&gt;2:n</title>
<path fill="none" stroke="blue" d="M192.12,-621.4C192.12,-606.09 176.3,-604.84 168.88,-596.13"/>
<polygon fill="blue" stroke="blue" points="172.23,-595.11 165.62,-586.83 165.62,-597.42 172.23,-595.11"/>
</g>
<!-- 3 -->
<g id="node5" class="node">
<title>3</title>
<polygon fill="none" stroke="black" points="211.12,-441.4 184.12,-423.4 211.12,-405.4 238.12,-423.4 211.12,-441.4"/>
<text text-anchor="middle" x="211.12" y="-418.73" font-family="Helvetica,sans-Serif" font-size="14.00">3</text>
</g>
<!-- 1&#45;&gt;3 -->
<g id="edge4" class="edge">
<title>1:e&#45;&gt;3:n</title>
<path fill="none" stroke="blue" d="M220.94,-639.4C292.97,-639.4 222.16,-549.18 216.12,-477.4 215.15,-465.83 212.99,-460.64 211.86,-452.64"/>
<polygon fill="blue" stroke="blue" points="215.36,-452.66 211.22,-442.91 208.38,-453.12 215.36,-452.66"/>
</g>
<!-- 2&#45;&gt;1 -->
<g id="edge3" class="edge">
<title>2:s&#45;&gt;1:w</title>
<path fill="none" stroke="black" d="M165.12,-548.08C165.12,-520.65 209.64,-534.07 192.12,-585.4 185.59,-604.54 171.37,-602.45 164.31,-621.4 163.52,-623.51 162.47,-625.86 161.53,-628.14"/>
<polygon fill="black" stroke="black" points="158.06,-628.58 163.07,-637.91 164.97,-627.48 158.06,-628.58"/>
</g>
<!-- 4 -->
<g id="node6" class="node">
<title>4</title>
<polygon fill="none" stroke="black" points="137.12,-513.4 110.12,-495.4 137.12,-477.4 164.12,-495.4 137.12,-513.4"/>
<text text-anchor="middle" x="137.12" y="-490.73" font-family="Helvetica,sans-Serif" font-size="14.00">4</text>
</g>
<!-- 2&#45;&gt;4 -->
<g id="edge6" class="edge">
<title>2:w&#45;&gt;4:n</title>
<path fill="none" stroke="blue" d="M136.31,-567.4C115.96,-567.4 130.69,-545.85 135.66,-524.66"/>
<polygon fill="blue" stroke="blue" points="139.11,-525.27 136.93,-514.9 132.16,-524.37 139.11,-525.27"/>
</g>
<!-- 3&#45;&gt;2 -->
<g id="edge5" class="edge">
<title>3:s&#45;&gt;2:e</title>
<path fill="none" stroke="black" d="M211.12,-404.08C211.12,-392.07 229.79,-396.43 238.12,-405.08 249.32,-416.7 242.49,-425.86 238.12,-441.4 233.04,-459.45 223.34,-460.1 216.12,-477.4 202.06,-511.12 227.88,-555.8 205.19,-565.5"/>
<polygon fill="black" stroke="black" points="204.7,-562.03 195.43,-567.15 205.87,-568.93 204.7,-562.03"/>
</g>
<!-- 5 -->
<g id="node7" class="node">
<title>5</title>
<polygon fill="none" stroke="black" points="175.12,-369.4 148.12,-351.4 175.12,-333.4 202.12,-351.4 175.12,-369.4"/>
<text text-anchor="middle" x="175.12" y="-346.73" font-family="Helvetica,sans-Serif" font-size="14.00">5</text>
</g>
<!-- 3&#45;&gt;5 -->
<g id="edge8" class="edge">
<title>3:e&#45;&gt;5:n</title>
<path fill="none" stroke="blue" d="M239.94,-423.4C247.95,-423.4 243.17,-412.21 238.94,-405.4 224.29,-381.85 188.31,-395.92 177.96,-380.5"/>
<polygon fill="blue" stroke="blue" points="181.36,-379.69 175.5,-370.87 174.58,-381.42 181.36,-379.69"/>
</g>
<!-- 4&#45;&gt;3 -->
<g id="edge7" class="edge">
<title>4:s&#45;&gt;3:w</title>
<path fill="none" stroke="black" d="M137.12,-477.4C137.12,-455.7 156.67,-458.43 170.12,-441.4 172.65,-438.2 173.49,-434.5 174.35,-431.29"/>
<polygon fill="black" stroke="black" points="176.59,-433.99 181.23,-424.47 171.67,-429.02 176.59,-433.99"/>
</g>
<!-- 6 -->
<g id="node8" class="node">
<title>6</title>
<polygon fill="none" stroke="black" points="153.12,-225.4 126.12,-207.4 153.12,-189.4 180.12,-207.4 153.12,-225.4"/>
<text text-anchor="middle" x="153.12" y="-202.73" font-family="Helvetica,sans-Serif" font-size="14.00">6</text>
</g>
<!-- 4&#45;&gt;6 -->
<g id="edge10" class="edge">
<title>4:w&#45;&gt;6:n</title>
<path fill="none" stroke="blue" d="M108.31,-495.4C100.3,-495.4 108.5,-485.37 109.31,-477.4 119.08,-380.86 118.62,-355.79 141.12,-261.4 143.96,-249.48 149.01,-244.78 151.56,-236.63"/>
<polygon fill="blue" stroke="blue" points="155,-237.29 152.91,-226.9 148.07,-236.32 155,-237.29"/>
</g>
<!-- 5&#45;&gt;4 -->
<g id="edge9" class="edge">
<title>5:s&#45;&gt;4:e</title>
<path fill="none" stroke="black" d="M175.12,-332.08C175.12,-320.07 193.79,-324.43 202.12,-333.08 213.32,-344.7 207.23,-354.09 202.12,-369.4 195.8,-388.38 182.4,-386.77 175.12,-405.4 169.32,-420.25 179.58,-468.14 174.06,-487.34"/>
<polygon fill="black" stroke="black" points="171.64,-484.81 167.01,-494.34 176.57,-489.77 171.64,-484.81"/>
</g>
<!-- 7 -->
<g id="node9" class="node">
<title>7</title>
<polygon fill="none" stroke="black" points="203.12,-297.4 176.12,-279.4 203.12,-261.4 230.12,-279.4 203.12,-297.4"/>
<text text-anchor="middle" x="203.12" y="-274.73" font-family="Helvetica,sans-Serif" font-size="14.00">7</text>
</g>
<!-- 5&#45;&gt;7 -->
<g id="edge12" class="edge">
<title>5:e&#45;&gt;7:n</title>
<path fill="none" stroke="blue" d="M203.94,-351.4C224.28,-351.4 209.55,-329.85 204.59,-308.66"/>
<polygon fill="blue" stroke="blue" points="208.08,-308.37 203.32,-298.9 201.14,-309.27 208.08,-308.37"/>
</g>
<!-- 6&#45;&gt;5 -->
<g id="edge11" class="edge">
<title>6:s&#45;&gt;5:w</title>
<path fill="none" stroke="black" d="M153.12,-188.08C153.12,-176.07 171.79,-180.43 180.12,-189.08 191.32,-200.7 182.91,-209.5 180.12,-225.4 170.91,-278.05 100.67,-340.71 135.18,-350.18"/>
<polygon fill="black" stroke="black" points="134.48,-353.62 144.81,-351.24 135.25,-346.66 134.48,-353.62"/>
</g>
<!-- 6&#45;&gt;7 -->
<g id="edge14" class="edge">
<title>6:w&#45;&gt;7:w</title>
<path fill="none" stroke="black" d="M124.31,-207.4C116.3,-207.4 122,-218.11 125.31,-225.4 134.77,-246.24 147.45,-243.84 162.12,-261.4 164.74,-264.53 165.59,-268.22 166.44,-271.45"/>
<polygon fill="black" stroke="black" points="163.72,-273.68 173.25,-278.33 168.7,-268.76 163.72,-273.68"/>
</g>
<!-- 7&#45;&gt;b -->
<g id="edge15" class="edge">
<title>7:e&#45;&gt;b:n</title>
<path fill="none" stroke="black" d="M231.94,-279.4C252.29,-279.4 236.83,-257.86 231.65,-236.67"/>
<polygon fill="black" stroke="black" points="235.14,-236.34 230.33,-226.9 228.2,-237.28 235.14,-236.34"/>
</g>
<!-- 7&#45;&gt;6 -->
<g id="edge13" class="edge">
<title>7:s&#45;&gt;6:e</title>
<path fill="none" stroke="black" d="M203.12,-261.4C203.12,-256.72 195.34,-230.33 188.61,-216.26"/>
<polygon fill="black" stroke="black" points="191.66,-214.49 182.85,-208.61 186.07,-218.7 191.66,-214.49"/>
</g>
</g>
</svg>
