<?xml version="1.0" encoding="UTF-8" standalone="no"?>
<!DOCTYPE svg PUBLIC "-//W3C//DTD SVG 1.1//EN"
 "http://www.w3.org/Graphics/SVG/1.1/DTD/svg11.dtd">
<!-- Generated by graphviz version 12.2.1 (20241206.2353)
 -->
<!-- Pages: 1 -->
<svg width="370pt" height="801pt"
 viewBox="0.00 0.00 369.75 800.50" xmlns="http://www.w3.org/2000/svg" xmlns:xlink="http://www.w3.org/1999/xlink">
<g id="graph0" class="graph" transform="scale(1 1) rotate(0) translate(4 796.5)">
<polygon fill="white" stroke="none" points="-4,4 -4,-796.5 365.75,-796.5 365.75,4 -4,4"/>
<text text-anchor="middle" x="180.88" y="-163.2" font-family="Helvetica,sans-Serif" font-size="14.00">1 2 3 1 4 2 3 5 6 4 7 5 6 7 </text>
<text text-anchor="middle" x="180.88" y="-145.95" font-family="Helvetica,sans-Serif" font-size="14.00">A double occurrence word</text>
<text text-anchor="middle" x="180.88" y="-128.7" font-family="Helvetica,sans-Serif" font-size="14.00">Already in ascending order</text>
<text text-anchor="middle" x="180.88" y="-111.45" font-family="Helvetica,sans-Serif" font-size="14.00">Palindrome: yes</text>
<text text-anchor="middle" x="180.88" y="-94.2" font-family="Helvetica,sans-Serif" font-size="14.00">Semi&#45;palindrome: yes</text>
<text text-anchor="middle" x="180.88" y="-76.95" font-family="Helvetica,sans-Serif" font-size="14.00">Irreducible: yes</text>
<text text-anchor="middle" x="180.88" y="-59.7" font-family="Helvetica,sans-Serif" font-size="14.00">Strongly&#45;irreducible: yes</text>
<text text-anchor="middle" x="180.88" y="-42.45" font-family="Helvetica,sans-Serif" font-size="14.00">Assembly number: 1</text>
<text text-anchor="middle" x="180.88" y="-25.2" font-family="Helvetica,sans-Serif" font-size="14.00">Edges in Hamiltonion set of polygonal paths: 0 2 4 6 8 10 </text>
<text text-anchor="middle" x="180.88" y="-7.95" font-family="Helvetica,sans-Serif" font-size="14.00">Realizable</text>
<!-- a -->
<!-- 1 -->
<g id="node3" class="node">
<title>1</title>
<polygon fill="none" stroke="black" points="216.73,-720.5 189.73,-702.5 216.73,-684.5 243.73,-702.5 216.73,-720.5"/>
<text text-anchor="middle" x="216.73" y="-697.83" font-family="Helvetica,sans-Serif" font-size="14.00">1</text>
</g>
<!-- a&#45;&gt;1 -->
<g id="edge1" class="edge">
<title>a:s&#45;&gt;1:n</title>
<path fill="none" stroke="black" d="M216.73,-756.5C216.73,-745.12 216.73,-739.82 216.73,-731.95"/>
<polygon fill="black" stroke="black" points="220.23,-732.01 216.73,-722.01 213.23,-732.01 220.23,-732.01"/>
</g>
<!-- b -->
<!-- 2 -->
<g id="node4" class="node">
<title>2</title>
<polygon fill="none" stroke="black" points="216.73,-648.5 189.73,-630.5 216.73,-612.5 243.73,-630.5 216.73,-648.5"/>
<text text-anchor="middle" x="216.73" y="-625.83" font-family="Helvetica,sans-Serif" font-size="14.00">2</text>
</g>
<!-- 1&#45;&gt;2 -->
<g id="edge2" class="edge">
<title>1:s&#45;&gt;2:n</title>
<path fill="none" stroke="blue" d="M216.73,-684.5C216.73,-673.12 216.73,-667.82 216.73,-659.95"/>
<polygon fill="blue" stroke="blue" points="220.23,-660.01 216.73,-650.01 213.23,-660.01 220.23,-660.01"/>
</g>
<!-- 4 -->
<g id="node6" class="node">
<title>4</title>
<polygon fill="none" stroke="black" points="216.73,-360.5 189.73,-342.5 216.73,-324.5 243.73,-342.5 216.73,-360.5"/>
<text text-anchor="middle" x="216.73" y="-337.82" font-family="Helvetica,sans-Serif" font-size="14.00">4</text>
</g>
<!-- 1&#45;&gt;4 -->
<g id="edge5" class="edge">
<title>1:e&#45;&gt;4:n</title>
<path fill="none" stroke="black" d="M245.55,-702.5C311.1,-702.5 281.73,-625.06 281.73,-559.5 281.73,-559.5 281.73,-559.5 281.73,-485.5 281.73,-445.46 288.87,-430.51 267.73,-396.5 255.6,-376.99 228.59,-384.13 219.66,-371.41"/>
<polygon fill="black" stroke="black" points="223.1,-370.71 217.12,-361.96 216.34,-372.53 223.1,-370.71"/>
</g>
<!-- 3 -->
<g id="node5" class="node">
<title>3</title>
<polygon fill="none" stroke="black" points="175.73,-576.5 148.73,-558.5 175.73,-540.5 202.73,-558.5 175.73,-576.5"/>
<text text-anchor="middle" x="175.73" y="-553.83" font-family="Helvetica,sans-Serif" font-size="14.00">3</text>
</g>
<!-- 2&#45;&gt;3 -->
<g id="edge3" class="edge">
<title>2:s&#45;&gt;3:n</title>
<path fill="none" stroke="black" d="M216.73,-612.5C216.73,-592.99 190.18,-597.27 179.81,-587.05"/>
<polygon fill="black" stroke="black" points="183.15,-585.98 176.28,-577.91 176.62,-588.5 183.15,-585.98"/>
</g>
<!-- 2&#45;&gt;3 -->
<g id="edge7" class="edge">
<title>2:w&#45;&gt;3:w</title>
<path fill="none" stroke="black" d="M187.92,-630.5C178.26,-630.5 181.4,-620.33 175.73,-612.5 163.88,-596.12 154.98,-595.45 147.92,-576.5 147.13,-574.39 146.08,-572.04 145.14,-569.76"/>
<polygon fill="black" stroke="black" points="148.58,-570.42 146.68,-559.99 141.67,-569.33 148.58,-570.42"/>
</g>
<!-- 3&#45;&gt;1 -->
<g id="edge4" class="edge">
<title>3:s&#45;&gt;1:w</title>
<path fill="none" stroke="blue" d="M175.73,-539.18C175.73,-527.17 194.4,-531.53 202.73,-540.18 213.93,-551.8 207.1,-560.96 202.73,-576.5 197.65,-594.55 185.81,-594.45 180.73,-612.5 171.1,-646.75 152.65,-691.02 176.57,-700.62"/>
<polygon fill="blue" stroke="blue" points="175.99,-704.07 186.43,-702.25 177.14,-697.16 175.99,-704.07"/>
</g>
<!-- 5 -->
<g id="node7" class="node">
<title>5</title>
<polygon fill="none" stroke="black" points="188.73,-504.5 161.73,-486.5 188.73,-468.5 215.73,-486.5 188.73,-504.5"/>
<text text-anchor="middle" x="188.73" y="-481.82" font-family="Helvetica,sans-Serif" font-size="14.00">5</text>
</g>
<!-- 3&#45;&gt;5 -->
<g id="edge8" class="edge">
<title>3:e&#45;&gt;5:n</title>
<path fill="none" stroke="blue" d="M204.55,-558.5C212.56,-558.5 205.32,-548.31 203.55,-540.5 200.74,-528.11 194.06,-523.83 190.72,-515.58"/>
<polygon fill="blue" stroke="blue" points="194.21,-515.22 189,-505.99 187.32,-516.45 194.21,-515.22"/>
</g>
<!-- 4&#45;&gt;2 -->
<g id="edge6" class="edge">
<title>4:s&#45;&gt;2:e</title>
<path fill="none" stroke="blue" d="M216.73,-323.18C216.73,-311.17 235.37,-315.56 243.73,-324.18 265.16,-346.28 277.15,-578.9 254.08,-623.23"/>
<polygon fill="blue" stroke="blue" points="252.04,-620.37 246.7,-629.52 256.58,-625.7 252.04,-620.37"/>
</g>
<!-- 7 -->
<g id="node9" class="node">
<title>7</title>
<polygon fill="none" stroke="black" points="133.73,-288.5 106.73,-270.5 133.73,-252.5 160.73,-270.5 133.73,-288.5"/>
<text text-anchor="middle" x="133.73" y="-265.82" font-family="Helvetica,sans-Serif" font-size="14.00">7</text>
</g>
<!-- 4&#45;&gt;7 -->
<g id="edge11" class="edge">
<title>4:w&#45;&gt;7:n</title>
<path fill="none" stroke="black" d="M187.92,-342.5C173.97,-342.5 146.44,-317.6 137,-299.27"/>
<polygon fill="black" stroke="black" points="140.43,-298.5 134.17,-289.95 133.73,-300.53 140.43,-298.5"/>
</g>
<!-- 6 -->
<g id="node8" class="node">
<title>6</title>
<polygon fill="none" stroke="black" points="188.73,-432.5 161.73,-414.5 188.73,-396.5 215.73,-414.5 188.73,-432.5"/>
<text text-anchor="middle" x="188.73" y="-409.82" font-family="Helvetica,sans-Serif" font-size="14.00">6</text>
</g>
<!-- 5&#45;&gt;6 -->
<g id="edge9" class="edge">
<title>5:s&#45;&gt;6:n</title>
<path fill="none" stroke="black" d="M188.73,-468.5C188.73,-457.12 188.73,-451.82 188.73,-443.95"/>
<polygon fill="black" stroke="black" points="192.23,-444.01 188.73,-434.01 185.23,-444.01 192.23,-444.01"/>
</g>
<!-- 5&#45;&gt;6 -->
<g id="edge13" class="edge">
<title>5:e&#45;&gt;6:e</title>
<path fill="none" stroke="black" d="M217.55,-486.5C230.17,-486.5 232.83,-441.67 225.53,-422.76"/>
<polygon fill="black" stroke="black" points="228.07,-420.34 218.6,-415.59 223.03,-425.21 228.07,-420.34"/>
</g>
<!-- 6&#45;&gt;4 -->
<g id="edge10" class="edge">
<title>6:s&#45;&gt;4:e</title>
<path fill="none" stroke="blue" d="M188.73,-396.5C188.73,-366.98 229.71,-386.02 244.55,-360.5 245.74,-358.44 247.02,-356.02 248.02,-353.63"/>
<polygon fill="blue" stroke="blue" points="251.46,-352.98 245.87,-343.98 244.63,-354.5 251.46,-352.98"/>
</g>
<!-- 6&#45;&gt;7 -->
<g id="edge14" class="edge">
<title>6:w&#45;&gt;7:w</title>
<path fill="none" stroke="black" d="M159.92,-414.5C95.56,-414.5 43.12,-287.41 93.81,-272.02"/>
<polygon fill="black" stroke="black" points="93.99,-275.53 103.42,-270.71 93.04,-268.59 93.99,-275.53"/>
</g>
<!-- 7&#45;&gt;b -->
<g id="edge15" class="edge">
<title>7:e&#45;&gt;b:n</title>
<path fill="none" stroke="black" d="M162.55,-270.5C182.9,-270.5 167.44,-248.95 162.26,-227.76"/>
<polygon fill="black" stroke="black" points="165.75,-227.44 160.94,-218 158.81,-228.38 165.75,-227.44"/>
</g>
<!-- 7&#45;&gt;5 -->
<g id="edge12" class="edge">
<title>7:s&#45;&gt;5:w</title>
<path fill="none" stroke="blue" d="M133.73,-251.18C133.73,-239.17 152.4,-243.53 160.73,-252.18 171.93,-263.8 161.33,-272.37 160.73,-288.5 159.44,-323.45 141.67,-444.56 152.25,-477.93"/>
<polygon fill="blue" stroke="blue" points="149.64,-480.25 158.91,-485.37 154.85,-475.59 149.64,-480.25"/>
</g>
</g>
</svg>
