<?xml version="1.0" encoding="UTF-8" standalone="no"?>
<!DOCTYPE svg PUBLIC "-//W3C//DTD SVG 1.1//EN"
 "http://www.w3.org/Graphics/SVG/1.1/DTD/svg11.dtd">
<!-- Generated by graphviz version 12.2.1 (20241206.2353)
 -->
<!-- Pages: 1 -->
<svg width="368pt" height="801pt"
 viewBox="0.00 0.00 368.25 800.50" xmlns="http://www.w3.org/2000/svg" xmlns:xlink="http://www.w3.org/1999/xlink">
<g id="graph0" class="graph" transform="scale(1 1) rotate(0) translate(4 796.5)">
<polygon fill="white" stroke="none" points="-4,4 -4,-796.5 364.25,-796.5 364.25,4 -4,4"/>
<text text-anchor="middle" x="180.12" y="-163.2" font-family="Helvetica,sans-Serif" font-size="14.00">1 1 2 3 2 3 4 4 5 6 5 6 7 7 </text>
<text text-anchor="middle" x="180.12" y="-145.95" font-family="Helvetica,sans-Serif" font-size="14.00">A double occurrence word</text>
<text text-anchor="middle" x="180.12" y="-128.7" font-family="Helvetica,sans-Serif" font-size="14.00">Already in ascending order</text>
<text text-anchor="middle" x="180.12" y="-111.45" font-family="Helvetica,sans-Serif" font-size="14.00">Palindrome: yes</text>
<text text-anchor="middle" x="180.12" y="-94.2" font-family="Helvetica,sans-Serif" font-size="14.00">Semi&#45;palindrome: yes</text>
<text text-anchor="middle" x="180.12" y="-76.95" font-family="Helvetica,sans-Serif" font-size="14.00">Irreducible: no</text>
<text text-anchor="middle" x="180.12" y="-59.7" font-family="Helvetica,sans-Serif" font-size="14.00">Strongly&#45;irreducible: no</text>
<text text-anchor="middle" x="180.12" y="-42.45" font-family="Helvetica,sans-Serif" font-size="14.00">Assembly number: 1</text>
<text text-anchor="middle" x="180.12" y="-25.2" font-family="Helvetica,sans-Serif" font-size="14.00">Edges in Hamiltonion set of polygonal paths: 1 3 5 7 9 11 </text>
<text text-anchor="middle" x="180.12" y="-7.95" font-family="Helvetica,sans-Serif" font-size="14.00">Realizable</text>
<!-- a -->
<!-- 1 -->
<g id="node3" class="node">
<title>1</title>
<polygon fill="none" stroke="black" points="153.12,-720.5 126.12,-702.5 153.12,-684.5 180.12,-702.5 153.12,-720.5"/>
<text text-anchor="middle" x="153.12" y="-697.83" font-family="Helvetica,sans-Serif" font-size="14.00">1</text>
</g>
<!-- a&#45;&gt;1 -->
<g id="edge1" class="edge">
<title>a:s&#45;&gt;1:n</title>
<path fill="none" stroke="black" d="M153.12,-756.5C153.12,-745.12 153.12,-739.82 153.12,-731.95"/>
<polygon fill="black" stroke="black" points="156.63,-732.01 153.13,-722.01 149.63,-732.01 156.63,-732.01"/>
</g>
<!-- b -->
<!-- 1&#45;&gt;1 -->
<g id="edge2" class="edge">
<title>1:s&#45;&gt;1:w</title>
<path fill="none" stroke="black" d="M153.12,-684.18C138.12,-666.18 108.12,-666.18 108.12,-693.34 108.12,-713.71 114.88,-718.8 120.44,-712.48"/>
<polygon fill="black" stroke="black" points="123.41,-714.38 124.65,-703.86 117.12,-711.31 123.41,-714.38"/>
</g>
<!-- 2 -->
<g id="node4" class="node">
<title>2</title>
<polygon fill="none" stroke="black" points="180.12,-648.5 153.12,-630.5 180.12,-612.5 207.12,-630.5 180.12,-648.5"/>
<text text-anchor="middle" x="180.12" y="-625.83" font-family="Helvetica,sans-Serif" font-size="14.00">2</text>
</g>
<!-- 1&#45;&gt;2 -->
<g id="edge3" class="edge">
<title>1:e&#45;&gt;2:n</title>
<path fill="none" stroke="blue" d="M181.94,-702.5C202.29,-702.5 186.84,-680.95 181.66,-659.76"/>
<polygon fill="blue" stroke="blue" points="185.14,-659.44 180.33,-650 178.21,-660.38 185.14,-659.44"/>
</g>
<!-- 3 -->
<g id="node5" class="node">
<title>3</title>
<polygon fill="none" stroke="black" points="180.12,-576.5 153.12,-558.5 180.12,-540.5 207.12,-558.5 180.12,-576.5"/>
<text text-anchor="middle" x="180.12" y="-553.83" font-family="Helvetica,sans-Serif" font-size="14.00">3</text>
</g>
<!-- 2&#45;&gt;3 -->
<g id="edge4" class="edge">
<title>2:s&#45;&gt;3:n</title>
<path fill="none" stroke="black" d="M180.12,-612.5C180.12,-601.12 180.12,-595.82 180.12,-587.95"/>
<polygon fill="black" stroke="black" points="183.63,-588.01 180.13,-578.01 176.63,-588.01 183.63,-588.01"/>
</g>
<!-- 2&#45;&gt;3 -->
<g id="edge6" class="edge">
<title>2:w&#45;&gt;3:w</title>
<path fill="none" stroke="black" d="M151.31,-630.5C123.44,-630.5 119.84,-575.87 140.53,-561.78"/>
<polygon fill="black" stroke="black" points="141.32,-565.2 149.86,-558.94 139.28,-558.5 141.32,-565.2"/>
</g>
<!-- 3&#45;&gt;2 -->
<g id="edge5" class="edge">
<title>3:s&#45;&gt;2:e</title>
<path fill="none" stroke="blue" d="M180.12,-539.18C180.12,-527.17 198.71,-531.62 207.12,-540.18 232.2,-565.68 245.89,-617.4 220.23,-628.41"/>
<polygon fill="blue" stroke="blue" points="219.62,-624.96 210.43,-630.22 220.9,-631.85 219.62,-624.96"/>
</g>
<!-- 4 -->
<g id="node6" class="node">
<title>4</title>
<polygon fill="none" stroke="black" points="207.12,-504.5 180.12,-486.5 207.12,-468.5 234.12,-486.5 207.12,-504.5"/>
<text text-anchor="middle" x="207.12" y="-481.82" font-family="Helvetica,sans-Serif" font-size="14.00">4</text>
</g>
<!-- 3&#45;&gt;4 -->
<g id="edge7" class="edge">
<title>3:e&#45;&gt;4:n</title>
<path fill="none" stroke="blue" d="M208.94,-558.5C229.29,-558.5 213.84,-536.95 208.66,-515.76"/>
<polygon fill="blue" stroke="blue" points="212.14,-515.44 207.33,-506 205.21,-516.38 212.14,-515.44"/>
</g>
<!-- 4&#45;&gt;4 -->
<g id="edge8" class="edge">
<title>4:s&#45;&gt;4:e</title>
<path fill="none" stroke="black" d="M207.12,-468.18C222.12,-450.18 252.12,-450.18 252.12,-477.34 252.12,-497.71 245.38,-502.8 239.81,-496.48"/>
<polygon fill="black" stroke="black" points="243.13,-495.31 235.6,-487.86 236.84,-498.38 243.13,-495.31"/>
</g>
<!-- 5 -->
<g id="node7" class="node">
<title>5</title>
<polygon fill="none" stroke="black" points="180.12,-432.5 153.12,-414.5 180.12,-396.5 207.12,-414.5 180.12,-432.5"/>
<text text-anchor="middle" x="180.12" y="-409.82" font-family="Helvetica,sans-Serif" font-size="14.00">5</text>
</g>
<!-- 4&#45;&gt;5 -->
<g id="edge9" class="edge">
<title>4:w&#45;&gt;5:n</title>
<path fill="none" stroke="blue" d="M178.31,-486.5C157.96,-486.5 173.41,-464.95 178.59,-443.76"/>
<polygon fill="blue" stroke="blue" points="182.04,-444.38 179.92,-434 175.11,-443.44 182.04,-444.38"/>
</g>
<!-- 6 -->
<g id="node8" class="node">
<title>6</title>
<polygon fill="none" stroke="black" points="180.12,-360.5 153.12,-342.5 180.12,-324.5 207.12,-342.5 180.12,-360.5"/>
<text text-anchor="middle" x="180.12" y="-337.82" font-family="Helvetica,sans-Serif" font-size="14.00">6</text>
</g>
<!-- 5&#45;&gt;6 -->
<g id="edge10" class="edge">
<title>5:s&#45;&gt;6:n</title>
<path fill="none" stroke="black" d="M180.12,-396.5C180.12,-385.12 180.12,-379.82 180.12,-371.95"/>
<polygon fill="black" stroke="black" points="183.63,-372.01 180.13,-362.01 176.63,-372.01 183.63,-372.01"/>
</g>
<!-- 5&#45;&gt;6 -->
<g id="edge12" class="edge">
<title>5:e&#45;&gt;6:e</title>
<path fill="none" stroke="black" d="M208.94,-414.5C236.81,-414.5 240.41,-359.87 219.72,-345.78"/>
<polygon fill="black" stroke="black" points="220.97,-342.5 210.39,-342.94 218.93,-349.2 220.97,-342.5"/>
</g>
<!-- 6&#45;&gt;5 -->
<g id="edge11" class="edge">
<title>6:s&#45;&gt;5:w</title>
<path fill="none" stroke="blue" d="M180.12,-323.18C180.12,-311.17 198.79,-315.53 207.12,-324.18 218.33,-335.8 214.79,-346.29 207.12,-360.5 193.28,-386.15 166.86,-371.24 152.31,-396.5 151.13,-398.56 149.85,-400.98 148.85,-403.37"/>
<polygon fill="blue" stroke="blue" points="145.41,-404.01 150.99,-413.02 152.24,-402.5 145.41,-404.01"/>
</g>
<!-- 7 -->
<g id="node9" class="node">
<title>7</title>
<polygon fill="none" stroke="black" points="153.12,-288.5 126.12,-270.5 153.12,-252.5 180.12,-270.5 153.12,-288.5"/>
<text text-anchor="middle" x="153.12" y="-265.82" font-family="Helvetica,sans-Serif" font-size="14.00">7</text>
</g>
<!-- 6&#45;&gt;7 -->
<g id="edge13" class="edge">
<title>6:w&#45;&gt;7:n</title>
<path fill="none" stroke="blue" d="M151.31,-342.5C130.96,-342.5 146.41,-320.95 151.59,-299.76"/>
<polygon fill="blue" stroke="blue" points="155.04,-300.38 152.92,-290 148.11,-299.44 155.04,-300.38"/>
</g>
<!-- 7&#45;&gt;b -->
<g id="edge15" class="edge">
<title>7:e&#45;&gt;b:n</title>
<path fill="none" stroke="black" d="M181.94,-270.5C202.29,-270.5 186.84,-248.95 181.66,-227.76"/>
<polygon fill="black" stroke="black" points="185.14,-227.44 180.33,-218 178.21,-228.38 185.14,-227.44"/>
</g>
<!-- 7&#45;&gt;7 -->
<g id="edge14" class="edge">
<title>7:s&#45;&gt;7:w</title>
<path fill="none" stroke="black" d="M153.12,-252.18C138.12,-234.18 108.12,-234.18 108.12,-261.34 108.12,-281.71 114.88,-286.8 120.44,-280.48"/>
<polygon fill="black" stroke="black" points="123.41,-282.38 124.65,-271.86 117.12,-279.31 123.41,-282.38"/>
</g>
</g>
</svg>
