<?xml version="1.0" encoding="UTF-8" standalone="no"?>
<!DOCTYPE svg PUBLIC "-//W3C//DTD SVG 1.1//EN"
 "http://www.w3.org/Graphics/SVG/1.1/DTD/svg11.dtd">
<!-- Generated by graphviz version 12.2.1 (20241206.2353)
 -->
<!-- Pages: 1 -->
<svg width="370pt" height="801pt"
 viewBox="0.00 0.00 369.75 800.50" xmlns="http://www.w3.org/2000/svg" xmlns:xlink="http://www.w3.org/1999/xlink">
<g id="graph0" class="graph" transform="scale(1 1) rotate(0) translate(4 796.5)">
<polygon fill="white" stroke="none" points="-4,4 -4,-796.5 365.75,-796.5 365.75,4 -4,4"/>
<text text-anchor="middle" x="180.88" y="-163.2" font-family="Helvetica,sans-Serif" font-size="14.00">1 2 3 4 5 1 2 6 7 3 4 5 6 7 </text>
<text text-anchor="middle" x="180.88" y="-145.95" font-family="Helvetica,sans-Serif" font-size="14.00">A double occurrence word</text>
<text text-anchor="middle" x="180.88" y="-128.7" font-family="Helvetica,sans-Serif" font-size="14.00">Already in ascending order</text>
<text text-anchor="middle" x="180.88" y="-111.45" font-family="Helvetica,sans-Serif" font-size="14.00">Palindrome: yes</text>
<text text-anchor="middle" x="180.88" y="-94.2" font-family="Helvetica,sans-Serif" font-size="14.00">Semi&#45;palindrome: yes</text>
<text text-anchor="middle" x="180.88" y="-76.95" font-family="Helvetica,sans-Serif" font-size="14.00">Irreducible: yes</text>
<text text-anchor="middle" x="180.88" y="-59.7" font-family="Helvetica,sans-Serif" font-size="14.00">Strongly&#45;irreducible: yes</text>
<text text-anchor="middle" x="180.88" y="-42.45" font-family="Helvetica,sans-Serif" font-size="14.00">Assembly number: 1</text>
<text text-anchor="middle" x="180.88" y="-25.2" font-family="Helvetica,sans-Serif" font-size="14.00">Edges in Hamiltonion set of polygonal paths: 0 2 4 6 8 10 </text>
<text text-anchor="middle" x="180.88" y="-7.95" font-family="Helvetica,sans-Serif" font-size="14.00">Realizable</text>
<!-- a -->
<!-- 1 -->
<g id="node3" class="node">
<title>1</title>
<polygon fill="none" stroke="black" points="113.93,-720.5 86.93,-702.5 113.93,-684.5 140.93,-702.5 113.93,-720.5"/>
<text text-anchor="middle" x="113.93" y="-697.83" font-family="Helvetica,sans-Serif" font-size="14.00">1</text>
</g>
<!-- a&#45;&gt;1 -->
<g id="edge1" class="edge">
<title>a:s&#45;&gt;1:n</title>
<path fill="none" stroke="black" d="M113.93,-756.5C113.93,-745.12 113.93,-739.82 113.93,-731.95"/>
<polygon fill="black" stroke="black" points="117.43,-732.01 113.93,-722.01 110.43,-732.01 117.43,-732.01"/>
</g>
<!-- b -->
<!-- 2 -->
<g id="node4" class="node">
<title>2</title>
<polygon fill="none" stroke="black" points="113.93,-648.5 86.93,-630.5 113.93,-612.5 140.93,-630.5 113.93,-648.5"/>
<text text-anchor="middle" x="113.93" y="-625.83" font-family="Helvetica,sans-Serif" font-size="14.00">2</text>
</g>
<!-- 1&#45;&gt;2 -->
<g id="edge2" class="edge">
<title>1:s&#45;&gt;2:n</title>
<path fill="none" stroke="blue" d="M113.93,-684.5C113.93,-673.12 113.93,-667.82 113.93,-659.95"/>
<polygon fill="blue" stroke="blue" points="117.43,-660.01 113.93,-650.01 110.43,-660.01 117.43,-660.01"/>
</g>
<!-- 1&#45;&gt;2 -->
<g id="edge7" class="edge">
<title>1:e&#45;&gt;2:e</title>
<path fill="none" stroke="black" d="M142.75,-702.5C170.62,-702.5 174.22,-647.87 153.53,-633.78"/>
<polygon fill="black" stroke="black" points="154.78,-630.5 144.2,-630.94 152.74,-637.2 154.78,-630.5"/>
</g>
<!-- 3 -->
<g id="node5" class="node">
<title>3</title>
<polygon fill="none" stroke="black" points="237.93,-576.5 210.93,-558.5 237.93,-540.5 264.93,-558.5 237.93,-576.5"/>
<text text-anchor="middle" x="237.93" y="-553.83" font-family="Helvetica,sans-Serif" font-size="14.00">3</text>
</g>
<!-- 2&#45;&gt;3 -->
<g id="edge3" class="edge">
<title>2:s&#45;&gt;3:n</title>
<path fill="none" stroke="black" d="M113.93,-612.5C113.93,-559.6 219.32,-622.41 235.78,-587.59"/>
<polygon fill="black" stroke="black" points="239.18,-588.47 237.65,-577.99 232.3,-587.14 239.18,-588.47"/>
</g>
<!-- 6 -->
<g id="node8" class="node">
<title>6</title>
<polygon fill="none" stroke="black" points="141.93,-360.5 114.93,-342.5 141.93,-324.5 168.93,-342.5 141.93,-360.5"/>
<text text-anchor="middle" x="141.93" y="-337.82" font-family="Helvetica,sans-Serif" font-size="14.00">6</text>
</g>
<!-- 2&#45;&gt;6 -->
<g id="edge8" class="edge">
<title>2:w&#45;&gt;6:n</title>
<path fill="none" stroke="blue" d="M85.12,-630.5C82.6,-630.5 72.21,-468.43 105.93,-396.5 113.51,-380.33 131.55,-381.35 138.82,-371.39"/>
<polygon fill="blue" stroke="blue" points="142.13,-372.53 141.52,-361.96 135.4,-370.6 142.13,-372.53"/>
</g>
<!-- 4 -->
<g id="node6" class="node">
<title>4</title>
<polygon fill="none" stroke="black" points="251.93,-504.5 224.93,-486.5 251.93,-468.5 278.93,-486.5 251.93,-504.5"/>
<text text-anchor="middle" x="251.93" y="-481.82" font-family="Helvetica,sans-Serif" font-size="14.00">4</text>
</g>
<!-- 3&#45;&gt;4 -->
<g id="edge4" class="edge">
<title>3:s&#45;&gt;4:n</title>
<path fill="none" stroke="blue" d="M237.93,-540.5C237.93,-527.89 245.48,-523.65 249.5,-515.48"/>
<polygon fill="blue" stroke="blue" points="252.85,-516.5 251.61,-505.98 246.02,-514.98 252.85,-516.5"/>
</g>
<!-- 3&#45;&gt;4 -->
<g id="edge11" class="edge">
<title>3:e&#45;&gt;4:e</title>
<path fill="none" stroke="black" d="M266.75,-558.5C295.02,-558.5 309.3,-504.35 291.34,-489.97"/>
<polygon fill="black" stroke="black" points="292.78,-486.76 282.19,-486.97 290.6,-493.41 292.78,-486.76"/>
</g>
<!-- 5 -->
<g id="node7" class="node">
<title>5</title>
<polygon fill="none" stroke="black" points="141.93,-432.5 114.93,-414.5 141.93,-396.5 168.93,-414.5 141.93,-432.5"/>
<text text-anchor="middle" x="141.93" y="-409.82" font-family="Helvetica,sans-Serif" font-size="14.00">5</text>
</g>
<!-- 4&#45;&gt;5 -->
<g id="edge5" class="edge">
<title>4:s&#45;&gt;5:n</title>
<path fill="none" stroke="black" d="M251.93,-468.5C251.93,-421.68 160.81,-472.88 144.44,-443.67"/>
<polygon fill="black" stroke="black" points="147.87,-442.97 142.27,-433.98 141.04,-444.5 147.87,-442.97"/>
</g>
<!-- 4&#45;&gt;5 -->
<g id="edge12" class="edge">
<title>4:w&#45;&gt;5:w</title>
<path fill="none" stroke="blue" d="M223.12,-486.5C169.06,-486.5 143.89,-477.63 114.12,-432.5 112.74,-430.41 111.35,-427.87 110.32,-425.36"/>
<polygon fill="blue" stroke="blue" points="113.64,-426.52 112.74,-415.97 106.86,-424.77 113.64,-426.52"/>
</g>
<!-- 5&#45;&gt;1 -->
<g id="edge6" class="edge">
<title>5:s&#45;&gt;1:w</title>
<path fill="none" stroke="blue" d="M141.93,-395.18C141.93,-383.17 160.6,-387.53 168.93,-396.18 180.14,-407.8 172.68,-416.8 168.93,-432.5 148.15,-519.7 98.72,-525.3 77.93,-612.5 69.68,-647.11 50.17,-691.11 73.83,-700.63"/>
<polygon fill="blue" stroke="blue" points="73.19,-704.07 83.63,-702.25 74.33,-697.17 73.19,-704.07"/>
</g>
<!-- 5&#45;&gt;6 -->
<g id="edge13" class="edge">
<title>5:e&#45;&gt;6:e</title>
<path fill="none" stroke="black" d="M170.75,-414.5C183.37,-414.5 186.04,-369.67 178.74,-350.76"/>
<polygon fill="black" stroke="black" points="181.27,-348.34 171.8,-343.59 176.24,-353.21 181.27,-348.34"/>
</g>
<!-- 7 -->
<g id="node9" class="node">
<title>7</title>
<polygon fill="none" stroke="black" points="141.93,-288.5 114.93,-270.5 141.93,-252.5 168.93,-270.5 141.93,-288.5"/>
<text text-anchor="middle" x="141.93" y="-265.82" font-family="Helvetica,sans-Serif" font-size="14.00">7</text>
</g>
<!-- 6&#45;&gt;7 -->
<g id="edge9" class="edge">
<title>6:s&#45;&gt;7:n</title>
<path fill="none" stroke="black" d="M141.93,-324.5C141.93,-313.12 141.93,-307.82 141.93,-299.95"/>
<polygon fill="black" stroke="black" points="145.43,-300.01 141.93,-290.01 138.43,-300.01 145.43,-300.01"/>
</g>
<!-- 6&#45;&gt;7 -->
<g id="edge14" class="edge">
<title>6:w&#45;&gt;7:w</title>
<path fill="none" stroke="black" d="M113.12,-342.5C85.25,-342.5 81.65,-287.87 102.34,-273.78"/>
<polygon fill="black" stroke="black" points="103.13,-277.2 111.67,-270.94 101.09,-270.5 103.13,-277.2"/>
</g>
<!-- 7&#45;&gt;b -->
<g id="edge15" class="edge">
<title>7:e&#45;&gt;b:n</title>
<path fill="none" stroke="black" d="M170.75,-270.5C191.1,-270.5 175.65,-248.95 170.47,-227.76"/>
<polygon fill="black" stroke="black" points="173.95,-227.44 169.14,-218 167.02,-228.38 173.95,-227.44"/>
</g>
<!-- 7&#45;&gt;3 -->
<g id="edge10" class="edge">
<title>7:s&#45;&gt;3:w</title>
<path fill="none" stroke="blue" d="M141.93,-251.18C141.93,-239.17 160.06,-244.09 168.93,-252.18 216.62,-295.61 149.58,-527.79 198.22,-555.74"/>
<polygon fill="blue" stroke="blue" points="197.1,-559.07 207.65,-558.13 198.82,-552.29 197.1,-559.07"/>
</g>
</g>
</svg>
