<?xml version="1.0" encoding="UTF-8" standalone="no"?>
<!DOCTYPE svg PUBLIC "-//W3C//DTD SVG 1.1//EN"
 "http://www.w3.org/Graphics/SVG/1.1/DTD/svg11.dtd">
<!-- Generated by graphviz version 12.2.1 (20241206.2353)
 -->
<!-- Pages: 1 -->
<svg width="368pt" height="801pt"
 viewBox="0.00 0.00 368.25 800.50" xmlns="http://www.w3.org/2000/svg" xmlns:xlink="http://www.w3.org/1999/xlink">
<g id="graph0" class="graph" transform="scale(1 1) rotate(0) translate(4 796.5)">
<polygon fill="white" stroke="none" points="-4,4 -4,-796.5 364.25,-796.5 364.25,4 -4,4"/>
<text text-anchor="middle" x="180.12" y="-163.2" font-family="Helvetica,sans-Serif" font-size="14.00">1 1 2 3 4 5 6 2 3 4 5 6 7 7 </text>
<text text-anchor="middle" x="180.12" y="-145.95" font-family="Helvetica,sans-Serif" font-size="14.00">A double occurrence word</text>
<text text-anchor="middle" x="180.12" y="-128.7" font-family="Helvetica,sans-Serif" font-size="14.00">Already in ascending order</text>
<text text-anchor="middle" x="180.12" y="-111.45" font-family="Helvetica,sans-Serif" font-size="14.00">Palindrome: yes</text>
<text text-anchor="middle" x="180.12" y="-94.2" font-family="Helvetica,sans-Serif" font-size="14.00">Semi&#45;palindrome: yes</text>
<text text-anchor="middle" x="180.12" y="-76.95" font-family="Helvetica,sans-Serif" font-size="14.00">Irreducible: no</text>
<text text-anchor="middle" x="180.12" y="-59.7" font-family="Helvetica,sans-Serif" font-size="14.00">Strongly&#45;irreducible: no</text>
<text text-anchor="middle" x="180.12" y="-42.45" font-family="Helvetica,sans-Serif" font-size="14.00">Assembly number: 1</text>
<text text-anchor="middle" x="180.12" y="-25.2" font-family="Helvetica,sans-Serif" font-size="14.00">Edges in Hamiltonion set of polygonal paths: 1 3 5 7 9 11 </text>
<text text-anchor="middle" x="180.12" y="-7.95" font-family="Helvetica,sans-Serif" font-size="14.00">Realizable</text>
<!-- a -->
<!-- 1 -->
<g id="node3" class="node">
<title>1</title>
<polygon fill="none" stroke="black" points="168.4,-720.5 141.4,-702.5 168.4,-684.5 195.4,-702.5 168.4,-720.5"/>
<text text-anchor="middle" x="168.4" y="-697.83" font-family="Helvetica,sans-Serif" font-size="14.00">1</text>
</g>
<!-- a&#45;&gt;1 -->
<g id="edge1" class="edge">
<title>a:s&#45;&gt;1:n</title>
<path fill="none" stroke="black" d="M168.4,-756.5C168.4,-745.12 168.4,-739.82 168.4,-731.95"/>
<polygon fill="black" stroke="black" points="171.9,-732.01 168.4,-722.01 164.9,-732.01 171.9,-732.01"/>
</g>
<!-- b -->
<!-- 1&#45;&gt;1 -->
<g id="edge2" class="edge">
<title>1:s&#45;&gt;1:w</title>
<path fill="none" stroke="black" d="M168.4,-684.18C153.4,-666.18 123.4,-666.18 123.4,-693.34 123.4,-713.71 130.15,-718.8 135.71,-712.48"/>
<polygon fill="black" stroke="black" points="138.68,-714.38 139.92,-703.86 132.39,-711.31 138.68,-714.38"/>
</g>
<!-- 2 -->
<g id="node4" class="node">
<title>2</title>
<polygon fill="none" stroke="black" points="195.4,-648.5 168.4,-630.5 195.4,-612.5 222.4,-630.5 195.4,-648.5"/>
<text text-anchor="middle" x="195.4" y="-625.83" font-family="Helvetica,sans-Serif" font-size="14.00">2</text>
</g>
<!-- 1&#45;&gt;2 -->
<g id="edge3" class="edge">
<title>1:e&#45;&gt;2:n</title>
<path fill="none" stroke="blue" d="M197.21,-702.5C217.57,-702.5 202.11,-680.95 196.93,-659.76"/>
<polygon fill="blue" stroke="blue" points="200.42,-659.44 195.61,-650 193.48,-660.38 200.42,-659.44"/>
</g>
<!-- 3 -->
<g id="node5" class="node">
<title>3</title>
<polygon fill="none" stroke="black" points="195.4,-576.5 168.4,-558.5 195.4,-540.5 222.4,-558.5 195.4,-576.5"/>
<text text-anchor="middle" x="195.4" y="-553.83" font-family="Helvetica,sans-Serif" font-size="14.00">3</text>
</g>
<!-- 2&#45;&gt;3 -->
<g id="edge4" class="edge">
<title>2:s&#45;&gt;3:n</title>
<path fill="none" stroke="black" d="M195.4,-612.5C195.4,-601.12 195.4,-595.82 195.4,-587.95"/>
<polygon fill="black" stroke="black" points="198.9,-588.01 195.4,-578.01 191.9,-588.01 198.9,-588.01"/>
</g>
<!-- 2&#45;&gt;3 -->
<g id="edge9" class="edge">
<title>2:w&#45;&gt;3:w</title>
<path fill="none" stroke="blue" d="M166.59,-630.5C138.71,-630.5 135.12,-575.87 155.81,-561.78"/>
<polygon fill="blue" stroke="blue" points="156.59,-565.2 165.14,-558.94 154.55,-558.5 156.59,-565.2"/>
</g>
<!-- 4 -->
<g id="node6" class="node">
<title>4</title>
<polygon fill="none" stroke="black" points="195.4,-504.5 168.4,-486.5 195.4,-468.5 222.4,-486.5 195.4,-504.5"/>
<text text-anchor="middle" x="195.4" y="-481.82" font-family="Helvetica,sans-Serif" font-size="14.00">4</text>
</g>
<!-- 3&#45;&gt;4 -->
<g id="edge5" class="edge">
<title>3:s&#45;&gt;4:n</title>
<path fill="none" stroke="blue" d="M195.4,-540.5C195.4,-529.12 195.4,-523.82 195.4,-515.95"/>
<polygon fill="blue" stroke="blue" points="198.9,-516.01 195.4,-506.01 191.9,-516.01 198.9,-516.01"/>
</g>
<!-- 3&#45;&gt;4 -->
<g id="edge10" class="edge">
<title>3:e&#45;&gt;4:e</title>
<path fill="none" stroke="black" d="M224.21,-558.5C236.84,-558.5 239.5,-513.67 232.2,-494.76"/>
<polygon fill="black" stroke="black" points="234.73,-492.34 225.27,-487.59 229.7,-497.21 234.73,-492.34"/>
</g>
<!-- 5 -->
<g id="node7" class="node">
<title>5</title>
<polygon fill="none" stroke="black" points="195.4,-432.5 168.4,-414.5 195.4,-396.5 222.4,-414.5 195.4,-432.5"/>
<text text-anchor="middle" x="195.4" y="-409.82" font-family="Helvetica,sans-Serif" font-size="14.00">5</text>
</g>
<!-- 4&#45;&gt;5 -->
<g id="edge6" class="edge">
<title>4:s&#45;&gt;5:n</title>
<path fill="none" stroke="black" d="M195.4,-468.5C195.4,-457.12 195.4,-451.82 195.4,-443.95"/>
<polygon fill="black" stroke="black" points="198.9,-444.01 195.4,-434.01 191.9,-444.01 198.9,-444.01"/>
</g>
<!-- 4&#45;&gt;5 -->
<g id="edge11" class="edge">
<title>4:w&#45;&gt;5:w</title>
<path fill="none" stroke="blue" d="M166.59,-486.5C138.71,-486.5 135.12,-431.87 155.81,-417.78"/>
<polygon fill="blue" stroke="blue" points="156.59,-421.2 165.14,-414.94 154.55,-414.5 156.59,-421.2"/>
</g>
<!-- 6 -->
<g id="node8" class="node">
<title>6</title>
<polygon fill="none" stroke="black" points="195.4,-360.5 168.4,-342.5 195.4,-324.5 222.4,-342.5 195.4,-360.5"/>
<text text-anchor="middle" x="195.4" y="-337.82" font-family="Helvetica,sans-Serif" font-size="14.00">6</text>
</g>
<!-- 5&#45;&gt;6 -->
<g id="edge7" class="edge">
<title>5:s&#45;&gt;6:n</title>
<path fill="none" stroke="blue" d="M195.4,-396.5C195.4,-385.12 195.4,-379.82 195.4,-371.95"/>
<polygon fill="blue" stroke="blue" points="198.9,-372.01 195.4,-362.01 191.9,-372.01 198.9,-372.01"/>
</g>
<!-- 5&#45;&gt;6 -->
<g id="edge12" class="edge">
<title>5:e&#45;&gt;6:e</title>
<path fill="none" stroke="black" d="M224.21,-414.5C236.84,-414.5 239.5,-369.67 232.2,-350.76"/>
<polygon fill="black" stroke="black" points="234.73,-348.34 225.27,-343.59 229.7,-353.21 234.73,-348.34"/>
</g>
<!-- 6&#45;&gt;2 -->
<g id="edge8" class="edge">
<title>6:s&#45;&gt;2:e</title>
<path fill="none" stroke="black" d="M195.4,-323.18C195.4,-311.17 213.55,-316.06 222.4,-324.18 246.28,-346.07 229.4,-364.17 231.4,-396.5 236.35,-476.35 236.69,-496.68 231.4,-576.5 230.16,-595.19 241.02,-617.27 234.81,-626.32"/>
<polygon fill="black" stroke="black" points="233.64,-623.02 225.62,-629.94 236.21,-629.53 233.64,-623.02"/>
</g>
<!-- 7 -->
<g id="node9" class="node">
<title>7</title>
<polygon fill="none" stroke="black" points="168.4,-288.5 141.4,-270.5 168.4,-252.5 195.4,-270.5 168.4,-288.5"/>
<text text-anchor="middle" x="168.4" y="-265.82" font-family="Helvetica,sans-Serif" font-size="14.00">7</text>
</g>
<!-- 6&#45;&gt;7 -->
<g id="edge13" class="edge">
<title>6:w&#45;&gt;7:n</title>
<path fill="none" stroke="blue" d="M166.59,-342.5C146.23,-342.5 161.69,-320.95 166.87,-299.76"/>
<polygon fill="blue" stroke="blue" points="170.32,-300.38 168.2,-290 163.38,-299.44 170.32,-300.38"/>
</g>
<!-- 7&#45;&gt;b -->
<g id="edge15" class="edge">
<title>7:e&#45;&gt;b:n</title>
<path fill="none" stroke="black" d="M197.21,-270.5C217.57,-270.5 202.11,-248.95 196.93,-227.76"/>
<polygon fill="black" stroke="black" points="200.42,-227.44 195.61,-218 193.48,-228.38 200.42,-227.44"/>
</g>
<!-- 7&#45;&gt;7 -->
<g id="edge14" class="edge">
<title>7:s&#45;&gt;7:w</title>
<path fill="none" stroke="black" d="M168.4,-252.18C153.4,-234.18 123.4,-234.18 123.4,-261.34 123.4,-281.71 130.15,-286.8 135.71,-280.48"/>
<polygon fill="black" stroke="black" points="138.68,-282.38 139.92,-271.86 132.39,-279.31 138.68,-282.38"/>
</g>
</g>
</svg>
