<?xml version="1.0" encoding="UTF-8" standalone="no"?>
<!DOCTYPE svg PUBLIC "-//W3C//DTD SVG 1.1//EN"
 "http://www.w3.org/Graphics/SVG/1.1/DTD/svg11.dtd">
<!-- Generated by graphviz version 12.2.1 (20241206.2353)
 -->
<!-- Pages: 1 -->
<svg width="370pt" height="801pt"
 viewBox="0.00 0.00 369.75 800.50" xmlns="http://www.w3.org/2000/svg" xmlns:xlink="http://www.w3.org/1999/xlink">
<g id="graph0" class="graph" transform="scale(1 1) rotate(0) translate(4 796.5)">
<polygon fill="white" stroke="none" points="-4,4 -4,-796.5 365.75,-796.5 365.75,4 -4,4"/>
<text text-anchor="middle" x="180.88" y="-163.2" font-family="Helvetica,sans-Serif" font-size="14.00">1 2 1 3 4 2 3 5 6 4 5 7 6 7 </text>
<text text-anchor="middle" x="180.88" y="-145.95" font-family="Helvetica,sans-Serif" font-size="14.00">A double occurrence word</text>
<text text-anchor="middle" x="180.88" y="-128.7" font-family="Helvetica,sans-Serif" font-size="14.00">Already in ascending order</text>
<text text-anchor="middle" x="180.88" y="-111.45" font-family="Helvetica,sans-Serif" font-size="14.00">Palindrome: yes</text>
<text text-anchor="middle" x="180.88" y="-94.2" font-family="Helvetica,sans-Serif" font-size="14.00">Semi&#45;palindrome: yes</text>
<text text-anchor="middle" x="180.88" y="-76.95" font-family="Helvetica,sans-Serif" font-size="14.00">Irreducible: yes</text>
<text text-anchor="middle" x="180.88" y="-59.7" font-family="Helvetica,sans-Serif" font-size="14.00">Strongly&#45;irreducible: yes</text>
<text text-anchor="middle" x="180.88" y="-42.45" font-family="Helvetica,sans-Serif" font-size="14.00">Assembly number: 1</text>
<text text-anchor="middle" x="180.88" y="-25.2" font-family="Helvetica,sans-Serif" font-size="14.00">Edges in Hamiltonion set of polygonal paths: 0 2 4 6 8 10 </text>
<text text-anchor="middle" x="180.88" y="-7.95" font-family="Helvetica,sans-Serif" font-size="14.00">Realizable</text>
<!-- a -->
<!-- 1 -->
<g id="node3" class="node">
<title>1</title>
<polygon fill="none" stroke="black" points="156.92,-720.5 129.92,-702.5 156.92,-684.5 183.92,-702.5 156.92,-720.5"/>
<text text-anchor="middle" x="156.92" y="-697.83" font-family="Helvetica,sans-Serif" font-size="14.00">1</text>
</g>
<!-- a&#45;&gt;1 -->
<g id="edge1" class="edge">
<title>a:s&#45;&gt;1:n</title>
<path fill="none" stroke="black" d="M156.92,-756.5C156.92,-745.12 156.92,-739.82 156.92,-731.95"/>
<polygon fill="black" stroke="black" points="160.42,-732.01 156.92,-722.01 153.42,-732.01 160.42,-732.01"/>
</g>
<!-- b -->
<!-- 2 -->
<g id="node4" class="node">
<title>2</title>
<polygon fill="none" stroke="black" points="129.92,-648.5 102.92,-630.5 129.92,-612.5 156.92,-630.5 129.92,-648.5"/>
<text text-anchor="middle" x="129.92" y="-625.83" font-family="Helvetica,sans-Serif" font-size="14.00">2</text>
</g>
<!-- 1&#45;&gt;2 -->
<g id="edge2" class="edge">
<title>1:s&#45;&gt;2:n</title>
<path fill="none" stroke="blue" d="M156.92,-684.5C156.92,-669.19 141.09,-667.94 133.68,-659.23"/>
<polygon fill="blue" stroke="blue" points="137.03,-658.21 130.42,-649.93 130.42,-660.52 137.03,-658.21"/>
</g>
<!-- 3 -->
<g id="node5" class="node">
<title>3</title>
<polygon fill="none" stroke="black" points="184.92,-576.5 157.92,-558.5 184.92,-540.5 211.92,-558.5 184.92,-576.5"/>
<text text-anchor="middle" x="184.92" y="-553.83" font-family="Helvetica,sans-Serif" font-size="14.00">3</text>
</g>
<!-- 1&#45;&gt;3 -->
<g id="edge4" class="edge">
<title>1:e&#45;&gt;3:n</title>
<path fill="none" stroke="blue" d="M185.73,-702.5C238.02,-702.5 191.97,-641.49 185.62,-587.82"/>
<polygon fill="blue" stroke="blue" points="189.13,-587.77 185.02,-578.01 182.14,-588.21 189.13,-587.77"/>
</g>
<!-- 2&#45;&gt;1 -->
<g id="edge3" class="edge">
<title>2:s&#45;&gt;1:w</title>
<path fill="none" stroke="black" d="M129.92,-611.18C129.92,-583.75 174.44,-597.17 156.92,-648.5 150.39,-667.64 136.17,-665.55 129.11,-684.5 128.32,-686.61 127.26,-688.96 126.33,-691.24"/>
<polygon fill="black" stroke="black" points="122.85,-691.67 127.87,-701.01 129.77,-690.58 122.85,-691.67"/>
</g>
<!-- 2&#45;&gt;3 -->
<g id="edge7" class="edge">
<title>2:w&#45;&gt;3:w</title>
<path fill="none" stroke="black" d="M101.11,-630.5C93.1,-630.5 98.57,-619.69 102.11,-612.5 112.95,-590.5 127.61,-594.81 143.92,-576.5 146.53,-573.57 147.44,-570.05 148.24,-566.9"/>
<polygon fill="black" stroke="black" points="150.79,-569.3 155.07,-559.6 145.68,-564.51 150.79,-569.3"/>
</g>
<!-- 4 -->
<g id="node6" class="node">
<title>4</title>
<polygon fill="none" stroke="black" points="143.92,-504.5 116.92,-486.5 143.92,-468.5 170.92,-486.5 143.92,-504.5"/>
<text text-anchor="middle" x="143.92" y="-481.82" font-family="Helvetica,sans-Serif" font-size="14.00">4</text>
</g>
<!-- 3&#45;&gt;4 -->
<g id="edge5" class="edge">
<title>3:s&#45;&gt;4:n</title>
<path fill="none" stroke="black" d="M184.92,-540.5C184.92,-520.99 158.37,-525.27 148,-515.05"/>
<polygon fill="black" stroke="black" points="151.34,-513.98 144.47,-505.91 144.81,-516.5 151.34,-513.98"/>
</g>
<!-- 5 -->
<g id="node7" class="node">
<title>5</title>
<polygon fill="none" stroke="black" points="211.92,-432.5 184.92,-414.5 211.92,-396.5 238.92,-414.5 211.92,-432.5"/>
<text text-anchor="middle" x="211.92" y="-409.82" font-family="Helvetica,sans-Serif" font-size="14.00">5</text>
</g>
<!-- 3&#45;&gt;5 -->
<g id="edge8" class="edge">
<title>3:e&#45;&gt;5:n</title>
<path fill="none" stroke="blue" d="M213.73,-558.5C266.02,-558.5 219.1,-497.49 212.64,-443.82"/>
<polygon fill="blue" stroke="blue" points="216.14,-443.77 212.02,-434.01 209.15,-444.21 216.14,-443.77"/>
</g>
<!-- 4&#45;&gt;2 -->
<g id="edge6" class="edge">
<title>4:s&#45;&gt;2:e</title>
<path fill="none" stroke="blue" d="M143.92,-467.18C143.92,-455.17 162.59,-459.53 170.92,-468.18 182.12,-479.8 175.29,-488.96 170.92,-504.5 165.84,-522.55 154,-522.45 148.92,-540.5 144.59,-555.9 147.01,-560.62 148.92,-576.5 150.89,-592.85 155.31,-596.21 157.73,-612.5 158.05,-614.61 158.83,-616.86 159.66,-619.04"/>
<polygon fill="blue" stroke="blue" points="156.17,-618.74 158.86,-628.99 163.15,-619.31 156.17,-618.74"/>
</g>
<!-- 4&#45;&gt;5 -->
<g id="edge11" class="edge">
<title>4:w&#45;&gt;5:w</title>
<path fill="none" stroke="black" d="M115.11,-486.5C107.1,-486.5 112.11,-475.44 116.11,-468.5 130.66,-443.24 150.17,-452.96 170.92,-432.5 173.82,-429.64 174.73,-425.99 175.53,-422.72"/>
<polygon fill="black" stroke="black" points="177.88,-425.34 182.08,-415.61 172.73,-420.59 177.88,-425.34"/>
</g>
<!-- 6 -->
<g id="node8" class="node">
<title>6</title>
<polygon fill="none" stroke="black" points="183.92,-360.5 156.92,-342.5 183.92,-324.5 210.92,-342.5 183.92,-360.5"/>
<text text-anchor="middle" x="183.92" y="-337.82" font-family="Helvetica,sans-Serif" font-size="14.00">6</text>
</g>
<!-- 5&#45;&gt;6 -->
<g id="edge9" class="edge">
<title>5:s&#45;&gt;6:n</title>
<path fill="none" stroke="black" d="M211.92,-396.5C211.92,-380.98 195.51,-380 187.81,-371.3"/>
<polygon fill="black" stroke="black" points="191.12,-370.14 184.43,-361.92 184.53,-372.52 191.12,-370.14"/>
</g>
<!-- 7 -->
<g id="node9" class="node">
<title>7</title>
<polygon fill="none" stroke="black" points="210.92,-288.5 183.92,-270.5 210.92,-252.5 237.92,-270.5 210.92,-288.5"/>
<text text-anchor="middle" x="210.92" y="-265.82" font-family="Helvetica,sans-Serif" font-size="14.00">7</text>
</g>
<!-- 5&#45;&gt;7 -->
<g id="edge12" class="edge">
<title>5:e&#45;&gt;7:n</title>
<path fill="none" stroke="blue" d="M240.73,-414.5C248.75,-414.5 241,-404.41 239.73,-396.5 238.93,-391.47 220.06,-326.2 213.3,-299.47"/>
<polygon fill="blue" stroke="blue" points="216.78,-299.01 211.24,-289.98 209.94,-300.49 216.78,-299.01"/>
</g>
<!-- 6&#45;&gt;4 -->
<g id="edge10" class="edge">
<title>6:s&#45;&gt;4:e</title>
<path fill="none" stroke="blue" d="M183.92,-323.18C183.92,-311.17 202.59,-315.53 210.92,-324.18 216.52,-329.99 213.96,-353.02 210.92,-360.5 202.53,-381.18 184.68,-375.98 175.92,-396.5 174.4,-400.06 176.32,-451.95 174.95,-475.28"/>
<polygon fill="blue" stroke="blue" points="171.53,-474.53 173.03,-485.02 178.4,-475.88 171.53,-474.53"/>
</g>
<!-- 6&#45;&gt;7 -->
<g id="edge14" class="edge">
<title>6:w&#45;&gt;7:w</title>
<path fill="none" stroke="black" d="M155.11,-342.5C124.67,-342.5 142.76,-285.39 171.22,-272.9"/>
<polygon fill="black" stroke="black" points="171.62,-276.39 180.63,-270.83 170.11,-269.56 171.62,-276.39"/>
</g>
<!-- 7&#45;&gt;b -->
<g id="edge15" class="edge">
<title>7:e&#45;&gt;b:n</title>
<path fill="none" stroke="black" d="M239.73,-270.5C260.09,-270.5 244.63,-248.95 239.45,-227.76"/>
<polygon fill="black" stroke="black" points="242.94,-227.44 238.13,-218 236,-228.38 242.94,-227.44"/>
</g>
<!-- 7&#45;&gt;6 -->
<g id="edge13" class="edge">
<title>7:s&#45;&gt;6:e</title>
<path fill="none" stroke="black" d="M210.92,-251.18C210.92,-239.17 229.59,-243.53 237.92,-252.18 249.12,-263.8 241.42,-272.74 237.92,-288.5 236.88,-293.2 227.55,-319.57 219.99,-333.65"/>
<polygon fill="black" stroke="black" points="217.32,-331.38 213.69,-341.33 222.74,-335.81 217.32,-331.38"/>
</g>
</g>
</svg>
