<?xml version="1.0" encoding="UTF-8" standalone="no"?>
<!DOCTYPE svg PUBLIC "-//W3C//DTD SVG 1.1//EN"
 "http://www.w3.org/Graphics/SVG/1.1/DTD/svg11.dtd">
<!-- Generated by graphviz version 12.2.1 (20241206.2353)
 -->
<!-- Pages: 1 -->
<svg width="368pt" height="801pt"
 viewBox="0.00 0.00 368.25 800.50" xmlns="http://www.w3.org/2000/svg" xmlns:xlink="http://www.w3.org/1999/xlink">
<g id="graph0" class="graph" transform="scale(1 1) rotate(0) translate(4 796.5)">
<polygon fill="white" stroke="none" points="-4,4 -4,-796.5 364.25,-796.5 364.25,4 -4,4"/>
<text text-anchor="middle" x="180.12" y="-163.2" font-family="Helvetica,sans-Serif" font-size="14.00">1 2 1 2 3 4 3 5 4 5 6 7 6 7 </text>
<text text-anchor="middle" x="180.12" y="-145.95" font-family="Helvetica,sans-Serif" font-size="14.00">A double occurrence word</text>
<text text-anchor="middle" x="180.12" y="-128.7" font-family="Helvetica,sans-Serif" font-size="14.00">Already in ascending order</text>
<text text-anchor="middle" x="180.12" y="-111.45" font-family="Helvetica,sans-Serif" font-size="14.00">Palindrome: yes</text>
<text text-anchor="middle" x="180.12" y="-94.2" font-family="Helvetica,sans-Serif" font-size="14.00">Semi&#45;palindrome: yes</text>
<text text-anchor="middle" x="180.12" y="-76.95" font-family="Helvetica,sans-Serif" font-size="14.00">Irreducible: no</text>
<text text-anchor="middle" x="180.12" y="-59.7" font-family="Helvetica,sans-Serif" font-size="14.00">Strongly&#45;irreducible: no</text>
<text text-anchor="middle" x="180.12" y="-42.45" font-family="Helvetica,sans-Serif" font-size="14.00">Assembly number: 1</text>
<text text-anchor="middle" x="180.12" y="-25.2" font-family="Helvetica,sans-Serif" font-size="14.00">Edges in Hamiltonion set of polygonal paths: 0 3 5 7 9 11 </text>
<text text-anchor="middle" x="180.12" y="-7.95" font-family="Helvetica,sans-Serif" font-size="14.00">Realizable</text>
<!-- a -->
<!-- 1 -->
<g id="node3" class="node">
<title>1</title>
<polygon fill="none" stroke="black" points="202.29,-720.5 175.29,-702.5 202.29,-684.5 229.29,-702.5 202.29,-720.5"/>
<text text-anchor="middle" x="202.29" y="-697.83" font-family="Helvetica,sans-Serif" font-size="14.00">1</text>
</g>
<!-- a&#45;&gt;1 -->
<g id="edge1" class="edge">
<title>a:s&#45;&gt;1:n</title>
<path fill="none" stroke="black" d="M202.29,-756.5C202.29,-745.12 202.29,-739.82 202.29,-731.95"/>
<polygon fill="black" stroke="black" points="205.79,-732.01 202.29,-722.01 198.79,-732.01 205.79,-732.01"/>
</g>
<!-- b -->
<!-- 2 -->
<g id="node4" class="node">
<title>2</title>
<polygon fill="none" stroke="black" points="202.29,-648.5 175.29,-630.5 202.29,-612.5 229.29,-630.5 202.29,-648.5"/>
<text text-anchor="middle" x="202.29" y="-625.83" font-family="Helvetica,sans-Serif" font-size="14.00">2</text>
</g>
<!-- 1&#45;&gt;2 -->
<g id="edge2" class="edge">
<title>1:s&#45;&gt;2:n</title>
<path fill="none" stroke="blue" d="M202.29,-684.5C202.29,-673.12 202.29,-667.82 202.29,-659.95"/>
<polygon fill="blue" stroke="blue" points="205.79,-660.01 202.29,-650.01 198.79,-660.01 205.79,-660.01"/>
</g>
<!-- 1&#45;&gt;2 -->
<g id="edge4" class="edge">
<title>1:e&#45;&gt;2:e</title>
<path fill="none" stroke="black" d="M231.1,-702.5C258.98,-702.5 262.57,-647.87 241.88,-633.78"/>
<polygon fill="black" stroke="black" points="243.13,-630.5 232.55,-630.94 241.1,-637.2 243.13,-630.5"/>
</g>
<!-- 2&#45;&gt;1 -->
<g id="edge3" class="edge">
<title>2:s&#45;&gt;1:w</title>
<path fill="none" stroke="black" d="M202.29,-611.18C202.29,-599.17 220.96,-603.53 229.29,-612.18 240.49,-623.8 236.95,-634.29 229.29,-648.5 215.45,-674.15 189.02,-659.24 174.48,-684.5 173.29,-686.56 172.01,-688.98 171.01,-691.37"/>
<polygon fill="black" stroke="black" points="167.57,-692.01 173.15,-701.02 174.4,-690.5 167.57,-692.01"/>
</g>
<!-- 3 -->
<g id="node5" class="node">
<title>3</title>
<polygon fill="none" stroke="black" points="175.29,-576.5 148.29,-558.5 175.29,-540.5 202.29,-558.5 175.29,-576.5"/>
<text text-anchor="middle" x="175.29" y="-553.83" font-family="Helvetica,sans-Serif" font-size="14.00">3</text>
</g>
<!-- 2&#45;&gt;3 -->
<g id="edge5" class="edge">
<title>2:w&#45;&gt;3:n</title>
<path fill="none" stroke="blue" d="M173.48,-630.5C153.12,-630.5 168.58,-608.95 173.76,-587.76"/>
<polygon fill="blue" stroke="blue" points="177.21,-588.38 175.08,-578 170.27,-587.44 177.21,-588.38"/>
</g>
<!-- 4 -->
<g id="node6" class="node">
<title>4</title>
<polygon fill="none" stroke="black" points="148.29,-504.5 121.29,-486.5 148.29,-468.5 175.29,-486.5 148.29,-504.5"/>
<text text-anchor="middle" x="148.29" y="-481.82" font-family="Helvetica,sans-Serif" font-size="14.00">4</text>
</g>
<!-- 3&#45;&gt;4 -->
<g id="edge6" class="edge">
<title>3:s&#45;&gt;4:n</title>
<path fill="none" stroke="black" d="M175.29,-540.5C175.29,-525.19 159.46,-523.94 152.04,-515.23"/>
<polygon fill="black" stroke="black" points="155.4,-514.21 148.79,-505.93 148.79,-516.52 155.4,-514.21"/>
</g>
<!-- 5 -->
<g id="node7" class="node">
<title>5</title>
<polygon fill="none" stroke="black" points="175.29,-432.5 148.29,-414.5 175.29,-396.5 202.29,-414.5 175.29,-432.5"/>
<text text-anchor="middle" x="175.29" y="-409.82" font-family="Helvetica,sans-Serif" font-size="14.00">5</text>
</g>
<!-- 3&#45;&gt;5 -->
<g id="edge8" class="edge">
<title>3:e&#45;&gt;5:n</title>
<path fill="none" stroke="black" d="M204.1,-558.5C212.11,-558.5 204.33,-548.42 203.1,-540.5 202.72,-538.01 184.6,-470.32 177.81,-443.35"/>
<polygon fill="black" stroke="black" points="181.31,-442.92 175.63,-433.97 174.49,-444.51 181.31,-442.92"/>
</g>
<!-- 4&#45;&gt;3 -->
<g id="edge7" class="edge">
<title>4:s&#45;&gt;3:w</title>
<path fill="none" stroke="blue" d="M148.29,-467.18C148.29,-439.75 192.81,-453.17 175.29,-504.5 168.76,-523.64 154.53,-521.55 147.48,-540.5 146.69,-542.61 145.63,-544.96 144.7,-547.24"/>
<polygon fill="blue" stroke="blue" points="141.22,-547.67 146.24,-557.01 148.14,-546.58 141.22,-547.67"/>
</g>
<!-- 4&#45;&gt;5 -->
<g id="edge10" class="edge">
<title>4:w&#45;&gt;5:w</title>
<path fill="none" stroke="black" d="M119.48,-486.5C89.04,-486.5 107.13,-429.39 135.59,-416.9"/>
<polygon fill="black" stroke="black" points="135.98,-420.39 145,-414.83 134.48,-413.56 135.98,-420.39"/>
</g>
<!-- 5&#45;&gt;4 -->
<g id="edge9" class="edge">
<title>5:s&#45;&gt;4:e</title>
<path fill="none" stroke="blue" d="M175.29,-395.18C175.29,-383.17 193.96,-387.53 202.29,-396.18 213.49,-407.8 205.78,-416.74 202.29,-432.5 201.25,-437.2 191.92,-463.57 184.35,-477.65"/>
<polygon fill="blue" stroke="blue" points="181.69,-475.38 178.06,-485.33 187.11,-479.81 181.69,-475.38"/>
</g>
<!-- 6 -->
<g id="node8" class="node">
<title>6</title>
<polygon fill="none" stroke="black" points="202.29,-360.5 175.29,-342.5 202.29,-324.5 229.29,-342.5 202.29,-360.5"/>
<text text-anchor="middle" x="202.29" y="-337.82" font-family="Helvetica,sans-Serif" font-size="14.00">6</text>
</g>
<!-- 5&#45;&gt;6 -->
<g id="edge11" class="edge">
<title>5:e&#45;&gt;6:n</title>
<path fill="none" stroke="blue" d="M204.1,-414.5C224.46,-414.5 209,-392.95 203.82,-371.76"/>
<polygon fill="blue" stroke="blue" points="207.31,-371.44 202.49,-362 200.37,-372.38 207.31,-371.44"/>
</g>
<!-- 7 -->
<g id="node9" class="node">
<title>7</title>
<polygon fill="none" stroke="black" points="202.29,-288.5 175.29,-270.5 202.29,-252.5 229.29,-270.5 202.29,-288.5"/>
<text text-anchor="middle" x="202.29" y="-265.82" font-family="Helvetica,sans-Serif" font-size="14.00">7</text>
</g>
<!-- 6&#45;&gt;7 -->
<g id="edge12" class="edge">
<title>6:s&#45;&gt;7:n</title>
<path fill="none" stroke="black" d="M202.29,-324.5C202.29,-313.12 202.29,-307.82 202.29,-299.95"/>
<polygon fill="black" stroke="black" points="205.79,-300.01 202.29,-290.01 198.79,-300.01 205.79,-300.01"/>
</g>
<!-- 6&#45;&gt;7 -->
<g id="edge14" class="edge">
<title>6:w&#45;&gt;7:w</title>
<path fill="none" stroke="black" d="M173.48,-342.5C145.6,-342.5 142.01,-287.87 162.7,-273.78"/>
<polygon fill="black" stroke="black" points="163.48,-277.2 172.03,-270.94 161.44,-270.5 163.48,-277.2"/>
</g>
<!-- 7&#45;&gt;b -->
<g id="edge15" class="edge">
<title>7:e&#45;&gt;b:n</title>
<path fill="none" stroke="black" d="M231.1,-270.5C251.46,-270.5 236,-248.95 230.82,-227.76"/>
<polygon fill="black" stroke="black" points="234.31,-227.44 229.49,-218 227.37,-228.38 234.31,-227.44"/>
</g>
<!-- 7&#45;&gt;6 -->
<g id="edge13" class="edge">
<title>7:s&#45;&gt;6:e</title>
<path fill="none" stroke="blue" d="M202.29,-251.18C202.29,-239.17 220.87,-243.62 229.29,-252.18 254.36,-277.68 268.06,-329.4 242.39,-340.41"/>
<polygon fill="blue" stroke="blue" points="241.79,-336.96 232.59,-342.22 243.06,-343.85 241.79,-336.96"/>
</g>
</g>
</svg>
