<?xml version="1.0" encoding="UTF-8" standalone="no"?>
<!DOCTYPE svg PUBLIC "-//W3C//DTD SVG 1.1//EN"
 "http://www.w3.org/Graphics/SVG/1.1/DTD/svg11.dtd">
<!-- Generated by graphviz version 12.2.1 (20241206.2353)
 -->
<!-- Pages: 1 -->
<svg width="368pt" height="801pt"
 viewBox="0.00 0.00 368.25 800.50" xmlns="http://www.w3.org/2000/svg" xmlns:xlink="http://www.w3.org/1999/xlink">
<g id="graph0" class="graph" transform="scale(1 1) rotate(0) translate(4 796.5)">
<polygon fill="white" stroke="none" points="-4,4 -4,-796.5 364.25,-796.5 364.25,4 -4,4"/>
<text text-anchor="middle" x="180.12" y="-163.2" font-family="Helvetica,sans-Serif" font-size="14.00">1 1 2 3 2 4 3 5 4 6 5 6 7 7 </text>
<text text-anchor="middle" x="180.12" y="-145.95" font-family="Helvetica,sans-Serif" font-size="14.00">A double occurrence word</text>
<text text-anchor="middle" x="180.12" y="-128.7" font-family="Helvetica,sans-Serif" font-size="14.00">Already in ascending order</text>
<text text-anchor="middle" x="180.12" y="-111.45" font-family="Helvetica,sans-Serif" font-size="14.00">Palindrome: yes</text>
<text text-anchor="middle" x="180.12" y="-94.2" font-family="Helvetica,sans-Serif" font-size="14.00">Semi&#45;palindrome: yes</text>
<text text-anchor="middle" x="180.12" y="-76.95" font-family="Helvetica,sans-Serif" font-size="14.00">Irreducible: no</text>
<text text-anchor="middle" x="180.12" y="-59.7" font-family="Helvetica,sans-Serif" font-size="14.00">Strongly&#45;irreducible: no</text>
<text text-anchor="middle" x="180.12" y="-42.45" font-family="Helvetica,sans-Serif" font-size="14.00">Assembly number: 1</text>
<text text-anchor="middle" x="180.12" y="-25.2" font-family="Helvetica,sans-Serif" font-size="14.00">Edges in Hamiltonion set of polygonal paths: 1 3 5 7 9 11 </text>
<text text-anchor="middle" x="180.12" y="-7.95" font-family="Helvetica,sans-Serif" font-size="14.00">Realizable</text>
<!-- a -->
<!-- 1 -->
<g id="node3" class="node">
<title>1</title>
<polygon fill="none" stroke="black" points="125.64,-720.5 98.64,-702.5 125.64,-684.5 152.64,-702.5 125.64,-720.5"/>
<text text-anchor="middle" x="125.64" y="-697.83" font-family="Helvetica,sans-Serif" font-size="14.00">1</text>
</g>
<!-- a&#45;&gt;1 -->
<g id="edge1" class="edge">
<title>a:s&#45;&gt;1:n</title>
<path fill="none" stroke="black" d="M125.64,-756.5C125.64,-745.12 125.64,-739.82 125.64,-731.95"/>
<polygon fill="black" stroke="black" points="129.14,-732.01 125.64,-722.01 122.14,-732.01 129.14,-732.01"/>
</g>
<!-- b -->
<!-- 1&#45;&gt;1 -->
<g id="edge2" class="edge">
<title>1:s&#45;&gt;1:w</title>
<path fill="none" stroke="black" d="M125.64,-684.18C110.64,-666.18 80.64,-666.18 80.64,-693.34 80.64,-713.71 87.39,-718.8 92.96,-712.48"/>
<polygon fill="black" stroke="black" points="95.92,-714.38 97.17,-703.86 89.63,-711.31 95.92,-714.38"/>
</g>
<!-- 2 -->
<g id="node4" class="node">
<title>2</title>
<polygon fill="none" stroke="black" points="152.64,-648.5 125.64,-630.5 152.64,-612.5 179.64,-630.5 152.64,-648.5"/>
<text text-anchor="middle" x="152.64" y="-625.83" font-family="Helvetica,sans-Serif" font-size="14.00">2</text>
</g>
<!-- 1&#45;&gt;2 -->
<g id="edge3" class="edge">
<title>1:e&#45;&gt;2:n</title>
<path fill="none" stroke="blue" d="M154.46,-702.5C174.81,-702.5 159.36,-680.95 154.17,-659.76"/>
<polygon fill="blue" stroke="blue" points="157.66,-659.44 152.85,-650 150.73,-660.38 157.66,-659.44"/>
</g>
<!-- 3 -->
<g id="node5" class="node">
<title>3</title>
<polygon fill="none" stroke="black" points="179.64,-576.5 152.64,-558.5 179.64,-540.5 206.64,-558.5 179.64,-576.5"/>
<text text-anchor="middle" x="179.64" y="-553.83" font-family="Helvetica,sans-Serif" font-size="14.00">3</text>
</g>
<!-- 2&#45;&gt;3 -->
<g id="edge4" class="edge">
<title>2:s&#45;&gt;3:n</title>
<path fill="none" stroke="black" d="M152.64,-612.5C152.64,-597.19 168.47,-595.94 175.89,-587.23"/>
<polygon fill="black" stroke="black" points="179.14,-588.52 179.14,-577.93 172.54,-586.21 179.14,-588.52"/>
</g>
<!-- 4 -->
<g id="node6" class="node">
<title>4</title>
<polygon fill="none" stroke="black" points="141.64,-432.5 114.64,-414.5 141.64,-396.5 168.64,-414.5 141.64,-432.5"/>
<text text-anchor="middle" x="141.64" y="-409.82" font-family="Helvetica,sans-Serif" font-size="14.00">4</text>
</g>
<!-- 2&#45;&gt;4 -->
<g id="edge6" class="edge">
<title>2:w&#45;&gt;4:n</title>
<path fill="none" stroke="black" d="M123.83,-630.5C39.27,-630.5 132.88,-530.08 141.08,-444"/>
<polygon fill="black" stroke="black" points="144.58,-444.17 141.57,-434.01 137.58,-443.83 144.58,-444.17"/>
</g>
<!-- 3&#45;&gt;2 -->
<g id="edge5" class="edge">
<title>3:s&#45;&gt;2:e</title>
<path fill="none" stroke="blue" d="M179.64,-539.18C179.64,-527.17 198.31,-531.53 206.64,-540.18 232.74,-567.26 225.16,-619.01 192.82,-628.86"/>
<polygon fill="blue" stroke="blue" points="192.35,-625.39 182.95,-630.28 193.35,-632.32 192.35,-625.39"/>
</g>
<!-- 5 -->
<g id="node7" class="node">
<title>5</title>
<polygon fill="none" stroke="black" points="207.64,-504.5 180.64,-486.5 207.64,-468.5 234.64,-486.5 207.64,-504.5"/>
<text text-anchor="middle" x="207.64" y="-481.82" font-family="Helvetica,sans-Serif" font-size="14.00">5</text>
</g>
<!-- 3&#45;&gt;5 -->
<g id="edge8" class="edge">
<title>3:e&#45;&gt;5:n</title>
<path fill="none" stroke="black" d="M208.46,-558.5C228.8,-558.5 214.07,-536.95 209.11,-515.76"/>
<polygon fill="black" stroke="black" points="212.6,-515.46 207.84,-506 205.66,-516.37 212.6,-515.46"/>
</g>
<!-- 4&#45;&gt;3 -->
<g id="edge7" class="edge">
<title>4:s&#45;&gt;3:w</title>
<path fill="none" stroke="blue" d="M141.64,-395.18C141.64,-383.17 160.31,-387.53 168.64,-396.18 179.85,-407.8 169.89,-416.41 168.64,-432.5 164.9,-480.93 156.92,-492.19 151.83,-540.5 151.61,-542.62 150.87,-544.88 150.05,-547.06"/>
<polygon fill="blue" stroke="blue" points="146.56,-547.25 150.73,-556.99 153.54,-546.77 146.56,-547.25"/>
</g>
<!-- 6 -->
<g id="node8" class="node">
<title>6</title>
<polygon fill="none" stroke="black" points="196.64,-360.5 169.64,-342.5 196.64,-324.5 223.64,-342.5 196.64,-360.5"/>
<text text-anchor="middle" x="196.64" y="-337.82" font-family="Helvetica,sans-Serif" font-size="14.00">6</text>
</g>
<!-- 4&#45;&gt;6 -->
<g id="edge10" class="edge">
<title>4:w&#45;&gt;6:n</title>
<path fill="none" stroke="black" d="M112.83,-414.5C104.82,-414.5 109.25,-403.08 113.83,-396.5 134.07,-367.42 183.12,-392.91 194.33,-371.67"/>
<polygon fill="black" stroke="black" points="197.74,-372.48 196.34,-361.98 190.88,-371.07 197.74,-372.48"/>
</g>
<!-- 5&#45;&gt;4 -->
<g id="edge9" class="edge">
<title>5:s&#45;&gt;4:e</title>
<path fill="none" stroke="blue" d="M207.64,-468.5C207.64,-449.02 193.66,-448.57 182.64,-432.5 180.34,-429.14 179.53,-425.41 178.64,-422.22"/>
<polygon fill="blue" stroke="blue" points="181.23,-419.86 171.56,-415.54 176.43,-424.95 181.23,-419.86"/>
</g>
<!-- 5&#45;&gt;6 -->
<g id="edge12" class="edge">
<title>5:e&#45;&gt;6:e</title>
<path fill="none" stroke="black" d="M236.46,-486.5C296.76,-486.5 290.7,-359.41 236.53,-344.02"/>
<polygon fill="black" stroke="black" points="237.34,-340.6 226.96,-342.71 236.39,-347.53 237.34,-340.6"/>
</g>
<!-- 6&#45;&gt;5 -->
<g id="edge11" class="edge">
<title>6:s&#45;&gt;5:w</title>
<path fill="none" stroke="blue" d="M196.64,-323.18C196.64,-311.17 215.31,-315.53 223.64,-324.18 234.85,-335.8 226.74,-344.66 223.64,-360.5 213.72,-411.34 191.16,-417.95 179.83,-468.5 179.34,-470.7 178.41,-473.08 177.51,-475.38"/>
<polygon fill="blue" stroke="blue" points="174,-475.48 178.65,-485 180.95,-474.65 174,-475.48"/>
</g>
<!-- 7 -->
<g id="node9" class="node">
<title>7</title>
<polygon fill="none" stroke="black" points="169.64,-288.5 142.64,-270.5 169.64,-252.5 196.64,-270.5 169.64,-288.5"/>
<text text-anchor="middle" x="169.64" y="-265.82" font-family="Helvetica,sans-Serif" font-size="14.00">7</text>
</g>
<!-- 6&#45;&gt;7 -->
<g id="edge13" class="edge">
<title>6:w&#45;&gt;7:n</title>
<path fill="none" stroke="blue" d="M167.83,-342.5C147.48,-342.5 162.93,-320.95 168.11,-299.76"/>
<polygon fill="blue" stroke="blue" points="171.56,-300.38 169.44,-290 164.63,-299.44 171.56,-300.38"/>
</g>
<!-- 7&#45;&gt;b -->
<g id="edge15" class="edge">
<title>7:e&#45;&gt;b:n</title>
<path fill="none" stroke="black" d="M198.46,-270.5C218.81,-270.5 203.36,-248.95 198.17,-227.76"/>
<polygon fill="black" stroke="black" points="201.66,-227.44 196.85,-218 194.73,-228.38 201.66,-227.44"/>
</g>
<!-- 7&#45;&gt;7 -->
<g id="edge14" class="edge">
<title>7:s&#45;&gt;7:w</title>
<path fill="none" stroke="black" d="M169.64,-252.18C154.64,-234.18 124.64,-234.18 124.64,-261.34 124.64,-281.71 131.39,-286.8 136.96,-280.48"/>
<polygon fill="black" stroke="black" points="139.92,-282.38 141.17,-271.86 133.63,-279.31 139.92,-282.38"/>
</g>
</g>
</svg>
